<?xml version="1.0" encoding="UTF-8" standalone="no"?>
<!-- Created with Inkscape (http://www.inkscape.org/) -->

<svg
   width="1600"
   height="2160"
   viewBox="0 0 423.33332 571.50002"
   version="1.1"
   id="svg876"
   sodipodi:docname="Basic.svg"
   inkscape:version="1.1.2 (b8e25be833, 2022-02-05)"
   xmlns:inkscape="http://www.inkscape.org/namespaces/inkscape"
   xmlns:sodipodi="http://sodipodi.sourceforge.net/DTD/sodipodi-0.dtd"
   xmlns="http://www.w3.org/2000/svg"
   xmlns:svg="http://www.w3.org/2000/svg">
  <sodipodi:namedview
     id="namedview878"
     pagecolor="#ffffff"
     bordercolor="#666666"
     borderopacity="1.0"
     inkscape:pageshadow="2"
     inkscape:pageopacity="0.0"
     inkscape:pagecheckerboard="0"
     inkscape:document-units="mm"
     showgrid="false"
     units="px"
     inkscape:zoom="0.25"
     inkscape:cx="106"
     inkscape:cy="528"
     inkscape:window-width="1920"
     inkscape:window-height="1009"
     inkscape:window-x="-8"
     inkscape:window-y="-8"
     inkscape:window-maximized="1"
     inkscape:current-layer="layer1"
     inkscape:object-paths="true"
     inkscape:snap-smooth-nodes="true"
     inkscape:snap-intersection-paths="false"
     inkscape:snap-nodes="true"
     inkscape:object-nodes="true"
     inkscape:snap-midpoints="false"
     inkscape:snap-global="true"
     showguides="true"
     inkscape:guide-bbox="true" />
  <defs
     id="defs873">
    <inkscape:path-effect
       effect="skeletal"
       id="path-effect65244"
       is_visible="true"
       lpeversion="1"
       pattern="m -228.09665,-338.88374 a 2.6458333,2.6458333 0 0 1 2.67171,-2.61964 2.6458333,2.6458333 0 0 1 2.61968,2.67163 2.6458333,2.6458333 0 0 1 -2.67155,2.61977 2.6458333,2.6458333 0 0 1 -2.61964,-2.67168 z"
       copytype="repeated_stretched"
       prop_scale="1"
       scale_y_rel="false"
       spacing="8"
       normal_offset="0"
       tang_offset="0"
       prop_units="false"
       vertical_pattern="false"
       hide_knot="false"
       fuse_tolerance="0" />
    <inkscape:path-effect
       effect="skeletal"
       id="path-effect65094"
       is_visible="true"
       lpeversion="1"
       pattern="m -416.88969,-58.906362 a 2.6458333,2.6458333 0 0 1 -0.14146,-3.739111 2.6458333,2.6458333 0 0 1 3.7391,-0.141453 2.6458333,2.6458333 0 0 1 0.14147,3.739103 2.6458333,2.6458333 0 0 1 -3.73909,0.141459 z"
       copytype="repeated_stretched"
       prop_scale="1"
       scale_y_rel="false"
       spacing="8"
       normal_offset="0"
       tang_offset="0"
       prop_units="false"
       vertical_pattern="false"
       hide_knot="false"
       fuse_tolerance="0" />
    <inkscape:path-effect
       effect="skeletal"
       id="path-effect57760"
       is_visible="true"
       lpeversion="1"
       pattern="m 204.25834,325.96667 a 2.6458333,2.6458333 0 0 1 -2.64584,2.64584 2.6458333,2.6458333 0 0 1 -2.64583,-2.64584 2.6458333,2.6458333 0 0 1 2.64583,-2.64583 2.6458333,2.6458333 0 0 1 2.64584,2.64583 z"
       copytype="repeated"
       prop_scale="1"
       scale_y_rel="false"
       spacing="4"
       normal_offset="0"
       tang_offset="0"
       prop_units="false"
       vertical_pattern="false"
       hide_knot="false"
       fuse_tolerance="0" />
    <inkscape:path-effect
       effect="skeletal"
       id="path-effect56645"
       is_visible="true"
       lpeversion="1"
       pattern="m 204.25834,325.96667 a 2.6458333,2.6458333 0 0 1 -2.64584,2.64584 2.6458333,2.6458333 0 0 1 -2.64583,-2.64584 2.6458333,2.6458333 0 0 1 2.64583,-2.64583 2.6458333,2.6458333 0 0 1 2.64584,2.64583 z"
       copytype="repeated"
       prop_scale="1"
       scale_y_rel="false"
       spacing="5"
       normal_offset="-0.1"
       tang_offset="0"
       prop_units="false"
       vertical_pattern="false"
       hide_knot="false"
       fuse_tolerance="0" />
    <inkscape:path-effect
       effect="skeletal"
       id="path-effect42293"
       is_visible="true"
       lpeversion="1"
       pattern="m 27.324925,36.179238 v 0.53152 h 13.48318 v -0.53152 z m 0.7203,1.45287 v 0.50447 9.43868 9.94213 h 12.04194 v -19.88528 z m 0.6111,1.00891 h 10.82038 v 4.61306 h -8.70177 v 1.34343 h 8.70177 v 11.91199 h -10.82038 v -4.60886 h 8.70177 v -1.34765 h -8.70177 v -2.97773 z m 0.43623,0.7244 v 4.55778 4.56195 h 8.84759 v 2.7422 2.74112 h -8.29648 -0.55111 v 1.81977 h 0.55111 9.39619 v -4.56089 -4.562 h -8.84507 v -2.74215 -2.74112 h 8.29394 0.55113 v -1.81666 h -0.55113 z m -1.76763,19.07435 v 0.53573 h 13.48318 v -0.53573 z"
       copytype="repeated_stretched"
       prop_scale="1"
       scale_y_rel="false"
       spacing="0"
       normal_offset="-4.1"
       tang_offset="0"
       prop_units="false"
       vertical_pattern="false"
       hide_knot="false"
       fuse_tolerance="0" />
    <inkscape:path-effect
       effect="skeletal"
       id="path-effect41193"
       is_visible="true"
       lpeversion="1"
       pattern="m 27.324925,36.179238 v 0.53152 h 13.48318 v -0.53152 z m 0.7203,1.45287 v 0.50447 9.43868 9.94213 h 12.04194 v -19.88528 z m 0.6111,1.00891 h 10.82038 v 4.61306 h -8.70177 v 1.34343 h 8.70177 v 11.91199 h -10.82038 v -4.60886 h 8.70177 v -1.34765 h -8.70177 v -2.97773 z m 0.43623,0.7244 v 4.55778 4.56195 h 8.84759 v 2.7422 2.74112 h -8.29648 -0.55111 v 1.81977 h 0.55111 9.39619 v -4.56089 -4.562 h -8.84507 v -2.74215 -2.74112 h 8.29394 0.55113 v -1.81666 h -0.55113 z m -1.76763,19.07435 v 0.53573 h 13.48318 v -0.53573 z"
       copytype="repeated_stretched"
       prop_scale="1"
       scale_y_rel="false"
       spacing="0"
       normal_offset="-4.1"
       tang_offset="0"
       prop_units="false"
       vertical_pattern="false"
       hide_knot="false"
       fuse_tolerance="0" />
    <inkscape:path-effect
       effect="skeletal"
       id="path-effect34402"
       is_visible="true"
       lpeversion="1"
       pattern="m 521.19922,658.75977 c 0,0 -3.59623,3.52077 -8.95117,10.20898 l -40.0293,10.94727 0.26563,0.96679 38.73046,-10.59765 c -5.18849,6.59969 -11.78807,15.90712 -18.36914,27.72461 l -38.30664,15.36132 0.36914,0.92969 37.18946,-14.91016 c -4.98754,9.10557 -9.91555,19.60022 -14.14454,31.42383 l -34.59765,22.86914 0.54687,0.83399 33.49414,-22.14453 c -3.58503,10.2726 -6.62001,21.51084 -8.71289,33.62695 l -31.24804,27.21289 0.6582,0.75391 30.31641,-26.40235 c -1.8765,11.38182 -2.90702,23.53186 -2.75977,36.38867 l -29.05664,29.06446 0.70898,0.70117 28.37891,-28.37891 c 0.19654,10.93558 1.24191,22.37263 3.35156,34.28321 l -24.21484,33.32226 0.80469,0.58399 23.66211,-32.55274 c 0.19275,1.05124 0.37647,2.09971 0.58593,3.15821 2.19436,11.09453 4.94502,21.40167 8.125,30.99804 l -19.20507,36.4043 0.88671,0.4668 18.75977,-35.5625 c 3.92459,11.61717 8.48421,22.17315 13.48438,31.75195 l -12.54102,39.25 0.95117,0.30273 12.24609,-38.31836 c 6.04381,11.39154 12.69664,21.39637 19.61329,30.17969 l -6.53125,40.46485 0.98828,0.16211 6.38476,-39.55469 c 6.10897,7.64795 12.40761,14.35682 18.6543,20.24219 1.81799,1.7128 3.62831,3.33762 5.43164,4.91406 l -1.76953,40.92776 0.99609,0.039 1.74219,-40.13864 c 9.66932,8.34263 18.99495,14.78169 27.07422,19.75196 l 5.32422,40.69338 0.99023,-0.127 -5.21679,-39.88474 c 0.0669,0.0404 0.13818,0.0865 0.20507,0.12695 10.10926,6.12986 18.1155,9.94164 22.02735,12.3125 l 0.52343,-0.84766 c -4.02107,-2.43707 -11.96891,-6.21855 -22.03515,-12.32226 -0.008,-0.004 -0.0157,-0.008 -0.0195,-0.0117 l 42.19336,-5.51563 -0.13086,-0.99023 -43.39844,5.67578 c -7.99461,-4.92174 -17.20338,-11.28486 -26.75391,-19.51172 l 42.63477,1.77344 c -0.5324,-0.32735 -1.05155,-0.66987 -1.58008,-1.00195 l -42.2832,-1.82422 c -1.74871,-1.53166 -3.5032,-3.10907 -5.26563,-4.76953 -6.23236,-5.87192 -12.51691,-12.56691 -18.61133,-20.20118 l 39.19727,6.32813 c -0.45416,-0.41249 -0.91536,-0.81784 -1.36523,-1.23438 l -38.75,-6.25976 c -6.81634,-8.67273 -13.37429,-18.5396 -19.33789,-29.76563 l 35.74609,11.42383 c -0.3471,-0.45589 -0.68246,-0.92004 -1.02539,-1.3789 l -35.39063,-11.30664 c -4.97612,-9.52479 -9.51473,-20.02367 -13.42382,-31.58204 l 32.60156,17.19532 c -0.271,-0.51571 -0.5364,-1.03454 -0.80274,-1.55274 l -32.26367,-17.01758 c -3.16864,-9.56167 -5.9098,-19.83666 -8.09765,-30.89843 -0.19881,-1.00593 -0.37266,-2.00062 -0.55664,-3 l 28.50195,20.71289 c -0.16831,-0.535 -0.34412,-1.06682 -0.50781,-1.60352 l -28.25977,-20.53516 c -2.10898,-11.88559 -3.1566,-23.2984 -3.35352,-34.20703 l 25.08204,25.07422 c -0.0753,-0.54309 -0.14809,-1.08668 -0.21875,-1.63086 l -24.89258,-24.89062 c -0.14325,-12.78376 0.8804,-24.86416 2.74609,-36.17969 l 20.93945,24.03906 c 0.0304,-0.46926 0.0677,-0.93746 0.10157,-1.40625 l -20.82032,-23.90039 c 2.09133,-12.20972 5.14798,-23.52312 8.75977,-33.85351 l 17.08008,25.83593 c 0.10716,-0.43725 0.22378,-0.87217 0.33398,-1.30859 l -16.99218,-25.70508 c 4.25816,-11.9534 9.23685,-22.54767 14.27148,-31.71484 l 11.95898,29.82617 c 0.18359,-0.43572 0.36983,-0.87029 0.55664,-1.30469 l -11.89257,-29.67187 c 6.5972,-11.84716 13.21277,-21.15814 18.39257,-27.73047 l 8.14454,29.77344 c 0.2404,-0.37595 0.48735,-0.74864 0.73046,-1.12305 l -8.10546,-29.62891 c 5.40298,-6.7624 9.04687,-10.33203 9.04687,-10.33203 z"
       copytype="repeated_stretched"
       prop_scale="1.43"
       scale_y_rel="false"
       spacing="2.5"
       normal_offset="1.7"
       tang_offset="2.3"
       prop_units="false"
       vertical_pattern="false"
       hide_knot="false"
       fuse_tolerance="0" />
  </defs>
  <g
     inkscape:label="Layer 1"
     inkscape:groupmode="layer"
     id="layer1">
    <g
       id="g6395"
       transform="translate(2.0460413e-4,-1.9639635e-4)">
      <path
         id="path5850"
         style="display:inline;fill:#000000;stroke:none;stroke-width:0.999999px;stroke-linecap:butt;stroke-linejoin:miter;stroke-opacity:1"
         d="M 745.66602,612.34375 C 634.63158,614.78 426.86149,668.14305 262.49023,804.38281 v 279.39649 l 1.55665,315.2129 c 83.64839,68.5771 176.64089,120.0236 277.95117,156.2207 h 312.33593 c 111.03444,-2.4363 318.80252,-55.7974 483.17382,-192.0371 v -279.3965 l -1.5566,-315.21289 c -83.6484,-68.57715 -176.639,-120.0256 -277.9492,-156.22266 z"
         transform="scale(0.26458333)" />
      <path
         id="path2622"
         style="fill:#ffcc00;fill-opacity:1;stroke:none;stroke-width:6.5252;stroke-linecap:square"
         d="m 280.13086,790.52539 c -5.89263,4.59557 -11.8496,9.05751 -17.64063,13.85742 v 107.75977 a 271.6842,266.69554 0 0 1 63.75586,171.63472 271.6842,266.69554 0 0 1 -62.91406,170.6231 l 0.66406,134.1934 A 374.57343,367.69553 0 0 0 429.13477,1083.7773 374.57343,367.69553 0 0 0 280.13086,790.52539 Z"
         transform="scale(0.26458333)" />
      <path
         id="path42203"
         style="color:#000000;fill:#ffcc00;stroke:none;stroke-width:2;stroke-linecap:round;-inkscape-stroke:none"
         d="m 172.84319,164.81681 c -1.5101,0.28533 -3.04143,0.59108 -4.5992,0.92243 10.64265,32.30008 17.04102,66.07302 18.86965,100.4967 h -16.50597 c -1.73449,-33.07156 -7.62021,-65.55923 -17.40772,-96.73776 -1.47788,0.42231 -2.96726,0.86298 -4.46898,1.32395 10.02899,31.9142 15.9499,65.21207 17.42426,99.1097 l 0.0413,0.95655 h 2.12597 1.48622 18.51359 1.39837 2.30012 l -0.0455,-1.04336 c -1.55456,-35.98249 -8.07171,-71.29428 -19.13217,-105.02821 z" />
      <path
         id="path42205"
         style="color:#000000;fill:#ffcc00;stroke:none;stroke-width:2;stroke-linecap:round;-inkscape-stroke:none"
         d="m 250.08861,162.01595 c -11.45439,34.09243 -18.35331,70.27373 -19.95021,107.8301 l -0.0444,1.04233 h 2.15181 1.54564 18.51205 1.34049 2.27169 l 0.0408,-0.95705 c 1.57683,-36.84672 9.6804,-74.4439 20.85712,-107.91538 h -4.88291 c -10.71745,32.44699 -18.59118,68.7219 -20.42614,104.21999 h -16.50597 c 1.89098,-36.17216 8.71873,-71.03043 19.87269,-103.89857 l 0.10904,-0.32142 z" />
      <path
         id="path42211"
         style="fill:#ffcc00;fill-opacity:1;stroke:none;stroke-width:3.29999;stroke-linecap:round;stroke-linejoin:miter;stroke-miterlimit:4;stroke-dasharray:none"
         d="m 211.66692,209.59289 a 4.4124456,5.5807943 0 0 0 -4.41265,5.58054 4.4124456,5.5807943 0 0 0 0.18397,1.59163 5.5807943,4.4124456 0 0 0 -1.59215,-0.18294 5.5807943,4.4124456 0 0 0 -5.58105,4.41214 5.5807943,4.4124456 0 0 0 5.58105,4.41265 5.5807943,4.4124456 0 0 0 1.59215,-0.18397 4.4124456,5.5807943 0 0 0 -0.18397,1.59215 4.4124456,5.5807943 0 0 0 4.41265,5.58106 4.4124456,5.5807943 0 0 0 4.41265,-5.58106 4.4124456,5.5807943 0 0 0 -0.18345,-1.59215 5.5807943,4.4124456 0 0 0 1.59164,0.18397 5.5807943,4.4124456 0 0 0 5.58054,-4.41265 5.5807943,4.4124456 0 0 0 -5.58054,-4.41214 5.5807943,4.4124456 0 0 0 -1.59215,0.18397 4.4124456,5.5807943 0 0 0 0.18396,-1.59266 4.4124456,5.5807943 0 0 0 -4.41265,-5.58054 z m 0,8.30337 a 3.0980528,3.0980528 0 0 1 3.09801,3.098 3.0980528,3.0980528 0 0 1 -3.09801,3.098 3.0980528,3.0980528 0 0 1 -3.098,-3.098 3.0980528,3.0980528 0 0 1 3.098,-3.098 z m -5.2e-4,0.68833 a 2.4097194,2.4097194 0 0 0 -2.40968,2.41019 2.4097194,2.4097194 0 0 0 2.40968,2.40967 2.4097194,2.4097194 0 0 0 2.41019,-2.40967 2.4097194,2.4097194 0 0 0 -2.41019,-2.41019 z" />
      <path
         id="path42213"
         style="color:#000000;fill:#d40000;fill-opacity:1;stroke:none;stroke-width:1;stroke-linecap:round;stroke-linejoin:round;-inkscape-stroke:none"
         d="m 239.85409,162.01595 c -3.59571,10.33432 -5.94447,21.2533 -6.68383,32.62488 h -43.09298 c -0.71397,-10.98155 -2.93735,-21.53706 -6.32622,-31.55569 -0.50701,0.0642 -1.01035,0.12574 -1.52549,0.19585 3.54752,10.42396 5.73071,21.47608 6.34431,32.94734 h 46.10933 c 0.63784,-11.93646 2.97399,-23.41934 6.77995,-34.21238 z" />
      <path
         style="fill:#ffcc00;fill-opacity:1;stroke:none;stroke-width:0.264583px;stroke-linecap:butt;stroke-linejoin:miter;stroke-opacity:1"
         d="m 205.66971,199.7686 c -1.7e-4,-0.85865 -5.16444,-1.21864 -7.18054,-0.41988 -1.14235,0.45259 -2.48315,1.13003 -2.48315,2.48315 0,1.35312 1.31268,2.48315 2.48315,2.48315 1.17047,0 1.94379,-1.43938 2.48274,-1.93508 2.04722,-1.88292 4.69796,-1.78574 4.6978,-2.61134 z"
         id="path42215"
         sodipodi:nodetypes="sszzss" />
      <path
         style="fill:#ffcc00;fill-opacity:1;stroke:none;stroke-width:0.264583px;stroke-linecap:butt;stroke-linejoin:miter;stroke-opacity:1"
         d="m 209.02083,199.91377 c -0.42948,-0.74352 -5.08186,1.52685 -6.42847,3.22665 -0.76301,0.96313 -1.58546,2.22021 -0.9089,3.39204 0.67656,1.17184 2.37839,1.49414 3.39205,0.9089 1.01365,-0.58523 0.96368,-2.21843 1.18257,-2.9172 0.83149,-2.65426 3.17569,-3.89547 2.76275,-4.61039 z"
         id="path42217"
         sodipodi:nodetypes="sszzss" />
      <path
         style="fill:#ffcc00;fill-opacity:1;stroke:none;stroke-width:0.264583px;stroke-linecap:butt;stroke-linejoin:miter;stroke-opacity:1"
         d="m 217.66362,199.7686 c 1.7e-4,-0.85865 5.16444,-1.21864 7.18054,-0.41988 1.14235,0.45259 2.48315,1.13003 2.48315,2.48315 0,1.35312 -1.31268,2.48315 -2.48315,2.48315 -1.17047,0 -1.94379,-1.43938 -2.48274,-1.93508 -2.04722,-1.88292 -4.69796,-1.78574 -4.6978,-2.61134 z"
         id="path42221"
         sodipodi:nodetypes="sszzss" />
      <path
         style="fill:#ffcc00;fill-opacity:1;stroke:none;stroke-width:0.264583px;stroke-linecap:butt;stroke-linejoin:miter;stroke-opacity:1"
         d="m 214.3125,199.91377 c 0.42948,-0.74352 5.08186,1.52685 6.42847,3.22665 0.76301,0.96313 1.58546,2.22021 0.9089,3.39204 -0.67656,1.17184 -2.37839,1.49414 -3.39205,0.9089 -1.01365,-0.58523 -0.96368,-2.21843 -1.18257,-2.9172 -0.83149,-2.65426 -3.17569,-3.89547 -2.76275,-4.61039 z"
         id="path42223"
         sodipodi:nodetypes="sszzss" />
      <path
         id="path42229"
         style="fill:#ffcc00;fill-opacity:1;stroke:none;stroke-width:1.5875;stroke-linecap:round"
         d="m 188.05054,163.28357 a 2.2636759,1.3143924 67.244776 0 0 -0.26511,0.06 2.2636759,1.3143924 67.244776 0 0 -0.33641,2.5957 2.2636759,1.3143924 67.244776 0 0 2.08773,1.57923 2.2636759,1.3143924 67.244776 0 0 0.33641,-2.5957 2.2636759,1.3143924 67.244776 0 0 -1.82262,-1.63918 z m 47.13769,0 a 1.3143924,2.2636759 22.755224 0 0 -1.72806,1.63918 1.3143924,2.2636759 22.755224 0 0 0.33641,2.5957 1.3143924,2.2636759 22.755224 0 0 2.08773,-1.57923 1.3143924,2.2636759 22.755224 0 0 -0.33642,-2.5957 1.3143924,2.2636759 22.755224 0 0 -0.35966,-0.06 z m -44.56938,7.59695 a 2.2636759,1.3143924 75.744845 0 0 -0.17828,0.0238 2.2636759,1.3143924 75.744845 0 0 -0.71675,2.51768 2.2636759,1.3143924 75.744845 0 0 1.83141,1.87017 2.2636759,1.3143924 75.744845 0 0 0.71624,-2.51768 2.2636759,1.3143924 75.744845 0 0 -1.65262,-1.89394 z m 42.09562,0 a 1.3143924,2.2636759 14.255155 0 0 -1.65261,1.89394 1.3143924,2.2636759 14.255155 0 0 0.71624,2.51768 1.3143924,2.2636759 14.255155 0 0 1.83141,-1.87017 1.3143924,2.2636759 14.255155 0 0 -0.71675,-2.51768 1.3143924,2.2636759 14.255155 0 0 -0.17829,-0.0238 z m -40.35257,8.15971 a 2.2636759,1.3143924 79.251082 0 0 -0.17984,0.0124 2.2636759,1.3143924 79.251082 0 0 -0.86919,2.4691 2.2636759,1.3143924 79.251082 0 0 1.71359,1.97869 2.2636759,1.3143924 79.251082 0 0 0.86919,-2.4691 2.2636759,1.3143924 79.251082 0 0 -1.53375,-1.99109 z m 38.60953,0 a 1.3143924,2.2636759 10.748918 0 0 -1.53376,1.99109 1.3143924,2.2636759 10.748918 0 0 0.8692,2.4691 1.3143924,2.2636759 10.748918 0 0 1.71359,-1.97868 1.3143924,2.2636759 10.748918 0 0 -0.8692,-2.4691 1.3143924,2.2636759 10.748918 0 0 -0.17983,-0.0124 z m -37.59926,8.37055 a 2.2636759,1.3143924 89.105179 0 0 -1.27899,2.2841 2.2636759,1.3143924 89.105179 0 0 1.34979,2.24275 2.2636759,1.3143924 89.105179 0 0 1.27899,-2.28409 2.2636759,1.3143924 89.105179 0 0 -1.34979,-2.24276 z m 36.58898,0 a 1.3143924,2.2636759 0.89482112 0 0 -1.34978,2.24276 1.3143924,2.2636759 0.89482112 0 0 1.27899,2.28409 1.3143924,2.2636759 0.89482112 0 0 1.34979,-2.24275 1.3143924,2.2636759 0.89482112 0 0 -1.279,-2.2841 z m -27.81949,1.88051 a 2.3235397,1.445758 0 0 0 -2.32337,1.44539 2.3235397,1.445758 0 0 0 2.32337,1.4459 2.3235397,1.445758 0 0 0 2.32338,-1.4459 2.3235397,1.445758 0 0 0 -2.32338,-1.44539 z m 9.525,0 a 2.3235397,1.445758 0 0 0 -2.32337,1.44539 2.3235397,1.445758 0 0 0 2.32337,1.4459 2.3235397,1.445758 0 0 0 2.32338,-1.4459 2.3235397,1.445758 0 0 0 -2.32338,-1.44539 z m 9.525,0 a 2.3235397,1.445758 0 0 0 -2.32337,1.44539 2.3235397,1.445758 0 0 0 2.32337,1.4459 2.3235397,1.445758 0 0 0 2.32338,-1.4459 2.3235397,1.445758 0 0 0 -2.32338,-1.44539 z" />
      <path
         id="path42251"
         style="color:#000000;fill:#d40000;fill-opacity:1;stroke:none;stroke-width:0.754142;stroke-linecap:round;stroke-linejoin:round;-inkscape-stroke:none"
         d="m 193.58121,162.01595 c 1.55707,7.75163 2.53728,15.84561 2.85305,24.19232 h 0.0532 29.77441 0.0532 c 0.31576,-8.34671 1.2956,-16.44069 2.85253,-24.19232 h -1.59215 c -1.46642,7.31432 -2.4399,14.91881 -2.80086,22.76863 h -26.80043 c -0.36096,-7.84982 -1.33444,-15.45431 -2.80086,-22.76863 z" />
      <path
         id="path42253"
         style="color:#000000;fill:#ffcc00;fill-opacity:1;stroke:none;stroke-width:1;-inkscape-stroke:none"
         d="m 211.38684,169.98445 c -2.00502,0 -1.29291,5.60543 -0.85215,8.21914 -1.14993,-1.16359 -5.0534,-7.36073 -6.8001,-5.63325 -1.82497,1.80489 5.76192,5.76193 5.76192,5.76193 0,0 -0.91984,0.21692 -0.91984,0.88521 0,0.66829 1.47579,1.00511 2.81017,1.00511 1.33438,0 2.81016,-0.33682 2.81016,-1.00511 0,-0.66828 -0.91984,-0.88521 -0.91984,-0.88521 0,0 7.58689,-3.95703 5.76192,-5.76193 -0.21386,-0.21151 -0.46009,-0.30419 -0.72967,-0.30179 -1.93361,0.0172 -5.06327,4.91601 -6.06991,5.93194 0.4408,-2.61503 1.15156,-8.21604 -0.85266,-8.21604 z" />
      <path
         style="fill:#ffcc00;fill-opacity:1;stroke:none;stroke-width:0.239533px;stroke-linecap:butt;stroke-linejoin:miter;stroke-opacity:1"
         d="m 197.84537,254.80603 c -0.32278,5.71466 -0.0815,-5.03907 -2.49905,-14.08472 -0.79237,-2.96479 -2.7044,-8.53457 -2.43917,-11.07042 0.26087,-2.49414 1.94176,-4.43464 3.83777,0.0299 1.96158,4.61897 1.75314,13.57013 1.10045,25.12523 z"
         id="path42255"
         sodipodi:nodetypes="sssss" />
      <path
         style="fill:#ffcc00;fill-opacity:1;stroke:none;stroke-width:0.239533px;stroke-linecap:butt;stroke-linejoin:miter;stroke-opacity:1"
         d="m 225.48848,254.80603 c 0.32278,5.71466 0.0815,-5.03907 2.49905,-14.08472 0.79237,-2.96479 2.7044,-8.53457 2.43917,-11.07042 -0.26087,-2.49414 -1.94176,-4.43464 -3.83777,0.0299 -1.96158,4.61897 -1.75314,13.57013 -1.10045,25.12523 z"
         id="path42257"
         sodipodi:nodetypes="sssss" />
      <path
         id="path42259"
         style="fill:#d40000;fill-opacity:1;stroke:none;stroke-width:0.774278px;stroke-linecap:butt;stroke-linejoin:miter;stroke-opacity:1"
         d="m 701.68164,1051.2812 v 32.4961 h -0.002 l 0.004,32.4981 h 53.32618 c -4.68771,-10.3195 -7.69309,-21.059 -7.71289,-32.4961 h 0.002 c 0.0151,-12.1427 2.57298,-22.7737 6.64062,-32.4981 z m 143.30664,0 c 4.68771,10.3196 7.69504,21.059 7.71484,32.4961 h -0.002 c -0.0151,12.1428 -2.57494,22.7738 -6.64258,32.4981 h 52.25977 v -32.4961 0 l -0.002,-32.4961 z"
         transform="scale(0.26458333)" />
      <path
         id="path42261"
         style="fill:#ffcc00;fill-opacity:1;stroke:none;stroke-width:1.2058px;stroke-linecap:butt;stroke-linejoin:miter;stroke-opacity:1"
         d="m 800,980.98438 c -18.01215,33.60742 -52.5851,57.90622 -52.70117,102.68162 h -0.006 c 0,0.075 0.004,0.1496 0.004,0.2246 0.13207,38.665 34.25088,69.4002 52.70117,102.6817 18.01217,-33.6075 52.58715,-57.9061 52.70312,-102.6817 h 0.004 c 0,-0.062 -0.002,-0.1235 -0.002,-0.1855 -3e-5,-0.013 5e-5,-0.026 0,-0.039 C 852.57106,1045.001 818.45029,1014.2658 800,980.98438 Z m 0,26.42772 c 13.70022,24.7131 39.04653,47.536 39.11328,76.2539 h -2.62109 C 836.36001,1056.9259 812.7644,1035.6599 800,1012.6348 c -12.46273,23.2532 -36.37425,40.0718 -36.49023,71.0312 h -0.006 -2.61524 c 0.0586,-33.2616 25.73752,-51.3008 39.11133,-76.2539 z m -39.11328,76.3652 h 2.61914 c 0,7e-4 0,0 0,0 h -2.61914 c 0,-7e-4 0,0 0,0 z m 75.60742,0 h 2.61719 c 0,7e-4 0,0 0,0 h -2.61719 c 0,-7e-4 0,0 0,0 z m -75.60742,0.1133 h 2.61914 0.002 c 0.13218,26.7402 23.72583,48.0062 36.49024,71.0313 12.46275,-23.2533 36.37432,-40.0718 36.49023,-71.0313 h 0.008 2.61329 c -0.0585,33.2618 -25.73751,51.3008 -39.11133,76.2539 -13.70022,-24.7131 -39.04458,-47.5359 -39.11133,-76.2539 z"
         transform="scale(0.26458333)" />
      <path
         style="color:#000000;fill:#d40000;fill-opacity:1;stroke:none;-inkscape-stroke:none"
         d="m 211.66632,240.01367 -0.24024,0.90039 c -2.00803,7.49408 -5.21346,13.96823 -7.92187,19.07227 -1.35421,2.55202 -2.58497,4.76181 -3.48047,6.59179 -0.89551,1.82999 -1.4668,3.26885 -1.4668,4.35938 h 0.5 c 0,-0.90631 0.53016,-2.33035 1.41602,-4.14063 0.88586,-1.81027 2.11571,-4.01899 3.47265,-6.57617 2.62601,-4.94875 5.68887,-11.25343 7.72071,-18.49609 2.04743,7.30085 5.1121,13.58406 7.73437,18.50586 1.3548,2.54284 2.58183,4.73834 3.46484,6.54297 0.88301,1.80462 1.41211,3.22994 1.41211,4.16406 h 0.5 c 0,-1.1131 -0.56992,-2.5598 -1.46289,-4.38477 -0.89296,-1.82497 -2.12062,-4.01898 -3.47265,-6.55664 -2.70407,-5.07532 -5.90828,-11.52346 -7.9336,-19.08203 z"
         id="path42263" />
      <path
         id="path42267"
         style="fill:#ffcc00;fill-opacity:1;stroke:none;stroke-width:0.543761;stroke-linecap:round;stroke-linejoin:miter;stroke-miterlimit:4;stroke-dasharray:none"
         d="m 130.5419,177.19642 c -5.47751,2.16495 -11.02172,4.59059 -16.57418,7.27655 -4.38113,8.7404 -6.68773,18.40931 -6.69262,28.24996 0.0166,25.41455 15.27507,48.33975 38.7134,58.16545 -1.37587,-31.63168 -6.62041,-63.66832 -15.4466,-93.69196 z" />
      <path
         id="path42269"
         style="fill:#000000;fill-opacity:1;stroke:none;stroke-width:0.543761;stroke-linecap:round;stroke-linejoin:miter;stroke-miterlimit:4;stroke-dasharray:none"
         d="m 126.05949,179.01853 c -0.0825,0.0345 -0.16451,0.0662 -0.24702,0.10077 l 1.70636,6.23734 c 0.0636,-0.0995 0.12895,-0.19808 0.19327,-0.29714 z m -2.66857,1.14256 c -0.15077,0.0651 -0.30135,0.12981 -0.45217,0.19534 -0.85458,1.25899 -1.75991,2.70015 -2.66496,4.32532 l -7.83208,3.14089 a 63.114512,63.114512 0 0 0 -0.15089,0.34572 l 7.78505,-3.12126 c -1.31962,2.40918 -2.62348,5.18589 -3.7424,8.31422 l -7.35356,4.86069 a 63.114512,63.114512 0 0 0 -0.10284,0.38395 l 7.30912,-4.83226 c -0.94854,2.71796 -1.75155,5.69141 -2.30529,8.89713 l -6.43991,5.60793 a 63.114512,63.114512 0 0 0 -0.0135,0.36328 l 6.38101,-5.55728 c -0.49649,3.01144 -0.76915,6.22614 -0.73019,9.62783 l -5.53092,5.53248 a 63.114512,63.114512 0 0 0 0.0377,0.3359 l 5.50147,-5.50147 c 0.052,2.89337 0.32859,5.91942 0.88677,9.07076 l -4.63383,6.37636 a 63.114512,63.114512 0 0 0 0.0868,0.32918 l 4.61367,-6.34742 c 0.051,0.27814 0.0996,0.55555 0.15503,0.83561 0.58059,2.93543 1.30837,5.66252 2.14974,8.20156 l -3.58221,6.79029 a 63.114512,63.114512 0 0 0 0.13436,0.31367 l 3.56464,-6.75772 c 1.03838,3.07371 2.24478,5.86664 3.56774,8.40103 l -2.29288,7.17631 a 63.114512,63.114512 0 0 0 0.18603,0.28525 l 2.28048,-7.13496 c 1.59909,3.01401 3.35932,5.66112 5.18935,7.98504 l -1.14515,7.09518 a 63.114512,63.114512 0 0 0 0.22996,0.23719 l 1.13791,-7.04867 c 1.61635,2.02352 3.28285,3.79858 4.93562,5.35575 0.48101,0.45317 0.95999,0.88308 1.43712,1.30018 l -0.30024,6.94169 a 63.114512,63.114512 0 0 0 0.25632,0.19637 l 0.30024,-6.91895 c 2.55834,2.20732 5.02574,3.91097 7.16338,5.22604 l 0.93586,7.15149 a 63.114512,63.114512 0 0 0 0.28733,0.15968 l -0.93276,-7.13082 c 0.0177,0.0107 0.0366,0.0229 0.0543,0.0336 2.67474,1.62186 4.79304,2.6304 5.82806,3.25769 l 0.0682,-0.11007 c -0.003,-0.0527 -0.007,-0.10543 -0.0104,-0.15813 -1.08077,-0.64583 -3.13249,-1.62951 -5.74952,-3.21634 -0.002,-10e-4 -0.004,-0.002 -0.005,-0.003 l 5.49527,-0.7183 c -0.006,-0.0879 -0.0128,-0.17568 -0.0191,-0.26355 l -5.82961,0.76222 c -2.11524,-1.30221 -4.55173,-2.98578 -7.07864,-5.16247 l 11.28045,0.46922 c -0.14087,-0.0866 -0.27823,-0.17723 -0.41807,-0.2651 l -11.18743,-0.48266 c -0.46267,-0.40525 -0.92688,-0.8226 -1.39319,-1.26193 -1.64898,-1.55362 -3.31177,-3.325 -4.92425,-5.3449 l 10.37094,1.67432 c -0.12016,-0.10914 -0.24219,-0.21639 -0.36121,-0.3266 l -10.25261,-1.65623 c -1.80349,-2.29466 -3.53861,-4.90527 -5.11648,-7.87549 l 9.45782,3.02256 c -0.0918,-0.12062 -0.18057,-0.24344 -0.2713,-0.36483 l -9.36377,-2.99155 c -1.3166,-2.5201 -2.51744,-5.29793 -3.55172,-8.35608 l 8.62584,4.54959 c -0.0717,-0.13646 -0.14193,-0.27372 -0.21239,-0.41083 l -8.53643,-4.50257 c -0.83837,-2.52986 -1.56363,-5.24845 -2.1425,-8.17521 -0.0526,-0.26615 -0.0986,-0.52933 -0.14728,-0.79375 l 7.54114,5.48028 c -0.0445,-0.14155 -0.0911,-0.28225 -0.13436,-0.42426 l -7.47706,-5.43326 c -0.558,-3.14472 -0.83518,-6.16436 -0.88728,-9.05061 l 6.63628,6.63422 c -0.0199,-0.14369 -0.0392,-0.28752 -0.0579,-0.4315 l -6.58617,-6.58564 c -0.0379,-3.38237 0.23294,-6.57864 0.72657,-9.57255 l 5.54024,6.36034 c 0.008,-0.12415 0.0179,-0.24803 0.0269,-0.37207 l -5.50871,-6.32365 c 0.55333,-3.23048 1.36207,-6.22383 2.31769,-8.95707 l 4.5191,6.83576 c 0.0284,-0.11569 0.0592,-0.23077 0.0884,-0.34623 l -4.49585,-6.80114 c 1.12664,-3.16267 2.44392,-5.96574 3.77599,-8.39122 l 3.16415,7.89151 c 0.0486,-0.11528 0.0978,-0.23026 0.14728,-0.3452 l -3.14658,-7.85068 c 0.98682,-1.77212 1.97296,-3.32153 2.89337,-4.65502 z" />
      <path
         id="path42273"
         style="color:#000000;fill:#ffffff;fill-opacity:1;stroke:none;stroke-width:1;stroke-linecap:round;stroke-linejoin:round;-inkscape-stroke:none"
         d="m 134.92613,175.51487 c -1.4559,0.54332 -2.91694,1.10161 -4.38423,1.68155 8.82614,30.02348 14.07069,62.05995 15.4466,93.69143 l 0.27027,27.67171 4.36459,1.41438 A 365.35296,365.35296 0 0 0 151.244,283.38941 365.35296,365.35296 0 0 0 134.92613,175.51487 Z" />
      <path
         id="path42275"
         style="fill:#ffffff;fill-opacity:1;stroke:none;stroke-width:0.438425;stroke-linecap:round;stroke-linejoin:miter;stroke-miterlimit:4;stroke-dasharray:none"
         d="m 131.38056,180.09236 c -7.66306,9.14763 -11.86764,20.69737 -11.87886,32.63057 0.003,18.25204 9.78081,35.10459 25.62479,44.16578 -2.059,-26.01144 -6.69224,-52.05546 -13.74593,-76.79635 z"
         sodipodi:nodetypes="cccc" />
      <path
         id="path42277"
         style="fill:#2a7fff;fill-opacity:1;stroke:none;stroke-width:0.347004;stroke-linecap:round;stroke-linejoin:miter;stroke-miterlimit:4;stroke-dasharray:none"
         d="m 134.9638,193.6166 c -3.17457,5.86867 -4.84145,12.43407 -4.85086,19.10633 0.01,11.55999 4.98602,22.55853 13.66273,30.19712 -1.90593,-16.63634 -4.85784,-33.18723 -8.81187,-49.30345 z"
         sodipodi:nodetypes="cccc" />
      <path
         id="path42279"
         style="color:#000000;fill:#2a7fff;fill-opacity:1;stroke:none;stroke-width:1;-inkscape-stroke:none"
         d="m 125.31478,189.10318 -0.12144,0.23358 9.43922,4.91495 c 0.0403,-0.0778 0.0811,-0.15547 0.12195,-0.23306 z m 9.787,5.09633 c 0.0274,0.11254 0.0528,0.22591 0.0801,0.33848 l 0.0103,0.005 c -0.0275,-0.11343 -0.0556,-0.22664 -0.0832,-0.34003 z m -14.3645,7.37423 -0.0568,0.25838 10.37249,2.30064 c 0.0189,-0.0862 0.0399,-0.17185 0.0594,-0.25787 z m 9.41338,12.7677 -10.60659,0.46198 0.0119,0.26562 10.60556,-0.46199 c -0.004,-0.0885 -0.007,-0.17706 -0.0109,-0.26561 z m 1.79782,10.35802 -10.13323,3.1936 0.0796,0.2527 10.13375,-3.19412 c -0.0269,-0.084 -0.0538,-0.16797 -0.0801,-0.25218 z m 4.41679,9.5374 -8.96793,5.7118 0.14108,0.22273 8.96896,-5.71232 c -0.0475,-0.074 -0.0951,-0.14794 -0.14211,-0.22221 z m 7.26881,7.48275 -0.005,0.005 c 0.0135,0.11477 0.0285,0.22939 0.0419,0.34416 l 0.004,-0.004 c -0.0134,-0.11525 -0.0273,-0.23047 -0.0408,-0.34572 z m -0.53744,0.58601 -7.18819,7.84293 0.19482,0.17725 7.18871,-7.84345 c -0.0649,-0.059 -0.13084,-0.11729 -0.19534,-0.17673 z"
         sodipodi:nodetypes="ccccccccccccccccccccccccccccccccccccccccc" />
      <path
         id="circle42289"
         style="fill:#000000;fill-opacity:1;stroke:none;stroke-width:2.08998;stroke-linecap:round;stroke-linejoin:round;stroke-miterlimit:4;stroke-dasharray:none"
         d="m 272.45312,796.55664 c -0.53829,0.43103 -1.0856,0.84264 -1.62304,1.27539 7.04794,5.43839 13.91681,11.10582 20.56836,17.01758 15.08699,13.40901 29.11768,27.99875 41.92578,43.60351 12.80809,15.60477 24.39315,32.22338 34.58984,49.69141 10.1967,17.46803 19.00501,35.78443 26.25782,54.7832 7.2528,18.99878 12.94937,38.67987 16.92578,58.87697 3.97636,20.197 6.23212,40.9099 6.59961,61.9726 h 2.00781 c -0.3806,-21.1945 -2.65396,-42.0317 -6.65625,-62.3476 -4.00226,-20.316 -9.73194,-40.10999 -17.02344,-59.21486 -7.2915,-19.10487 -16.14434,-37.52076 -26.39258,-55.08203 -10.24824,-17.56123 -21.89315,-34.26797 -34.76562,-49.95312 -12.87247,-15.68519 -26.97253,-30.34959 -42.13672,-43.82617 -6.56078,-5.83064 -13.33217,-11.42425 -20.27735,-16.79688 z M 268,800.05469 c -1.01371,0.82428 -2.05978,1.58161 -3.07031,2.41211 5.86848,4.486 11.62025,9.12442 17.21484,13.94531 l -11.36133,13.14648 c -2.72675,-2.35181 -5.49775,-4.65027 -8.29297,-6.91992 v 6.55274 c 1.67006,1.38883 3.34161,2.77634 4.98633,4.19531 l -4.98633,5.76953 v 3.76367 l 24.19141,-27.60156 C 280.62646,810.02615 274.37925,804.9552 268,800.05469 Z m -5.2832,4.15039 c -0.0744,0.0616 -0.15223,0.11612 -0.22657,0.17773 v 8.29102 c 3.43077,2.68851 6.8305,5.41657 10.16407,8.22461 0.60403,0.5088 1.20587,1.01859 1.80664,1.53125 l 4.44726,-5.19727 c -0.61179,-0.52184 -1.22471,-1.0426 -1.83984,-1.56054 -4.68423,-3.94416 -9.47941,-7.75585 -14.35156,-11.4668 z m 28.75976,15.375 -1.27539,1.4082 -23.87305,26.35352 -3.83789,4.23632 v 3.57618 l 5.65625,-6.15625 22.76954,-24.78711 c 11.71742,10.7461 22.75928,22.22721 33.03906,34.35742 l -13.23633,11.25195 c -7.89935,-9.31181 -16.26887,-18.22724 -25.0625,-26.70117 l -3.51172,3.64453 c 8.67305,8.35831 16.92843,17.15128 24.7207,26.33399 l -34.17968,29.05664 c -3.29708,-3.87292 -6.71619,-7.64467 -10.19532,-11.35938 v 5.58399 c 2.96807,3.2508 5.89194,6.5415 8.72071,9.91015 L 328.59961,858.1875 C 317.14497,844.47156 304.7312,831.56235 291.47656,819.58008 Z m -1.00195,7.93359 -11.67969,12.58789 -11.68945,12.59961 c 8.61858,7.9934 16.83407,16.42572 24.59961,25.24805 l -7.75196,6.82617 -7.74804,6.82422 c -4.41591,-5.01096 -9.00175,-9.87325 -13.71485,-14.60938 v 9.80469 c 3.84519,4.03267 7.59225,8.15805 11.22266,12.38086 l 13.03125,-11.1914 13.03516,-11.19336 c -7.79913,-9.09309 -16.06383,-17.7914 -24.7461,-26.04883 l 7.1211,-7.48438 7.11914,-7.48242 c 8.61388,8.1891 16.83515,16.79105 24.625,25.76758 0.51763,0.59648 1.03306,1.19319 1.54687,1.79297 l 5.19141,-4.45703 c -0.52304,-0.61081 -1.04729,-1.21873 -1.57422,-1.82618 -8.98367,-10.35571 -18.53192,-20.22184 -28.58789,-29.53906 z m -27.98438,31.56641 v 6.97265 c 6.26178,6.00994 12.29946,12.25524 18.07813,18.72852 l 3.78711,-3.38086 c -6.93629,-7.77206 -14.24711,-15.21323 -21.86524,-22.32031 z m 70.18165,4.0664 -1.47657,1.19532 -27.60742,22.37304 -29.07812,23.56836 c 9.09532,11.19791 17.40927,22.99775 24.82226,35.28125 l 63.9707,-38.43359 c -9.15811,-15.37606 -19.40752,-30.07677 -30.63085,-43.98438 z m -1.26758,4.49414 c 9.89964,12.44444 19.01777,25.5164 27.26562,39.13086 l -14.7793,9.0254 c -6.33713,-10.43358 -13.21211,-20.54122 -20.58203,-30.2754 l -4.02539,3.0586 c 7.27026,9.59765 14.0537,19.56018 20.30469,29.84375 l -38.16211,23.30469 c -6.82312,-11.13306 -14.37515,-21.86458 -22.57226,-32.10547 l 13.55468,-10.82813 c 6.9453,8.6928 13.44949,17.72569 19.47071,27.05274 l 4.2539,-2.7461 c -6.11092,-9.47425 -12.71316,-18.64621 -19.76172,-27.47265 l 8.75782,-6.9961 z m -0.94532,3.19922 -13.45703,10.64063 -13.46875,10.65039 c 7.28109,9.21917 14.08818,18.80405 20.37305,28.70898 l -8.69141,5.52539 -8.6875,5.52344 c -5.54888,-8.7134 -11.53089,-17.17088 -17.9082,-25.33398 -0.42362,-0.54225 -0.84829,-1.08341 -1.27539,-1.62305 l -5.37305,4.25 c 0.41833,0.52815 0.83508,1.05721 1.25,1.58789 7.07431,9.04796 13.65324,18.46356 19.67969,28.18945 l 14.56641,-9 14.57031,-9.00195 c -6.27227,-10.18639 -13.0804,-20.04917 -20.37891,-29.54297 l 8.17383,-6.29687 8.17188,-6.29492 c 7.23492,9.42984 14.01375,19.20929 20.29882,29.30078 0.41765,0.67056 0.83479,1.3423 1.24805,2.01562 l 5.80078,-3.58398 c -0.4207,-0.6861 -0.84243,-1.37139 -1.26758,-2.05469 -7.24835,-11.64941 -15.14286,-22.88782 -23.625,-33.66016 z m -67.96875,30.6836 v 3.0957 c 2.07452,2.36187 4.14149,4.73075 6.14258,7.15234 10.11157,12.23645 19.26901,25.21902 27.30664,38.78125 8.03763,13.56223 14.95475,27.70424 20.58594,42.25977 5.63119,14.5555 9.9769,29.5239 12.86914,44.7402 2.89225,15.2163 4.33155,30.68 4.15235,46.2246 h 2.02539 c 0.16599,-15.6773 -1.29457,-31.2673 -4.21289,-46.6035 -2.91834,-15.3361 -7.29464,-30.4176 -12.96485,-45.08005 -5.67021,-14.66245 -12.63308,-28.90436 -20.72265,-42.56055 -8.08959,-13.65622 -17.30598,-26.72748 -27.48243,-39.04492 -2.50796,-3.03562 -5.07709,-6.02312 -7.69922,-8.96484 z m 104.05274,11.15625 -1.63867,0.94726 -30.65625,17.71094 -32.29297,18.65625 c 7.19577,12.39757 13.47639,25.26447 18.72461,38.48242 l 69.11328,-27.32422 c -6.56462,-16.73926 -14.35493,-32.93668 -23.25,-48.47265 z m -1.94336,4.24023 c 7.81501,13.87601 14.74036,28.27171 20.68945,43.10352 l -15.98633,6.46289 C 364.74241,955.14559 359.5734,944.06306 353.8418,933.2832 l -4.43946,2.375 c 5.65288,10.6224 10.74902,21.54115 15.24414,32.71094 l -41.28125,16.68945 c -4.8705,-12.0043 -10.57651,-23.7128 -17.03515,-35.03906 l 15.0293,-8.53711 c 5.4754,9.63749 10.44068,19.54448 14.85351,29.67774 l 4.62109,-2.01172 c -4.48155,-10.30145 -9.5224,-20.37191 -15.08007,-30.16406 l 9.71093,-5.51563 z m -1.42773,3.00977 -14.90626,8.36328 -14.91796,8.37305 c 5.7254,10.22668 10.90422,20.7483 15.49023,31.51757 l -9.42969,4.02539 -9.42773,4.02344 c -4.0373,-9.44243 -8.57088,-18.69287 -13.5625,-27.71094 -0.33158,-0.59905 -0.66635,-1.19599 -1.00195,-1.79296 l -5.95118,3.33789 c 0.32863,0.58371 0.6558,1.17018 0.98047,1.75586 5.53555,9.9857 10.4941,20.25763 14.82031,30.75976 l 15.77344,-6.47851 15.77539,-6.47852 c -4.52729,-11.06154 -9.66275,-21.87077 -15.35937,-32.38281 l 9.0293,-4.91211 9.02539,-4.91016 c 5.65142,10.46608 10.78556,21.22076 15.36132,32.22266 0.30407,0.73107 0.60518,1.46208 0.9043,2.19531 l 6.2832,-2.57812 c -0.30463,-0.74782 -0.6121,-1.49465 -0.92187,-2.24024 -5.28132,-12.71138 -11.28826,-25.09408 -17.96484,-37.08984 z m 28.92382,47.25586 -1.76367,0.66211 -33.02539,12.36523 -34.78711,13.02539 c 4.99926,13.30022 8.95179,26.93752 11.73828,40.79292 l 72.81446,-14.7773 c -3.67423,-17.8054 -8.70671,-35.201 -14.97657,-52.06835 z m -2.59375,3.86718 c 5.46354,15.04071 9.92903,30.49497 13.3125,46.27737 l -16.85937,3.5664 c -2.56895,-12.0334 -5.81467,-23.8774 -9.69336,-35.4883 l -4.75781,1.59375 c 3.8209,11.43251 7.01636,23.09215 9.54101,34.93355 l -43.53711,9.211 c -2.65105,-12.6088 -6.24589,-25.029 -10.69922,-37.17384 l 16.16993,-5.91211 c 3.79092,10.36758 7.00388,20.93725 9.59375,31.66215 l 4.89257,-1.1817 c -2.63758,-10.914 -5.90561,-21.66575 -9.75781,-32.20897 l 10.44727,-3.82031 z m -1.89062,2.73633 -16.02344,5.75586 -16.03711,5.76172 c 3.95154,11.01608 7.28611,22.25646 9.95508,33.67186 l -9.97266,2.3262 -9.9707,2.3262 c -2.32111,-9.967 -5.20023,-19.8043 -8.60156,-29.4727 -0.22594,-0.64225 -0.45502,-1.28308 -0.68555,-1.92382 l -6.39648,2.29687 c 0.22533,0.62566 0.44713,1.2538 0.66797,1.88086 3.76507,10.69169 6.87331,21.58809 9.26757,32.63479 l 16.64649,-3.625 16.65039,-3.625 c -2.56419,-11.7186 -5.80698,-23.25817 -9.6836,-34.57034 l 9.68555,-3.32617 9.68164,-3.32617 c 3.8634,11.29776 7.14667,22.82158 9.8086,34.52928 0.17688,0.778 0.35019,1.5563 0.52148,2.336 l 6.63086,-1.4434 c -0.17537,-0.796 -0.3525,-1.5925 -0.5332,-2.3867 -3.08259,-13.5417 -6.972,-26.83282 -11.61133,-39.82034 z m 20.7207,51.87504 -1.85547,0.3398 -34.70898,6.3359 -36.56055,6.6758 c 2.50579,13.906 3.83158,28.0151 3.85938,42.211 l 75.07617,-0.7871 c -0.48681,-18.5747 -2.46287,-36.8736 -5.81055,-54.7754 z m -3.2168,3.375 c 2.84527,15.9385 4.58571,32.1842 5.13672,48.6504 l -17.40039,0.3378 c -0.36283,-12.5113 -1.47198,-24.9034 -3.2832,-37.1308 l -4.97656,0.7168 c 1.77433,12.0281 2.85377,24.2132 3.19336,36.5117 l -44.93164,0.8711 c -0.16475,-12.9463 -1.37937,-25.8113 -3.56055,-38.5078 l 16.97656,-2.9531 c 1.89186,10.883 3.13716,21.8981 3.68945,33 l 5.06446,-0.254 c -0.57903,-11.312 -1.85693,-22.5296 -3.78906,-33.6093 l 10.96874,-1.9082 z m -2.33203,2.3769 h -0.002 l -16.80859,2.8183 -16.82618,2.8242 c 1.95949,11.5873 3.22993,23.3246 3.76368,35.168 l -10.31641,0.4297 -10.3125,0.4297 c -0.40033,-10.2869 -1.42285,-20.5069 -3.0293,-30.6211 -0.10669,-0.6719 -0.21629,-1.3428 -0.32812,-2.0137 l -6.71289,1.125 c 0.10847,0.6541 0.21499,1.308 0.31836,1.9629 1.76289,11.1659 2.78698,22.457 3.01758,33.8164 l 17.1914,-0.4414 17.19531,-0.4414 c -0.38298,-12.1575 -1.517,-24.2074 -3.35547,-36.1016 l 10.14454,-1.5429 10.13867,-1.543 c 1.87083,11.9249 3.09709,24.0116 3.64062,36.2207 0.0378,0.8113 0.0694,1.6232 0.0996,2.4356 l 6.84766,-0.1778 c -0.034,-0.8305 -0.0673,-1.6589 -0.10547,-2.4883 -0.65212,-14.1401 -2.19022,-28.1137 -4.56055,-41.8613 z m -69.23632,52.3633 c 0.17918,15.5446 -1.2601,31.0083 -4.15235,46.2246 -2.89225,15.2163 -7.23795,30.1847 -12.86914,44.7402 -5.63119,14.5556 -12.5483,28.6976 -20.58594,42.2598 -8.03763,13.5622 -17.19506,26.5448 -27.30664,38.7813 -1.71444,2.0747 -3.49519,4.0959 -5.26367,6.1269 l 0.0156,3.0781 c 2.30573,-2.6095 4.58833,-5.2392 6.80468,-7.9218 10.17646,-12.3175 19.39284,-25.3887 27.48243,-39.045 8.08958,-13.6562 15.05244,-27.8981 20.72265,-42.5605 5.67021,-14.6625 10.04651,-29.7439 12.96485,-45.0801 2.91833,-15.3361 4.37893,-30.9261 4.21289,-46.6035 z m 84.15039,0 c -0.36737,21.0628 -2.62321,41.7756 -6.59961,61.9727 -3.97641,20.197 -9.67299,39.8781 -16.92578,58.8769 -7.2528,18.9988 -16.06111,37.3152 -26.25782,54.7832 -10.1967,17.468 -21.78174,34.0867 -34.58984,49.6914 -12.8081,15.6048 -26.83879,30.1945 -41.92578,43.6035 -8.80467,7.8254 -17.97956,15.2367 -27.47071,22.2246 l 0.0117,2.4786 c 9.96235,-7.2751 19.57622,-15.0178 28.79102,-23.2071 15.1642,-13.4766 29.26424,-28.141 42.13672,-43.8261 12.87247,-15.6852 24.51738,-32.3919 34.76562,-49.9532 10.24826,-17.5612 19.10108,-35.9772 26.39258,-55.082 7.2915,-19.1049 13.02115,-38.8989 17.02344,-59.2148 4.00229,-20.316 6.27569,-41.1532 6.65625,-62.3477 z m -78.63086,2.5488 c -0.0276,14.196 -1.35372,28.3069 -3.85938,42.2129 l 73.12695,13.3496 c 3.34753,-17.9019 5.32195,-36.2007 5.8086,-54.7754 l -1.9043,-0.019 -35.63476,-0.373 z m 3.78711,2.2324 17.38476,0.3379 c -0.21263,11.1416 -1.12722,22.2059 -2.70117,33.1504 l 4.99219,0.7188 c 1.61093,-11.1445 2.5569,-22.4165 2.79297,-33.7715 l 11.23046,0.2187 c 11.23302,0.2177 22.4662,0.4348 33.69922,0.6524 -0.55105,16.4661 -2.29149,32.7118 -5.13672,48.6504 l -16.99414,-2.9571 c 2.15029,-12.1447 3.61017,-24.4636 4.33399,-36.914 l -5.04883,-0.252 c -0.69713,12.2409 -2.12231,24.358 -4.23242,36.3067 l -43.88086,-7.6328 c 2.18118,-12.6966 3.39578,-25.5615 3.56055,-38.5079 z m 2.69531,1.6368 c -0.0136,0.6662 -0.0299,1.3322 -0.0488,1.998 -0.32349,11.3512 -1.43793,22.6302 -3.28711,33.7813 l 16.82031,2.8222 16.82618,2.8223 c 2.01318,-11.8548 3.32713,-23.8722 3.89648,-36.002 l 10.31641,0.4297 10.3125,0.4297 c -0.63406,12.1927 -1.94809,24.2608 -3.9043,36.1641 -0.13002,0.791 -0.26268,1.5816 -0.39844,2.3711 l 6.70117,1.123 c 0.13909,-0.8063 0.27486,-1.614 0.40821,-2.4219 2.27255,-13.7737 3.71008,-27.768 4.25781,-41.9277 l -17.17969,-0.4414 -17.19531,-0.4414 c -0.34987,11.8688 -1.44123,23.6375 -3.22852,35.2617 l -10.14258,-1.543 -10.14062,-1.5429 c 1.52899,-10.1281 2.47131,-20.3588 2.78906,-30.6543 0.0212,-0.6839 0.0391,-1.3683 0.0547,-2.0528 z m -11.29102,43.3261 c -2.78637,13.8554 -6.73913,27.4927 -11.73828,40.793 l 69.57813,26.0508 c 6.2697,-16.8674 11.30056,-34.2629 14.97461,-52.0684 l -1.84766,-0.375 -34.56055,-7.0136 z m 3.25,2.8868 16.84571,3.5644 c -2.28392,10.7983 -5.20225,21.4513 -8.70899,31.9141 l 4.77149,1.5976 c 3.56471,-10.6417 6.53494,-21.4799 8.86328,-32.4707 l 10.88281,2.3028 c 10.88452,2.3027 21.76783,4.6054 32.65234,6.9082 -3.38347,15.7824 -7.84896,31.2366 -13.3125,46.2773 l -16.18554,-5.916 c 4.18405,-11.4945 7.74655,-23.2351 10.64257,-35.1738 l -4.87695,-1.1778 c -2.8485,11.7502 -6.35554,23.3076 -10.47851,34.627 l -41.79493,-15.2793 c 4.45333,-12.1448 8.04816,-24.5651 10.69922,-37.1738 z m 2.30664,2.0976 c -0.14041,0.6479 -0.28242,1.2946 -0.42773,1.9414 -2.47768,11.0289 -5.66591,21.9049 -9.50781,32.5723 l 16.0332,5.7617 16.03711,5.7617 c 4.0335,-11.255 7.44106,-22.7429 10.17383,-34.416 l 9.97265,2.3281 9.96875,2.3262 c -2.74405,11.6829 -6.1045,23.1775 -10.04492,34.4453 -0.26192,0.7488 -0.52602,1.4955 -0.79297,2.2422 l 6.38477,2.2949 c 0.27212,-0.7617 0.54168,-1.5252 0.80859,-2.289 4.55104,-13.0232 8.3483,-26.3473 11.33594,-39.918 l -16.63477,-3.6231 -16.65039,-3.625 c -2.5029,11.4586 -5.6755,22.7475 -9.47265,33.8184 l -9.6875,-3.3281 -9.68164,-3.3242 c 3.33221,-9.6906 6.1418,-19.5473 8.38867,-29.5313 0.14925,-0.6632 0.29516,-1.3278 0.43945,-1.9922 z m -19.13476,40.5684 c -5.24812,13.2179 -11.52894,26.0848 -18.72461,38.4824 l 64.58984,37.3144 c 8.89496,-15.536 16.68354,-31.7333 23.24805,-48.4726 l -1.75391,-0.6914 -32.80468,-12.9707 z m 2.68554,3.4218 15.97266,6.4571 c -4.1406,10.2404 -8.84538,20.2667 -14.07031,30.0332 l 4.45312,2.3828 c 5.30391,-9.9244 10.08109,-20.1154 14.28711,-30.5273 l 10.31836,4.1718 c 10.32035,4.1723 20.64253,8.3434 30.96289,12.5156 -5.94909,14.8319 -12.87444,29.2295 -20.68945,43.1055 l -15.04297,-8.5449 c 6.00324,-10.6297 11.4529,-21.5728 16.30664,-32.7852 l -4.60742,-2.0058 c -4.78523,11.0447 -10.1608,21.8272 -16.08203,32.3027 l -38.84375,-22.0664 c 6.45864,-11.3263 12.16464,-23.0347 17.03515,-35.0391 z m 1.90235,2.4747 c -0.25372,0.6159 -0.5095,1.2313 -0.76758,1.8457 -4.40017,10.4749 -9.43029,20.716 -15.0332,30.6679 l 14.91406,8.3711 14.91992,8.3711 c 5.83569,-10.437 11.11492,-21.1775 15.79297,-32.1758 l 9.43164,4.0254 9.42773,4.0235 c -4.64955,10.9687 -9.85413,21.6855 -15.57421,32.1132 -0.3801,0.6929 -0.76185,1.3858 -1.14649,2.0762 l 5.93946,3.334 c 0.3916,-0.7036 0.78097,-1.409 1.16796,-2.1152 6.59777,-12.041 12.52286,-24.465 17.71875,-37.2149 l -15.76171,-6.4726 -15.7754,-6.4785 c -4.43774,10.8301 -9.47367,21.4194 -15.0625,31.7187 l -9.02929,-4.9121 -9.02735,-4.9102 c 4.93084,-9.0485 9.40167,-18.3251 13.37305,-27.7929 0.26381,-0.6289 0.52577,-1.2601 0.78516,-1.8907 z m -25.93555,37.0175 c -7.4129,12.2836 -15.72507,24.0833 -24.82031,35.2813 l 58.16016,47.1367 c 11.22323,-13.9077 21.4748,-28.6082 30.63281,-43.9844 l -1.62305,-0.9765 -30.36523,-18.2422 z m 2.09375,3.8379 14.76563,9.0176 c -5.7827,9.4679 -12.06052,18.6523 -18.78907,27.5078 l 4.03711,3.0664 c 6.82851,-8.9924 13.19925,-18.319 19.06836,-27.9375 l 9.53907,5.8242 28.62304,17.4786 c -8.24785,13.6144 -17.36598,26.6864 -27.26562,39.1308 l -13.56641,-10.8379 c 7.60783,-9.5503 14.73131,-19.4843 21.32813,-29.7558 l -4.23829,-2.7364 c -6.50738,10.1248 -13.53612,19.9189 -21.04101,29.336 l -35.0332,-27.9903 c 8.19712,-10.2409 15.74914,-20.9704 22.57226,-32.1035 z m 1.47461,2.7676 c -0.35346,0.5704 -0.70916,1.1407 -1.06641,1.709 -6.09094,9.6893 -12.72911,19.0635 -19.86132,28.0683 l 13.46484,10.6485 13.4707,10.6504 c 7.41976,-9.401 14.35456,-19.178 20.75977,-29.2832 l 8.69141,5.5273 8.68554,5.5235 c -6.35052,10.0499 -13.1911,19.7847 -20.48633,29.1679 -0.48476,0.6235 -0.97218,1.2468 -1.46093,1.8672 l 5.36328,4.2402 c 0.49751,-0.6318 0.99287,-1.2653 1.48633,-1.9003 8.41279,-10.827 16.23383,-22.1171 23.40625,-33.8145 l -14.55664,-8.9922 -14.57032,-9.0019 c -6.15441,9.9836 -12.83769,19.6533 -20,28.9629 l -8.17383,-6.2969 -8.17187,-6.2949 c 6.32486,-8.2019 12.25283,-16.6963 17.74414,-25.4434 0.36476,-0.5811 0.72698,-1.1628 1.08789,-1.7461 z m -31.6875,32.6699 c -2.53982,3.0246 -5.15034,5.992 -7.80273,8.9219 l 0.0273,5.5586 c 3.14796,-3.3902 6.2509,-6.8232 9.24805,-10.3438 l 13.22461,11.2422 c -7.05376,8.2969 -14.52223,16.251 -22.34961,23.8301 l 0.006,1.0488 3.0039,3.1153 c 8.13852,-7.8459 15.88747,-16.0967 23.20508,-24.7071 l 8.54492,7.2637 25.63477,21.793 c -10.27978,12.1302 -21.32163,23.6113 -33.03906,34.3574 l -11.75586,-12.7988 c 8.99783,-8.2564 17.58171,-16.9641 25.70703,-26.0801 l -3.77539,-3.3711 c -8.01496,8.9902 -16.48346,17.5806 -25.35742,25.7246 l -12.10938,-13.1816 0.0176,3.6074 27.83594,30.7285 c 13.25454,-11.9824 25.6685,-24.8914 37.12304,-38.6074 l -1.45703,-1.2207 -27.24023,-22.8301 z m 2.5,7.1133 c -0.4396,0.5113 -0.87944,1.0207 -1.32227,1.5293 -2.90228,3.3336 -5.89618,6.5891 -8.93359,9.8027 l 0.0488,9.8321 c 4.83692,-4.9031 9.53742,-9.9436 14.05664,-15.1368 0.45214,-0.5195 0.90272,-1.0401 1.35156,-1.5624 z m 20.86719,17.9199 c -7.65288,8.9189 -15.76169,17.4531 -24.2793,25.5547 l -6.71875,-7.0644 0.0312,6.2988 8.15625,8.791 c 8.78569,-8.1468 17.15998,-16.7403 25.07422,-25.7344 l 7.75,6.8282 7.74805,6.8242 c -7.84694,8.9266 -16.12323,17.4753 -24.78907,25.6093 -0.57584,0.5406 -1.15314,1.0804 -1.73242,1.6172 l 4.65625,5.0176 c 0.58983,-0.5465 1.17735,-1.0962 1.76367,-1.6465 9.99612,-9.3812 19.48123,-19.3055 28.39844,-29.7187 l -13.02344,-11.1836 z m -30.89453,39.6973 0.0195,3.8105 18.43945,21.3379 c -5.9304,5.1103 -12.02415,10.0323 -18.26172,14.7657 l 0.0234,4.6972 c 7.81847,-5.8399 15.43233,-11.9515 22.77734,-18.3711 l -1.25195,-1.4277 z m 0.0332,6.5684 0.0352,7.1171 0.47461,0.5684 6.61132,7.9277 c -2.31434,1.9244 -4.65497,3.8183 -7.01562,5.6856 l 0.043,8.6191 c 5.11499,-3.9271 10.1375,-7.9756 15.04297,-12.1601 l -11.15821,-13.043 z m 0.0547,10.9492 0.002,0.373 c 0.0606,-0.05 0.12306,-0.097 0.18359,-0.1465 z"
         transform="scale(0.26458333)" />
      <path
         id="path5310"
         style="fill:#d40000;fill-opacity:1;stroke:none;stroke-width:0.264583px;stroke-linecap:butt;stroke-linejoin:miter;stroke-opacity:1"
         d="m 170.84332,165.19818 c -0.84892,0.16932 -1.71176,0.35289 -2.57504,0.53641 0.87398,-0.18554 1.72319,-0.34715 2.58175,-0.5178 -0.003,-0.01 -0.003,-0.009 -0.007,-0.0186 z m -2.59933,0.54106 c -4.81774,1.02474 -9.85245,2.2754 -15.04404,3.75894 9.78751,31.17853 15.67323,63.6662 17.40772,96.73776 h 16.50597 c -1.82863,-34.42368 -8.227,-68.19662 -18.86965,-100.4967 z m -15.04404,3.75894 c -1.07497,0.30718 -2.1549,0.62326 -3.2427,0.95085 l 0.005,0.008 c 1.08304,-0.32595 2.16689,-0.65317 3.23753,-0.95911 z" />
      <path
         id="path5514"
         style="fill:#d40000;stroke:none;stroke-width:0.264583px;stroke-linecap:butt;stroke-linejoin:miter;stroke-opacity:1"
         d="m 254.9803,162.01595 -0.10904,0.32142 c -11.15396,32.86814 -17.98171,67.72641 -19.87269,103.89857 h 16.50597 c 1.83496,-35.49809 9.70871,-71.773 20.42614,-104.21999 z" />
      <path
         id="path58165"
         style="fill:#d40000;fill-opacity:1;stroke:none;stroke-width:0.264583px;stroke-linecap:butt;stroke-linejoin:miter;stroke-opacity:1"
         d="m 134.09569,175.82079 c -0.32038,0.12095 -0.64481,0.25643 -0.96687,0.38344 0.32305,-0.12345 0.64699,-0.2504 0.96945,-0.37207 z m -3.54552,1.4056 c 2.75653,9.3797 5.16373,18.95587 7.21248,28.65458 -2.04868,-9.69871 -4.45595,-19.2749 -7.21248,-28.65458 z m 7.21248,28.65458 c 0.40975,1.93974 0.80496,3.88427 1.18597,5.83324 -0.38102,-1.94908 -0.77621,-3.89339 -1.18597,-5.83324 z m 1.18597,5.83324 c 1.14215,5.84229 2.15507,11.72337 3.03651,17.62734 -0.88139,-5.904 -1.8944,-11.78503 -3.03651,-17.62734 z M 127.09715,178.5953 c -4.35287,1.79687 -8.73779,3.7529 -13.12943,5.87767 4.39174,-2.12446 8.77694,-4.0791 13.12943,-5.87767 z m -13.12943,5.87767 c -13.60484,6.58236 -27.251081,14.7616 -40.04355,24.75973 24.626149,18.14074 39.52749,46.73565 39.61774,77.51671 v 0 l 32.71686,11.81089 c 0.34758,-9.42631 -0.0318,-17.07094 -0.27027,-27.67245 0,0 1.19928,0.49995 0,0 -23.43833,-9.82571 -38.6968,-32.7509 -38.7134,-58.16545 0.005,-9.84065 2.31149,-19.50956 6.69262,-28.24995 z m 28.12076,45.59877 c 0.54523,3.69855 1.04398,7.40505 1.4857,11.11715 -0.44168,-3.71202 -0.94051,-7.41867 -1.4857,-11.11715 z m 2.78743,23.82645 c 0.148,1.70597 0.29015,3.41229 0.416,5.11804 -0.12585,-1.70587 -0.268,-3.41195 -0.416,-5.11804 z"
         sodipodi:nodetypes="ccccccccccccccccccsccccccccccccc" />
      <path
         id="circle61299"
         style="fill:#ffffff;fill-opacity:1;stroke:none;stroke-width:3.25526;stroke-linecap:square"
         d="m 545.33789,675.41406 c -3.85318,-0.18043 -7.61611,1.93301 -9.39258,5.61133 -2.36863,4.9045 -0.33904,10.77227 4.55469,13.16992 4.89369,2.39766 10.83898,0.42338 13.24805,-4.50781 2.40911,-4.93126 0.34037,-10.91439 -4.59766,-13.30078 -1.23449,-0.59659 -2.52811,-0.91251 -3.8125,-0.97266 z m 13.96875,47.85352 c -3.84154,-0.31561 -7.67274,1.66292 -9.57617,5.27344 -2.53795,4.81409 -0.71836,10.74353 4.08398,13.31054 4.80235,2.56698 10.80888,0.80667 13.38867,-4.0332 2.57987,-4.83999 0.72447,-10.88831 -4.12304,-13.44531 -1.21186,-0.63924 -2.49293,-1.00027 -3.77344,-1.10547 z m 12.25781,48.28711 c -3.82553,-0.45229 -7.72192,1.38593 -9.75195,4.92383 -2.70675,4.71722 -1.10285,10.70555 3.60156,13.4414 4.70442,2.73578 10.76756,1.19327 13.51758,-3.54883 2.75014,-4.74217 1.11373,-10.85108 -3.63672,-13.57812 -1.1876,-0.68177 -2.45529,-1.08752 -3.73047,-1.23828 z m 10.50782,48.67383 c -3.80514,-0.59038 -7.76367,1.10609 -9.91993,4.5664 -2.87505,4.61378 -1.49068,10.65253 3.10938,13.55664 4.60002,2.90415 10.71301,1.58314 13.63281,-3.05468 2.91988,-4.63783 1.50623,-10.80064 -3.14062,-13.69727 -1.16171,-0.72415 -2.41327,-1.1743 -3.68164,-1.37109 z m 8.72461,49.01367 c -3.78038,-0.72995 -7.79802,0.81749 -10.08008,4.19531 -3.04275,4.5038 -1.88363,10.59018 2.60547,13.66211 4.48913,3.07189 10.64724,1.9781 13.73632,-2.54883 3.08916,-4.52697 1.90199,-10.73712 -2.63476,-13.80273 -1.13418,-0.76643 -2.36683,-1.26255 -3.62695,-1.50586 z m 3.11718,49.17578 c -2.49691,0.39996 -4.84424,1.75361 -6.44922,3.94726 -3.20999,4.38739 -2.27795,10.51275 2.09375,13.75196 4.37167,3.23917 10.56834,2.37825 13.82618,-2.03125 3.25799,-4.40962 2.30293,-10.66227 -2.11719,-13.89649 -2.21002,-1.61709 -4.85661,-2.17144 -7.35352,-1.77148 z m 5.04688,49.41015 c -2.51182,0.30507 -4.90932,1.56706 -6.59766,3.69922 -3.3767,4.26437 -2.67941,10.42409 1.56836,13.83008 4.24774,3.406 10.47812,2.78366 13.9043,-1.50195 3.42621,-4.28568 2.70898,-10.5763 -1.58789,-13.97852 -2.14846,-1.70109 -4.7753,-2.35389 -7.28711,-2.04883 z m 3.15625,49.60548 c -2.52442,0.2082 -4.97076,1.3798 -6.74219,3.4473 -3.54289,4.1349 -3.08808,10.3222 1.0293,13.8945 4.11734,3.5722 10.37675,3.1923 13.9707,-0.9629 3.59403,-4.1552 3.11829,-10.4772 -1.04883,-14.0469 -2.08358,-1.7848 -4.68457,-2.5402 -7.20898,-2.332 z m 1.22656,49.7559 c -2.53471,0.1093 -5.03051,1.1861 -6.88477,3.1855 -3.70854,3.9989 -3.49603,10.2092 0.48438,13.9473 3.98041,3.738 10.26021,3.6061 14.02148,-0.4121 3.76135,-4.0183 3.53481,-10.3669 -0.49609,-14.1036 -2.01543,-1.8683 -4.59029,-2.7265 -7.125,-2.6171 z m -0.74023,49.8613 c -2.54271,0.01 -5.08274,0.9878 -7.01954,2.916 -3.87237,3.8565 -3.91076,10.0834 -0.0742,13.9863 3.83701,3.9033 10.13244,4.0212 14.06054,0.1465 3.92803,-3.8747 3.95253,-10.2414 0.0645,-14.1445 -1.94404,-1.9513 -4.48855,-2.9129 -7.03125,-2.9043 z m -2.74219,49.918 c -2.5484,-0.094 -5.13321,0.783 -7.15235,2.6367 -4.03827,3.7073 -4.33157,9.9475 -0.64453,14.0156 3.68701,4.0681 9.99545,4.4434 14.08985,0.7187 4.09451,-3.7246 4.37542,-10.1067 0.63672,-14.1757 -1.86938,-2.0345 -4.38129,-3.1011 -6.92969,-3.1953 z m -4.78125,49.9277 c -2.55147,-0.199 -5.18119,0.5759 -7.2793,2.3515 -4.19626,3.5513 -4.72727,9.7879 -1.20312,14.0079 3.5241,4.22 9.8103,4.8537 14.0625,1.2968 4.25227,-3.5569 4.81256,-9.9348 1.23437,-14.1679 -1.78908,-2.1166 -4.26298,-3.2894 -6.81445,-3.4883 z m -6.81836,49.6933 c -2.53194,-0.3019 -5.18053,0.3605 -7.3418,2.043 -4.32261,3.3651 -5.10746,9.5531 -1.76953,13.8984 3.33789,4.3455 9.57319,5.2327 13.95117,1.8633 4.3779,-3.3693 5.19312,-9.697 1.80274,-14.0566 -1.69518,-2.1797 -4.11065,-3.4461 -6.64258,-3.7481 z m -8.80078,49.2129 c -2.51043,-0.4026 -5.17723,0.1506 -7.39844,1.7403 -4.44234,3.1793 -5.47447,9.3149 -2.32227,13.7793 3.15221,4.4642 9.33286,5.5962 13.83008,2.414 4.49719,-3.1821 5.56054,-9.4523 2.35742,-13.9316 -1.60151,-2.2397 -3.95636,-3.5993 -6.46679,-4.002 z m -14.53906,48.668 c -1.26545,0.2364 -2.50366,0.7222 -3.64258,1.4707 -4.55566,2.9941 -5.83025,9.0717 -2.86328,13.6484 2.967,4.5767 9.08546,5.9507 13.69531,2.9551 4.60985,-2.9955 5.91679,-9.2081 2.90039,-13.8008 -2.26219,-3.4444 -6.29352,-4.9824 -10.08984,-4.2734 z m -12.61719,47.9961 c -1.27173,0.1863 -2.52579,0.6218 -3.69141,1.3242 -4.66242,2.8095 -6.17093,8.8252 -3.38867,13.5078 2.78222,4.6826 8.83285,6.2899 13.54883,3.4805 4.71602,-2.8094 6.26175,-8.9549 3.43164,-13.6543 -2.12256,-3.5245 -6.08521,-5.2172 -9.90039,-4.6582 z m -14.45508,47.4062 c -1.27665,0.1371 -2.54759,0.5254 -3.73828,1.1817 -4.76277,2.6254 -6.50039,8.5735 -3.90235,13.3555 2.59801,4.7819 8.57896,6.6178 13.39454,3.9941 4.81561,-2.6238 6.59367,-8.7003 3.94921,-13.5 -1.98331,-3.5997 -5.87318,-5.4424 -9.70312,-5.0313 z m -16.24805,46.7852 c -1.2802,0.088 -2.56321,0.4267 -3.77734,1.0371 -4.85662,2.4417 -6.82054,8.3165 -4.40625,13.1914 2.41429,4.8748 8.31993,6.9329 13.22851,4.4942 4.90863,-2.4387 6.91243,-8.4368 4.45313,-13.3301 -1.84442,-3.67 -5.65745,-5.658 -9.49805,-5.3926 z"
         transform="scale(0.26458333)" />
      <path
         id="path66577-5"
         style="fill:#d40000;fill-opacity:1;stroke:none;stroke-width:0.264583px;stroke-linecap:butt;stroke-linejoin:miter;stroke-opacity:1"
         d="m 291.87313,272.91729 c 0,0 3.22011,-33.74543 7.41918,-51.74414 4.19555,-17.98357 15.34726,-43.7303 15.36599,-43.77354 -5.71143,-3.06578 -11.54886,-5.90063 -17.50384,-8.5199 -12.68021,31.96667 -20.32913,59.93816 -23.87813,97.52738 z" />
      <path
         id="path5852"
         style="fill:#ffcc00;fill-opacity:1;stroke:none;stroke-width:6.5252;stroke-linecap:square"
         d="m 1336.002,779.00586 a 374.57343,367.69553 0 0 0 -165.1368,304.77344 374.57343,367.69553 0 0 0 149.002,293.2519 c 5.8923,-4.5953 11.8499,-9.0558 17.6406,-13.8554 v -107.7637 a 271.6842,266.69554 0 0 1 -63.7539,-171.6328 271.6842,266.69554 0 0 1 62.9121,-170.59961 z"
         transform="scale(0.26458333)" />
      <path
         id="path5854"
         style="color:#000000;fill:#ffcc00;stroke:none;stroke-width:2;stroke-linecap:round;-inkscape-stroke:none"
         d="m 250.49013,408.68265 c 1.5101,-0.28533 3.04143,-0.59108 4.5992,-0.92243 -10.64265,-32.30008 -17.04102,-66.07302 -18.86965,-100.4967 h 16.50597 c 1.73449,33.07156 7.62021,65.55923 17.40772,96.73776 1.47788,-0.42231 2.96726,-0.86298 4.46898,-1.32395 -10.02899,-31.9142 -15.9499,-65.21207 -17.42426,-99.1097 l -0.0413,-0.95655 h -2.12597 -1.48622 -18.51359 -1.39837 -2.30012 l 0.0455,1.04336 c 1.55456,35.98249 8.07171,71.29428 19.13217,105.02821 z" />
      <path
         id="path5856"
         style="color:#000000;fill:#ffcc00;stroke:none;stroke-width:2;stroke-linecap:round;-inkscape-stroke:none"
         d="m 173.24471,411.48351 c 11.45439,-34.09243 18.35331,-70.27373 19.95021,-107.8301 l 0.0444,-1.04233 h -2.15181 -1.54564 -18.51205 -1.34049 -2.27169 l -0.0408,0.95705 c -1.57683,36.84672 -9.6804,74.4439 -20.85712,107.91538 h 4.88291 c 10.71745,-32.44699 18.59118,-68.7219 20.42614,-104.21999 h 16.50597 c -1.89098,36.17216 -8.71873,71.03043 -19.87269,103.89857 l -0.10904,0.32142 z" />
      <path
         id="path5858"
         style="fill:#ffcc00;fill-opacity:1;stroke:none;stroke-width:3.29999;stroke-linecap:round;stroke-linejoin:miter;stroke-miterlimit:4;stroke-dasharray:none"
         d="m 211.6664,363.90657 a 4.4124456,5.5807943 0 0 0 4.41265,-5.58054 4.4124456,5.5807943 0 0 0 -0.18397,-1.59163 5.5807943,4.4124456 0 0 0 1.59215,0.18294 5.5807943,4.4124456 0 0 0 5.58105,-4.41214 5.5807943,4.4124456 0 0 0 -5.58105,-4.41265 5.5807943,4.4124456 0 0 0 -1.59215,0.18397 4.4124456,5.5807943 0 0 0 0.18397,-1.59215 4.4124456,5.5807943 0 0 0 -4.41265,-5.58106 4.4124456,5.5807943 0 0 0 -4.41265,5.58106 4.4124456,5.5807943 0 0 0 0.18345,1.59215 5.5807943,4.4124456 0 0 0 -1.59164,-0.18397 5.5807943,4.4124456 0 0 0 -5.58054,4.41265 5.5807943,4.4124456 0 0 0 5.58054,4.41214 5.5807943,4.4124456 0 0 0 1.59215,-0.18397 4.4124456,5.5807943 0 0 0 -0.18396,1.59266 4.4124456,5.5807943 0 0 0 4.41265,5.58054 z m 0,-8.30337 a 3.0980528,3.0980528 0 0 1 -3.09801,-3.098 3.0980528,3.0980528 0 0 1 3.09801,-3.098 3.0980528,3.0980528 0 0 1 3.098,3.098 3.0980528,3.0980528 0 0 1 -3.098,3.098 z m 5.2e-4,-0.68833 a 2.4097194,2.4097194 0 0 0 2.40968,-2.41019 2.4097194,2.4097194 0 0 0 -2.40968,-2.40967 2.4097194,2.4097194 0 0 0 -2.41019,2.40967 2.4097194,2.4097194 0 0 0 2.41019,2.41019 z" />
      <path
         id="path5860"
         style="color:#000000;fill:#d40000;fill-opacity:1;stroke:none;stroke-width:1;stroke-linecap:round;stroke-linejoin:round;-inkscape-stroke:none"
         d="m 183.47923,411.48351 c 3.59571,-10.33432 5.94447,-21.2533 6.68383,-32.62488 h 43.09298 c 0.71397,10.98155 2.93735,21.53706 6.32622,31.55569 0.50701,-0.0642 1.01035,-0.12574 1.52549,-0.19585 -3.54752,-10.42396 -5.73071,-21.47608 -6.34431,-32.94734 h -46.10933 c -0.63784,11.93646 -2.97399,23.41934 -6.77995,34.21238 z" />
      <path
         style="fill:#ffcc00;fill-opacity:1;stroke:none;stroke-width:0.264583px;stroke-linecap:butt;stroke-linejoin:miter;stroke-opacity:1"
         d="m 217.66361,373.73086 c 1.7e-4,0.85865 5.16444,1.21864 7.18054,0.41988 1.14235,-0.45259 2.48315,-1.13003 2.48315,-2.48315 0,-1.35312 -1.31268,-2.48315 -2.48315,-2.48315 -1.17047,0 -1.94379,1.43938 -2.48274,1.93508 -2.04722,1.88292 -4.69796,1.78574 -4.6978,2.61134 z"
         id="path5862"
         sodipodi:nodetypes="sszzss" />
      <path
         style="fill:#ffcc00;fill-opacity:1;stroke:none;stroke-width:0.264583px;stroke-linecap:butt;stroke-linejoin:miter;stroke-opacity:1"
         d="m 214.31249,373.58569 c 0.42948,0.74352 5.08186,-1.52685 6.42847,-3.22665 0.76301,-0.96313 1.58546,-2.22021 0.9089,-3.39204 -0.67656,-1.17184 -2.37839,-1.49414 -3.39205,-0.9089 -1.01365,0.58523 -0.96368,2.21843 -1.18257,2.9172 -0.83149,2.65426 -3.17569,3.89547 -2.76275,4.61039 z"
         id="path5864"
         sodipodi:nodetypes="sszzss" />
      <path
         style="fill:#ffcc00;fill-opacity:1;stroke:none;stroke-width:0.264583px;stroke-linecap:butt;stroke-linejoin:miter;stroke-opacity:1"
         d="m 205.6697,373.73086 c -1.7e-4,0.85865 -5.16444,1.21864 -7.18054,0.41988 -1.14235,-0.45259 -2.48315,-1.13003 -2.48315,-2.48315 0,-1.35312 1.31268,-2.48315 2.48315,-2.48315 1.17047,0 1.94379,1.43938 2.48274,1.93508 2.04722,1.88292 4.69796,1.78574 4.6978,2.61134 z"
         id="path5866"
         sodipodi:nodetypes="sszzss" />
      <path
         style="fill:#ffcc00;fill-opacity:1;stroke:none;stroke-width:0.264583px;stroke-linecap:butt;stroke-linejoin:miter;stroke-opacity:1"
         d="m 209.02082,373.58569 c -0.42948,0.74352 -5.08186,-1.52685 -6.42847,-3.22665 -0.76301,-0.96313 -1.58546,-2.22021 -0.9089,-3.39204 0.67656,-1.17184 2.37839,-1.49414 3.39205,-0.9089 1.01365,0.58523 0.96368,2.21843 1.18257,2.9172 0.83149,2.65426 3.17569,3.89547 2.76275,4.61039 z"
         id="path5868"
         sodipodi:nodetypes="sszzss" />
      <path
         id="path5870"
         style="fill:#ffcc00;fill-opacity:1;stroke:none;stroke-width:1.5875;stroke-linecap:round"
         d="m 235.28278,410.21589 a 2.2636759,1.3143924 67.244776 0 0 0.26511,-0.06 2.2636759,1.3143924 67.244776 0 0 0.33641,-2.5957 2.2636759,1.3143924 67.244776 0 0 -2.08773,-1.57923 2.2636759,1.3143924 67.244776 0 0 -0.33641,2.5957 2.2636759,1.3143924 67.244776 0 0 1.82262,1.63918 z m -47.13769,0 a 1.3143924,2.2636759 22.755224 0 0 1.72806,-1.63918 1.3143924,2.2636759 22.755224 0 0 -0.33641,-2.5957 1.3143924,2.2636759 22.755224 0 0 -2.08773,1.57923 1.3143924,2.2636759 22.755224 0 0 0.33642,2.5957 1.3143924,2.2636759 22.755224 0 0 0.35966,0.06 z m 44.56938,-7.59695 a 2.2636759,1.3143924 75.744845 0 0 0.17828,-0.0238 2.2636759,1.3143924 75.744845 0 0 0.71675,-2.51768 2.2636759,1.3143924 75.744845 0 0 -1.83141,-1.87017 2.2636759,1.3143924 75.744845 0 0 -0.71624,2.51768 2.2636759,1.3143924 75.744845 0 0 1.65262,1.89394 z m -42.09562,0 a 1.3143924,2.2636759 14.255155 0 0 1.65261,-1.89394 1.3143924,2.2636759 14.255155 0 0 -0.71624,-2.51768 1.3143924,2.2636759 14.255155 0 0 -1.83141,1.87017 1.3143924,2.2636759 14.255155 0 0 0.71675,2.51768 1.3143924,2.2636759 14.255155 0 0 0.17829,0.0238 z m 40.35257,-8.15971 a 2.2636759,1.3143924 79.251082 0 0 0.17984,-0.0124 2.2636759,1.3143924 79.251082 0 0 0.86919,-2.4691 2.2636759,1.3143924 79.251082 0 0 -1.71359,-1.97869 2.2636759,1.3143924 79.251082 0 0 -0.86919,2.4691 2.2636759,1.3143924 79.251082 0 0 1.53375,1.99109 z m -38.60953,0 a 1.3143924,2.2636759 10.748918 0 0 1.53376,-1.99109 1.3143924,2.2636759 10.748918 0 0 -0.8692,-2.4691 1.3143924,2.2636759 10.748918 0 0 -1.71359,1.97868 1.3143924,2.2636759 10.748918 0 0 0.8692,2.4691 1.3143924,2.2636759 10.748918 0 0 0.17983,0.0124 z m 37.59926,-8.37055 a 2.2636759,1.3143924 89.105179 0 0 1.27899,-2.2841 2.2636759,1.3143924 89.105179 0 0 -1.34979,-2.24275 2.2636759,1.3143924 89.105179 0 0 -1.27899,2.28409 2.2636759,1.3143924 89.105179 0 0 1.34979,2.24276 z m -36.58898,0 a 1.3143924,2.2636759 0.89482112 0 0 1.34978,-2.24276 1.3143924,2.2636759 0.89482112 0 0 -1.27899,-2.28409 1.3143924,2.2636759 0.89482112 0 0 -1.34979,2.24275 1.3143924,2.2636759 0.89482112 0 0 1.279,2.2841 z m 27.81949,-1.88051 a 2.3235397,1.445758 0 0 0 2.32337,-1.44539 2.3235397,1.445758 0 0 0 -2.32337,-1.4459 2.3235397,1.445758 0 0 0 -2.32338,1.4459 2.3235397,1.445758 0 0 0 2.32338,1.44539 z m -9.525,0 a 2.3235397,1.445758 0 0 0 2.32337,-1.44539 2.3235397,1.445758 0 0 0 -2.32337,-1.4459 2.3235397,1.445758 0 0 0 -2.32338,1.4459 2.3235397,1.445758 0 0 0 2.32338,1.44539 z m -9.525,0 a 2.3235397,1.445758 0 0 0 2.32337,-1.44539 2.3235397,1.445758 0 0 0 -2.32337,-1.4459 2.3235397,1.445758 0 0 0 -2.32338,1.4459 2.3235397,1.445758 0 0 0 2.32338,1.44539 z" />
      <path
         id="path5872"
         style="color:#000000;fill:#d40000;fill-opacity:1;stroke:none;stroke-width:0.754142;stroke-linecap:round;stroke-linejoin:round;-inkscape-stroke:none"
         d="m 229.75211,411.48351 c -1.55707,-7.75163 -2.53728,-15.84561 -2.85305,-24.19232 h -0.0532 -29.77441 -0.0532 c -0.31576,8.34671 -1.2956,16.44069 -2.85253,24.19232 h 1.59215 c 1.46642,-7.31432 2.4399,-14.91881 2.80086,-22.76863 h 26.80043 c 0.36096,7.84982 1.33444,15.45431 2.80086,22.76863 z" />
      <path
         id="path5874"
         style="color:#000000;fill:#ffcc00;fill-opacity:1;stroke:none;stroke-width:1;-inkscape-stroke:none"
         d="m 211.94648,403.51501 c 2.00502,0 1.29291,-5.60543 0.85215,-8.21914 1.14993,1.16359 5.0534,7.36073 6.8001,5.63325 1.82497,-1.80489 -5.76192,-5.76193 -5.76192,-5.76193 0,0 0.91984,-0.21692 0.91984,-0.88521 0,-0.66829 -1.47579,-1.00511 -2.81017,-1.00511 -1.33438,0 -2.81016,0.33682 -2.81016,1.00511 0,0.66828 0.91984,0.88521 0.91984,0.88521 0,0 -7.58689,3.95703 -5.76192,5.76193 0.21386,0.21151 0.46009,0.30419 0.72967,0.30179 1.93361,-0.0172 5.06327,-4.91601 6.06991,-5.93194 -0.4408,2.61503 -1.15156,8.21604 0.85266,8.21604 z" />
      <path
         style="fill:#ffcc00;fill-opacity:1;stroke:none;stroke-width:0.239533px;stroke-linecap:butt;stroke-linejoin:miter;stroke-opacity:1"
         d="m 225.48795,318.69343 c 0.32278,-5.71466 0.0815,5.03907 2.49905,14.08472 0.79237,2.96479 2.7044,8.53457 2.43917,11.07042 -0.26087,2.49414 -1.94176,4.43464 -3.83777,-0.0299 -1.96158,-4.61897 -1.75314,-13.57013 -1.10045,-25.12523 z"
         id="path5876"
         sodipodi:nodetypes="sssss" />
      <path
         style="fill:#ffcc00;fill-opacity:1;stroke:none;stroke-width:0.239533px;stroke-linecap:butt;stroke-linejoin:miter;stroke-opacity:1"
         d="m 197.84484,318.69343 c -0.32278,-5.71466 -0.0815,5.03907 -2.49905,14.08472 -0.79237,2.96479 -2.7044,8.53457 -2.43917,11.07042 0.26087,2.49414 1.94176,4.43464 3.83777,-0.0299 1.96158,-4.61897 1.75314,-13.57013 1.10045,-25.12523 z"
         id="path5878"
         sodipodi:nodetypes="sssss" />
      <path
         style="color:#000000;fill:#d40000;fill-opacity:1;stroke:none;-inkscape-stroke:none"
         d="m 211.667,333.48579 0.24024,-0.90039 c 2.00803,-7.49408 5.21346,-13.96823 7.92187,-19.07227 1.35421,-2.55202 2.58497,-4.76181 3.48047,-6.59179 0.89551,-1.82999 1.4668,-3.26885 1.4668,-4.35938 h -0.5 c 0,0.90631 -0.53016,2.33035 -1.41602,4.14063 -0.88586,1.81027 -2.11571,4.01899 -3.47265,6.57617 -2.62601,4.94875 -5.68887,11.25343 -7.72071,18.49609 -2.04743,-7.30085 -5.1121,-13.58406 -7.73437,-18.50586 -1.3548,-2.54284 -2.58183,-4.73834 -3.46484,-6.54297 -0.88301,-1.80462 -1.41211,-3.22994 -1.41211,-4.16406 h -0.5 c 0,1.1131 0.56992,2.5598 1.46289,4.38477 0.89296,1.82497 2.12062,4.01898 3.47265,6.55664 2.70407,5.07532 5.90828,11.52346 7.9336,19.08203 z"
         id="path5884" />
      <path
         id="path5886"
         style="fill:#ffcc00;fill-opacity:1;stroke:none;stroke-width:0.543761;stroke-linecap:round;stroke-linejoin:miter;stroke-miterlimit:4;stroke-dasharray:none"
         d="m 292.79142,396.30304 c 5.47751,-2.16495 11.02172,-4.59059 16.57418,-7.27655 4.38113,-8.7404 6.68773,-18.40931 6.69262,-28.24996 -0.0166,-25.41455 -15.27507,-48.33975 -38.7134,-58.16545 1.37587,31.63168 6.62041,63.66832 15.4466,93.69196 z" />
      <path
         id="path5888"
         style="fill:#000000;fill-opacity:1;stroke:none;stroke-width:0.543761;stroke-linecap:round;stroke-linejoin:miter;stroke-miterlimit:4;stroke-dasharray:none"
         d="m 297.27383,394.48093 c 0.0825,-0.0345 0.16451,-0.0662 0.24702,-0.10077 l -1.70636,-6.23734 c -0.0636,0.0995 -0.12895,0.19808 -0.19327,0.29714 z m 2.66857,-1.14256 c 0.15077,-0.0651 0.30135,-0.12981 0.45217,-0.19534 0.85458,-1.25899 1.75991,-2.70015 2.66496,-4.32532 l 7.83208,-3.14089 a 63.114512,63.114512 0 0 0 0.15089,-0.34572 l -7.78505,3.12126 c 1.31962,-2.40918 2.62348,-5.18589 3.7424,-8.31422 l 7.35356,-4.86069 a 63.114512,63.114512 0 0 0 0.10284,-0.38395 l -7.30912,4.83226 c 0.94854,-2.71796 1.75155,-5.69141 2.30529,-8.89713 l 6.43991,-5.60793 a 63.114512,63.114512 0 0 0 0.0135,-0.36328 l -6.38101,5.55728 c 0.49649,-3.01144 0.76915,-6.22614 0.73019,-9.62783 l 5.53092,-5.53248 a 63.114512,63.114512 0 0 0 -0.0377,-0.3359 l -5.50147,5.50147 c -0.052,-2.89337 -0.32859,-5.91942 -0.88677,-9.07076 l 4.63383,-6.37636 a 63.114512,63.114512 0 0 0 -0.0868,-0.32918 l -4.61367,6.34742 c -0.051,-0.27814 -0.0996,-0.55555 -0.15503,-0.83561 -0.58059,-2.93543 -1.30837,-5.66252 -2.14974,-8.20156 l 3.58221,-6.79029 a 63.114512,63.114512 0 0 0 -0.13436,-0.31367 l -3.56464,6.75772 c -1.03838,-3.07371 -2.24478,-5.86664 -3.56774,-8.40103 l 2.29288,-7.17631 a 63.114512,63.114512 0 0 0 -0.18603,-0.28525 l -2.28048,7.13496 c -1.59909,-3.01401 -3.35932,-5.66112 -5.18935,-7.98504 l 1.14515,-7.09518 a 63.114512,63.114512 0 0 0 -0.22996,-0.23719 l -1.13791,7.04867 c -1.61635,-2.02352 -3.28285,-3.79858 -4.93562,-5.35575 -0.48101,-0.45317 -0.95999,-0.88308 -1.43712,-1.30018 l 0.30024,-6.94169 a 63.114512,63.114512 0 0 0 -0.25632,-0.19637 l -0.30024,6.91895 c -2.55834,-2.20732 -5.02574,-3.91097 -7.16338,-5.22604 l -0.93586,-7.15149 a 63.114512,63.114512 0 0 0 -0.28733,-0.15968 l 0.93276,7.13082 c -0.0177,-0.0107 -0.0366,-0.0229 -0.0543,-0.0336 -2.67474,-1.62186 -4.79304,-2.6304 -5.82806,-3.25769 l -0.0682,0.11007 c 0.003,0.0527 0.007,0.10543 0.0104,0.15813 1.08077,0.64583 3.13249,1.62951 5.74952,3.21634 0.002,10e-4 0.004,0.002 0.005,0.003 l -5.49527,0.7183 c 0.006,0.0879 0.0128,0.17568 0.0191,0.26355 l 5.82961,-0.76222 c 2.11524,1.30221 4.55173,2.98578 7.07864,5.16247 L 279.60147,317.439 c 0.14087,0.0866 0.27823,0.17723 0.41807,0.2651 l 11.18743,0.48266 c 0.46267,0.40525 0.92688,0.8226 1.39319,1.26193 1.64898,1.55362 3.31177,3.325 4.92425,5.3449 l -10.37094,-1.67432 c 0.12016,0.10914 0.24219,0.21639 0.36121,0.3266 l 10.25261,1.65623 c 1.80349,2.29466 3.53861,4.90527 5.11648,7.87549 l -9.45782,-3.02256 c 0.0918,0.12062 0.18057,0.24344 0.2713,0.36483 l 9.36377,2.99155 c 1.3166,2.5201 2.51744,5.29793 3.55172,8.35608 l -8.62584,-4.54959 c 0.0717,0.13646 0.14193,0.27372 0.21239,0.41083 l 8.53643,4.50257 c 0.83837,2.52986 1.56363,5.24845 2.1425,8.17521 0.0526,0.26615 0.0986,0.52933 0.14728,0.79375 l -7.54114,-5.48028 c 0.0445,0.14155 0.0911,0.28225 0.13436,0.42426 l 7.47706,5.43326 c 0.558,3.14472 0.83518,6.16436 0.88728,9.05061 l -6.63628,-6.63422 c 0.0199,0.14369 0.0392,0.28752 0.0579,0.4315 l 6.58617,6.58564 c 0.0379,3.38237 -0.23294,6.57864 -0.72657,9.57255 l -5.54024,-6.36034 c -0.008,0.12415 -0.0179,0.24803 -0.0269,0.37207 l 5.50871,6.32365 c -0.55333,3.23048 -1.36207,6.22383 -2.31769,8.95707 l -4.5191,-6.83576 c -0.0284,0.11569 -0.0592,0.23077 -0.0884,0.34623 l 4.49585,6.80114 c -1.12664,3.16267 -2.44392,5.96574 -3.77599,8.39122 l -3.16415,-7.89151 c -0.0486,0.11528 -0.0978,0.23026 -0.14728,0.3452 l 3.14658,7.85068 c -0.98682,1.77212 -1.97296,3.32153 -2.89337,4.65502 z" />
      <path
         id="path5890"
         style="color:#000000;fill:#ffffff;fill-opacity:1;stroke:none;stroke-width:1;stroke-linecap:round;stroke-linejoin:round;-inkscape-stroke:none"
         d="m 288.40719,397.98459 c 1.4559,-0.54332 2.91694,-1.10161 4.38423,-1.68155 -8.82614,-30.02348 -14.07069,-62.05995 -15.4466,-93.69143 l -0.27027,-27.67171 -4.36459,-1.41438 a 365.35296,365.35296 0 0 0 -0.62064,16.58453 365.35296,365.35296 0 0 0 16.31787,107.87454 z" />
      <path
         id="path5892"
         style="fill:#ffffff;fill-opacity:1;stroke:none;stroke-width:0.438425;stroke-linecap:round;stroke-linejoin:miter;stroke-miterlimit:4;stroke-dasharray:none"
         d="m 291.95276,393.4071 c 7.66306,-9.14763 11.86764,-20.69737 11.87886,-32.63057 -0.003,-18.25204 -9.78081,-35.10459 -25.62479,-44.16578 2.059,26.01144 6.69224,52.05546 13.74593,76.79635 z"
         sodipodi:nodetypes="cccc" />
      <path
         id="path5894"
         style="fill:#2a7fff;fill-opacity:1;stroke:none;stroke-width:0.347004;stroke-linecap:round;stroke-linejoin:miter;stroke-miterlimit:4;stroke-dasharray:none"
         d="m 288.36952,379.88286 c 3.17457,-5.86867 4.84145,-12.43407 4.85086,-19.10633 -0.01,-11.55999 -4.98602,-22.55853 -13.66273,-30.19712 1.90593,16.63634 4.85784,33.18723 8.81187,49.30345 z"
         sodipodi:nodetypes="cccc" />
      <path
         id="path5896"
         style="color:#000000;fill:#2a7fff;fill-opacity:1;stroke:none;stroke-width:1;-inkscape-stroke:none"
         d="m 298.01854,384.39628 0.12144,-0.23358 -9.43922,-4.91495 c -0.0403,0.0778 -0.0811,0.15547 -0.12195,0.23306 z m -9.787,-5.09633 c -0.0274,-0.11254 -0.0528,-0.22591 -0.0801,-0.33848 l -0.0103,-0.005 c 0.0275,0.11343 0.0556,0.22664 0.0832,0.34003 z m 14.3645,-7.37423 0.0568,-0.25838 -10.37249,-2.30064 c -0.0189,0.0862 -0.0399,0.17185 -0.0594,0.25787 z m -9.41338,-12.7677 10.60659,-0.46198 -0.0119,-0.26562 -10.60556,0.46199 c 0.004,0.0885 0.007,0.17706 0.0109,0.26561 z M 291.38484,348.8 l 10.13323,-3.1936 -0.0796,-0.2527 -10.13375,3.19412 c 0.0269,0.084 0.0538,0.16797 0.0801,0.25218 z m -4.41679,-9.5374 8.96793,-5.7118 -0.14108,-0.22273 -8.96896,5.71232 c 0.0475,0.074 0.0951,0.14794 0.14211,0.22221 z m -7.26881,-7.48275 0.005,-0.005 c -0.0135,-0.11477 -0.0285,-0.22939 -0.0419,-0.34416 l -0.004,0.004 c 0.0134,0.11525 0.0273,0.23047 0.0408,0.34572 z m 0.53744,-0.58601 7.18819,-7.84293 -0.19482,-0.17725 -7.18871,7.84345 c 0.0649,0.059 0.13084,0.11729 0.19534,0.17673 z"
         sodipodi:nodetypes="ccccccccccccccccccccccccccccccccccccccccc" />
      <path
         id="path5898"
         style="fill:#000000;fill-opacity:1;stroke:none;stroke-width:2.08998;stroke-linecap:round;stroke-linejoin:round;stroke-miterlimit:4;stroke-dasharray:none"
         d="m 1336.0586,790.14844 c -9.9616,7.27457 -19.5749,15.01641 -28.7891,23.20508 -15.1642,13.47658 -29.2642,28.14098 -42.1367,43.82617 -12.8725,15.68515 -24.5174,32.39185 -34.7656,49.95312 -10.2483,17.56127 -19.1011,35.9772 -26.3926,55.08203 l 1.8535,0.71289 c 7.2528,-18.99877 16.0611,-37.31517 26.2578,-54.7832 10.1967,-17.46803 21.7818,-34.08664 34.5899,-49.69141 12.8081,-15.60476 26.8388,-30.1945 41.9258,-43.60351 8.804,-7.8248 17.9783,-15.23523 27.4687,-22.22266 z m -132.084,172.0664 c -7.2915,19.10487 -13.0211,38.89886 -17.0234,59.21486 -4.0023,20.3159 -6.2777,41.1531 -6.6582,62.3476 v 0 c 0.3806,21.1945 2.6559,42.0317 6.6582,62.3477 v 0 c 4.0022,20.3159 9.7319,40.108 17.0234,59.2129 7.2915,19.1049 16.1444,37.5208 26.3926,55.082 10.2483,17.5613 21.8912,34.268 34.7637,49.9532 12.8724,15.6851 26.9744,30.3495 42.1386,43.8261 6.5607,5.8305 13.3324,11.4244 20.2774,16.7969 0.5376,-0.4305 1.0843,-0.8413 1.6211,-1.2734 -7.0475,-5.4381 -13.9153,-11.1062 -20.5664,-17.0176 -15.087,-13.409 -29.1177,-27.9988 -41.9258,-43.6035 -12.8081,-15.6048 -24.3932,-32.2254 -34.5899,-49.6934 -10.1967,-17.468 -19.005,-35.7844 -26.2578,-54.7832 -7.2528,-18.9988 -12.9513,-38.6799 -16.9277,-58.8769 -3.9764,-20.1971 -6.2302,-40.9099 -6.5977,-61.9727 0.3674,-21.0628 2.6232,-41.7776 6.5996,-61.9746 3.9764,-20.1971 9.673,-39.8762 16.9258,-58.87501 z m 132.1172,-165.26367 c -7.818,5.83955 -15.4308,11.94992 -22.7754,18.36914 l 1.252,1.42969 21.7441,24.80859 -0.02,-3.81054 -18.4375,-21.33594 c 5.9304,-5.11022 12.0222,-10.03226 18.2597,-14.76563 z m 0.039,8.12305 c -5.115,3.92708 -10.1356,7.9757 -15.0411,12.16016 l 11.1582,13.04296 4.0313,4.71289 -0.035,-7.11718 -0.4726,-0.56641 -6.6113,-7.92578 c 2.3143,-1.92435 4.653,-3.8202 7.0136,-5.6875 z m -27.6094,14.50781 c -13.2546,11.98239 -25.6685,24.89137 -37.1231,38.60742 l 1.4571,1.22071 27.2383,22.83007 28.6933,24.05079 c 2.5392,-3.0239 5.149,-5.99071 7.8008,-8.91993 l -0.027,-5.55859 c -3.1475,3.38979 -6.2493,6.82168 -9.246,10.3418 l -13.2247,-11.24219 c 7.0532,-8.29613 14.521,-16.2477 22.3477,-23.82617 l -0.01,-1.05274 -3.0019,-3.11523 c -8.1385,7.84588 -15.8875,16.09666 -23.2051,24.70703 l -8.5449,-7.26367 -25.6348,-21.79297 c 10.2798,-12.13021 21.3216,-23.61136 33.0391,-34.35742 l 11.7558,12.79883 c -8.9978,8.25637 -17.5816,16.96404 -25.707,26.08007 l 3.7754,3.3711 c 8.015,-8.99021 16.4815,-17.58056 25.3555,-25.72461 l 12.1093,13.18164 -0.018,-3.60938 z m 27.7012,4.08789 c -0.06,0.0493 -0.1215,0.0971 -0.1817,0.14649 l 0.1836,0.22461 z m -26.6993,3.84766 c -0.5898,0.54648 -1.1773,1.09427 -1.7636,1.64453 -9.9961,9.38128 -19.4812,19.30746 -28.3985,29.7207 l 13.0235,11.18164 13.0351,11.19336 c 7.6529,-8.91885 15.7617,-17.45113 24.2793,-25.55273 l 6.7168,7.06054 -0.031,-6.29882 -8.1543,-8.78907 c -8.7857,8.14678 -17.16,16.74028 -25.0743,25.73438 l -7.75,-6.82617 -7.748,-6.82617 c 7.8469,-8.92664 16.1232,-17.47531 24.7891,-25.60938 0.5758,-0.54051 1.1531,-1.08034 1.7324,-1.61719 z m -42.1953,35.63086 c -11.2232,13.90768 -21.4748,28.6082 -30.6328,43.98437 l 1.6231,0.97657 30.3652,18.24218 31.9844,19.21485 c 7.4129,-12.28354 15.725,-24.08331 24.8203,-35.28125 z m 1.2676,4.49218 13.5664,10.8379 c -7.6078,9.55037 -14.7313,19.48435 -21.3281,29.75586 l 4.2383,2.73632 c 6.5074,-10.12478 13.5361,-19.91687 21.041,-29.33398 l 35.0332,27.98828 c -8.1971,10.24089 -15.7492,20.97046 -22.5723,32.10352 l -14.7656,-9.01758 c 5.7827,-9.46795 12.0605,-18.65039 18.7891,-27.50586 l -4.0372,-3.06836 c -6.8285,8.99244 -13.1992,18.32101 -19.0683,27.93945 L 1269.953,924.25 1241.33,906.77148 c 8.2478,-13.61442 17.366,-26.68642 27.2656,-39.13086 z m 0.9434,3.20118 c -0.4975,0.63186 -0.9929,1.26535 -1.4864,1.90039 -8.4127,10.82698 -16.2338,22.11704 -23.4062,33.81445 l 14.5566,8.99414 14.5703,9 c 6.1545,-9.98362 12.8358,-19.65335 19.9981,-28.96289 l 8.1758,6.29688 8.1718,6.29687 c -6.3248,8.20188 -12.2528,16.69433 -17.7441,25.44141 -0.3647,0.58106 -0.727,1.16479 -1.0879,1.74804 l 5.8125,3.58985 c 0.3534,-0.57045 0.7092,-1.1407 1.0664,-1.70899 6.091,-9.68931 12.7291,-19.06356 19.8613,-28.06836 l -13.4648,-10.64843 -13.4707,-10.65039 c -7.4197,9.40097 -14.3546,19.17799 -20.7598,29.2832 l -8.6914,-5.52539 -8.6855,-5.52539 c 6.3505,-10.04999 13.1911,-19.78476 20.4863,-29.16797 0.4848,-0.62351 0.9722,-1.24483 1.4609,-1.86524 z m 66.9531,7.17578 c -4.8362,4.90249 -9.5361,9.94031 -14.0547,15.13281 -0.4521,0.51957 -0.9027,1.04017 -1.3516,1.5625 l 5.1993,4.46484 c 0.4396,-0.51133 0.8813,-1.02064 1.3242,-1.52929 2.9016,-3.33286 5.8949,-6.58778 8.9316,-9.80078 z m 0.1211,24.55078 c -2.3051,2.60888 -4.587,5.23798 -6.8028,7.91992 l 1.5567,1.2832 c 1.7139,-2.074 3.4938,-4.09466 5.2617,-6.125 z m -5.2461,9.20312 -1.5567,-1.28125 c -10.1764,12.31745 -19.3928,25.38675 -27.4824,39.04297 -8.0896,13.65619 -15.0524,27.89814 -20.7226,42.56055 -5.6703,14.66245 -10.0466,29.74585 -12.9649,45.08205 -2.9183,15.3361 -4.3789,30.9261 -4.2129,46.6035 -0.1659,15.6774 1.2926,31.2674 4.211,46.6035 2.9183,15.3362 7.2966,30.4177 12.9668,45.0801 5.6702,14.6624 12.633,28.9063 20.7226,42.5625 8.0896,13.6562 17.306,26.7255 27.4824,39.043 2.508,3.0356 5.0752,6.0231 7.6973,8.9648 v -3.0977 c -2.0739,-2.3612 -4.1401,-4.7295 -6.1406,-7.1503 -10.1116,-12.2365 -19.269,-25.2191 -27.3067,-38.7813 -8.0376,-13.5622 -14.9567,-27.7042 -20.5878,-42.2598 -5.6312,-14.5555 -9.975,-29.5239 -12.8672,-44.7402 -2.8922,-15.2163 -4.3316,-30.68 -4.1524,-46.2246 -0.1791,-15.5446 1.2601,-31.0083 4.1524,-46.2246 2.8922,-15.2163 7.2379,-30.1867 12.8691,-44.7422 5.6312,-14.55553 12.5483,-28.69754 20.5859,-42.25977 8.0377,-13.56223 17.1951,-26.54484 27.3067,-38.78125 z m -97.9121,0.91211 c -8.895,15.53602 -16.6836,31.73336 -23.2481,48.47266 l 1.7539,0.69336 32.8047,12.96875 34.5547,13.66211 c 5.2482,-13.21795 11.5289,-26.08482 18.7246,-38.48242 z m 1.9453,4.23633 15.043,8.54492 c -6.0033,10.62974 -11.4529,21.57473 -16.3067,32.78711 l 4.6074,2.00391 c 4.7853,-11.04476 10.1608,-21.82717 16.0821,-32.30274 l 38.8437,22.06641 c -6.4586,11.32626 -12.1646,23.03476 -17.0351,35.03906 l -15.9727,-6.45703 c 4.1406,-10.2404 8.8454,-20.26675 14.0703,-30.0332 l -4.4531,-2.38086 c -5.3039,9.92436 -10.0811,20.11347 -14.2871,30.52539 l -10.3203,-4.17187 c -10.3204,-4.1723 -20.6406,-8.34337 -30.961,-12.51563 5.9491,-14.83185 12.8745,-29.22946 20.6895,-43.10547 z m 1.4277,3.01367 c -0.3916,0.7036 -0.781,1.40704 -1.1679,2.11329 -6.5978,12.04093 -12.5229,24.46494 -17.7188,37.21484 l 15.7617,6.47266 15.7754,6.47851 c 4.4378,-10.8302 9.4737,-21.41946 15.0625,-31.71875 l 9.0293,4.91211 9.0274,4.91016 c -4.9309,9.04856 -9.4017,18.32709 -13.3731,27.79492 -0.2638,0.62891 -0.5258,1.25809 -0.7851,1.88867 l 6.2929,2.58398 c 0.2536,-0.61598 0.5095,-1.2313 0.7676,-1.8457 4.4002,-10.47496 9.4303,-20.71602 15.0332,-30.66797 l -14.9141,-8.36914 -14.9199,-8.37305 c -5.8357,10.43702 -11.1149,21.1795 -15.793,32.17774 l -9.4316,-4.02734 -9.4277,-4.02344 c 4.6495,-10.96872 9.8541,-21.68549 15.5742,-32.11328 0.3801,-0.6929 0.7618,-1.38581 1.1465,-2.07618 z m -28.9258,47.25586 c -6.2697,16.86743 -11.3005,34.26285 -14.9746,52.06835 l 1.8477,0.375 34.5605,7.0137 36.4063,7.3867 c 2.7864,-13.8554 6.7391,-27.4927 11.7383,-40.79297 z m 2.5957,3.86328 16.1856,5.91797 c -4.1841,11.49453 -7.7466,23.2332 -10.6426,35.1719 l 4.877,1.1777 c 2.8485,-11.7501 6.3555,-23.30752 10.4785,-34.62694 l 41.7949,15.2793 c -4.4533,12.14484 -8.0482,24.56514 -10.6992,37.17384 l -16.8457,-3.5625 c 2.2839,-10.7983 5.2022,-21.4513 8.709,-31.91408 l -4.7715,-1.59961 c -3.5647,10.64169 -6.535,21.47999 -8.8633,32.47069 l -10.8828,-2.3027 c -10.8845,-2.3028 -21.7678,-4.6055 -32.6524,-6.9082 3.3835,-15.7824 7.849,-31.23666 13.3125,-46.27737 z m 1.8907,2.73829 c -0.2722,0.76176 -0.5417,1.52518 -0.8086,2.28906 -4.5511,13.02315 -8.3483,26.34732 -11.336,39.91792 l 16.6348,3.6231 16.6504,3.625 c 2.5029,-11.4586 5.6755,-22.7475 9.4727,-33.81837 l 9.6875,3.32813 9.6816,3.32422 c -3.3322,9.69062 -6.1418,19.54732 -8.3887,29.53122 -0.1493,0.6633 -0.2951,1.3279 -0.4394,1.9922 l 6.6425,1.4453 c 0.1403,-0.6479 0.2826,-1.2945 0.4278,-1.9414 2.4777,-11.0289 5.6659,-21.9049 9.5078,-32.57224 l -16.0332,-5.76172 -16.0371,-5.76172 c -4.0335,11.25498 -7.4411,22.74298 -10.1738,34.41598 l -9.9727,-2.3281 -9.9688,-2.3242 c 2.7441,-11.6829 6.1045,-23.17753 10.045,-34.44532 0.2619,-0.74876 0.526,-1.49742 0.7929,-2.24414 z m -20.7227,51.87698 c -3.3475,17.9019 -5.3239,36.1987 -5.8105,54.7734 l 1.9062,0.02 35.6348,0.375 37.5371,0.3926 c 0.026,-14.1959 1.3537,-28.3049 3.8594,-42.2109 z m 3.2188,3.373 16.9941,2.9551 c -2.1503,12.1447 -3.6102,24.4636 -4.334,36.9141 l 5.0489,0.2539 c 0.6971,-12.2409 2.1223,-24.358 4.2324,-36.3067 l 43.8808,7.6309 c -2.1812,12.6965 -3.3957,25.5615 -3.5605,38.5078 l -17.3848,-0.3379 c 0.2128,-11.1416 1.1272,-22.2058 2.7012,-33.1504 l -4.9922,-0.7187 c -1.6109,11.1445 -2.5569,22.4164 -2.793,33.7714 l -11.2304,-0.2167 c -11.2331,-0.2178 -22.4662,-0.4368 -33.6993,-0.6543 0.5511,-16.4662 2.2915,-32.7099 5.1368,-48.6485 z m 2.332,2.3789 c -0.1391,0.8064 -0.2749,1.614 -0.4082,2.4219 -2.2726,13.7737 -3.7101,27.768 -4.2578,41.9277 l 17.1797,0.4414 17.1953,0.4414 c 0.35,-11.8688 1.4412,-23.6375 3.2285,-35.2617 l 10.1426,1.543 10.1406,1.543 c -1.529,10.128 -2.4713,20.3587 -2.7891,30.6543 -0.023,0.6839 -0.041,1.3682 -0.057,2.0527 l 6.8594,0.1777 c 0.015,-0.6662 0.03,-1.3323 0.049,-1.998 0.3235,-11.3512 1.4379,-22.6321 3.2871,-33.7832 l -16.8203,-2.8203 -16.8262,-2.8223 c -2.0131,11.8548 -3.3271,23.8702 -3.8965,36 l -10.3164,-0.4297 -10.3125,-0.4297 c 0.6341,-12.1926 1.9481,-24.2607 3.9043,-36.164 0.13,-0.791 0.2627,-1.5797 0.3985,-2.3692 z m 63.7148,54.9102 -75.0761,0.789 c 0.4868,18.5747 2.4628,36.8716 5.8105,54.7735 l 1.8555,-0.3399 34.7109,-6.3359 36.5606,-6.6758 c -2.5058,-13.906 -3.8335,-28.015 -3.8614,-42.2109 z m -3.7871,2.2324 c 0.1648,12.9463 1.3814,25.8093 3.5625,38.5059 l -16.9785,2.9531 c -1.8919,-10.8831 -3.1352,-21.8982 -3.6875,-33 l -5.0644,0.2539 c 0.579,11.312 1.8569,22.5296 3.789,33.6094 l -10.9707,1.9082 -32.9101,5.7246 c -2.8453,-15.9386 -4.5877,-32.1843 -5.1387,-48.6504 l 17.4004,-0.3379 c 0.3628,12.5113 1.472,24.9035 3.2832,37.1309 l 4.9785,-0.7168 c -1.7743,-12.0281 -2.8538,-24.2133 -3.1934,-36.5118 z m -2.6933,1.6367 -17.1914,0.4414 -17.1953,0.4434 c 0.3829,12.1575 1.5169,24.2054 3.3554,36.0996 l -10.1426,1.543 -10.1406,1.5429 c -1.8708,-11.9249 -3.0971,-24.0096 -3.6406,-36.2187 -0.038,-0.8113 -0.069,-1.6232 -0.1,-2.4356 l -6.8477,0.1758 c 0.034,0.8306 0.067,1.6609 0.1055,2.4902 0.6521,14.1402 2.1922,28.1119 4.5625,41.8594 l 16.8105,-2.8203 16.8262,-2.8223 c -1.9594,-11.5872 -3.2299,-23.3264 -3.7637,-35.1699 l 10.3164,-0.4297 10.3126,-0.4296 c 0.4003,10.2868 1.4228,20.5068 3.0292,30.621 0.1066,0.6719 0.2163,1.3448 0.3282,2.0157 l 6.7109,-1.127 c -0.1085,-0.654 -0.2128,-1.308 -0.3164,-1.9629 -1.7629,-11.1659 -2.7889,-22.457 -3.0195,-33.8164 z m 11.291,43.3262 -72.8145,14.7773 c 3.6743,17.8055 8.7048,35.201 14.9746,52.0684 l 1.7657,-0.6602 33.0254,-12.3671 34.7871,-13.0254 c -4.9993,-13.3003 -8.9518,-26.9376 -11.7383,-40.793 z m -3.25,2.8848 c 2.651,12.6087 6.2459,25.0289 10.6992,37.1738 l -16.1719,5.9121 c -3.7909,-10.3676 -7.0019,-20.9353 -9.5918,-31.6602 l -4.8925,1.1797 c 2.6375,10.9141 5.9056,21.6658 9.7578,32.209 l -10.4492,3.8203 -31.3458,11.461 c -5.4635,-15.0407 -9.9309,-30.4969 -13.3144,-46.2793 l 16.8613,-3.5664 c 2.569,12.0333 5.8147,23.8773 9.6934,35.4882 l 4.7578,-1.5937 c -3.8209,-11.4325 -7.0164,-23.0922 -9.541,-34.9336 z m -2.3067,2.0996 -16.6484,3.625 -16.6504,3.625 c 2.5642,11.7185 5.8089,23.2581 9.6856,34.5703 l -9.6856,3.3261 -9.6836,3.3262 c -3.8634,-11.2977 -7.1447,-22.8196 -9.8066,-34.5273 -0.1769,-0.778 -0.3522,-1.5583 -0.5235,-2.3379 l -6.6289,1.4453 c 0.1754,0.796 0.3525,1.5905 0.5332,2.3848 3.0826,13.5416 6.972,26.8347 11.6114,39.8222 l 16.0215,-5.7578 16.0371,-5.7617 c -3.9516,-11.0161 -7.2842,-22.2564 -9.9532,-33.6719 l 9.9727,-2.3261 9.9687,-2.3262 c 2.3212,9.9669 5.2022,19.8042 8.6036,29.4726 0.226,0.6423 0.455,1.2851 0.6855,1.9258 l 6.3965,-2.2988 c -0.2253,-0.6257 -0.4491,-1.2519 -0.6699,-1.8789 -3.7651,-10.6917 -6.8714,-21.5901 -9.2657,-32.6367 z m 19.1348,40.5703 -69.1133,27.3242 c 6.5647,16.7393 14.353,32.9367 23.2481,48.4727 l 1.6387,-0.9473 30.6582,-17.7109 32.2929,-18.6563 c -7.1957,-12.3976 -13.4763,-25.2645 -18.7246,-38.4824 z m -2.6875,3.4199 c 4.8705,12.0043 10.5785,23.7108 17.0371,35.0371 l -15.0293,8.5391 c -5.4754,-9.6375 -10.4426,-19.5465 -14.8554,-29.6797 l -4.6211,2.0117 c 4.4815,10.3014 9.5243,20.3719 15.082,30.1641 l -9.7109,5.5156 -29.1348,16.5488 c -7.8151,-13.876 -14.7404,-28.2717 -20.6895,-43.1035 l 15.9864,-6.4629 c 4.5603,11.3407 9.7293,22.4233 15.4609,33.2031 l 4.4395,-2.375 c -5.6529,-10.6224 -10.7491,-21.5411 -15.2442,-32.7109 z m -1.9004,2.4766 -15.7715,6.4765 -15.7754,6.4785 c 4.5274,11.0616 9.6628,21.8708 15.3594,32.3829 l -9.0293,4.9121 -9.0273,4.9101 c -5.6514,-10.4661 -10.7836,-21.2207 -15.3594,-32.2226 -0.3039,-0.7311 -0.6052,-1.4621 -0.9043,-2.1953 l -6.2832,2.58 c 0.3046,0.7478 0.6121,1.4947 0.9219,2.2403 5.2813,12.7113 11.2883,25.0921 17.9648,37.0879 l 14.9043,-8.3633 14.9199,-8.3711 c -5.7254,-10.2267 -10.9061,-20.7483 -15.4921,-31.5176 l 9.4316,-4.0254 9.4277,-4.0254 c 4.0374,9.4425 8.5709,18.6929 13.5625,27.711 0.3315,0.599 0.6644,1.1979 1,1.7949 l 5.9512,-3.3399 c -0.3288,-0.5837 -0.6538,-1.1682 -0.9785,-1.7539 -5.5355,-9.9857 -10.496,-20.2576 -14.8223,-30.7597 z m 25.9356,37.0156 -63.9707,38.4336 c 9.1581,15.376 19.4075,30.0768 30.6308,43.9844 l 1.4766,-1.1954 27.6055,-22.373 29.08,-23.5684 c -9.0953,-11.1979 -17.4093,-22.9977 -24.8222,-35.2812 z m -2.0938,3.8379 c 6.8231,11.133 14.3752,21.8626 22.5723,32.1035 l -13.5547,10.8281 c -6.9453,-8.6928 -13.4514,-17.7257 -19.4727,-27.0527 l -4.2519,2.7461 c 6.1109,9.4742 12.7132,18.6462 19.7617,27.4726 l -8.7578,6.9981 -26.2773,20.9922 c -9.8997,-12.4445 -19.0158,-25.5184 -27.2637,-39.1328 l 14.7793,-9.0235 c 6.3371,10.4336 13.2121,20.5393 20.582,30.2735 l 4.0254,-3.0586 c -7.2703,-9.5977 -14.0537,-19.5602 -20.3047,-29.8438 z m -1.4746,2.7695 -14.5664,8.9981 -14.5703,9.0019 c 6.2723,10.1864 13.0804,20.0492 20.3789,29.543 l -8.1738,6.2969 -8.1719,6.2968 c -7.2349,-9.4298 -14.0157,-19.2112 -20.3008,-29.3027 -0.4176,-0.6706 -0.8328,-1.3423 -1.2461,-2.0156 l -5.8027,3.584 c 0.4207,0.6861 0.8444,1.3713 1.2695,2.0546 7.2484,11.6495 15.1409,22.8879 23.6231,33.6602 l 13.457,-10.6406 13.4707,-10.6504 c -7.2811,-9.2192 -14.0882,-18.8041 -20.373,-28.709 l 8.6914,-5.5254 8.6855,-5.5234 c 5.5489,8.7134 11.5328,17.1709 17.9102,25.334 0.4236,0.5422 0.8482,1.0834 1.2753,1.623 l 5.3731,-4.25 c -0.4183,-0.5282 -0.8351,-1.0572 -1.25,-1.5879 -7.0743,-9.048 -13.6532,-18.4616 -19.6797,-28.1875 z m 31.6895,32.6699 -57.3887,48.1016 c 11.4546,13.7159 23.8684,26.6232 37.123,38.6055 l 1.2754,-1.4082 23.8711,-26.3516 3.8379,-4.2363 v -3.5762 l -5.6543,6.1543 -22.7695,24.7871 c -11.7175,-10.7461 -22.7593,-22.2272 -33.0391,-34.3574 l 13.2363,-11.252 c 7.8994,9.3118 16.267,18.2273 25.0606,26.7012 l 3.5137,-3.6445 c -8.6731,-8.3583 -16.9284,-17.1513 -24.7207,-26.334 l 34.1797,-29.0547 c 3.297,3.8729 6.7142,7.6427 10.1933,11.3574 v -5.584 c -2.9677,-3.2504 -5.8903,-6.5399 -8.7187,-9.9082 z m -2.502,7.1114 -13.0312,11.1914 -13.0352,11.1933 c 7.7991,9.0931 16.0638,17.7914 24.7461,26.0489 l -7.123,7.4863 -7.1172,7.4824 c -8.6139,-8.1891 -16.8352,-16.793 -24.625,-25.7695 -0.5177,-0.5965 -1.0351,-1.1932 -1.5489,-1.793 l -5.1894,4.457 c 0.523,0.6108 1.0473,1.2207 1.5742,1.8282 8.9837,10.3557 18.5319,20.2199 28.5879,29.5371 l 11.6797,-12.5879 11.6894,-12.5996 c -8.6185,-7.9934 -16.834,-16.4238 -24.5996,-25.2461 l 7.752,-6.8282 7.748,-6.8242 c 4.4158,5.0108 9,9.8734 13.7129,14.6094 v -9.8047 c -3.8445,-4.032 -7.5908,-8.1587 -11.2207,-12.3808 z m -6.8555,14.3964 -3.7871,3.3809 c 6.9358,7.7715 14.2458,15.2098 21.8633,22.3164 v -6.9726 c -6.2611,-6.0094 -12.2981,-12.2521 -18.0762,-18.7247 z m 18.0762,41.8614 -24.1894,27.5996 c 6.0548,5.2918 12.3008,10.3654 18.6796,15.2656 1.0138,-0.8243 2.0598,-1.5816 3.0704,-2.4121 -5.8685,-4.486 -11.6183,-9.1264 -17.2129,-13.9473 L 1329.2148,1338 c 2.7264,2.3515 5.4982,4.6486 8.293,6.918 v -6.5547 c -1.6693,-1.3883 -3.3403,-2.775 -4.9844,-4.1934 l 4.9844,-5.7676 z m -11.9687,20.4883 -4.4493,5.1992 c 0.6118,0.5218 1.2267,1.0406 1.8418,1.5586 4.6843,3.9441 9.4794,7.7558 14.3516,11.4668 0.074,-0.061 0.151,-0.1148 0.2246,-0.1758 v -8.2949 c -3.43,-2.688 -6.8292,-5.4152 -10.1621,-8.2227 -0.604,-0.5088 -1.2058,-1.0186 -1.8066,-1.5312 z"
         transform="scale(0.26458333)" />
      <path
         id="path5900"
         style="fill:#d40000;fill-opacity:1;stroke:none;stroke-width:0.264583px;stroke-linecap:butt;stroke-linejoin:miter;stroke-opacity:1"
         d="m 252.49,408.30128 c 0.84892,-0.16932 1.71176,-0.35289 2.57504,-0.53641 -0.87398,0.18554 -1.72319,0.34715 -2.58175,0.5178 0.003,0.01 0.003,0.009 0.007,0.0186 z m 2.59933,-0.54106 c 4.81774,-1.02474 9.85245,-2.2754 15.04404,-3.75894 -9.78751,-31.17853 -15.67323,-63.6662 -17.40772,-96.73776 h -16.50597 c 1.82863,34.42368 8.227,68.19662 18.86965,100.4967 z m 15.04404,-3.75894 c 1.07497,-0.30718 2.1549,-0.62326 3.2427,-0.95085 l -0.005,-0.008 c -1.08304,0.32595 -2.16689,0.65317 -3.23753,0.95911 z" />
      <path
         id="path5902"
         style="fill:#d40000;stroke:none;stroke-width:0.264583px;stroke-linecap:butt;stroke-linejoin:miter;stroke-opacity:1"
         d="m 168.35302,411.48351 0.10904,-0.32142 c 11.15396,-32.86814 17.98171,-67.72641 19.87269,-103.89857 h -16.50597 c -1.83496,35.49809 -9.70871,71.773 -20.42614,104.21999 z" />
      <path
         id="path5904"
         style="fill:#d40000;fill-opacity:1;stroke:none;stroke-width:0.264583px;stroke-linecap:butt;stroke-linejoin:miter;stroke-opacity:1"
         d="m 289.23763,397.67867 c 0.32038,-0.12095 0.64481,-0.25643 0.96687,-0.38344 -0.32305,0.12345 -0.64699,0.2504 -0.96945,0.37207 z m 3.54552,-1.4056 c -2.75653,-9.3797 -5.16373,-18.95587 -7.21248,-28.65458 2.04868,9.69871 4.45595,19.2749 7.21248,28.65458 z m -7.21248,-28.65458 c -0.40975,-1.93974 -0.80496,-3.88427 -1.18597,-5.83324 0.38102,1.94908 0.77621,3.89339 1.18597,5.83324 z m -1.18597,-5.83324 c -1.14215,-5.84229 -2.15507,-11.72337 -3.03651,-17.62734 0.88139,5.904 1.8944,11.78503 3.03651,17.62734 z m 11.85147,33.11891 c 4.35287,-1.79687 8.73779,-3.7529 13.12943,-5.87767 -4.39174,2.12446 -8.77694,4.0791 -13.12943,5.87767 z m 13.12943,-5.87767 c 13.60484,-6.58236 27.25108,-14.7616 40.04355,-24.75973 -24.62615,-18.14074 -39.52749,-46.73565 -39.61774,-77.51671 v 0 l -32.71686,-11.81089 c -0.34758,9.42631 0.0318,17.07094 0.27027,27.67245 0,0 -1.19928,-0.49995 0,0 23.43833,9.82571 38.6968,32.7509 38.7134,58.16545 -0.005,9.84065 -2.31149,19.50956 -6.69262,28.24995 z m -28.12076,-45.59877 c -0.54523,-3.69855 -1.04398,-7.40505 -1.4857,-11.11715 0.44168,3.71202 0.94051,7.41867 1.4857,11.11715 z m -2.78743,-23.82645 c -0.148,-1.70597 -0.29015,-3.41229 -0.416,-5.11804 0.12585,1.70587 0.268,3.41195 0.416,5.11804 z"
         sodipodi:nodetypes="ccccccccccccccccccsccccccccccccc" />
      <path
         id="path5906"
         style="fill:#ffffff;fill-opacity:1;stroke:none;stroke-width:3.25526;stroke-linecap:square"
         d="m 1077.1504,641.16406 c -1.2817,0.0738 -2.5697,0.40205 -3.7969,1.01172 -4.9086,2.43867 -6.9124,8.43669 -4.4531,13.33008 2.4593,4.89328 8.4188,6.79712 13.2754,4.35547 4.8566,-2.44165 6.8205,-8.31654 4.4062,-13.19141 -1.8107,-3.65607 -5.5866,-5.72726 -9.4316,-5.50586 z m -16.9942,46.83399 c -1.2785,0.12219 -2.5558,0.5003 -3.7597,1.15625 -4.8156,2.62378 -6.5937,8.69838 -3.9492,13.49804 2.6444,4.79963 8.6786,6.47495 13.4414,3.84961 4.7627,-2.62533 6.5003,-8.57346 3.9023,-13.35547 -1.9485,-3.58645 -5.7991,-5.515 -9.6348,-5.14843 z m -15.2148,47.48047 c -1.2741,0.17129 -2.5358,0.59842 -3.7148,1.30078 -4.716,2.80943 -6.2618,8.95487 -3.4317,13.65429 2.8301,4.69935 8.9294,6.14155 13.5918,3.33203 4.6625,-2.80951 6.1709,-8.82512 3.3887,-13.50781 -2.0867,-3.5119 -6.0118,-5.29316 -9.834,-4.77929 z m -13.3867,48.08789 c -1.2682,0.22109 -2.5136,0.69838 -3.666,1.44726 -4.6099,2.99554 -5.9168,9.20614 -2.9004,13.79883 3.0163,4.59258 9.1767,5.79688 13.7324,2.80273 4.5556,-2.99418 5.8303,-9.07169 2.8633,-13.64843 -2.2253,-3.43248 -6.2247,-5.06367 -10.0293,-4.40039 z m -7.7051,48.59375 c -2.501,-0.44328 -5.1713,0.0691 -7.4199,1.66015 -4.4972,3.18218 -5.5605,9.45421 -2.3574,13.9336 3.203,4.4793 9.4228,5.43914 13.8652,2.25976 4.4423,-3.17934 5.4745,-9.31495 2.3223,-13.77929 -1.5761,-2.23214 -3.9092,-3.63095 -6.4102,-4.07422 z m -9.5859,49.04101 c -2.5234,-0.34358 -5.1763,0.27627 -7.3653,1.96094 -4.3779,3.3693 -5.1931,9.69711 -1.8027,14.05664 3.3903,4.35934 9.6618,5.07018 13.9844,1.70508 4.3225,-3.36507 5.1075,-9.55304 1.7695,-13.89844 -1.6689,-2.17272 -4.0625,-3.48064 -6.5859,-3.82422 z m -7.6192,49.53516 c -2.5438,-0.24156 -5.1786,0.48912 -7.30466,2.26758 -4.25227,3.55691 -4.81256,9.93474 -1.23437,14.16797 3.57823,4.2331 9.89753,4.688 14.09373,1.13671 4.1962,-3.55132 4.7273,-9.78782 1.2031,-14.00781 -1.762,-2.11001 -4.2139,-3.3229 -6.7578,-3.56445 z m -5.6015,49.91797 c -2.54944,-0.13694 -5.1501,0.70017 -7.1973,2.5625 -4.09447,3.72461 -4.37542,10.10681 -0.63672,14.17578 3.73879,4.06902 10.04572,4.26592 14.08402,0.55859 4.0382,-3.70734 4.3296,-9.94753 0.6425,-14.01562 -1.8435,-2.03405 -4.3431,-3.14432 -6.8925,-3.28125 z m -3.54886,49.959 c -2.54474,-0.033 -5.1004,0.9064 -7.06445,2.8437 -3.92807,3.8747 -3.95253,10.2415 -0.0645,14.1446 3.88804,3.9025 10.17721,3.8465 14.05081,-0.01 3.8735,-3.8564 3.9112,-10.0849 0.074,-13.9883 -1.9185,-1.9516 -4.4513,-2.9569 -6.9961,-2.9902 z m -1.53125,49.9199 c -2.53777,0.068 -5.0471,1.1042 -6.92773,3.1133 -3.76131,4.0182 -3.53478,10.3669 0.49609,14.1035 4.03087,3.7366 10.30129,3.4305 14.00975,-0.5684 3.7085,-3.9988 3.4961,-10.2092 -0.4844,-13.9472 -1.9902,-1.869 -4.55594,-2.7694 -7.09371,-2.7012 z m 0.45117,49.832 c -2.52848,0.1679 -4.99208,1.3014 -6.78906,3.3789 -3.59407,4.1552 -3.11829,10.4792 1.04883,14.0489 4.16715,3.5697 10.40827,3.0196 13.95117,-1.1153 v 0 c 3.5429,-4.1349 3.0881,-10.3223 -1.0293,-13.8946 -2.0587,-1.7861 -4.65315,-2.5838 -7.18164,-2.416 z m 2.39453,49.7012 c -2.51689,0.2655 -4.93144,1.492 -6.64453,3.6348 -3.42621,4.2856 -2.70898,10.5762 1.58789,13.9785 4.29691,3.4022 10.50805,2.6139 13.88475,-1.6504 3.3767,-4.2644 2.6814,-10.4241 -1.5664,-13.8301 -2.1239,-1.703 -4.7448,-2.3983 -7.26171,-2.1328 z m 4.30271,49.5215 c -2.503,0.3612 -4.86715,1.6781 -6.49607,3.8828 -3.25799,4.4096 -2.30293,10.6643 2.11719,13.8984 4.42008,3.2343 10.59278,2.2096 13.80278,-2.1777 3.2099,-4.3874 2.2799,-10.5108 -2.0918,-13.75 -2.1859,-1.6196 -4.8291,-2.2147 -7.3321,-1.8535 z m 6.1739,49.2949 c -2.4868,0.455 -4.7993,1.8596 -6.3438,4.1231 -3.08919,4.527 -1.902,10.737 2.6348,13.8027 4.5367,3.0656 10.6643,1.8143 13.707,-2.6895 3.0427,-4.5038 1.8836,-10.5882 -2.6055,-13.6601 -2.2445,-1.536 -4.9057,-2.0311 -7.3925,-1.5762 z m 11.7929,48.9219 c -3.7968,-0.6365 -7.7828,0.9767 -9.9726,4.4551 -2.9199,4.6378 -1.5063,10.8006 3.1406,13.6972 4.6468,2.8967 10.7265,1.4204 13.6016,-3.1933 2.875,-4.6138 1.4906,-10.6545 -3.1094,-13.5586 -1.15,-0.7261 -2.3946,-1.1882 -3.6602,-1.4004 z m 9.7989,48.5664 c -3.8188,-0.4979 -7.7461,1.2578 -9.8086,4.8144 -2.7502,4.7422 -1.1118,10.8511 3.6386,13.5782 4.7505,2.727 10.7758,1.0316 13.4825,-3.6856 2.7067,-4.7172 1.1009,-10.7055 -3.6036,-13.4414 -1.1761,-0.6839 -2.436,-1.0996 -3.7089,-1.2656 z m 11.5527,48.2012 c -3.8362,-0.3608 -7.698,1.536 -9.6328,5.166 -2.5799,4.84 -0.7245,10.8883 4.123,13.4453 4.8475,2.557 10.8117,0.646 13.3496,-4.168 2.538,-4.8141 0.7184,-10.7435 -4.084,-13.3105 -1.2005,-0.6418 -2.4771,-1.0126 -3.7558,-1.1328 z m 13.2734,47.789 c -3.8493,-0.2251 -7.6444,1.8094 -9.4511,5.5078 -2.4092,4.9313 -0.3404,10.9164 4.5976,13.3028 4.938,2.3864 10.8365,0.2658 13.2051,-4.6387 2.3686,-4.9045 0.339,-10.7742 -4.5547,-13.1719 -1.2234,-0.5994 -2.5138,-0.9249 -3.7969,-1 z"
         transform="scale(0.26458333)" />
      <path
         id="path5908"
         style="fill:#d40000;fill-opacity:1;stroke:none;stroke-width:0.264583px;stroke-linecap:butt;stroke-linejoin:miter;stroke-opacity:1"
         d="m 131.46019,300.58217 c 0,0 -3.22011,33.74543 -7.41918,51.74414 -4.19555,17.98357 -15.34726,43.7303 -15.36599,43.77354 5.71143,3.06578 11.54886,5.90063 17.50384,8.5199 12.68021,-31.96667 20.32913,-59.93816 23.87813,-97.52738 z" />
    </g>
  </g>
</svg>
