<?xml version="1.0" encoding="UTF-8" standalone="no"?>
<!-- Created with Inkscape (http://www.inkscape.org/) -->

<svg
   width="1600"
   height="2160"
   viewBox="0 0 423.33332 571.50002"
   version="1.1"
   id="svg876"
   sodipodi:docname="Basic.svg"
   inkscape:version="1.1.2 (b8e25be833, 2022-02-05)"
   xmlns:inkscape="http://www.inkscape.org/namespaces/inkscape"
   xmlns:sodipodi="http://sodipodi.sourceforge.net/DTD/sodipodi-0.dtd"
   xmlns="http://www.w3.org/2000/svg"
   xmlns:svg="http://www.w3.org/2000/svg">
  <sodipodi:namedview
     id="namedview878"
     pagecolor="#ffffff"
     bordercolor="#666666"
     borderopacity="1.0"
     inkscape:pageshadow="2"
     inkscape:pageopacity="0.0"
     inkscape:pagecheckerboard="0"
     inkscape:document-units="mm"
     showgrid="false"
     units="px"
     inkscape:zoom="0.70710678"
     inkscape:cx="980.7571"
     inkscape:cy="1070.5597"
     inkscape:window-width="1920"
     inkscape:window-height="1009"
     inkscape:window-x="-8"
     inkscape:window-y="-8"
     inkscape:window-maximized="1"
     inkscape:current-layer="layer1"
     inkscape:object-paths="true"
     inkscape:snap-smooth-nodes="true"
     inkscape:snap-intersection-paths="true"
     inkscape:snap-nodes="false"
     inkscape:object-nodes="true"
     inkscape:snap-midpoints="false" />
  <defs
     id="defs873" />
  <g
     inkscape:label="Layer 1"
     inkscape:groupmode="layer"
     id="layer1">
    <path
       style="display:inline;fill:#000000;stroke:none;stroke-width:0.264583px;stroke-linecap:butt;stroke-linejoin:miter;stroke-opacity:1"
       d="m 197.2908,162.016 c -29.37786,0.64459 -84.35011,14.76331 -127.840005,50.81008 v 73.92365 H 353.88253 l -0.41187,-83.40007 C 331.33869,185.20529 306.7346,171.59314 279.92959,162.016 Z"
       id="path1586"
       sodipodi:nodetypes="ccccccc" />
    <path
       id="path8988"
       style="color:#000000;fill:#ff00ff;stroke:none;stroke-width:2;stroke-linecap:round;-inkscape-stroke:none"
       d="m 182.45501,163.25153 c -1.52564,0.20546 -3.08433,0.43615 -4.67827,0.69453 l 0.0527,0.1571 c 10.96814,32.79465 17.54964,67.12782 19.40915,102.13278 h -16.50597 c -1.78025,-33.94412 -7.93155,-67.27354 -18.18855,-99.20324 -1.49205,0.35952 -3.00319,0.74223 -4.5284,1.14308 l 0.016,0.0496 c 10.53022,32.70285 16.73411,66.88851 18.2485,101.70644 l 0.0413,0.95656 h 2.12597 1.48621 18.5136 1.39836 2.30012 l -0.0455,-1.04337 c -1.5786,-36.53901 -8.27109,-72.38765 -19.64532,-106.59349 z"
       sodipodi:nodetypes="cccccccscccccccccc" />
    <path
       id="path9041"
       style="color:#000000;fill:#ff00ff;stroke:none;stroke-width:2;stroke-linecap:round;-inkscape-stroke:none"
       d="m 260.21357,162.01595 c -11.45439,34.09243 -18.3533,70.27372 -19.9502,107.8301 l -0.0444,1.04233 h 2.1518 1.54564 18.51205 1.34049 2.27169 l 0.0408,-0.95705 c 1.57683,-36.84671 8.30942,-72.35049 19.48614,-105.82197 -1.44227,-0.55251 -2.89317,-1.08952 -4.34856,-1.61799 l -0.009,0.0284 c -10.98609,32.8485 -17.71578,67.6383 -19.58071,103.71615 h -16.50597 c 1.89098,-36.17216 8.71873,-71.03043 19.87269,-103.89857 l 0.10904,-0.32142 z" />
    <path
       id="path21195"
       style="fill:#00ff00;stroke:none;stroke-width:0.543761;stroke-linecap:round;stroke-linejoin:miter;stroke-miterlimit:4;stroke-dasharray:none"
       d="m 139.65401,173.80386 c -6.22426,2.18084 -12.57672,4.6695 -18.97972,7.52873 -4.90658,9.14685 -7.48152,19.36263 -7.4967,29.74237 0.0157,27.0653 17.28627,51.10768 42.9302,59.76328 -1.43018,-32.80918 -7.02002,-66.05403 -16.45378,-97.03438 z" />
    <path
       id="circle6127"
       style="color:#000000;fill:#00ffff;stroke:none;stroke-width:1;stroke-linecap:round;stroke-linejoin:round;-inkscape-stroke:none"
       d="m 161.08215,167.39288 c -0.0208,0.005 -0.0423,0.0114 -0.063,0.0165 0.0211,-0.005 0.042,-0.0103 0.063,-0.0155 -8e-5,-2.6e-4 9e-5,-7.9e-4 0,-0.001 z m -3.06182,0.79737 c -5.92249,1.55582 -12.065,3.40595 -18.36632,5.61361 0,0 -5.3e-4,0 -5.3e-4,0 9.43974,30.99572 15.03215,64.2587 16.45997,97.08452 h 20.20807 l -0.0413,-0.95655 C 174.7658,235.11391 168.56191,200.92824 158.0317,168.22539 Z" />
    <path
       id="circle6129"
       style="color:#000000;fill:#00ffff;stroke-width:1;stroke-linecap:round;stroke-linejoin:round;-inkscape-stroke:none;stroke:none"
       d="m 300.84106,170.53326 c -9.8353,31.58855 -15.77948,65.8899 -17.24493,100.35512 h 2.65409 c 1.45793,-34.06875 7.31501,-67.99321 17.00413,-99.23219 -0.80208,-0.37856 -1.60668,-0.75265 -2.41329,-1.12293 z"
       sodipodi:nodetypes="ccccc" />
    <circle
       style="fill:none;stroke:#00ffff;stroke-width:0.664832;stroke-linecap:round;stroke-linejoin:round;stroke-miterlimit:4;stroke-dasharray:none"
       id="circle6131"
       cx="25.019436"
       cy="286.74976"
       r="97.520859" />
    <circle
       style="fill:none;stroke:#00ffff;stroke-width:0.664832;stroke-linecap:round;stroke-linejoin:round;stroke-miterlimit:4;stroke-dasharray:none"
       id="circle6435"
       cx="416.60257"
       cy="286.74976"
       r="97.520859" />
    <path
       id="path9851"
       style="fill:#00ff00;stroke:none;stroke-width:12.4724;stroke-linecap:round;stroke-linejoin:miter;stroke-miterlimit:4;stroke-dasharray:none"
       d="M 838.26758 792.16211 A 16.67696 21.092766 0 0 0 821.58984 813.25391 A 16.67696 21.092766 0 0 0 822.28516 819.26953 A 21.092766 16.67696 0 0 0 816.26758 818.57812 A 21.092766 16.67696 0 0 0 795.17383 835.25391 A 21.092766 16.67696 0 0 0 816.26758 851.93164 A 21.092766 16.67696 0 0 0 822.28516 851.23633 A 16.67696 21.092766 0 0 0 821.58984 857.25391 A 16.67696 21.092766 0 0 0 838.26758 878.34766 A 16.67696 21.092766 0 0 0 854.94531 857.25391 A 16.67696 21.092766 0 0 0 854.25195 851.23633 A 21.092766 16.67696 0 0 0 860.26758 851.93164 A 21.092766 16.67696 0 0 0 881.35938 835.25391 A 21.092766 16.67696 0 0 0 860.26758 818.57812 A 21.092766 16.67696 0 0 0 854.25 819.27344 A 16.67696 21.092766 0 0 0 854.94531 813.25391 A 16.67696 21.092766 0 0 0 838.26758 792.16211 z M 838.26758 823.54492 A 11.709176 11.709176 0 0 1 849.97656 835.25391 A 11.709176 11.709176 0 0 1 838.26758 846.96289 A 11.709176 11.709176 0 0 1 826.55859 835.25391 A 11.709176 11.709176 0 0 1 838.26758 823.54492 z M 838.26562 826.14648 A 9.1076011 9.1076011 0 0 0 829.1582 835.25586 A 9.1076011 9.1076011 0 0 0 838.26562 844.36328 A 9.1076011 9.1076011 0 0 0 847.375 835.25586 A 9.1076011 9.1076011 0 0 0 838.26562 826.14648 z "
       transform="scale(0.26458333)" />
    <path
       id="circle10611"
       style="color:#000000;fill:#00ffff;stroke-width:1;stroke-linecap:round;stroke-linejoin:round;-inkscape-stroke:none;stroke:none"
       d="m 249.97879,162.01595 c -3.59571,10.33432 -5.94447,21.2533 -6.68383,32.62488 h -43.09297 c -0.73575,-11.31638 -3.07042,-22.18229 -6.63577,-32.47244 -0.5173,0.0287 -1.03712,0.0588 -1.56735,0.0951 3.7548,10.72126 6.0621,22.11962 6.69571,33.96485 h 46.10934 c 0.63784,-11.93646 2.97398,-23.41934 6.77994,-34.21238 z"
       sodipodi:nodetypes="ccccccccc" />
    <g
       id="g13509"
       transform="translate(1.01287,-2.1906542)"
       style="fill:#00ff00;stroke:none">
      <g
         id="g13495"
         style="fill:#00ff00;stroke:none">
        <path
           style="fill:#00ff00;stroke:none;stroke-width:0.264583px;stroke-linecap:butt;stroke-linejoin:miter;stroke-opacity:1"
           d="m 214.78154,201.95925 c -1.7e-4,-0.85865 -5.16444,-1.21864 -7.18054,-0.41988 -1.14235,0.45259 -2.48315,1.13003 -2.48315,2.48315 0,1.35312 1.31268,2.48315 2.48315,2.48315 1.17047,0 1.94379,-1.43938 2.48274,-1.93508 2.04722,-1.88292 4.69796,-1.78574 4.6978,-2.61134 z"
           id="path11418"
           sodipodi:nodetypes="sszzss" />
        <path
           style="fill:#00ff00;stroke:none;stroke-width:0.264583px;stroke-linecap:butt;stroke-linejoin:miter;stroke-opacity:1"
           d="m 218.13266,202.10442 c -0.42948,-0.74352 -5.08186,1.52685 -6.42847,3.22665 -0.76301,0.96313 -1.58546,2.22021 -0.9089,3.39204 0.67656,1.17184 2.37839,1.49414 3.39205,0.9089 1.01365,-0.58523 0.96368,-2.21843 1.18257,-2.9172 0.83149,-2.65426 3.17569,-3.89547 2.76275,-4.61039 z"
           id="path13274"
           sodipodi:nodetypes="sszzss" />
      </g>
      <g
         id="g13501"
         transform="matrix(-1,0,0,1,441.55699,0)"
         style="fill:#00ff00;stroke:none">
        <path
           style="fill:#00ff00;stroke:none;stroke-width:0.264583px;stroke-linecap:butt;stroke-linejoin:miter;stroke-opacity:1"
           d="m 214.78154,201.95925 c -1.7e-4,-0.85865 -5.16444,-1.21864 -7.18054,-0.41988 -1.14235,0.45259 -2.48315,1.13003 -2.48315,2.48315 0,1.35312 1.31268,2.48315 2.48315,2.48315 1.17047,0 1.94379,-1.43938 2.48274,-1.93508 2.04722,-1.88292 4.69796,-1.78574 4.6978,-2.61134 z"
           id="path13497"
           sodipodi:nodetypes="sszzss" />
        <path
           style="fill:#00ff00;stroke:none;stroke-width:0.264583px;stroke-linecap:butt;stroke-linejoin:miter;stroke-opacity:1"
           d="m 218.13266,202.10442 c -0.42948,-0.74352 -5.08186,1.52685 -6.42847,3.22665 -0.76301,0.96313 -1.58546,2.22021 -0.9089,3.39204 0.67656,1.17184 2.37839,1.49414 3.39205,0.9089 1.01365,-0.58523 0.96368,-2.21843 1.18257,-2.9172 0.83149,-2.65426 3.17569,-3.89547 2.76275,-4.61039 z"
           id="path13499"
           sodipodi:nodetypes="sszzss" />
      </g>
    </g>
    <path
       id="path13745"
       style="fill:#00ff00;stroke-width:1.5875;stroke-linecap:round;stroke:none"
       transform="rotate(-22.755224)"
       d="m 120.63998,229.44406 a 1.3143924,2.2636759 0 0 1 -1.31439,2.26368 1.3143924,2.2636759 0 0 1 -1.31439,-2.26368 1.3143924,2.2636759 0 0 1 1.31439,-2.26367 1.3143924,2.2636759 0 0 1 1.31439,2.26367 z" />
    <path
       id="ellipse13827"
       style="fill:#00ff00;stroke-width:1.5875;stroke-linecap:round;stroke:none"
       transform="rotate(-14.255155)"
       d="m 153.62027,217.29279 a 1.3143924,2.2636759 0 0 1 -1.31439,2.26367 1.3143924,2.2636759 0 0 1 -1.31439,-2.26367 1.3143924,2.2636759 0 0 1 1.31439,-2.26368 1.3143924,2.2636759 0 0 1 1.31439,2.26368 z" />
    <path
       id="ellipse13829"
       style="fill:#00ff00;stroke-width:1.5875;stroke-linecap:round;stroke:none"
       transform="rotate(-10.748918)"
       d="m 166.67719,215.90599 a 1.3143924,2.2636759 0 0 1 -1.3144,2.26368 1.3143924,2.2636759 0 0 1 -1.31439,-2.26368 1.3143924,2.2636759 0 0 1 1.31439,-2.26368 1.3143924,2.2636759 0 0 1 1.3144,2.26368 z" />
    <path
       id="ellipse13831"
       style="fill:#00ff00;stroke-width:1.5875;stroke-linecap:round;stroke:none"
       transform="rotate(-0.89482097)"
       d="m 201.85967,192.82954 a 1.3143924,2.2636759 0 0 1 -1.3144,2.26368 1.3143924,2.2636759 0 0 1 -1.31439,-2.26368 1.3143924,2.2636759 0 0 1 1.31439,-2.26367 1.3143924,2.2636759 0 0 1 1.3144,2.26367 z" />
    <path
       id="ellipse13941"
       style="fill:#00ff00;stroke-width:1.5875;stroke-linecap:round;stroke:none"
       transform="matrix(-0.92216571,-0.38679504,-0.38679504,0.92216571,0,0)"
       d="m -288.41681,57.868458 a 1.3143924,2.2636759 0 0 1 -1.31439,2.263676 1.3143924,2.2636759 0 0 1 -1.31439,-2.263676 1.3143924,2.2636759 0 0 1 1.31439,-2.263676 1.3143924,2.2636759 0 0 1 1.31439,2.263676 z" />
    <path
       id="ellipse13943"
       style="fill:#00ff00;stroke-width:1.5875;stroke-linecap:round;stroke:none"
       transform="matrix(-0.96920876,-0.2462405,-0.2462405,0.96920876,0,0)"
       d="m -276.30399,108.06475 a 1.3143924,2.2636759 0 0 1 -1.31439,2.26368 1.3143924,2.2636759 0 0 1 -1.31439,-2.26368 1.3143924,2.2636759 0 0 1 1.31439,-2.26368 1.3143924,2.2636759 0 0 1 1.31439,2.26368 z" />
    <path
       id="ellipse13945"
       style="fill:#00ff00;stroke-width:1.5875;stroke-linecap:round;stroke:none"
       transform="matrix(-0.98245392,-0.18650548,-0.18650548,0.98245392,0,0)"
       d="m -269.12241,133.17538 a 1.3143924,2.2636759 0 0 1 -1.31439,2.26368 1.3143924,2.2636759 0 0 1 -1.31439,-2.26368 1.3143924,2.2636759 0 0 1 1.31439,-2.26367 1.3143924,2.2636759 0 0 1 1.31439,2.26367 z" />
    <path
       id="ellipse13947"
       style="fill:#00ff00;stroke-width:1.5875;stroke-linecap:round;stroke:none"
       transform="matrix(-0.99987805,-0.01561694,-0.01561694,0.99987805,0,0)"
       d="m -241.66898,185.90215 a 1.3143924,2.2636759 0 0 1 -1.31439,2.26367 1.3143924,2.2636759 0 0 1 -1.31439,-2.26367 1.3143924,2.2636759 0 0 1 1.31439,-2.26368 1.3143924,2.2636759 0 0 1 1.31439,2.26368 z" />
    <path
       id="path14103"
       style="fill:#00ff00;stroke-width:1.5875;stroke-linecap:round;stroke:none"
       d="m 224.11491,190.73679 a 2.3235397,1.445758 0 0 1 -2.32354,1.44575 2.3235397,1.445758 0 0 1 -2.32354,-1.44575 2.3235397,1.445758 0 0 1 2.32354,-1.44576 2.3235397,1.445758 0 0 1 2.32354,1.44576 z" />
    <path
       id="ellipse14283"
       style="fill:#00ff00;stroke-width:1.5875;stroke-linecap:round;stroke:none"
       d="m 214.58988,190.73679 a 2.3235397,1.445758 0 0 1 -2.32354,1.44575 2.3235397,1.445758 0 0 1 -2.32354,-1.44575 2.3235397,1.445758 0 0 1 2.32354,-1.44576 2.3235397,1.445758 0 0 1 2.32354,1.44576 z" />
    <path
       id="ellipse14285"
       style="fill:#00ff00;stroke-width:1.5875;stroke-linecap:round;stroke:none"
       d="m 233.63993,190.73679 a 2.3235397,1.445758 0 0 1 -2.32354,1.44575 2.3235397,1.445758 0 0 1 -2.32354,-1.44575 2.3235397,1.445758 0 0 1 2.32354,-1.44576 2.3235397,1.445758 0 0 1 2.32354,1.44576 z" />
    <path
       id="path14305"
       style="color:#000000;fill:#00ffff;stroke-width:2.8503;stroke-linecap:round;stroke-linejoin:round;-inkscape-stroke:none;stroke:none"
       d="M 769.91211 612.34375 C 775.79711 641.64127 779.50186 672.23267 780.69531 703.7793 L 780.89648 703.7793 L 893.42969 703.7793 L 893.63086 703.7793 C 894.82431 672.23267 898.52763 641.64127 904.41211 612.34375 L 898.39453 612.34375 C 892.85213 639.98843 889.17285 668.72982 887.80859 698.39844 L 786.51562 698.39844 C 785.15137 668.72982 781.47208 639.98843 775.92969 612.34375 L 769.91211 612.34375 z "
       transform="scale(0.26458333)" />
    <path
       id="path14712"
       style="color:#000000;fill:#ffff00;stroke-width:3.77953;-inkscape-stroke:none;stroke:none"
       d="M 837.20898 642.46094 C 829.63097 642.46094 832.32242 663.64681 833.98828 673.52539 C 829.64208 669.12758 814.88881 645.70531 808.28711 652.23438 C 801.38957 659.05601 830.06445 674.01172 830.06445 674.01172 C 830.06445 674.01172 826.58789 674.83161 826.58789 677.35742 C 826.58789 679.88324 832.16566 681.15625 837.20898 681.15625 C 842.25231 681.15625 847.83008 679.88324 847.83008 677.35742 C 847.83008 674.83164 844.35352 674.01172 844.35352 674.01172 C 844.35352 674.01172 873.02838 659.05603 866.13086 652.23438 C 865.32255 651.43497 864.39191 651.08466 863.37305 651.09375 C 856.06491 651.15893 844.23627 669.67394 840.43164 673.51367 C 842.09765 663.63008 844.78401 642.46094 837.20898 642.46094 z "
       transform="scale(0.26458333)" />
    <path
       style="fill:#00ff00;stroke:none;stroke-width:0.239533px;stroke-linecap:butt;stroke-linejoin:miter;stroke-opacity:1"
       d="m 207.97007,254.80603 c -0.32278,5.71466 -0.0815,-5.03907 -2.49905,-14.08472 -0.79237,-2.96479 -2.7044,-8.53457 -2.43917,-11.07042 0.26087,-2.49414 1.94176,-4.43464 3.83777,0.0299 1.96158,4.61897 1.75314,13.57013 1.10045,25.12523 z"
       id="path16983"
       sodipodi:nodetypes="sssss" />
    <path
       style="fill:#00ff00;stroke:none;stroke-width:0.239533px;stroke-linecap:butt;stroke-linejoin:miter;stroke-opacity:1"
       d="m 235.61318,254.80603 c 0.32278,5.71466 0.0815,-5.03907 2.49905,-14.08472 0.79237,-2.96479 2.7044,-8.53457 2.43917,-11.07042 -0.26087,-2.49414 -1.94176,-4.43464 -3.83777,0.0299 -1.96158,4.61897 -1.75314,13.57013 -1.10045,25.12523 z"
       id="path17762"
       sodipodi:nodetypes="sssss" />
    <path
       id="path17881"
       style="fill:#00ff00;stroke:none;stroke-width:0.774278px;stroke-linecap:butt;stroke-linejoin:miter;stroke-opacity:1"
       d="m 739.94727,1051.2812 v 32.4981 h 45.61718 c 0.0157,-12.1427 2.57492,-22.7738 6.64258,-32.4981 z m 143.30859,0 c 4.68795,10.3201 7.69344,21.0603 7.71289,32.4981 h 45.61719 l -0.002,-32.4981 z"
       sodipodi:nodetypes="cccccccccc"
       transform="scale(0.26458333)" />
    <path
       id="path18285"
       style="fill:#00ffff;stroke:none;stroke-width:1.2058px;stroke-linecap:butt;stroke-linejoin:miter;stroke-opacity:1"
       d="M 838.26758 980.98438 C 820.22513 1014.6483 785.5625 1038.9707 785.5625 1083.8906 L 801.77344 1083.8906 L 874.76172 1083.8906 L 890.97266 1083.8906 C 890.97266 1045.1197 856.75366 1014.3304 838.26758 980.98438 z M 838.26758 1007.4121 C 851.98586 1032.1578 877.38086 1055.0079 877.38086 1083.7793 L 874.75977 1083.7793 C 874.69418 1056.9858 851.05002 1035.6925 838.26758 1012.6348 C 825.78952 1035.9166 801.83297 1052.7471 801.77539 1083.7793 L 799.1543 1083.7793 C 799.1543 1050.4448 824.87849 1032.3937 838.26758 1007.4121 z "
       transform="scale(0.26458333)" />
    <path
       style="color:#000000;fill:#ffff00;-inkscape-stroke:none;stroke:none"
       d="m 221.79102,240.01367 -0.24024,0.90039 c -2.00803,7.49408 -5.21346,13.96823 -7.92187,19.07227 -1.35421,2.55202 -2.58497,4.76181 -3.48047,6.59179 -0.89551,1.82999 -1.4668,3.26885 -1.4668,4.35938 h 0.5 c 0,-0.90631 0.53016,-2.33035 1.41602,-4.14063 0.88586,-1.81027 2.11571,-4.01899 3.47265,-6.57617 2.62601,-4.94875 5.68887,-11.25343 7.72071,-18.49609 2.04743,7.30085 5.1121,13.58406 7.73437,18.50586 1.3548,2.54284 2.58183,4.73834 3.46484,6.54297 0.88301,1.80462 1.41211,3.22994 1.41211,4.16406 h 0.5 c 0,-1.1131 -0.56992,-2.5598 -1.46289,-4.38477 -0.89296,-1.82497 -2.12062,-4.01898 -3.47265,-6.55664 -2.70407,-5.07532 -5.90828,-11.52346 -7.9336,-19.08203 z"
       id="path18734" />
    <circle
       style="opacity:0.363821;fill:#00ff00;stroke:none;stroke-width:0.543762;stroke-linecap:round;stroke-linejoin:miter;stroke-miterlimit:4;stroke-dasharray:none"
       id="path21195-5"
       cx="126.47083"
       cy="42.862495"
       r="63.114513" />
    <path
       id="path22827"
       style="opacity:1;fill:#ff00ff;stroke:none;stroke-width:1.88976;stroke-linecap:round;stroke-linejoin:miter;stroke-miterlimit:4;stroke-dasharray:none"
       d="m 531.93164,670.66797 c -28.04,33.57837 -43.3952,75.76995 -43.42969,119.33203 0.0304,67.81183 37.04452,130.32589 96.80469,163.49609 -8.72147,-96.01163 -26.70126,-191.85366 -53.375,-282.82812 z"
       transform="scale(0.26458333)"
       sodipodi:nodetypes="cccc" />
    <path
       id="path23321"
       style="color:#000000;fill:#ffff00;stroke-width:3.77953;-inkscape-stroke:none"
       d="m 512.67188,698.53906 c -0.10129,0.17907 -0.19921,0.35974 -0.29681,0.54056 -0.0976,0.18082 -0.19491,0.36179 -0.29499,0.54147 l 51.29101,107.92969 -65.16601,-76.51953 c -0.0619,0.18443 -0.12529,0.36839 -0.18837,0.55245 -0.0631,0.18405 -0.12588,0.3682 -0.18663,0.55302 l 64.78125,76.0664 -71.44531,-49.2539 c -0.0623,0.36549 -0.11174,0.73366 -0.17188,1.09961 l 71.06055,48.98633 -73.39258,-26.10743 c -0.0136,0.35029 -0.0118,0.70222 -0.0234,1.05274 l 73.0625,25.98828 -72.63476,-5.81641 c 0.0259,0.33788 0.0601,0.67421 0.0879,1.01172 l 72.47851,5.8086 -69.98437,12.86718 c 0.0607,0.32704 0.12306,0.6539 0.18554,0.98047 l 69.98633,-12.87304 -65.52148,31.14257 c 0.0967,0.32371 0.18667,0.64957 0.28515,0.97266 L 562.25,812.85547 503.45508,862.93164 c 0.13641,0.31932 0.28565,0.63266 0.42383,0.95117 l 59.00586,-50.25195 -48.66602,70.60352 c 0.18506,0.31476 0.36974,0.62966 0.55664,0.94335 l 48.94531,-71 -33.23437,93.42774 c 0.24672,0.303 0.4896,0.60862 0.73828,0.91015 l 33.4375,-94.00976 -9.47266,118.22852 c 0.3103,0.26134 0.62729,0.5159 0.93946,0.77539 l 9.53125,-118.9043 7.29882,39.69726 c -3.97946,-25.21196 -8.58548,-50.29742 -13.82226,-75.17187 l 5.14844,27.99805 z"
       transform="scale(0.26458333)"
       sodipodi:nodetypes="cscccsccccccccccccccccccccccccccccccccc" />
    <path
       style="fill:none;stroke:#000000;stroke-width:0.264583px;stroke-linecap:butt;stroke-linejoin:miter;stroke-opacity:1"
       d="m 130.56445,177.18232 c 0,0 -14.20159,21.56793 -6.93102,48.70207 7.27057,27.13414 31.98343,35.98004 31.98343,35.98004"
       id="path28476"
       sodipodi:nodetypes="czc" />
    <path
       id="path28762"
       style="color:#000000;fill:#000000;stroke-width:3.77953;-inkscape-stroke:none"
       d="M 493.94531 669.49805 C 488.80821 671.51757 483.65038 673.62016 478.48438 675.75977 L 493.17578 670.30469 L 507.39648 708.60742 C 507.59784 708.19474 507.79946 707.78238 508.00391 707.37109 L 493.94531 669.49805 z M 476.41992 704.60156 L 439.74609 723.52148 C 439.5964 723.97617 439.43601 724.42728 439.28906 724.88281 L 475.98438 705.94531 L 494.76953 742.3457 C 494.89553 741.87267 495.03435 741.40361 495.16406 740.93164 L 476.41992 704.60156 z M 464.64648 744.41211 L 429.48828 769.53711 C 429.43481 769.98028 429.39475 770.4256 429.34375 770.86914 L 464.41016 745.80664 L 488.81445 779.95312 C 488.84339 779.42698 488.88457 778.90251 488.91797 778.37695 L 464.64648 744.41211 z M 459.58203 786.36328 L 428.41602 814.97266 C 428.44711 815.40116 428.45881 815.83373 428.49219 816.26172 L 459.52344 787.77344 L 491.39453 822.49805 C 491.28552 821.88622 491.17325 821.27553 491.07031 820.66211 L 459.58203 786.36328 z M 463.31445 834.44727 L 438.69922 868.96875 C 438.82506 869.37004 438.94044 869.77532 439.06836 870.17578 L 463.54492 835.84375 L 504.34766 864.93945 C 504.08176 864.33681 503.80252 863.74032 503.54297 863.13477 L 463.31445 834.44727 z M 476.06055 880.41602 L 461.57812 920.01367 C 461.8015 920.38716 462.00898 920.77035 462.23438 921.14258 L 476.66016 881.69727 L 523.83789 898.95117 C 523.49447 898.47544 523.15917 897.99442 522.82031 897.51562 L 476.06055 880.41602 z M 496.22461 916.15234 L 491.09766 959.47266 C 491.39157 959.79099 491.69455 960.1012 491.99023 960.41797 L 497.0957 917.26562 L 544.3418 922.85547 C 543.95898 922.47841 543.58833 922.09103 543.20898 921.71094 L 496.22461 916.15234 z M 584.46484 953.00977 L 529.72461 953.23047 L 530.14062 993.48047 C 530.4797 993.71622 530.80605 993.96709 531.14648 994.20117 L 530.73633 954.22656 L 585.33789 954.00781 C 585.32222 953.83462 585.3087 953.66147 585.29297 953.48828 C 585.01354 953.33315 584.74328 953.16618 584.46484 953.00977 z M 587.0293 974.4043 L 566.48828 979.29492 L 575.77148 1018.2754 C 576.14905 1018.4302 576.5276 1018.5834 576.90625 1018.7363 L 567.69141 980.03516 L 587.10352 975.41406 C 587.07788 975.07742 587.05516 974.74094 587.0293 974.4043 z "
       transform="scale(0.26458333)" />
  </g>
</svg>
