<?xml version="1.0" encoding="UTF-8" standalone="no"?>
<!-- Created with Inkscape (http://www.inkscape.org/) -->

<svg
   width="1600"
   height="2160"
   viewBox="0 0 423.33332 571.50002"
   version="1.1"
   id="svg876"
   sodipodi:docname="Toga - Copy.svg"
   inkscape:version="1.1.2 (b8e25be833, 2022-02-05)"
   xmlns:inkscape="http://www.inkscape.org/namespaces/inkscape"
   xmlns:sodipodi="http://sodipodi.sourceforge.net/DTD/sodipodi-0.dtd"
   xmlns="http://www.w3.org/2000/svg"
   xmlns:svg="http://www.w3.org/2000/svg">
  <sodipodi:namedview
     id="namedview878"
     pagecolor="#ffffff"
     bordercolor="#666666"
     borderopacity="1.0"
     inkscape:pageshadow="2"
     inkscape:pageopacity="0.0"
     inkscape:pagecheckerboard="0"
     inkscape:document-units="mm"
     showgrid="false"
     units="px"
     inkscape:zoom="0.5"
     inkscape:cx="841"
     inkscape:cy="996"
     inkscape:window-width="1920"
     inkscape:window-height="1009"
     inkscape:window-x="-8"
     inkscape:window-y="-8"
     inkscape:window-maximized="1"
     inkscape:current-layer="layer1"
     inkscape:object-paths="true"
     inkscape:snap-smooth-nodes="true"
     inkscape:snap-intersection-paths="false"
     inkscape:snap-nodes="true"
     inkscape:object-nodes="true"
     inkscape:snap-midpoints="false"
     inkscape:snap-global="true"
     showguides="true"
     inkscape:guide-bbox="true">
    <sodipodi:guide
       position="-51.636471,594.69902"
       orientation="0,-1"
       id="guide56105" />
  </sodipodi:namedview>
  <defs
     id="defs873">
    <inkscape:path-effect
       effect="skeletal"
       id="path-effect65244"
       is_visible="true"
       lpeversion="1"
       pattern="m -228.09665,-338.88374 a 2.6458333,2.6458333 0 0 1 2.67171,-2.61964 2.6458333,2.6458333 0 0 1 2.61968,2.67163 2.6458333,2.6458333 0 0 1 -2.67155,2.61977 2.6458333,2.6458333 0 0 1 -2.61964,-2.67168 z"
       copytype="repeated_stretched"
       prop_scale="1"
       scale_y_rel="false"
       spacing="8"
       normal_offset="0"
       tang_offset="0"
       prop_units="false"
       vertical_pattern="false"
       hide_knot="false"
       fuse_tolerance="0" />
    <inkscape:path-effect
       effect="skeletal"
       id="path-effect65094"
       is_visible="true"
       lpeversion="1"
       pattern="m -416.88969,-58.906362 a 2.6458333,2.6458333 0 0 1 -0.14146,-3.739111 2.6458333,2.6458333 0 0 1 3.7391,-0.141453 2.6458333,2.6458333 0 0 1 0.14147,3.739103 2.6458333,2.6458333 0 0 1 -3.73909,0.141459 z"
       copytype="repeated_stretched"
       prop_scale="1"
       scale_y_rel="false"
       spacing="8"
       normal_offset="0"
       tang_offset="0"
       prop_units="false"
       vertical_pattern="false"
       hide_knot="false"
       fuse_tolerance="0" />
    <inkscape:path-effect
       effect="skeletal"
       id="path-effect57760"
       is_visible="true"
       lpeversion="1"
       pattern="m 204.25834,325.96667 a 2.6458333,2.6458333 0 0 1 -2.64584,2.64584 2.6458333,2.6458333 0 0 1 -2.64583,-2.64584 2.6458333,2.6458333 0 0 1 2.64583,-2.64583 2.6458333,2.6458333 0 0 1 2.64584,2.64583 z"
       copytype="repeated"
       prop_scale="1"
       scale_y_rel="false"
       spacing="4"
       normal_offset="0"
       tang_offset="0"
       prop_units="false"
       vertical_pattern="false"
       hide_knot="false"
       fuse_tolerance="0" />
    <inkscape:path-effect
       effect="skeletal"
       id="path-effect56645"
       is_visible="true"
       lpeversion="1"
       pattern="m 204.25834,325.96667 a 2.6458333,2.6458333 0 0 1 -2.64584,2.64584 2.6458333,2.6458333 0 0 1 -2.64583,-2.64584 2.6458333,2.6458333 0 0 1 2.64583,-2.64583 2.6458333,2.6458333 0 0 1 2.64584,2.64583 z"
       copytype="repeated"
       prop_scale="1"
       scale_y_rel="false"
       spacing="5"
       normal_offset="-0.1"
       tang_offset="0"
       prop_units="false"
       vertical_pattern="false"
       hide_knot="false"
       fuse_tolerance="0" />
    <inkscape:path-effect
       effect="skeletal"
       id="path-effect42293"
       is_visible="true"
       lpeversion="1"
       pattern="m 27.324925,36.179238 v 0.53152 h 13.48318 v -0.53152 z m 0.7203,1.45287 v 0.50447 9.43868 9.94213 h 12.04194 v -19.88528 z m 0.6111,1.00891 h 10.82038 v 4.61306 h -8.70177 v 1.34343 h 8.70177 v 11.91199 h -10.82038 v -4.60886 h 8.70177 v -1.34765 h -8.70177 v -2.97773 z m 0.43623,0.7244 v 4.55778 4.56195 h 8.84759 v 2.7422 2.74112 h -8.29648 -0.55111 v 1.81977 h 0.55111 9.39619 v -4.56089 -4.562 h -8.84507 v -2.74215 -2.74112 h 8.29394 0.55113 v -1.81666 h -0.55113 z m -1.76763,19.07435 v 0.53573 h 13.48318 v -0.53573 z"
       copytype="repeated_stretched"
       prop_scale="1"
       scale_y_rel="false"
       spacing="0"
       normal_offset="-4.1"
       tang_offset="0"
       prop_units="false"
       vertical_pattern="false"
       hide_knot="false"
       fuse_tolerance="0" />
    <inkscape:path-effect
       effect="skeletal"
       id="path-effect41193"
       is_visible="true"
       lpeversion="1"
       pattern="m 27.324925,36.179238 v 0.53152 h 13.48318 v -0.53152 z m 0.7203,1.45287 v 0.50447 9.43868 9.94213 h 12.04194 v -19.88528 z m 0.6111,1.00891 h 10.82038 v 4.61306 h -8.70177 v 1.34343 h 8.70177 v 11.91199 h -10.82038 v -4.60886 h 8.70177 v -1.34765 h -8.70177 v -2.97773 z m 0.43623,0.7244 v 4.55778 4.56195 h 8.84759 v 2.7422 2.74112 h -8.29648 -0.55111 v 1.81977 h 0.55111 9.39619 v -4.56089 -4.562 h -8.84507 v -2.74215 -2.74112 h 8.29394 0.55113 v -1.81666 h -0.55113 z m -1.76763,19.07435 v 0.53573 h 13.48318 v -0.53573 z"
       copytype="repeated_stretched"
       prop_scale="1"
       scale_y_rel="false"
       spacing="0"
       normal_offset="-4.1"
       tang_offset="0"
       prop_units="false"
       vertical_pattern="false"
       hide_knot="false"
       fuse_tolerance="0" />
    <inkscape:path-effect
       effect="skeletal"
       id="path-effect34402"
       is_visible="true"
       lpeversion="1"
       pattern="m 521.19922,658.75977 c 0,0 -3.59623,3.52077 -8.95117,10.20898 l -40.0293,10.94727 0.26563,0.96679 38.73046,-10.59765 c -5.18849,6.59969 -11.78807,15.90712 -18.36914,27.72461 l -38.30664,15.36132 0.36914,0.92969 37.18946,-14.91016 c -4.98754,9.10557 -9.91555,19.60022 -14.14454,31.42383 l -34.59765,22.86914 0.54687,0.83399 33.49414,-22.14453 c -3.58503,10.2726 -6.62001,21.51084 -8.71289,33.62695 l -31.24804,27.21289 0.6582,0.75391 30.31641,-26.40235 c -1.8765,11.38182 -2.90702,23.53186 -2.75977,36.38867 l -29.05664,29.06446 0.70898,0.70117 28.37891,-28.37891 c 0.19654,10.93558 1.24191,22.37263 3.35156,34.28321 l -24.21484,33.32226 0.80469,0.58399 23.66211,-32.55274 c 0.19275,1.05124 0.37647,2.09971 0.58593,3.15821 2.19436,11.09453 4.94502,21.40167 8.125,30.99804 l -19.20507,36.4043 0.88671,0.4668 18.75977,-35.5625 c 3.92459,11.61717 8.48421,22.17315 13.48438,31.75195 l -12.54102,39.25 0.95117,0.30273 12.24609,-38.31836 c 6.04381,11.39154 12.69664,21.39637 19.61329,30.17969 l -6.53125,40.46485 0.98828,0.16211 6.38476,-39.55469 c 6.10897,7.64795 12.40761,14.35682 18.6543,20.24219 1.81799,1.7128 3.62831,3.33762 5.43164,4.91406 l -1.76953,40.92776 0.99609,0.039 1.74219,-40.13864 c 9.66932,8.34263 18.99495,14.78169 27.07422,19.75196 l 5.32422,40.69338 0.99023,-0.127 -5.21679,-39.88474 c 0.0669,0.0404 0.13818,0.0865 0.20507,0.12695 10.10926,6.12986 18.1155,9.94164 22.02735,12.3125 l 0.52343,-0.84766 c -4.02107,-2.43707 -11.96891,-6.21855 -22.03515,-12.32226 -0.008,-0.004 -0.0157,-0.008 -0.0195,-0.0117 l 42.19336,-5.51563 -0.13086,-0.99023 -43.39844,5.67578 c -7.99461,-4.92174 -17.20338,-11.28486 -26.75391,-19.51172 l 42.63477,1.77344 c -0.5324,-0.32735 -1.05155,-0.66987 -1.58008,-1.00195 l -42.2832,-1.82422 c -1.74871,-1.53166 -3.5032,-3.10907 -5.26563,-4.76953 -6.23236,-5.87192 -12.51691,-12.56691 -18.61133,-20.20118 l 39.19727,6.32813 c -0.45416,-0.41249 -0.91536,-0.81784 -1.36523,-1.23438 l -38.75,-6.25976 c -6.81634,-8.67273 -13.37429,-18.5396 -19.33789,-29.76563 l 35.74609,11.42383 c -0.3471,-0.45589 -0.68246,-0.92004 -1.02539,-1.3789 l -35.39063,-11.30664 c -4.97612,-9.52479 -9.51473,-20.02367 -13.42382,-31.58204 l 32.60156,17.19532 c -0.271,-0.51571 -0.5364,-1.03454 -0.80274,-1.55274 l -32.26367,-17.01758 c -3.16864,-9.56167 -5.9098,-19.83666 -8.09765,-30.89843 -0.19881,-1.00593 -0.37266,-2.00062 -0.55664,-3 l 28.50195,20.71289 c -0.16831,-0.535 -0.34412,-1.06682 -0.50781,-1.60352 l -28.25977,-20.53516 c -2.10898,-11.88559 -3.1566,-23.2984 -3.35352,-34.20703 l 25.08204,25.07422 c -0.0753,-0.54309 -0.14809,-1.08668 -0.21875,-1.63086 l -24.89258,-24.89062 c -0.14325,-12.78376 0.8804,-24.86416 2.74609,-36.17969 l 20.93945,24.03906 c 0.0304,-0.46926 0.0677,-0.93746 0.10157,-1.40625 l -20.82032,-23.90039 c 2.09133,-12.20972 5.14798,-23.52312 8.75977,-33.85351 l 17.08008,25.83593 c 0.10716,-0.43725 0.22378,-0.87217 0.33398,-1.30859 l -16.99218,-25.70508 c 4.25816,-11.9534 9.23685,-22.54767 14.27148,-31.71484 l 11.95898,29.82617 c 0.18359,-0.43572 0.36983,-0.87029 0.55664,-1.30469 l -11.89257,-29.67187 c 6.5972,-11.84716 13.21277,-21.15814 18.39257,-27.73047 l 8.14454,29.77344 c 0.2404,-0.37595 0.48735,-0.74864 0.73046,-1.12305 l -8.10546,-29.62891 c 5.40298,-6.7624 9.04687,-10.33203 9.04687,-10.33203 z"
       copytype="repeated_stretched"
       prop_scale="1.43"
       scale_y_rel="false"
       spacing="2.5"
       normal_offset="1.7"
       tang_offset="2.3"
       prop_units="false"
       vertical_pattern="false"
       hide_knot="false"
       fuse_tolerance="0" />
  </defs>
  <g
     inkscape:label="Layer 1"
     inkscape:groupmode="layer"
     id="layer1">
    <path
       id="path5850"
       style="display:inline;fill:#fcf1da;fill-opacity:1;stroke:none;stroke-width:0.264583px;stroke-linecap:butt;stroke-linejoin:miter;stroke-opacity:1"
       d="m 197.291,161.08232 c -29.37786,0.64459 -84.35036,14.76357 -127.840256,50.81034 v 73.92365 l 0.411863,83.40008 c 22.13197,18.14436 46.736233,31.75624 73.541243,41.33339 h 82.63888 c 29.37787,-0.6446 84.34984,-14.76306 127.83974,-50.80981 v -73.92366 l -0.41185,-83.40008 C 331.33865,184.27186 306.73489,170.65946 279.9299,161.08232 Z" />
    <path
       id="path34941"
       style="color:#000000;fill:#9e9788;stroke-width:1;stroke-linecap:square;-inkscape-stroke:none"
       d="m 191.68184,161.35191 c -0.0906,0.006 -0.17883,0.0114 -0.26975,0.0181 11.02237,40.56289 47.61611,88.78306 69.64846,113.41323 l 0.0879,0.0977 0.1974,-0.17569 -0.0879,-0.0977 c -22.00577,-24.6005 -58.56187,-72.79521 -69.57611,-113.25564 z" />
    <path
       id="path34943"
       style="color:#000000;fill:#9e9788;stroke-width:1;stroke-linecap:square;-inkscape-stroke:none"
       d="m 274.40652,161.08215 c -11.93739,39.50573 -22.61798,52.17504 -40.55671,79.75173 l -0.0186,0.12185 0.16896,0.13394 0.0723,-0.1111 c 17.9385,-27.57634 28.64948,-40.29523 40.5996,-79.85766 l 0.0114,-0.0388 z"
       sodipodi:nodetypes="ccccsccc" />
    <path
       id="path34945"
       style="color:#000000;fill:#9e9788;stroke-width:1;stroke-linecap:square;-inkscape-stroke:none"
       d="m 286.02905,163.35592 c -16.08412,40.74826 -18.63878,51.15809 -44.27327,87.99359 v 0 l 0.14262,0.25993 0.0744,-0.10748 c 25.64338,-36.84827 28.22034,-47.30563 44.30272,-88.04941 -0.0824,-0.0318 -0.16407,-0.0649 -0.24649,-0.0966 z"
       sodipodi:nodetypes="scccccss" />
    <path
       id="path34947"
       style="color:#000000;fill:#9e9788;stroke-width:1;stroke-linecap:square;-inkscape-stroke:none"
       d="m 203.76895,161.08215 0.006,0.0289 c 6.14253,28.23406 24.19706,56.2364 37.15277,69.18389 l 0.0935,0.0935 0.0243,-0.20413 0.0692,-0.077 C 228.21139,217.2121 210.17413,189.23713 204.04105,161.0821 Z"
       sodipodi:nodetypes="ccsccccc" />
    <path
       id="path34953"
       style="color:#000000;fill:#9e9788;stroke-width:1;stroke-linecap:square;-inkscape-stroke:none"
       d="m 180.70886,162.56424 c -0.0873,0.0127 -0.17601,0.0264 -0.26354,0.0393 9.72435,35.47876 39.37762,82.1958 64.38469,112.17559 l 0.0842,0.10179 0.20308,-0.17002 -0.0842,-0.10129 C 220.05393,244.66323 190.4214,197.9635 180.70886,162.56424 Z" />
    <path
       id="path34955"
       style="fill:#662f0c;fill-opacity:1;stroke:none;stroke-width:1.10667;stroke-linecap:square"
       d="m 147.91345,170.13793 c -0.001,5.3e-4 -0.003,10e-4 -0.004,0.002 -4.6951,1.45958 -9.49707,3.11077 -14.36139,4.9599 -0.20708,0.0787 -0.4154,0.16135 -0.6227,0.24082 -1.35714,0.52009 -2.71881,1.05521 -4.08451,1.60662 -0.34735,0.14027 -0.69552,0.28452 -1.04335,0.42684 -1.23178,0.5039 -2.46624,1.02058 -3.70313,1.5503 -0.4185,0.17927 -0.83727,0.35983 -1.25625,0.54208 -1.17556,0.51124 -2.35303,1.03608 -3.53157,1.57097 -0.44665,0.20276 -0.89301,0.40411 -1.33997,0.6103 -1.19967,0.55328 -2.40026,1.12304 -3.60133,1.70118 -0.40743,0.19617 -0.81465,0.38748 -1.22215,0.58653 -1.36901,0.66856 -2.73815,1.35639 -4.10672,2.05776 -0.23945,0.12274 -0.47891,0.23953 -0.71831,0.36328 -0.28927,0.1495 -0.57845,0.30326 -0.86764,0.45424 -1.10286,0.5759 -2.20522,1.16201 -3.30626,1.75958 -0.22335,0.1212 -0.44699,0.23913 -0.67025,0.36122 -1.23001,0.6728 -2.45777,1.36322 -3.68401,2.06344 -0.293258,0.16743 -0.586536,0.3338 -0.879533,0.50281 -1.221372,0.70465 -2.440127,1.42367 -3.656107,2.15594 -0.2613,0.15733 -0.522399,0.31577 -0.783413,0.47439 -1.247198,0.75803 -2.491761,1.52808 -3.731556,2.31562 -0.19838,0.126 -0.396108,0.25461 -0.594278,0.38137 -1.249011,0.79904 -2.494357,1.61073 -3.734139,2.44016 -0.08069,0.054 -0.161721,0.10661 -0.242364,0.16072 -1.288891,0.86481 -2.570646,1.75031 -3.847827,2.64841 -0.192154,0.13511 -0.384839,0.26876 -0.57671,0.40463 -1.238226,0.87691 -2.469965,1.77125 -3.69538,2.67994 -0.213463,0.15828 -0.426706,0.3172 -0.639754,0.47646 -1.233757,0.92228 -2.461496,1.85873 -3.680397,2.81378 -0.15735,0.12328 -0.313682,0.24875 -0.47077,0.37259 -1.277324,1.00696 -2.548027,2.02762 -3.807005,3.07113 v 73.92361 l 0.411864,83.40008 c 14.747253,12.09019 30.598359,22.15711 47.460669,30.36972 25.635,-37.20478 42.28474,-91.04413 47.59761,-144.25889 -0.002,-30.43282 -5.93331,-60.14471 -17.00723,-85.18912 z"
       sodipodi:nodetypes="ccscscscccccsscscscscscscscscsscccccc" />
    <path
       id="path34949"
       style="fill:#662f0c;fill-opacity:1;stroke:none;stroke-width:0.901119px;stroke-linecap:butt;stroke-linejoin:miter;stroke-opacity:1"
       d="m 620.63477,1038.3984 c -2.0507,28.459 -5.2445,56.1964 -9.44922,83.2032 l 368.25586,-0.3828 c 2.07099,-28.3249 5.27224,-55.936 9.47656,-82.8204 z"
       transform="scale(0.26458333)"
       sodipodi:nodetypes="ccccc" />
    <path
       id="path34957"
       style="fill:#552200;fill-opacity:1;stroke:none;stroke-width:1.10667;stroke-linecap:square"
       d="m 147.91345,170.13793 c -0.001,2.7e-4 -0.002,8e-4 -0.003,10e-4 -1.4449,0.44925 -2.93084,0.9817 -4.39456,1.4671 31.23129,88.1825 7.93488,173.55736 -26.97096,227.59748 2.10506,1.03436 4.22305,2.0453 6.35982,3.02151 21.89391,-37.24775 42.00021,-86.43003 42.01604,-146.89801 -0.002,-30.43282 -5.93332,-60.1447 -17.00723,-85.18911 z" />
    <path
       id="path34959"
       style="fill:#552200;stroke:none;stroke-width:0.703212;stroke-linecap:square"
       d="m 104.56984,188.34302 c -12.04452,6.50461 -23.960388,14.30036 -35.119301,23.54947 v 73.92365 l 0.268203,54.28351 a 61.035694,95.29502 0 0 0 47.835838,-93.00466 61.035694,95.29502 0 0 0 -12.98474,-58.75197 z" />
    <path
       id="path34961"
       style="color:#000000;fill:#5d2500;stroke-width:1;stroke-linecap:square;-inkscape-stroke:none"
       d="m 142.0642,172.07425 -0.10181,0.006 c -0.0533,0.0181 -0.10639,0.0351 -0.15968,0.0532 1.79669,29.69705 -1.02457,57.58477 7.02955,89.04211 l 0.2558,-0.0646 c -8.04511,-31.42212 -5.22008,-59.29669 -7.02386,-89.03693 z m -30.9268,12.86588 c -0.0785,0.0393 -0.15668,0.0789 -0.23513,0.11834 9.92186,19.8061 18.33425,40.10163 17.12092,71.99612 l -0.006,0.13281 0.26562,0.0103 0.004,-0.13281 c 1.21531,-31.94612 -7.22202,-52.30698 -17.14985,-72.12481 z m 23.08541,41.27655 -0.25993,0.047 c 2.94092,16.14971 6.04762,32.17805 6.08387,50.24809 h 0.26355 c -0.0363,-18.10004 -3.14693,-34.14736 -6.08749,-50.29512 z m -6.75979,56.6446 c -1.24322,9.81688 -3.21927,19.25325 -8.39846,27.07224 l 0.22066,0.1447 c 5.21618,-7.87484 7.1964,-17.3533 8.44135,-27.18387 z m -17.46509,25.9979 -0.0527,0.12144 c -10.540471,23.90529 -25.181394,37.76417 -40.12882,50.93902 l 0.0016,0.34983 0.0863,-0.0739 c 14.98188,-13.20168 29.701328,-27.11003 40.28332,-51.10954 l 0.0527,-0.12144 z m -0.98236,16.68373 -0.0605,0.11731 C 96.987594,348.7789 83.728011,360.69553 69.861884,369.06067 l 5.29e-4,0.15605 c 0.03585,0.0294 0.07214,0.058 0.108003,0.0873 13.907109,-8.38485 27.223974,-20.35143 39.218794,-43.52292 l 0.0625,-0.11729 z m 23.74997,11.41584 -0.0548,0.12144 c -10.05186,22.91488 -22.51805,39.76979 -37.538792,50.20882 l -0.04393,0.03 c 0.08092,0.0504 0.16139,0.10165 0.242363,0.15192 15.052239,-10.47856 27.528539,-27.36305 37.582719,-50.28322 l 0.0548,-0.12144 z" />
    <path
       id="path34969"
       style="color:#000000;fill:#381600;stroke-width:1;stroke-linecap:square;-inkscape-stroke:none"
       d="m 98.640489,191.66168 c -0.07907,0.0457 -0.158147,0.0911 -0.237194,0.13695 4.425095,16.19149 9.963935,29.84491 12.590965,50.04707 l 0.0176,0.13074 0.26148,-0.0331 -0.0176,-0.13074 C 108.62207,221.55938 103.069,207.87717 98.64669,191.68339 Z m -6.929292,4.17546 c -0.0761,0.0478 -0.152342,0.0948 -0.22841,0.14263 7.842038,19.97612 15.406683,40.20425 16.896123,66.51221 l 0.008,0.13281 0.26407,-0.0155 -0.008,-0.13074 c -1.49262,-26.36419 -9.078244,-46.63827 -16.925587,-66.62694 z m -7.581966,4.97902 c -0.07265,0.0499 -0.14495,0.10086 -0.217559,0.1509 8.823936,13.77198 14.819362,31.26425 16.422258,54.04476 l 0.01,0.13074 0.26407,-0.0176 -0.0104,-0.1328 C 98.991771,232.17175 92.982361,214.63098 84.130781,200.81823 Z m -14.570686,10.98796 c -0.03588,0.0297 -0.07214,0.0586 -0.108006,0.0884 v 0.38861 c 7.36519,19.51337 10.250514,40.42907 9.742559,62.41013 l -0.0036,0.13282 0.265615,0.006 0.0021,-0.13279 C 79.96874,252.5613 77.048796,231.49363 69.574086,211.84587 Z m 31.824415,72.81105 -0.0527,0.12094 c -8.313014,19.47551 -18.931714,32.24866 -31.693158,38.79247 l 0.0011,0.29869 0.05891,-0.0305 c 12.859462,-6.57114 23.535645,-19.4125 31.877118,-38.95471 l 0.0507,-0.12351 z" />
    <path
       id="path34985"
       style="color:#000000;fill:#381600;stroke-width:1;stroke-linecap:square;-inkscape-stroke:none"
       d="m 143.62637,171.52028 c -0.0832,0.0275 -0.1669,0.0566 -0.25011,0.0842 12.23579,34.53675 16.18999,69.55689 14.09423,102.0966 -1.36011,21.11769 -5.47599,41.12757 -10.82983,59.50386 -7.65278,26.26715 -18.94149,48.88836 -30.21418,65.93708 0.0797,0.0392 0.15899,0.0792 0.23875,0.11832 11.28123,-17.06755 22.57233,-39.69996 30.22916,-65.98097 5.35808,-18.39087 9.47855,-38.41956 10.84017,-59.56072 2.0978,-32.57139 -1.86117,-67.62735 -14.10819,-102.1984 z" />
    <path
       id="path34987"
       style="fill:#552200;fill-opacity:1;stroke:none;stroke-width:0.264583px;stroke-linecap:butt;stroke-linejoin:miter;stroke-opacity:1"
       d="m 147.91707,170.14723 c -0.15505,0.0482 -0.30981,0.0961 -0.46509,0.1447 -2.88874,0.90421 -5.81575,1.87846 -8.77363,2.9285 -0.31249,0.111 -0.62685,0.22686 -0.93999,0.33952 -2.93743,1.05618 -5.90113,2.18245 -8.88473,3.38687 -0.79489,0.32106 -1.59221,0.65316 -2.38952,0.98495 -0.65369,0.27189 -1.30706,0.54199 -1.96215,0.82114 -0.82786,0.35295 -1.65693,0.71489 -2.48667,1.07952 -0.57762,0.25373 -1.15591,0.51159 -1.73426,0.77101 -0.8731,0.3918 -1.74612,0.78316 -2.62051,1.18805 -0.28363,0.13128 -0.56739,0.26988 -0.85111,0.40255 -0.94501,0.44204 -1.89024,0.88508 -2.83601,1.34256 0.079,0.068 22.50245,19.35005 44.61899,18.78645 a 96.053893,149.96893 0 0 0 -10.67532,-32.17582 z" />
    <path
       id="path34989"
       style="color:#000000;fill:#381600;stroke-width:1;stroke-linecap:square;-inkscape-stroke:none"
       d="m 114.10673,183.47304 c -0.0888,0.0425 -0.17782,0.0853 -0.26665,0.12764 l 0.0506,0.0398 c 12.46808,9.93498 27.63588,18.85818 44.70115,18.81435 h 0.13281 v -0.0966 c -0.0136,-0.0563 -0.0277,-0.11222 -0.0413,-0.16847 l -0.0915,0.002 c -16.95,0.0435 -32.04794,-8.81628 -44.48514,-18.71824 z" />
    <path
       id="path34991"
       style="color:#000000;fill:#d9d0bb;stroke-width:1;stroke-linecap:square;-inkscape-stroke:none"
       d="m 156.77854,167.57065 c -0.0888,0.0239 -0.1767,0.0468 -0.26562,0.0708 l 0.0165,0.0264 c 0,0 27.79711,45.31137 20.70106,87.12491 l -0.0233,0.13126 0.26148,0.0429 0.0217,-0.13074 c 7.08494,-41.74805 -20.43753,-86.81748 -20.71191,-87.26547 z" />
    <path
       style="color:#000000;fill:#d9d0bb;-inkscape-stroke:none"
       d="m 170.4668,175.46875 -0.25196,0.082 26.47657,82.67188 0.25195,-0.0801 z"
       id="path34993" />
    <path
       style="color:#000000;fill:#d9d0bb;-inkscape-stroke:none"
       d="m 183.82031,191.27344 -0.26367,0.0176 c 0.7605,12.11047 7.62799,30.79696 14.30273,46.47265 6.67475,15.6757 13.16016,28.33203 13.16016,28.33203 l 0.23633,-0.12109 c 0,0 -6.48169,-12.65031 -13.15234,-28.31641 -6.67066,-15.66609 -13.52789,-34.35693 -14.28321,-46.38476 z"
       id="path34995" />
    <path
       id="path34997"
       style="color:#000000;fill:#d9d0bb;stroke-width:1;stroke-linecap:square;-inkscape-stroke:none"
       d="m 294.38875,166.73814 -0.003,0.006 c 0,0 -13.20546,38.77667 -32.65021,69.48827 l -0.0703,0.1111 0.22221,0.14263 0.0708,-0.1111 c 19.45501,-30.72686 32.656,-69.47372 32.67661,-69.53425 -0.0818,-0.0349 -0.16465,-0.068 -0.24648,-0.10284 z" />
    <path
       style="color:#000000;fill:#d9d0bb;-inkscape-stroke:none"
       d="m 247.88867,251.38477 -0.23047,0.1289 c 6.84049,12.25307 14.47852,18.05078 14.47852,18.05078 l 0.16015,-0.21093 c 0,0 -7.59124,-5.75783 -14.4082,-17.96875 z"
       id="path34999" />
    <path
       id="path37009"
       style="color:#000000;fill:#9e9788;stroke-width:1;stroke-linecap:square;-inkscape-stroke:none"
       d="m 264.22159,161.08215 c -5.2197,27.27436 -17.52717,44.74077 -29.95786,61.59159 v 0 l 0.13487,0.26355 0.078,-0.10697 c 12.43688,-16.85923 24.78212,-34.3789 30.00954,-61.72284 l 0.005,-0.0253 z"
       sodipodi:nodetypes="cccccccc" />
    <g
       id="g61278"
       transform="rotate(180,211.66661,285.81605)">
      <path
         id="path49840"
         style="fill:#552200;fill-opacity:1;stroke:none;stroke-width:0.999999px;stroke-linecap:butt;stroke-linejoin:miter;stroke-opacity:1"
         d="m 1135.4766,640.2793 c -22.473,38.23289 -44.4309,79.8206 -64.5215,124.6582 8.969,0.19033 17.7696,0.0134 26.4258,-0.48047 0.01,-0.0186 0.019,-0.0361 0.027,-0.0547 62.2942,-3.55974 116.8371,-24.07417 168.2168,-51.50976 -11.8907,-7.96685 -23.9459,-15.63246 -36.1582,-23.00977 -0.1781,-0.10744 -0.355,-0.2169 -0.5332,-0.32422 -5.5847,-3.36844 -11.21,-6.66193 -16.8613,-9.9082 -1.2793,-0.73371 -2.5631,-1.46003 -3.8457,-2.1875 -4.7053,-2.67279 -9.4346,-5.30159 -14.1856,-7.89062 -2.0567,-1.11911 -4.1204,-2.22461 -6.1855,-3.32813 -3.6349,-1.94507 -7.2841,-3.86305 -10.9453,-5.75976 -2.5455,-1.31699 -5.0924,-2.63388 -7.6504,-3.92774 -3.2379,-1.63959 -6.4955,-3.24352 -9.7539,-4.8457 -0.3993,-0.19636 -0.7958,-0.39795 -1.1954,-0.59375 -0.5342,-0.26178 -1.0628,-0.53413 -1.5976,-0.79492 -0.047,-0.0228 -0.094,-0.0455 -0.1406,-0.0684 0,0.006 -0.01,0.0118 -0.012,0.0176 -2.5725,-1.25452 -5.1463,-2.50631 -7.7304,-3.74023 -4.0423,-1.92476 -8.0951,-3.83065 -12.168,-5.69922 -0.3964,-0.18189 -0.7888,-0.37147 -1.1855,-0.55273 z"
         transform="scale(0.26458333)" />
      <path
         id="path52007"
         style="color:#000000;fill:#381600;stroke-width:3.77953;stroke-linecap:square;-inkscape-stroke:none"
         d="m 1265.1543,712.57812 c -57.7967,31.68575 -120.5538,52.68466 -194.0043,51.92468 l -0.441,0.93275 c 0,0 0.023,-2e-5 0.2402,-2e-5 73.7428,0.76301 136.9556,-20.28838 194.9199,-52.10157 l 0.2286,-0.1289 c -0.3137,-0.21043 -0.6295,-0.41695 -0.9434,-0.62696 z"
         sodipodi:nodetypes="cccccccc"
         transform="scale(0.26458333)" />
    </g>
    <path
       id="path73106"
       style="fill:#844924;fill-opacity:1;stroke:none;stroke-width:0.901119px;stroke-linecap:butt;stroke-linejoin:miter;stroke-opacity:1"
       d="M 619.56055 1052.125 C 619.39549 1054.0472 619.20442 1055.9516 619.0293 1057.8672 C 618.92618 1058.9965 618.82154 1060.125 618.71484 1061.252 C 617.48068 1074.2841 616.01296 1087.1619 614.31445 1099.8809 C 614.19701 1100.7605 614.07858 1101.6394 613.95898 1102.5176 C 613.71585 1104.3015 613.48856 1106.0974 613.23633 1107.875 L 980.55664 1107.875 C 982.18848 1088.9669 984.31559 1070.3809 986.91406 1052.125 L 619.56055 1052.125 z "
       transform="scale(0.26458333)" />
    <path
       id="rect58250"
       style="fill:#666666;fill-opacity:1;stroke:none;stroke-width:0.264999;stroke-linecap:square;stroke-miterlimit:4;stroke-dasharray:none;stroke-opacity:1"
       d="m 163.73626,280.41803 c -0.33381,3.56688 -0.73476,7.08943 -1.19993,10.56783 v 0.0961 h 5.23844 v -10.66393 z" />
    <rect
       style="fill:#666666;fill-opacity:1;stroke:none;stroke-width:0.264999;stroke-linecap:square;stroke-miterlimit:4;stroke-dasharray:none;stroke-opacity:1"
       id="rect60555"
       width="5.238483"
       height="10.664055"
       x="169.36237"
       y="280.41797" />
    <rect
       style="fill:#666666;fill-opacity:1;stroke:none;stroke-width:0.264999;stroke-linecap:square;stroke-miterlimit:4;stroke-dasharray:none;stroke-opacity:1"
       id="rect60557"
       width="5.238483"
       height="10.664055"
       x="176.18832"
       y="280.41797" />
    <rect
       style="fill:#666666;fill-opacity:1;stroke:none;stroke-width:0.264999;stroke-linecap:square;stroke-miterlimit:4;stroke-dasharray:none;stroke-opacity:1"
       id="rect60559"
       width="5.238483"
       height="10.664055"
       x="183.01428"
       y="280.41797" />
    <rect
       style="fill:#666666;fill-opacity:1;stroke:none;stroke-width:0.264999;stroke-linecap:square;stroke-miterlimit:4;stroke-dasharray:none;stroke-opacity:1"
       id="rect60561"
       width="5.238483"
       height="10.664055"
       x="189.84024"
       y="280.41797" />
    <rect
       style="fill:#666666;fill-opacity:1;stroke:none;stroke-width:0.264999;stroke-linecap:square;stroke-miterlimit:4;stroke-dasharray:none;stroke-opacity:1"
       id="rect60563"
       width="5.238483"
       height="10.664055"
       x="196.6662"
       y="280.41797" />
    <rect
       style="fill:#666666;fill-opacity:1;stroke:none;stroke-width:0.264999;stroke-linecap:square;stroke-miterlimit:4;stroke-dasharray:none;stroke-opacity:1"
       id="rect60565"
       width="5.238483"
       height="10.664055"
       x="203.49216"
       y="280.41797" />
    <rect
       style="fill:#666666;fill-opacity:1;stroke:none;stroke-width:0.264999;stroke-linecap:square;stroke-miterlimit:4;stroke-dasharray:none;stroke-opacity:1"
       id="rect60567"
       width="5.238483"
       height="10.664055"
       x="210.31812"
       y="280.41797" />
    <rect
       style="fill:#666666;fill-opacity:1;stroke:none;stroke-width:0.264999;stroke-linecap:square;stroke-miterlimit:4;stroke-dasharray:none;stroke-opacity:1"
       id="rect60569"
       width="5.238483"
       height="10.664055"
       x="217.14407"
       y="280.41797" />
    <rect
       style="fill:#666666;fill-opacity:1;stroke:none;stroke-width:0.264999;stroke-linecap:square;stroke-miterlimit:4;stroke-dasharray:none;stroke-opacity:1"
       id="rect60571"
       width="5.238483"
       height="10.664055"
       x="223.97003"
       y="280.41797" />
    <rect
       style="fill:#666666;fill-opacity:1;stroke:none;stroke-width:0.264999;stroke-linecap:square;stroke-miterlimit:4;stroke-dasharray:none;stroke-opacity:1"
       id="rect60573"
       width="5.238483"
       height="10.664055"
       x="230.79599"
       y="280.41797" />
    <rect
       style="fill:#666666;fill-opacity:1;stroke:none;stroke-width:0.264999;stroke-linecap:square;stroke-miterlimit:4;stroke-dasharray:none;stroke-opacity:1"
       id="rect60575"
       width="5.238483"
       height="10.664055"
       x="237.62195"
       y="280.41797" />
    <rect
       style="fill:#666666;fill-opacity:1;stroke:none;stroke-width:0.264999;stroke-linecap:square;stroke-miterlimit:4;stroke-dasharray:none;stroke-opacity:1"
       id="rect60577"
       width="5.238483"
       height="10.664055"
       x="244.44791"
       y="280.41797" />
    <rect
       style="fill:#666666;fill-opacity:1;stroke:none;stroke-width:0.264999;stroke-linecap:square;stroke-miterlimit:4;stroke-dasharray:none;stroke-opacity:1"
       id="rect60579"
       width="5.238483"
       height="10.664055"
       x="251.27386"
       y="280.41797" />
    <rect
       style="fill:#666666;fill-opacity:1;stroke:none;stroke-width:0.264999;stroke-linecap:square;stroke-miterlimit:4;stroke-dasharray:none;stroke-opacity:1"
       id="rect60581"
       width="5.238483"
       height="10.664055"
       x="258.09985"
       y="280.41797" />
    <path
       id="path71082"
       style="color:#000000;fill:#9e9788;stroke-width:1;stroke-linecap:square;-inkscape-stroke:none"
       d="m 231.65116,410.28055 c 0.0906,-0.006 0.17883,-0.0114 0.26975,-0.0181 C 220.89854,369.69957 184.3048,321.4794 162.27245,296.84923 l -0.0879,-0.0977 -0.35445,0.005 0.24495,0.26798 c 22.00577,24.60047 58.56187,72.79518 69.57611,113.25561 z"
       sodipodi:nodetypes="scccccss" />
    <path
       id="path71084"
       style="color:#000000;fill:#9e9788;stroke-width:1;stroke-linecap:square;-inkscape-stroke:none"
       d="m 148.92648,410.55031 c 11.93739,-39.50573 22.61798,-52.17504 40.55671,-79.75173 l 0.0724,-0.11162 -0.22273,-0.14417 -0.0723,0.1111 c -17.9385,27.57634 -28.64948,40.29523 -40.5996,79.85766 l -0.0114,0.0388 z" />
    <path
       id="path71086"
       style="color:#000000;fill:#9e9788;stroke-width:1;stroke-linecap:square;-inkscape-stroke:none"
       d="m 137.30395,408.27654 c 16.08412,-40.74826 18.63878,-51.15809 44.27327,-87.99359 l 0.0739,-0.10956 -0.21652,-0.15037 -0.0744,0.10748 c -25.64338,36.84827 -28.22034,47.30563 -44.30272,88.04941 0.0824,0.0318 0.16407,0.0649 0.24649,0.0966 z" />
    <path
       id="path71088"
       style="color:#000000;fill:#9e9788;stroke-width:1;stroke-linecap:square;-inkscape-stroke:none"
       d="m 219.56405,410.55031 -0.006,-0.0289 c -6.14253,-28.23406 -24.19706,-56.2364 -37.15277,-69.18389 l -0.0935,-0.0935 -0.18552,0.18759 0.092,0.0935 c 12.90335,12.89525 30.94061,40.87022 37.07369,69.02525 z" />
    <path
       id="path71090"
       style="color:#000000;fill:#9e9788;stroke-width:3.77953;stroke-linecap:square;-inkscape-stroke:none"
       d="M 674.36133 1121.5352 L 673.06055 1121.5371 L 673.57031 1122.2246 L 673.88867 1122.6074 C 768.29771 1235.79 880.29458 1412.2917 917.00391 1546.084 C 917.33386 1546.036 917.66918 1545.9843 918 1545.9355 C 881.24655 1411.8426 769.17116 1235.2743 674.65625 1121.9648 L 674.36133 1121.5352 z "
       transform="scale(0.26458333)" />
    <path
       id="path71092"
       style="fill:#662f0c;fill-opacity:1;stroke:none;stroke-width:1.10667;stroke-linecap:square"
       d="m 275.41955,401.49453 c 10e-4,-5.3e-4 0.003,-10e-4 0.004,-0.002 4.6951,-1.45958 9.49707,-3.11077 14.36139,-4.9599 0.20708,-0.0787 0.4154,-0.16135 0.6227,-0.24082 1.35714,-0.52009 2.71881,-1.05521 4.08451,-1.60662 0.34735,-0.14027 0.69552,-0.28452 1.04335,-0.42684 1.23178,-0.5039 2.46624,-1.02058 3.70313,-1.5503 0.4185,-0.17927 0.83727,-0.35983 1.25625,-0.54208 1.17556,-0.51124 2.35303,-1.03608 3.53157,-1.57097 0.44665,-0.20276 0.89301,-0.40411 1.33997,-0.6103 1.19967,-0.55328 2.40026,-1.12304 3.60133,-1.70118 0.40743,-0.19617 0.81465,-0.38748 1.22215,-0.58653 1.36901,-0.66856 2.73815,-1.35639 4.10672,-2.05776 0.23945,-0.12274 0.47891,-0.23953 0.71831,-0.36328 0.28927,-0.1495 0.57845,-0.30326 0.86764,-0.45424 1.10286,-0.5759 2.20522,-1.16201 3.30626,-1.75958 0.22335,-0.1212 0.44699,-0.23913 0.67025,-0.36122 1.23001,-0.6728 2.45777,-1.36322 3.68401,-2.06344 0.29326,-0.16743 0.58654,-0.3338 0.87953,-0.50281 1.22138,-0.70465 2.44013,-1.42367 3.65611,-2.15594 0.2613,-0.15733 0.5224,-0.31577 0.78341,-0.47439 1.2472,-0.75803 2.49176,-1.52808 3.73156,-2.31562 0.19838,-0.126 0.39611,-0.25461 0.59428,-0.38137 1.24901,-0.79904 2.49435,-1.61073 3.73414,-2.44016 0.0807,-0.054 0.16172,-0.10661 0.24236,-0.16072 1.28889,-0.86481 2.57065,-1.75031 3.84783,-2.64841 0.19215,-0.13511 0.38484,-0.26876 0.57671,-0.40463 1.23822,-0.87691 2.46996,-1.77125 3.69538,-2.67994 0.21346,-0.15828 0.4267,-0.3172 0.63975,-0.47646 1.23376,-0.92228 2.4615,-1.85873 3.6804,-2.81378 0.15735,-0.12328 0.31368,-0.24875 0.47077,-0.37259 1.27732,-1.00696 2.54802,-2.02762 3.807,-3.07113 v -73.92361 l -0.41186,-83.40008 c -14.74725,-12.09019 -30.59836,-22.15711 -47.46067,-30.36972 -25.635,37.20478 -42.28474,91.04413 -47.59761,144.25889 0.002,30.43282 5.93331,60.14471 17.00723,85.18912 z"
       sodipodi:nodetypes="ccscscscccccsscscscscscscscscsscccccc" />
    <path
       id="path71096"
       style="fill:#552200;fill-opacity:1;stroke:none;stroke-width:1.10667;stroke-linecap:square"
       d="m 275.41955,401.49453 c 10e-4,-2.7e-4 0.002,-8e-4 0.003,-10e-4 1.4449,-0.44925 2.93084,-0.9817 4.39456,-1.4671 -31.23129,-88.1825 -7.93488,-173.55736 26.97096,-227.59748 -2.10506,-1.03436 -4.22305,-2.0453 -6.35982,-3.02151 -21.89391,37.24775 -42.00021,86.43003 -42.01604,146.89801 0.002,30.43282 5.93332,60.1447 17.00723,85.18911 z" />
    <path
       id="path71098"
       style="fill:#552200;stroke:none;stroke-width:0.703212;stroke-linecap:square"
       d="m 318.76316,383.28944 c 12.04452,-6.50461 23.96039,-14.30036 35.1193,-23.54947 v -73.92365 l -0.2682,-54.28351 a -61.035694,-95.29502 0 0 0 -47.83584,93.00466 -61.035694,-95.29502 0 0 0 12.98474,58.75197 z" />
    <path
       id="path71100"
       style="color:#000000;fill:#5d2500;stroke-width:1;stroke-linecap:square;-inkscape-stroke:none"
       d="m 281.2688,399.55821 0.10181,-0.006 c 0.0533,-0.0181 0.10639,-0.0351 0.15968,-0.0532 -1.79669,-29.69705 1.02457,-57.58477 -7.02955,-89.04211 l -0.2558,0.0646 c 8.04511,31.42212 5.22008,59.29669 7.02386,89.03693 z m 30.9268,-12.86588 c 0.0784,-0.0393 0.15668,-0.0789 0.23513,-0.11834 -9.92186,-19.8061 -18.33425,-40.10163 -17.12092,-71.99612 l 0.006,-0.13281 -0.26562,-0.0104 -0.004,0.13281 c -1.21531,31.94612 7.22202,52.30698 17.14985,72.12481 z m -23.08541,-41.27655 0.25993,-0.047 c -2.94092,-16.14971 -6.04762,-32.17805 -6.08387,-50.24809 h -0.26355 c 0.0363,18.10004 3.14693,34.14736 6.08749,50.29512 z m 6.75979,-56.6446 c 1.24322,-9.81688 3.21927,-19.25325 8.39846,-27.07224 l -0.22066,-0.1447 c -5.21618,7.87484 -7.1964,17.3533 -8.44135,27.18387 z m 17.46509,-25.9979 0.0527,-0.12144 c 10.54047,-23.90529 25.18139,-37.76417 40.12882,-50.93902 l -0.002,-0.34983 -0.0863,0.0739 c -14.98188,13.20168 -29.70133,27.11003 -40.28332,51.10954 l -0.0527,0.12144 z m 0.98236,-16.68373 0.0605,-0.11731 c 11.96752,-23.11868 25.2271,-35.03531 39.09323,-43.40045 l -5.3e-4,-0.15605 c -0.0359,-0.0294 -0.0721,-0.058 -0.10801,-0.0873 -13.9071,8.38485 -27.22397,20.35143 -39.21879,43.52292 l -0.0625,0.11729 z m -23.74997,-11.41584 0.0548,-0.12144 c 10.05186,-22.91488 22.51805,-39.76979 37.53879,-50.20882 l 0.0439,-0.03 c -0.0809,-0.0504 -0.16139,-0.10165 -0.24237,-0.15192 -15.05223,10.47856 -27.52853,27.36305 -37.58271,50.28322 l -0.0548,0.12144 z" />
    <path
       id="path71102"
       style="color:#000000;fill:#381600;stroke-width:1;stroke-linecap:square;-inkscape-stroke:none"
       d="m 324.69251,379.97078 c 0.0791,-0.0457 0.15815,-0.0911 0.2372,-0.13695 -4.4251,-16.19149 -9.96394,-29.84491 -12.59097,-50.04707 l -0.0176,-0.13074 -0.26148,0.0331 0.0176,0.13074 c 2.63367,20.25325 8.18674,33.93546 12.60905,50.12924 z m 6.92929,-4.17546 c 0.0761,-0.0478 0.15235,-0.0948 0.22841,-0.14263 -7.84204,-19.97612 -15.40668,-40.20425 -16.89612,-66.51221 l -0.008,-0.13281 -0.26407,0.0155 0.008,0.13074 c 1.49262,26.36419 9.07824,46.63827 16.92559,66.62694 z m 7.58197,-4.97902 c 0.0726,-0.0499 0.14495,-0.10086 0.21756,-0.1509 -8.82394,-13.77198 -14.81936,-31.26425 -16.42226,-54.04476 l -0.01,-0.13074 -0.26407,0.0176 0.0104,0.1328 c 1.60569,22.82044 7.6151,40.36121 16.46668,54.17396 z m 14.57069,-10.98796 c 0.0359,-0.0297 0.0721,-0.0586 0.108,-0.0884 v -0.38861 c -7.36519,-19.51337 -10.25051,-40.42907 -9.74256,-62.41013 l 0.004,-0.13282 -0.26562,-0.006 -0.002,0.13279 c -0.51153,22.13605 2.40841,43.20372 9.88312,62.85148 z m -31.82442,-72.81105 0.0527,-0.12094 c 8.31301,-19.47551 18.93171,-32.24866 31.69316,-38.79247 l -10e-4,-0.29869 -0.0589,0.0305 c -12.85946,6.57114 -23.53565,19.4125 -31.87712,38.95471 l -0.0507,0.12351 z" />
    <path
       id="path71104"
       style="color:#000000;fill:#381600;stroke-width:1;stroke-linecap:square;-inkscape-stroke:none"
       d="m 279.70663,400.11218 c 0.0831,-0.0276 0.1669,-0.0566 0.25011,-0.0842 -12.23579,-34.53675 -16.18999,-69.55689 -14.09423,-102.0966 1.36011,-21.11769 5.47599,-41.12757 10.82983,-59.50386 7.65278,-26.26715 18.94149,-48.88836 30.21418,-65.93708 -0.0797,-0.0392 -0.15899,-0.0792 -0.23875,-0.11832 -11.28123,17.06755 -22.57233,39.69996 -30.22916,65.98097 -5.35808,18.39087 -9.47855,38.41956 -10.84017,59.56072 -2.0978,32.57139 1.86117,67.62735 14.10819,102.1984 z" />
    <path
       id="path71106"
       style="fill:#552200;fill-opacity:1;stroke:none;stroke-width:0.264583px;stroke-linecap:butt;stroke-linejoin:miter;stroke-opacity:1"
       d="m 275.41593,401.48523 c 0.15505,-0.0482 0.30981,-0.0961 0.46509,-0.1447 2.88874,-0.90421 5.81575,-1.87846 8.77363,-2.9285 0.31249,-0.111 0.62685,-0.22686 0.93999,-0.33952 2.93743,-1.05618 5.90113,-2.18245 8.88473,-3.38687 0.79489,-0.32106 1.59221,-0.65316 2.38952,-0.98495 0.65369,-0.27189 1.30706,-0.54199 1.96215,-0.82114 0.82786,-0.35295 1.65693,-0.71489 2.48667,-1.07952 0.57762,-0.25373 1.15591,-0.51159 1.73426,-0.77101 0.8731,-0.3918 1.74612,-0.78316 2.62051,-1.18805 0.28363,-0.13128 0.56739,-0.26988 0.85111,-0.40255 0.94501,-0.44204 1.89024,-0.88508 2.83601,-1.34256 -0.079,-0.068 -22.50245,-19.35005 -44.61899,-18.78645 a -96.053893,-149.96893 0 0 0 10.67532,32.17582 z" />
    <path
       id="path71108"
       style="color:#000000;fill:#381600;stroke-width:1;stroke-linecap:square;-inkscape-stroke:none"
       d="m 309.22627,388.15942 c 0.0888,-0.0425 0.17782,-0.0853 0.26665,-0.12764 l -0.0506,-0.0398 C 296.9742,378.05701 281.8064,369.13381 264.74113,369.17764 h -0.13281 v 0.0966 c 0.0136,0.0563 0.0277,0.11222 0.0413,0.16847 l 0.0915,-0.002 c 16.95,-0.0435 32.04794,8.81628 44.48514,18.71824 z" />
    <path
       id="path71110"
       style="color:#000000;fill:#d9d0bb;stroke-width:1;stroke-linecap:square;-inkscape-stroke:none"
       d="m 266.55446,404.06181 c 0.0888,-0.0239 0.1767,-0.0468 0.26562,-0.0708 l -0.0165,-0.0264 c 0,0 -27.79711,-45.31137 -20.70106,-87.12491 l 0.0232,-0.13126 -0.26148,-0.0429 -0.0217,0.13074 c -7.08494,41.74805 20.43753,86.81748 20.71191,87.26547 z" />
    <path
       style="color:#000000;fill:#d9d0bb;-inkscape-stroke:none"
       d="m 252.8662,396.16371 0.25196,-0.082 -26.47657,-82.67188 -0.25195,0.0801 z"
       id="path71112" />
    <path
       style="color:#000000;fill:#d9d0bb;-inkscape-stroke:none"
       d="m 239.51269,380.35902 0.26367,-0.0176 c -0.7605,-12.11047 -7.62799,-30.79696 -14.30273,-46.47265 -6.67475,-15.6757 -13.16016,-28.33203 -13.16016,-28.33203 l -0.23633,0.12109 c 0,0 6.48169,12.65031 13.15234,28.31641 6.67066,15.66609 13.52789,34.35693 14.28321,46.38476 z"
       id="path71114" />
    <path
       id="path71116"
       style="color:#000000;fill:#d9d0bb;stroke-width:1;stroke-linecap:square;-inkscape-stroke:none"
       d="m 128.94425,404.89432 0.003,-0.006 c 0,0 13.20546,-38.77667 32.65021,-69.48827 l 0.0703,-0.1111 -0.22221,-0.14263 -0.0708,0.1111 c -19.45501,30.72686 -32.656,69.47372 -32.67661,69.53425 0.0818,0.0349 0.16465,0.068 0.24648,0.10284 z" />
    <path
       style="color:#000000;fill:#d9d0bb;-inkscape-stroke:none"
       d="m 175.44433,320.24769 0.23047,-0.1289 c -6.84049,-12.25307 -14.47852,-18.05078 -14.47852,-18.05078 l -0.16015,0.21093 c 0,0 7.59124,5.75783 14.4082,17.96875 z"
       id="path71118" />
    <path
       id="path71120"
       style="color:#000000;fill:#9e9788;stroke-width:1;stroke-linecap:square;-inkscape-stroke:none"
       d="m 159.11141,410.55031 c 5.2197,-27.27436 17.52717,-44.74077 29.95786,-61.59159 l 0.0801,-0.10542 -0.21497,-0.15813 -0.078,0.10697 c -12.43688,16.85923 -24.78212,34.3789 -30.00954,61.72284 l -0.005,0.0253 z" />
    <g
       id="g71126"
       transform="translate(-2.2e-4,3.6e-4)">
      <path
         id="path71122"
         style="fill:#552200;fill-opacity:1;stroke:none;stroke-width:0.999999px;stroke-linecap:butt;stroke-linejoin:miter;stroke-opacity:1"
         d="m 1135.4766,640.2793 c -22.473,38.23289 -44.4309,79.8206 -64.5215,124.6582 8.969,0.19033 17.7696,0.0134 26.4258,-0.48047 0.01,-0.0186 0.019,-0.0361 0.027,-0.0547 62.2942,-3.55974 116.8371,-24.07417 168.2168,-51.50976 -11.8907,-7.96685 -23.9459,-15.63246 -36.1582,-23.00977 -0.1781,-0.10744 -0.355,-0.2169 -0.5332,-0.32422 -5.5847,-3.36844 -11.21,-6.66193 -16.8613,-9.9082 -1.2793,-0.73371 -2.5631,-1.46003 -3.8457,-2.1875 -4.7053,-2.67279 -9.4346,-5.30159 -14.1856,-7.89062 -2.0567,-1.11911 -4.1204,-2.22461 -6.1855,-3.32813 -3.6349,-1.94507 -7.2841,-3.86305 -10.9453,-5.75976 -2.5455,-1.31699 -5.0924,-2.63388 -7.6504,-3.92774 -3.2379,-1.63959 -6.4955,-3.24352 -9.7539,-4.8457 -0.3993,-0.19636 -0.7958,-0.39795 -1.1954,-0.59375 -0.5342,-0.26178 -1.0628,-0.53413 -1.5976,-0.79492 -0.047,-0.0228 -0.094,-0.0455 -0.1406,-0.0684 0,0.006 -0.01,0.0118 -0.012,0.0176 -2.5725,-1.25452 -5.1463,-2.50631 -7.7304,-3.74023 -4.0423,-1.92476 -8.0951,-3.83065 -12.168,-5.69922 -0.3964,-0.18189 -0.7888,-0.37147 -1.1855,-0.55273 z"
         transform="scale(0.26458333)" />
      <path
         id="path71124"
         style="color:#000000;fill:#381600;stroke-width:3.77953;stroke-linecap:square;-inkscape-stroke:none"
         d="m 1265.1543,712.57812 c -57.7967,31.68575 -120.5538,52.68466 -194.0043,51.92468 l -0.441,0.93275 c 0,0 0.023,-2e-5 0.2402,-2e-5 73.7428,0.76301 136.9556,-20.28838 194.9199,-52.10157 l 0.2286,-0.1289 c -0.3137,-0.21043 -0.6295,-0.41695 -0.9434,-0.62696 z"
         sodipodi:nodetypes="cccccccc"
         transform="scale(0.26458333)" />
    </g>
    <path
       id="path71681"
       style="fill:#fff9ec;stroke:none;stroke-width:0.999999px;stroke-linecap:butt;stroke-linejoin:miter;stroke-opacity:1;fill-opacity:1"
       d="m 771.17969,608.81445 c 19.35288,88.84296 70.0445,177.09567 114.64453,232.2168 46.83942,-63.51284 93.13926,-129.43916 112.80859,-232.2168 z"
       transform="scale(0.26458333)"
       sodipodi:nodetypes="cccc" />
    <path
       id="path79181"
       style="fill:#fff9ec;fill-opacity:1;stroke:none;stroke-width:0.264583px;stroke-linecap:butt;stroke-linejoin:miter;stroke-opacity:1"
       d="m 219.29171,410.55031 c -5.12045,-23.50637 -18.53261,-46.85656 -30.33303,-61.44069 -12.39293,16.80443 -24.6431,34.24744 -29.84727,61.44069 z"
       sodipodi:nodetypes="cccc" />
  </g>
</svg>
