<?xml version="1.0" encoding="UTF-8" standalone="no"?>
<!-- Created with Inkscape (http://www.inkscape.org/) -->

<svg
   width="1600"
   height="2160"
   viewBox="0 0 423.33332 571.50002"
   version="1.1"
   id="svg876"
   sodipodi:docname="Toga - Copy.svg"
   inkscape:version="1.1.2 (b8e25be833, 2022-02-05)"
   xmlns:inkscape="http://www.inkscape.org/namespaces/inkscape"
   xmlns:sodipodi="http://sodipodi.sourceforge.net/DTD/sodipodi-0.dtd"
   xmlns="http://www.w3.org/2000/svg"
   xmlns:svg="http://www.w3.org/2000/svg">
  <sodipodi:namedview
     id="namedview878"
     pagecolor="#ffffff"
     bordercolor="#666666"
     borderopacity="1.0"
     inkscape:pageshadow="2"
     inkscape:pageopacity="0.0"
     inkscape:pagecheckerboard="0"
     inkscape:document-units="mm"
     showgrid="false"
     units="px"
     inkscape:zoom="0.763125"
     inkscape:cx="794.75839"
     inkscape:cy="990.66339"
     inkscape:window-width="1920"
     inkscape:window-height="1009"
     inkscape:window-x="-8"
     inkscape:window-y="-8"
     inkscape:window-maximized="1"
     inkscape:current-layer="layer1"
     inkscape:object-paths="true"
     inkscape:snap-smooth-nodes="true"
     inkscape:snap-intersection-paths="true"
     inkscape:snap-nodes="true"
     inkscape:object-nodes="true"
     inkscape:snap-midpoints="false"
     inkscape:snap-global="true"
     showguides="false"
     inkscape:guide-bbox="true" />
  <defs
     id="defs873">
    <inkscape:path-effect
       effect="skeletal"
       id="path-effect65244"
       is_visible="true"
       lpeversion="1"
       pattern="m -228.09665,-338.88374 a 2.6458333,2.6458333 0 0 1 2.67171,-2.61964 2.6458333,2.6458333 0 0 1 2.61968,2.67163 2.6458333,2.6458333 0 0 1 -2.67155,2.61977 2.6458333,2.6458333 0 0 1 -2.61964,-2.67168 z"
       copytype="repeated_stretched"
       prop_scale="1"
       scale_y_rel="false"
       spacing="8"
       normal_offset="0"
       tang_offset="0"
       prop_units="false"
       vertical_pattern="false"
       hide_knot="false"
       fuse_tolerance="0" />
    <inkscape:path-effect
       effect="skeletal"
       id="path-effect65094"
       is_visible="true"
       lpeversion="1"
       pattern="m -416.88969,-58.906362 a 2.6458333,2.6458333 0 0 1 -0.14146,-3.739111 2.6458333,2.6458333 0 0 1 3.7391,-0.141453 2.6458333,2.6458333 0 0 1 0.14147,3.739103 2.6458333,2.6458333 0 0 1 -3.73909,0.141459 z"
       copytype="repeated_stretched"
       prop_scale="1"
       scale_y_rel="false"
       spacing="8"
       normal_offset="0"
       tang_offset="0"
       prop_units="false"
       vertical_pattern="false"
       hide_knot="false"
       fuse_tolerance="0" />
    <inkscape:path-effect
       effect="skeletal"
       id="path-effect57760"
       is_visible="true"
       lpeversion="1"
       pattern="m 204.25834,325.96667 a 2.6458333,2.6458333 0 0 1 -2.64584,2.64584 2.6458333,2.6458333 0 0 1 -2.64583,-2.64584 2.6458333,2.6458333 0 0 1 2.64583,-2.64583 2.6458333,2.6458333 0 0 1 2.64584,2.64583 z"
       copytype="repeated"
       prop_scale="1"
       scale_y_rel="false"
       spacing="4"
       normal_offset="0"
       tang_offset="0"
       prop_units="false"
       vertical_pattern="false"
       hide_knot="false"
       fuse_tolerance="0" />
    <inkscape:path-effect
       effect="skeletal"
       id="path-effect56645"
       is_visible="true"
       lpeversion="1"
       pattern="m 204.25834,325.96667 a 2.6458333,2.6458333 0 0 1 -2.64584,2.64584 2.6458333,2.6458333 0 0 1 -2.64583,-2.64584 2.6458333,2.6458333 0 0 1 2.64583,-2.64583 2.6458333,2.6458333 0 0 1 2.64584,2.64583 z"
       copytype="repeated"
       prop_scale="1"
       scale_y_rel="false"
       spacing="5"
       normal_offset="-0.1"
       tang_offset="0"
       prop_units="false"
       vertical_pattern="false"
       hide_knot="false"
       fuse_tolerance="0" />
    <inkscape:path-effect
       effect="skeletal"
       id="path-effect42293"
       is_visible="true"
       lpeversion="1"
       pattern="m 27.324925,36.179238 v 0.53152 h 13.48318 v -0.53152 z m 0.7203,1.45287 v 0.50447 9.43868 9.94213 h 12.04194 v -19.88528 z m 0.6111,1.00891 h 10.82038 v 4.61306 h -8.70177 v 1.34343 h 8.70177 v 11.91199 h -10.82038 v -4.60886 h 8.70177 v -1.34765 h -8.70177 v -2.97773 z m 0.43623,0.7244 v 4.55778 4.56195 h 8.84759 v 2.7422 2.74112 h -8.29648 -0.55111 v 1.81977 h 0.55111 9.39619 v -4.56089 -4.562 h -8.84507 v -2.74215 -2.74112 h 8.29394 0.55113 v -1.81666 h -0.55113 z m -1.76763,19.07435 v 0.53573 h 13.48318 v -0.53573 z"
       copytype="repeated_stretched"
       prop_scale="1"
       scale_y_rel="false"
       spacing="0"
       normal_offset="-4.1"
       tang_offset="0"
       prop_units="false"
       vertical_pattern="false"
       hide_knot="false"
       fuse_tolerance="0" />
    <inkscape:path-effect
       effect="skeletal"
       id="path-effect41193"
       is_visible="true"
       lpeversion="1"
       pattern="m 27.324925,36.179238 v 0.53152 h 13.48318 v -0.53152 z m 0.7203,1.45287 v 0.50447 9.43868 9.94213 h 12.04194 v -19.88528 z m 0.6111,1.00891 h 10.82038 v 4.61306 h -8.70177 v 1.34343 h 8.70177 v 11.91199 h -10.82038 v -4.60886 h 8.70177 v -1.34765 h -8.70177 v -2.97773 z m 0.43623,0.7244 v 4.55778 4.56195 h 8.84759 v 2.7422 2.74112 h -8.29648 -0.55111 v 1.81977 h 0.55111 9.39619 v -4.56089 -4.562 h -8.84507 v -2.74215 -2.74112 h 8.29394 0.55113 v -1.81666 h -0.55113 z m -1.76763,19.07435 v 0.53573 h 13.48318 v -0.53573 z"
       copytype="repeated_stretched"
       prop_scale="1"
       scale_y_rel="false"
       spacing="0"
       normal_offset="-4.1"
       tang_offset="0"
       prop_units="false"
       vertical_pattern="false"
       hide_knot="false"
       fuse_tolerance="0" />
    <inkscape:path-effect
       effect="skeletal"
       id="path-effect34402"
       is_visible="true"
       lpeversion="1"
       pattern="m 521.19922,658.75977 c 0,0 -3.59623,3.52077 -8.95117,10.20898 l -40.0293,10.94727 0.26563,0.96679 38.73046,-10.59765 c -5.18849,6.59969 -11.78807,15.90712 -18.36914,27.72461 l -38.30664,15.36132 0.36914,0.92969 37.18946,-14.91016 c -4.98754,9.10557 -9.91555,19.60022 -14.14454,31.42383 l -34.59765,22.86914 0.54687,0.83399 33.49414,-22.14453 c -3.58503,10.2726 -6.62001,21.51084 -8.71289,33.62695 l -31.24804,27.21289 0.6582,0.75391 30.31641,-26.40235 c -1.8765,11.38182 -2.90702,23.53186 -2.75977,36.38867 l -29.05664,29.06446 0.70898,0.70117 28.37891,-28.37891 c 0.19654,10.93558 1.24191,22.37263 3.35156,34.28321 l -24.21484,33.32226 0.80469,0.58399 23.66211,-32.55274 c 0.19275,1.05124 0.37647,2.09971 0.58593,3.15821 2.19436,11.09453 4.94502,21.40167 8.125,30.99804 l -19.20507,36.4043 0.88671,0.4668 18.75977,-35.5625 c 3.92459,11.61717 8.48421,22.17315 13.48438,31.75195 l -12.54102,39.25 0.95117,0.30273 12.24609,-38.31836 c 6.04381,11.39154 12.69664,21.39637 19.61329,30.17969 l -6.53125,40.46485 0.98828,0.16211 6.38476,-39.55469 c 6.10897,7.64795 12.40761,14.35682 18.6543,20.24219 1.81799,1.7128 3.62831,3.33762 5.43164,4.91406 l -1.76953,40.92776 0.99609,0.039 1.74219,-40.13864 c 9.66932,8.34263 18.99495,14.78169 27.07422,19.75196 l 5.32422,40.69338 0.99023,-0.127 -5.21679,-39.88474 c 0.0669,0.0404 0.13818,0.0865 0.20507,0.12695 10.10926,6.12986 18.1155,9.94164 22.02735,12.3125 l 0.52343,-0.84766 c -4.02107,-2.43707 -11.96891,-6.21855 -22.03515,-12.32226 -0.008,-0.004 -0.0157,-0.008 -0.0195,-0.0117 l 42.19336,-5.51563 -0.13086,-0.99023 -43.39844,5.67578 c -7.99461,-4.92174 -17.20338,-11.28486 -26.75391,-19.51172 l 42.63477,1.77344 c -0.5324,-0.32735 -1.05155,-0.66987 -1.58008,-1.00195 l -42.2832,-1.82422 c -1.74871,-1.53166 -3.5032,-3.10907 -5.26563,-4.76953 -6.23236,-5.87192 -12.51691,-12.56691 -18.61133,-20.20118 l 39.19727,6.32813 c -0.45416,-0.41249 -0.91536,-0.81784 -1.36523,-1.23438 l -38.75,-6.25976 c -6.81634,-8.67273 -13.37429,-18.5396 -19.33789,-29.76563 l 35.74609,11.42383 c -0.3471,-0.45589 -0.68246,-0.92004 -1.02539,-1.3789 l -35.39063,-11.30664 c -4.97612,-9.52479 -9.51473,-20.02367 -13.42382,-31.58204 l 32.60156,17.19532 c -0.271,-0.51571 -0.5364,-1.03454 -0.80274,-1.55274 l -32.26367,-17.01758 c -3.16864,-9.56167 -5.9098,-19.83666 -8.09765,-30.89843 -0.19881,-1.00593 -0.37266,-2.00062 -0.55664,-3 l 28.50195,20.71289 c -0.16831,-0.535 -0.34412,-1.06682 -0.50781,-1.60352 l -28.25977,-20.53516 c -2.10898,-11.88559 -3.1566,-23.2984 -3.35352,-34.20703 l 25.08204,25.07422 c -0.0753,-0.54309 -0.14809,-1.08668 -0.21875,-1.63086 l -24.89258,-24.89062 c -0.14325,-12.78376 0.8804,-24.86416 2.74609,-36.17969 l 20.93945,24.03906 c 0.0304,-0.46926 0.0677,-0.93746 0.10157,-1.40625 l -20.82032,-23.90039 c 2.09133,-12.20972 5.14798,-23.52312 8.75977,-33.85351 l 17.08008,25.83593 c 0.10716,-0.43725 0.22378,-0.87217 0.33398,-1.30859 l -16.99218,-25.70508 c 4.25816,-11.9534 9.23685,-22.54767 14.27148,-31.71484 l 11.95898,29.82617 c 0.18359,-0.43572 0.36983,-0.87029 0.55664,-1.30469 l -11.89257,-29.67187 c 6.5972,-11.84716 13.21277,-21.15814 18.39257,-27.73047 l 8.14454,29.77344 c 0.2404,-0.37595 0.48735,-0.74864 0.73046,-1.12305 l -8.10546,-29.62891 c 5.40298,-6.7624 9.04687,-10.33203 9.04687,-10.33203 z"
       copytype="repeated_stretched"
       prop_scale="1.43"
       scale_y_rel="false"
       spacing="2.5"
       normal_offset="1.7"
       tang_offset="2.3"
       prop_units="false"
       vertical_pattern="false"
       hide_knot="false"
       fuse_tolerance="0" />
  </defs>
  <g
     inkscape:label="Layer 1"
     inkscape:groupmode="layer"
     id="layer1">
    <path
       id="path5850"
       style="display:inline;fill:#ff6600;fill-opacity:1;stroke:none;stroke-width:0.264583px;stroke-linecap:butt;stroke-linejoin:miter;stroke-opacity:1"
       d="m 197.291,161.08232 c -29.37786,0.64459 -84.35036,14.76357 -127.840256,50.81034 v 73.92365 l 0.411863,83.40008 c 22.13197,18.14436 46.736233,31.75624 73.541243,41.33339 h 82.63888 c 29.37787,-0.6446 84.34984,-14.76306 127.83974,-50.80981 v -73.92366 l -0.41185,-83.40008 C 331.33865,184.27186 306.73489,170.65946 279.9299,161.08232 Z" />
    <g
       id="g42686"
       transform="matrix(-1,0.02881187,0,-1,423.333,562.66719)">
      <path
         style="fill:none;stroke:#aa4400;stroke-width:0.265;stroke-linecap:butt;stroke-linejoin:miter;stroke-miterlimit:4;stroke-dasharray:1.06, 2.12;stroke-dashoffset:0;stroke-opacity:1"
         d="m 291.08408,223.34188 v 26.89004 l 4.25968,4.25968 h 31.64456 l 4.25966,-4.25968 v -26.89004"
         id="path42678" />
      <g
         id="g42684">
        <path
           style="fill:none;stroke:#552200;stroke-width:0.264583px;stroke-linecap:butt;stroke-linejoin:miter;stroke-opacity:1"
           d="m 290.02574,216.23221 v 35.05805 l 4.25969,4.25968 h 33.76123 l 4.25968,-4.25968 v -35.05805 z"
           id="path42680" />
        <path
           style="fill:none;stroke:#552200;stroke-width:0.264583px;stroke-linecap:butt;stroke-linejoin:miter;stroke-opacity:1"
           d="m 290.02574,216.23221 v 7.10967 h 42.2806 v -7.10967 z"
           id="path42682" />
      </g>
    </g>
    <g
       id="g42640">
      <path
         id="path39494"
         style="fill:#ffffff;stroke:none;stroke-width:0.264583px;stroke-linecap:butt;stroke-linejoin:miter;stroke-opacity:1"
         d="m 218.89361,161.08215 c 9.42262,9.99964 21.48949,16.86396 34.42426,22.26479 l 2.82205,1.82522 c 0.65819,0.4257 1.0573,0.92593 1.0573,2.2381 v 4.12585 l 7.91528,-7.91528 c 0,0 0.88746,-0.88728 1.98903,-2.01383 0.55078,-0.56328 1.1549,-1.18672 1.72857,-1.78852 0.57367,-0.6018 1.11689,-1.18211 1.54512,-1.66036 0.49329,-0.55091 1.02949,-1.19031 1.58803,-1.89291 0.55853,-0.7026 1.13932,-1.46838 1.72132,-2.27118 0.58203,-0.80281 1.16533,-1.64289 1.72911,-2.49442 0.56375,-0.85154 1.10805,-1.71437 1.61179,-2.56315 0.25188,-0.4244 0.49389,-0.84531 0.72294,-1.25936 0.22905,-0.41405 0.44498,-0.82126 0.64596,-1.21853 0.201,-0.39727 0.38677,-0.78452 0.55449,-1.15858 0.16771,-0.37407 0.31776,-0.73511 0.44701,-1.07953 0.12922,-0.34441 0.23797,-0.67248 0.32348,-0.98081 0.0854,-0.30777 0.14735,-0.59552 0.18396,-0.86093 8e-5,-5.3e-4 0,-10e-4 0,-0.002 v -5.3e-4 -5.3e-4 c 0.0365,-0.26537 0.0475,-0.50846 0.03,-0.72502 -0.009,-0.10843 -0.0249,-0.21042 -0.048,-0.30541 -0.0233,-0.095 -0.0541,-0.18281 -0.0925,-0.26355 z" />
      <path
         style="fill:none;stroke:#552200;stroke-width:0.264583px;stroke-linecap:butt;stroke-linejoin:miter;stroke-opacity:1"
         d="m 253.31805,183.34689 2.82205,1.82522 c 0.65819,0.4257 1.05715,0.92598 1.05715,2.23816 0,4.12581 0,4.12581 0,4.12581"
         id="path1189"
         sodipodi:nodetypes="cssc" />
      <path
         style="color:#000000;fill:#ff7f2a;stroke-width:0.264583px;-inkscape-stroke:none"
         d="m 253.31805,183.34689 c -4.30107,2.72603 -6.29161,8.34024 -8.69307,13.44078 -12.69769,-6.16651 -26.17913,-20.69113 -25.73124,-35.70535 v 0 c 9.42262,9.99963 21.48954,16.86373 34.42431,22.26457 z"
         id="path39859" />
      <path
         id="path39861"
         style="color:#000000;fill:#552200;stroke-width:1;-inkscape-stroke:none"
         d="m 218.76132,161.08215 c -0.22384,7.5465 3.04868,14.95711 7.96282,21.25194 4.91504,6.29599 11.4728,11.47918 17.84181,14.57223 l 0.12144,0.0584 0.0563,-0.12092 c 2.40539,-5.10889 4.39716,-10.69277 8.64444,-13.38472 l 0.28322,0.11632 -0.27932,-0.33738 c -12.88578,-5.38039 -24.92388,-12.22443 -34.31602,-22.15587 z m 0.29146,0.32608 c 9.35822,9.83224 21.26444,16.62747 34.02738,21.97437 -4.1878,2.77805 -6.17789,8.235 -8.5137,13.21883 -6.29206,-3.08007 -12.77506,-8.20673 -17.63303,-14.42961 -4.81732,-6.17081 -8.0016,-13.40874 -7.88065,-20.76359 z"
         sodipodi:nodetypes="cscccccccccccsc" />
      <path
         style="fill:none;stroke:#552200;stroke-width:0.264583px;stroke-linecap:butt;stroke-linejoin:miter;stroke-opacity:1"
         d="m 265.1125,183.62083 -9.35964,9.35964 c -1.91664,1.89507 -2.14974,2.42712 -2.14974,6.18463 l 0,79.00255"
         id="path2615"
         sodipodi:nodetypes="cccc" />
      <path
         style="color:#000000;fill:#ff7f2a;stroke-width:0.264583px;-inkscape-stroke:none"
         d="m 279.79325,161.08215 c 1.23031,2.58366 -5.47167,12.6687 -9.41803,17.07597 -1.71294,1.91301 -5.26272,5.46271 -5.26272,5.46271 5.03626,2.7649 8.1221,6.73582 10.10221,12.52947 l 13.32632,-31.81046 c -2.84615,-1.13037 -5.71341,-2.22228 -8.61134,-3.25769 z"
         id="path39746" />
      <path
         id="path39748"
         style="color:#000000;fill:#552200;stroke-width:0.264583;-inkscape-stroke:none"
         d="m 279.64701,161.08215 0.0269,0.0568 c 0.27316,0.57366 0.11036,1.66938 -0.40206,3.03496 -0.51242,1.36557 -1.35506,3.00147 -2.36005,4.6948 -2.00999,3.38667 -4.67069,7.00699 -6.63525,9.20099 -1.70662,1.90593 -5.25756,5.45755 -5.25756,5.45755 l -0.12454,0.12454 0.15451,0.0848 c 5.00939,2.75015 8.06823,6.68525 10.04073,12.4566 l 0.11266,0.3297 13.46171,-32.13448 c -2.88634,-1.14802 -5.79472,-2.25595 -8.73435,-3.30626 z m 0.31935,0.15555 c 2.82591,1.01092 5.62243,2.076 8.39949,3.17759 l -13.14545,31.37896 c -1.97138,-5.58261 -5.01825,-9.47548 -9.89655,-12.19926 0.19947,-0.1996 3.48173,-3.48531 5.15008,-5.34851 1.98181,-2.21326 4.64521,-5.83928 6.66523,-9.24284 1.00999,-1.7018 1.8587,-3.34691 2.38022,-4.73667 0.47641,-1.26958 0.67331,-2.30863 0.44698,-3.02927 z" />
      <ellipse
         style="fill:#cccccc;fill-opacity:1;stroke:#552200;stroke-width:0.271231;stroke-linecap:round;stroke-linejoin:round;stroke-opacity:1"
         id="path15485"
         cx="271.34985"
         cy="274.95731"
         rx="1.2739429"
         ry="1.2160764"
         transform="matrix(0.95457675,-0.29796515,0,1,0,0)" />
      <circle
         style="fill:#cccccc;fill-opacity:1;stroke:#552200;stroke-width:0.264999;stroke-linecap:round;stroke-linejoin:round;stroke-opacity:1"
         id="circle15589"
         cx="259.02426"
         cy="220.56285"
         r="1.2160764" />
      <circle
         style="fill:#cccccc;fill-opacity:1;stroke:#552200;stroke-width:0.264999;stroke-linecap:round;stroke-linejoin:round;stroke-opacity:1"
         id="circle15707"
         cx="259.02426"
         cy="247.02121"
         r="1.2160764" />
      <circle
         style="fill:#cccccc;fill-opacity:1;stroke:#552200;stroke-width:0.264999;stroke-linecap:round;stroke-linejoin:round;stroke-opacity:1"
         id="circle15709"
         cx="259.02426"
         cy="273.47952"
         r="1.2160764" />
      <path
         style="color:#000000;fill:#d45500;stroke-width:0.264583px;-inkscape-stroke:none"
         d="m 103.79935,188.75333 c -11.782149,6.42032 -23.427716,14.08717 -34.348811,23.13916 v 73.92365 l 0.327631,66.32514 c 0,0 0,0 0,0 55.7292,-36.35989 77.36841,-110.59457 34.02118,-163.38795 z"
         id="path40811" />
      <path
         id="path40813"
         style="color:#000000;fill:#000000;stroke-width:0.264583;-inkscape-stroke:none"
         d="m 103.9182,188.69029 c -11.822603,6.43345 -23.509913,14.11983 -34.467661,23.2022 v 73.92365 l 0.328147,66.48379 0.07183,-0.047 C 125.62831,315.86027 147.29517,241.54602 103.9182,188.69029 Z m -0.15296,0.23513 c 43.14578,52.6586 21.63306,126.61385 -33.855813,162.96678 l -0.326596,-66.07659 v -73.86007 c 10.869834,-9.00376 22.457396,-16.63368 34.182409,-23.03012 z" />
      <path
         style="color:#000000;fill:#d38d5f;stroke-width:0.264583px;-inkscape-stroke:none"
         d="m 69.450539,262.45995 v 23.35619 l 0.327631,66.32514 v 0 c 30.065146,-19.61621 50.17964,-50.2585 55.5501,-82.60736 -18.23773,-3.91112 -36.720927,-6.84018 -55.877731,-7.07501 z"
         id="path40823" />
      <path
         id="path40825"
         style="color:#000000;fill:#552200;stroke-width:0.264583;-inkscape-stroke:none"
         d="m 69.450539,262.32765 v 23.48849 l 0.328147,66.48379 0.07183,-0.047 C 99.945818,332.61702 120.08203,301.9448 125.45901,269.55668 l 0.0207,-0.12454 -0.12351,-0.0265 c -18.24237,-3.91202 -36.734847,-6.84305 -55.90407,-7.07803 z m 0.132292,0.26872 c 19.052084,0.24612 37.441159,3.1551 55.590409,7.04246 -5.38272,32.18857 -25.382907,62.67646 -55.263813,82.25287 l -0.326596,-66.07609 z" />
      <path
         style="fill:none;stroke:#000000;stroke-width:0.264583px;stroke-linecap:butt;stroke-linejoin:miter;stroke-opacity:1"
         d="m 125.35663,269.54133 c -18.24695,-3.9142 -36.739332,-6.84665 -55.906091,-7.0816"
         id="path16176"
         sodipodi:nodetypes="cc" />
      <path
         id="path24837"
         style="fill:#000000;stroke:none;stroke-width:0.264583px;stroke-linecap:butt;stroke-linejoin:miter;stroke-opacity:1"
         d="m 86.746127,269.99747 c -1.9968,0.50792 -3.541803,1.64833 -5.146458,2.70526 -4.598408,-2.6956 -7.774102,-2.16514 -9.246463,-1.77406 1.834388,-0.0988 4.979554,0.6771 5.908683,1.67691 -0.331581,0.27093 -0.668536,0.56822 -1.006142,0.87952 -0.09197,0.0849 -0.182464,0.17598 -0.274402,0.26356 -0.250449,0.23825 -0.498961,0.48154 -0.746207,0.73742 -0.04057,0.042 -0.08206,0.079 -0.122473,0.12144 0.0019,0 0.0034,0.003 0.0052,0.004 -1.693495,1.7765 -3.248298,3.91515 -3.969782,5.94434 l 1.261419,1.45521 c 0.941637,-1.56469 2.627027,-4.41245 4.373378,-6.37997 0.119843,-0.1351 0.239993,-0.26858 0.360185,-0.39482 0.01966,-0.0206 0.03925,-0.0417 0.05891,-0.062 0.13729,-0.14235 0.274296,-0.27575 0.411342,-0.4041 0.03279,-0.0306 0.06595,-0.0628 0.0987,-0.0925 0.132893,-0.12102 0.265475,-0.2317 0.397391,-0.33692 0.03013,-0.0241 0.06038,-0.0514 0.09043,-0.0744 0.161136,-0.12406 0.321072,-0.23656 0.479557,-0.33279 0.720643,1.27143 1.659528,2.52158 2.752286,3.62408 0.524745,-0.58611 1.077497,-1.16639 1.666049,-1.73117 -0.452895,-0.81616 -0.515358,-1.60727 -0.280604,-2.18488 0.493057,-1.21319 1.273215,-2.49703 2.929023,-3.64371 z m 14.883323,0.82683 c -0.17792,0.2663 -0.37402,0.53885 -0.58136,0.81391 -0.0599,0.0795 -0.1265,0.1598 -0.18862,0.23976 -0.15136,0.19481 -0.30563,0.39034 -0.46922,0.58706 -0.0819,0.0986 -0.16794,0.19733 -0.25269,0.29609 -0.158589,0.18476 -0.320382,0.3695 -0.487829,0.55399 -0.08848,0.0975 -0.178022,0.19479 -0.268719,0.29197 -0.172315,0.18454 -0.348728,0.36798 -0.528132,0.55033 -0.09198,0.0936 -0.183385,0.18738 -0.276987,0.28009 -0.202451,0.20045 -0.40921,0.3979 -0.618048,0.59325 -0.07273,0.0681 -0.14419,0.13734 -0.217559,0.20465 -0.285475,0.26175 -0.575058,0.51869 -0.867648,0.76634 -0.306753,0.25966 -0.616593,0.50946 -0.926558,0.7488 -0.02519,0.0193 -0.05026,0.037 -0.07545,0.0563 -0.270785,0.20746 -0.541234,0.40611 -0.810802,0.59428 -0.973403,0.67942 -1.926072,1.21883 -2.788979,1.54823 -0.101782,0.0389 -0.20216,0.0741 -0.301273,0.10698 -0.121951,0.0403 -0.240649,0.0747 -0.358116,0.10541 -0.110831,0.0291 -0.222724,0.06 -0.329179,0.0801 -0.02453,0.004 -0.0491,0.01 -0.07338,0.014 -0.162152,0.0277 -0.318804,0.044 -0.469222,0.0491 -0.02241,0 -0.04402,0 -0.06615,0 -0.153893,0.003 -0.302827,-0.006 -0.442349,-0.0305 -1.517656,-0.26725 -2.730857,-0.69556 -3.682463,-1.20766 -0.116374,0.11102 -0.234267,0.21976 -0.347782,0.33538 -0.396449,0.40381 -0.778131,0.83392 -1.157552,1.279 1.558666,0.99277 3.277103,1.63094 5.044136,1.68566 5.29e-4,3e-5 0.0011,0 0.0016,0 0.248786,0.008 0.498388,0.004 0.748792,-0.0119 0.196723,-0.0127 0.39483,-0.036 0.593762,-0.0672 0.07187,-0.0111 0.144389,-0.0283 0.216525,-0.0419 0.124674,-0.0236 0.249232,-0.0472 0.374653,-0.0775 0.09322,-0.0225 0.186999,-0.0503 0.280603,-0.0765 0.106159,-0.0298 0.212228,-0.0587 0.318844,-0.093 0.102045,-0.0328 0.204518,-0.07 0.306959,-0.10697 0.06226,-0.0225 0.124151,-0.0411 0.18655,-0.0651 -7.94e-4,0 -0.0013,-0.003 -0.0021,-0.004 0.877223,-0.33685 1.76757,-0.81878 2.662369,-1.42058 2.65e-4,0 7.94e-4,0 0.0011,0.003 0.01757,-0.0119 0.03514,-0.0254 0.05271,-0.0372 0.159578,-0.10814 0.319251,-0.22154 0.479039,-0.33692 0.0648,-0.0468 0.129484,-0.0921 0.194304,-0.14005 0.164838,-0.12197 0.329634,-0.24963 0.494544,-0.3788 0.05527,-0.0433 0.110614,-0.0846 0.16588,-0.12867 0.07152,-0.057 0.142947,-0.1179 0.214458,-0.17621 0.380421,-0.31007 0.760635,-0.63513 1.139981,-0.97875 0.341519,-0.30951 0.681538,-0.63989 1.021128,-0.97308 0.09953,-0.0976 0.199893,-0.1868 0.299207,-0.28628 0.440783,-0.44162 0.879063,-0.90001 1.314133,-1.37356 1.07661,1.89794 2.29235,4.03289 3.80597,5.72524 0.47387,-0.52366 0.83163,-1.14636 1.10019,-1.81748 -2.05562,-2.25634 -3.58017,-5.27682 -4.42918,-7.67807 z m 12.89534,1.25211 c 1.94123,1.61002 4.30519,4.89426 2.83652,7.37216 -0.0801,0.13513 -0.17624,0.26358 -0.28215,0.38706 -0.034,0.0397 -0.0742,0.0763 -0.11059,0.11473 -0.079,0.0833 -0.16031,0.16539 -0.25012,0.24286 -0.0439,0.0379 -0.0917,0.0736 -0.13797,0.11009 -0.0932,0.0734 -0.1893,0.1447 -0.29146,0.21238 -0.0489,0.0324 -0.099,0.064 -0.14986,0.0951 -0.10854,0.0664 -0.22101,0.12991 -0.33744,0.19016 -0.93722,0.48509 -2.1094,0.76835 -3.26079,0.82529 -0.21419,0.0106 -0.42752,0.0135 -0.6382,0.008 -0.0345,0 -0.0695,-2.4e-4 -0.10387,-0.003 -0.23982,-0.009 -0.47568,-0.0286 -0.70538,-0.0589 -0.0377,-0.005 -0.0738,-0.0124 -0.11111,-0.018 -0.18565,-0.0276 -0.36579,-0.0632 -0.54105,-0.10541 -0.0571,-0.0138 -0.11418,-0.0275 -0.17002,-0.0429 -0.20455,-0.0562 -0.40349,-0.11925 -0.58756,-0.19688 -0.45337,-0.19124 -0.89198,-0.43029 -1.3162,-0.70643 -0.19182,0.44846 -0.41166,0.85489 -0.66662,1.21647 -0.14429,0.20463 -0.30301,0.39232 -0.46974,0.57102 1.2922,0.81357 2.77096,1.24926 4.49636,1.05731 0.3323,-0.037 0.65004,-0.0849 0.95809,-0.14058 0.0525,-0.01 0.10111,-0.022 0.15296,-0.032 0.25166,-0.0485 0.49852,-0.10075 0.73587,-0.16018 0.0104,-0.003 0.0217,-0.004 0.032,-0.007 -2.6e-4,0 -7.9e-4,0 -0.001,-0.003 1.04407,-0.2641 1.96133,-0.62478 2.8205,-1.02579 0.58748,-0.27418 1.14947,-0.56496 1.70946,-0.85524 0.38348,-0.19875 0.77064,-0.39198 1.16014,-0.5829 0.28607,-0.14025 0.57475,-0.27808 0.87126,-0.40825 0.0812,-0.0356 0.16012,-0.0734 0.24236,-0.108 0.0841,-0.0355 0.17093,-0.0685 0.25632,-0.10285 0.1788,-0.0718 0.36049,-0.14115 0.5457,-0.20722 0.10129,-0.0361 0.20398,-0.0707 0.30747,-0.10491 0.18907,-0.0624 0.38349,-0.12001 0.58085,-0.17518 0.0968,-0.0271 0.19189,-0.056 0.29094,-0.0811 0.2979,-0.0756 0.6034,-0.14454 0.92397,-0.2005 l 0.81494,-3.35743 c -1.8809,0.88442 -3.1423,1.87198 -4.34082,2.87012 0.5228,-3.06485 -2.45349,-4.79671 -5.26376,-6.59185 z" />
      <path
         id="path29554"
         style="fill:#000000;stroke:none;stroke-width:0.264583px;stroke-linecap:butt;stroke-linejoin:miter;stroke-opacity:1"
         d="m 95.795186,270.57884 c -0.440558,0.0482 -0.863227,0.10951 -1.277959,0.17725 -0.104558,0.0169 -0.207605,0.0355 -0.310576,0.0537 -0.348273,0.0618 -0.688435,0.1297 -1.019058,0.20463 -0.06205,0.014 -0.126661,0.0259 -0.188103,0.0403 -0.375849,0.0888 -0.73901,0.18765 -1.092957,0.2925 -0.09405,0.0278 -0.185459,0.0574 -0.278019,0.0863 -0.279095,0.0873 -0.551561,0.17926 -0.81752,0.27596 -0.08273,0.0301 -0.167063,0.0589 -0.248565,0.0899 -0.323517,0.1229 -0.638223,0.25212 -0.943094,0.38809 -0.06985,0.0312 -0.136758,0.0643 -0.205671,0.0961 -0.245965,0.11353 -0.486482,0.23048 -0.720887,0.35192 -0.08396,0.0435 -0.1681,0.0868 -0.250632,0.13126 -0.276651,0.14902 -0.547888,0.30187 -0.809252,0.46096 -0.0013,0 -0.0027,0.003 -0.0041,0.003 -0.04508,0.0275 -0.08765,0.0565 -0.132292,0.0842 -0.228552,0.142 -0.451077,0.28771 -0.668692,0.43667 -0.07687,0.0526 -0.152836,0.10575 -0.228409,0.15917 -0.119944,0.0848 -0.235135,0.17219 -0.351917,0.2589 -0.27872,0.20687 -0.549283,0.41851 -0.811321,0.6351 -0.07078,0.0585 -0.143775,0.11552 -0.213424,0.17465 -0.320344,0.27194 -0.630026,0.54941 -0.928624,0.83251 -0.01069,0.0101 -0.02241,0.0198 -0.03307,0.03 2.65e-4,0 7.94e-4,0 0.0011,0.003 -0.647272,0.61595 -1.248556,1.25317 -1.820561,1.89603 -1.72e-4,-1.9e-4 -2.65e-4,0 -5.29e-4,0 -0.0046,0.005 -0.0088,0.0103 -0.01344,0.0156 -0.439894,0.4948 -0.864283,0.99224 -1.278993,1.48466 -1.146461,-1.30154 -2.293118,-2.38845 -3.439584,-3.3073 -0.492085,0.56656 -0.980712,1.18793 -1.445389,1.84383 -0.282049,0.39812 -0.555419,0.80201 -0.81752,1.20095 1.914339,1.35482 3.918627,3.06813 5.900414,4.69275 0.305279,-0.29136 0.592241,-0.58933 0.8723,-0.88937 0.07527,-0.0806 0.149476,-0.16084 0.223242,-0.24183 0.149029,-0.1637 0.291412,-0.32734 0.435115,-0.49196 0.294212,-0.33687 0.574784,-0.66546 0.853694,-1.00098 0.954286,-1.14834 1.851615,-2.26568 2.87011,-3.21323 0.100132,-0.0932 0.203171,-0.18264 0.305925,-0.27233 0.09892,-0.0864 0.198559,-0.1719 0.300238,-0.25477 0.101053,-0.0824 0.20442,-0.16209 0.30851,-0.24083 0.111543,-0.0843 0.225136,-0.1661 0.340547,-0.24598 0.102918,-0.0713 0.207391,-0.14078 0.313675,-0.20825 0.124407,-0.0789 0.252465,-0.15394 0.381889,-0.22736 0.105796,-0.0601 0.21201,-0.11954 0.321429,-0.17571 0.139136,-0.0714 0.28348,-0.13726 0.428913,-0.20206 0.130567,-0.0582 0.259302,-0.11845 0.395325,-0.17105 0.03407,-0.0132 0.06841,-0.0259 0.102835,-0.0388 0.225602,-0.0839 0.458399,-0.16074 0.700217,-0.22839 0.03526,-0.01 0.07135,-0.0191 0.106969,-0.0285 0.247748,-0.0661 0.503158,-0.12414 0.769464,-0.17205 0.02777,-0.005 0.05677,-0.009 0.08475,-0.014 0.281292,-0.0482 0.571148,-0.0881 0.874882,-0.11472 -0.01979,0.2205 -0.029,0.4023 -0.03256,0.56327 -0.06001,1.12541 0.0067,2.0951 0.177252,2.9187 0.103209,-0.0434 0.202333,-0.078 0.307991,-0.12713 0.648719,-0.30205 1.342359,-0.71679 2.04742,-1.19941 -0.453752,-2.0727 -0.09443,-4.5448 0.958599,-6.81353 z m -26.344647,1.05987 v 4.7806 4.87359 c 1.469832,2.16345 5.158568,2.88825 6.634739,2.64997 -0.564835,-0.44556 -1.619075,-1.0273 -2.573488,-1.84484 l -0.08216,0.13642 -1.380794,-1.59163 -0.05064,-0.0589 0.02532,-0.0723 c 0.01209,-0.034 0.02725,-0.0683 0.03979,-0.10231 -0.536893,-0.94964 -0.759796,-2.10862 -0.313675,-3.53777 0.559409,0.21389 1.136547,0.49795 1.72651,0.83405 0.709477,-1.0807 1.555895,-2.12337 2.453597,-3.07063 -2.159709,-1.42256 -4.319484,-2.32455 -6.479193,-2.99619 z m 36.571931,0.0212 c 0.10724,0.20674 0.20384,0.43211 0.29042,0.67127 0.0235,0.0648 0.0401,0.1378 0.062,0.20463 0.0583,0.17833 0.11681,0.35687 0.1633,0.54829 0.0222,0.0913 0.0359,0.18987 0.0553,0.28372 0.0373,0.18076 0.0758,0.36044 0.10232,0.5493 0.0116,0.0818 0.0159,0.16761 0.0253,0.25064 0.0234,0.20661 0.0462,0.41402 0.0563,0.62685 0.004,0.0828 10e-4,0.16759 0.003,0.25114 0.005,0.21929 0.007,0.43913 -0.003,0.66146 -0.003,0.077 -0.0133,0.15431 -0.0186,0.23151 -0.0168,0.24448 -0.0355,0.48937 -0.0713,0.73329 -8e-5,0 7e-5,0 0,0.003 -8e-5,0 -5.3e-4,0 -5.3e-4,0.003 -0.0453,0.30728 -0.10588,0.61272 -0.18294,0.9131 -0.0772,0.30094 -0.17075,0.59687 -0.28163,0.88418 -0.29344,0.76039 -0.70569,1.46233 -1.25884,2.04174 -1.7e-4,1.9e-4 -2.7e-4,0 -5.3e-4,0 -0.11753,0.12308 -0.24295,0.23934 -0.37311,0.35089 -0.035,0.0299 -0.0721,0.0577 -0.108,0.0868 -0.099,0.0802 -0.20085,0.1574 -0.30696,0.23048 -0.0437,0.0301 -0.0884,0.059 -0.13332,0.0878 -0.10859,0.0697 -0.22109,0.13539 -0.33693,0.19741 -0.0426,0.0227 -0.0845,0.0465 -0.12816,0.0682 -0.15966,0.0795 -0.32446,0.15382 -0.49764,0.21807 -8e-4,0 -10e-4,0 -0.002,0 -1.5e-4,7e-5 -2.7e-4,-6e-5 -5.3e-4,0 -0.17383,0.0644 -0.35587,0.11861 -0.54364,0.16639 -0.0541,0.0138 -0.11065,0.0243 -0.16588,0.0367 -0.1345,0.03 -0.27239,0.0563 -0.41392,0.0775 -0.0712,0.0106 -0.14355,0.0201 -0.21653,0.0284 -0.14404,0.0164 -0.29225,0.0269 -0.44338,0.0341 -0.0666,0.003 -0.13196,0.008 -0.19999,0.009 -0.22005,0.004 -0.44523,0.003 -0.68006,-0.014 -2.218332,-0.15044 -3.753481,-1.10717 -4.679822,-2.51095 -0.816324,0.54272 -1.630357,0.98925 -2.436543,1.3131 1.116259,1.89392 2.870158,2.54855 3.815271,2.97966 -3.310805,0.91707 -4.732803,0.86516 -6.188768,1.46246 2.59566,0.26461 5.062778,0.17333 7.075019,-0.34367 0.335372,-0.0861 0.657751,-0.18441 0.966351,-0.29456 0.308597,-0.11012 0.603311,-0.23214 0.882115,-0.3669 0.496817,0.1129 1.002687,0.20236 1.554947,0.16743 0.18408,-0.0116 0.37311,-0.0371 0.56895,-0.0801 0.58352,0.2644 1.12765,0.49326 1.68,0.66559 0.27618,0.0862 0.55463,0.15825 0.84078,0.21344 1.14461,0.22074 2.41607,0.17237 4.19406,-0.31472 0.4445,-0.12177 0.92084,-0.27083 1.43454,-0.45011 -2.3481,0.20669 -3.57408,0.46894 -5.63583,-0.6072 0.23153,-0.0876 0.44996,-0.18409 0.66249,-0.28471 0.0472,-0.0225 0.0948,-0.0446 0.14107,-0.0677 0.20887,-0.10396 0.41056,-0.21352 0.601,-0.33229 0.0122,-0.008 0.0235,-0.0161 0.0357,-0.0238 0.18289,-0.11573 0.3557,-0.24062 0.52193,-0.37156 0.0296,-0.0233 0.0598,-0.0464 0.0889,-0.0703 0.17269,-0.1415 0.33724,-0.29088 0.49196,-0.45114 0.004,-0.004 0.009,-0.007 0.0124,-0.0114 -5.3e-4,-2.6e-4 -5.3e-4,0 -0.001,0 0.52303,-0.54499 0.94637,-1.20086 1.27796,-2.00091 2.1e-4,0 2.7e-4,0 5.3e-4,-0.003 0.0803,-0.19388 0.15437,-0.39825 0.22428,-0.60928 0.0196,-0.0591 0.0375,-0.12144 0.0563,-0.1819 0.0487,-0.15674 0.0951,-0.31739 0.13849,-0.48369 0.0197,-0.0755 0.0387,-0.15245 0.0574,-0.22994 0.0396,-0.16489 0.0763,-0.33534 0.1111,-0.50954 0.0151,-0.0756 0.0312,-0.14949 0.0455,-0.22685 0.0464,-0.25194 0.0894,-0.51089 0.12661,-0.7824 1.34171,1.25775 2.497,2.65387 3.6251,4.19819 0.41055,-0.028 0.82253,-0.0824 1.2237,-0.16742 0.57272,-0.12139 1.11921,-0.30232 1.60868,-0.53227 -2.34339,-3.58158 -5.22273,-6.81357 -9.51208,-9.12606 z m 16.71887,9.62318 c -2.01642,0.21947 -3.16417,0.59545 -4.38991,1.24952 -0.40858,0.21805 -0.82574,0.4671 -1.28674,0.75139 -0.22118,-0.38282 -0.44765,-0.76245 -0.67696,-1.13998 -0.78455,0.36163 -1.62337,0.68786 -2.56109,0.93948 0.71639,1.04484 1.44199,2.14469 2.22002,3.31555 1.14724,-0.42802 2.18554,-1.14835 3.36155,-1.52651 0.23521,-0.0756 0.47633,-0.13767 0.72451,-0.18087 0.37226,-0.0648 0.76104,-0.0874 1.17357,-0.0506 0.13751,0.0122 0.27767,0.0313 0.42064,0.0574 z" />
      <g
         id="g34611"
         transform="matrix(1,-0.02881187,0,1,0,8.9652748)">
        <path
           style="fill:none;stroke:#aa4400;stroke-width:0.265;stroke-linecap:butt;stroke-linejoin:miter;stroke-miterlimit:4;stroke-dasharray:1.06, 2.12;stroke-dashoffset:0;stroke-opacity:1"
           d="m 291.08408,223.34188 v 26.89004 l 4.25968,4.25968 h 31.64456 l 4.25966,-4.25968 v -26.89004"
           id="path33444" />
        <g
           id="g34605">
          <path
             style="fill:none;stroke:#552200;stroke-width:0.264583px;stroke-linecap:butt;stroke-linejoin:miter;stroke-opacity:1"
             d="m 290.02574,216.23221 v 35.05805 l 4.25969,4.25968 h 33.76123 l 4.25968,-4.25968 v -35.05805 z"
             id="path32600" />
          <path
             style="fill:none;stroke:#552200;stroke-width:0.264583px;stroke-linecap:butt;stroke-linejoin:miter;stroke-opacity:1"
             d="m 290.02574,216.23221 v 7.10967 h 42.2806 v -7.10967 z"
             id="path32947" />
        </g>
      </g>
      <g
         id="g34631"
         transform="matrix(1,0.02304949,0,1,-120.79057,-5.8448645)">
        <path
           style="fill:none;stroke:#aa4400;stroke-width:0.265;stroke-linecap:butt;stroke-linejoin:miter;stroke-miterlimit:4;stroke-dasharray:1.06, 2.12;stroke-dashoffset:0;stroke-opacity:1"
           d="m 291.08408,223.34188 v 26.89004 l 4.25968,4.25968 h 31.64456 l 4.25966,-4.25968 v -26.89004"
           id="path34623" />
        <g
           id="g34629">
          <path
             style="fill:none;stroke:#552200;stroke-width:0.264583px;stroke-linecap:butt;stroke-linejoin:miter;stroke-opacity:1"
             d="m 290.02574,216.23221 v 35.05805 l 4.25969,4.25968 h 33.76123 l 4.25968,-4.25968 v -35.05805 z"
             id="path34625" />
          <path
             style="fill:none;stroke:#552200;stroke-width:0.264583px;stroke-linecap:butt;stroke-linejoin:miter;stroke-opacity:1"
             d="m 290.02574,216.23221 v 7.10967 h 42.2806 v -7.10967 z"
             id="path34627" />
        </g>
      </g>
      <text
         xml:space="preserve"
         style="font-style:normal;font-variant:normal;font-weight:normal;font-stretch:normal;font-size:10.5833px;line-height:1.25;font-family:Impact;-inkscape-font-specification:Impact;stroke-width:0.264583"
         x="295.66449"
         y="224.16785"
         id="text36519"
         transform="skewY(-1.7725666)"><tspan
           sodipodi:role="line"
           id="tspan36517"
           style="font-style:normal;font-variant:normal;font-weight:normal;font-stretch:normal;font-family:Impact;-inkscape-font-specification:Impact;stroke-width:0.264583"
           x="295.66449"
           y="224.16785">091305</tspan></text>
      <path
         style="fill:none;stroke:#aa4400;stroke-width:0.264583px;stroke-linecap:butt;stroke-linejoin:miter;stroke-opacity:1"
         d="m 248.24461,220.68113 v 42.99209"
         id="path41739" />
      <path
         style="fill:none;stroke:#aa4400;stroke-width:0.264583px;stroke-linecap:butt;stroke-linejoin:miter;stroke-opacity:1"
         d="m 170.38706,218.43866 v 4.4129"
         id="path41887" />
      <path
         style="fill:none;stroke:#aa4400;stroke-width:0.264583px;stroke-linecap:butt;stroke-linejoin:miter;stroke-opacity:1"
         d="m 318.40315,217.21285 12.25807,-0.18387"
         id="path42035" />
      <path
         style="fill:none;stroke:#d45500;stroke-width:0.264583px;stroke-linecap:butt;stroke-linejoin:miter;stroke-opacity:1"
         d="m 268.94186,183.99351 c 0,0 5.33228,3.1258 6.68065,8.33548"
         id="path42183" />
      <path
         style="fill:none;stroke:#d45500;stroke-width:0.264583px;stroke-linecap:butt;stroke-linejoin:miter;stroke-opacity:1"
         d="m 226.03866,178.23222 c 0,0 6.68064,11.15483 17.34516,16.36451"
         id="path42218" />
      <path
         style="fill:none;stroke:#aa4400;stroke-width:0.264583px;stroke-linecap:butt;stroke-linejoin:miter;stroke-opacity:1"
         d="m 121.10965,265.63219 c 0,0 -28.193543,-6.00644 -45.354828,-5.88386"
         id="path42420" />
      <path
         style="fill:none;stroke:#aa4400;stroke-width:0.264583px;stroke-linecap:butt;stroke-linejoin:miter;stroke-opacity:1"
         d="m 124.66449,246.26446 c 0,0 -4.29032,-36.65161 -17.65161,-47.4387"
         id="path42488" />
    </g>
    <path
       id="path42642"
       style="fill:#ffffff;stroke:none;stroke-width:0.264583px;stroke-linecap:butt;stroke-linejoin:miter;stroke-opacity:1"
       d="m 204.43939,410.55031 c -9.42262,-9.99964 -21.48949,-16.86396 -34.42426,-22.26479 l -2.82205,-1.82522 c -0.65819,-0.4257 -1.0573,-0.92593 -1.0573,-2.2381 v -4.12585 l -7.91528,7.91528 c 0,0 -0.88746,0.88728 -1.98903,2.01383 -0.55078,0.56328 -1.1549,1.18672 -1.72857,1.78852 -0.57367,0.6018 -1.11689,1.18211 -1.54512,1.66036 -0.49329,0.55091 -1.02949,1.19031 -1.58803,1.89291 -0.55853,0.7026 -1.13932,1.46838 -1.72132,2.27118 -0.58203,0.80281 -1.16533,1.64289 -1.72911,2.49442 -0.56375,0.85154 -1.10805,1.71437 -1.61179,2.56315 -0.25188,0.4244 -0.49389,0.84531 -0.72294,1.25936 -0.22905,0.41405 -0.44498,0.82126 -0.64596,1.21853 -0.201,0.39727 -0.38677,0.78452 -0.55449,1.15858 -0.16771,0.37407 -0.31776,0.73511 -0.44701,1.07953 -0.12922,0.34441 -0.23797,0.67248 -0.32348,0.98081 -0.0854,0.30777 -0.14735,0.59552 -0.18396,0.86093 -8e-5,5.3e-4 0,0.001 0,0.002 v 5.3e-4 5.3e-4 c -0.0365,0.26537 -0.0475,0.50846 -0.03,0.72502 0.009,0.10843 0.0249,0.21042 0.048,0.30541 0.0233,0.095 0.0541,0.18281 0.0925,0.26355 z" />
    <path
       style="fill:none;stroke:#552200;stroke-width:0.264583px;stroke-linecap:butt;stroke-linejoin:miter;stroke-opacity:1"
       d="m 170.01495,388.28557 -2.82205,-1.82522 c -0.65819,-0.4257 -1.05715,-0.92598 -1.05715,-2.23816 0,-4.12581 0,-4.12581 0,-4.12581"
       id="path42644"
       sodipodi:nodetypes="cssc" />
    <path
       style="color:#000000;fill:#ff7f2a;stroke-width:0.264583px;-inkscape-stroke:none"
       d="m 170.01495,388.28557 c 4.30107,-2.72603 6.29161,-8.34024 8.69307,-13.44078 12.69769,6.16651 26.17913,20.69113 25.73124,35.70535 v 0 c -9.42262,-9.99963 -21.48954,-16.86373 -34.42431,-22.26457 z"
       id="path42646" />
    <path
       id="path42648"
       style="color:#000000;fill:#552200;stroke-width:1;-inkscape-stroke:none"
       d="m 204.57168,410.55031 c 0.22384,-7.5465 -3.04868,-14.95711 -7.96282,-21.25194 -4.91504,-6.29599 -11.4728,-11.47918 -17.84181,-14.57223 l -0.12144,-0.0584 -0.0563,0.12092 c -2.40539,5.10889 -4.39716,10.69277 -8.64444,13.38472 l -0.28322,-0.11632 0.27932,0.33738 c 12.88578,5.38039 24.92388,12.22443 34.31602,22.15587 z m -0.29146,-0.32608 c -9.35822,-9.83224 -21.26444,-16.62747 -34.02738,-21.97437 4.1878,-2.77805 6.17789,-8.235 8.5137,-13.21883 6.29206,3.08007 12.77506,8.20673 17.63303,14.42961 4.81732,6.17081 8.0016,13.40874 7.88065,20.76359 z"
       sodipodi:nodetypes="cscccccccccccsc" />
    <path
       style="fill:none;stroke:#552200;stroke-width:0.264583px;stroke-linecap:butt;stroke-linejoin:miter;stroke-opacity:1"
       d="m 158.2205,388.01163 9.35964,-9.35964 c 1.91664,-1.89507 2.14974,-2.42712 2.14974,-6.18463 v -79.00255"
       id="path42650"
       sodipodi:nodetypes="cccc" />
    <path
       style="color:#000000;fill:#ff7f2a;stroke-width:0.264583px;-inkscape-stroke:none"
       d="m 143.53975,410.55031 c -1.23031,-2.58366 5.47167,-12.6687 9.41803,-17.07597 1.71294,-1.91301 5.26272,-5.46271 5.26272,-5.46271 -5.03626,-2.7649 -8.1221,-6.73582 -10.10221,-12.52947 l -13.32632,31.81046 c 2.84615,1.13037 5.71341,2.22228 8.61134,3.25769 z"
       id="path42652" />
    <path
       id="path42654"
       style="color:#000000;fill:#552200;stroke-width:0.264583;-inkscape-stroke:none"
       d="m 143.68599,410.55031 -0.0269,-0.0568 c -0.27316,-0.57366 -0.11036,-1.66938 0.40206,-3.03496 0.51242,-1.36557 1.35506,-3.00147 2.36005,-4.6948 2.00999,-3.38667 4.67069,-7.00699 6.63525,-9.20099 1.70662,-1.90593 5.25756,-5.45755 5.25756,-5.45755 l 0.12454,-0.12454 -0.15451,-0.0848 c -5.00939,-2.75015 -8.06823,-6.68525 -10.04073,-12.4566 l -0.11266,-0.3297 -13.46171,32.13448 c 2.88634,1.14802 5.79472,2.25595 8.73435,3.30626 z m -0.31935,-0.15555 c -2.82591,-1.01092 -5.62243,-2.076 -8.39949,-3.17759 l 13.14545,-31.37896 c 1.97138,5.58261 5.01825,9.47548 9.89655,12.19926 -0.19947,0.1996 -3.48173,3.48531 -5.15008,5.34851 -1.98181,2.21326 -4.64521,5.83928 -6.66523,9.24284 -1.00999,1.7018 -1.8587,3.34691 -2.38022,4.73667 -0.47641,1.26958 -0.67331,2.30863 -0.44698,3.02927 z" />
    <ellipse
       style="fill:#cccccc;fill-opacity:1;stroke:#552200;stroke-width:0.271231;stroke-linecap:round;stroke-linejoin:round;stroke-opacity:1"
       id="ellipse42656"
       cx="-172.12732"
       cy="-428.81589"
       rx="1.2739429"
       ry="1.2160764"
       transform="matrix(-0.95457675,0.29796515,0,-1,0,0)" />
    <circle
       style="fill:#cccccc;fill-opacity:1;stroke:#552200;stroke-width:0.264999;stroke-linecap:round;stroke-linejoin:round;stroke-opacity:1"
       id="circle42658"
       cx="-164.30873"
       cy="-351.06961"
       r="1.2160764"
       transform="scale(-1)" />
    <circle
       style="fill:#cccccc;fill-opacity:1;stroke:#552200;stroke-width:0.264999;stroke-linecap:round;stroke-linejoin:round;stroke-opacity:1"
       id="circle42660"
       cx="-164.30873"
       cy="-324.61124"
       r="1.2160764"
       transform="scale(-1)" />
    <circle
       style="fill:#cccccc;fill-opacity:1;stroke:#552200;stroke-width:0.264999;stroke-linecap:round;stroke-linejoin:round;stroke-opacity:1"
       id="circle42662"
       cx="-164.30873"
       cy="-298.15292"
       r="1.2160764"
       transform="scale(-1)" />
    <path
       style="color:#000000;fill:#d45500;stroke-width:0.264583px;-inkscape-stroke:none"
       d="m 319.53365,382.87913 c 11.78215,-6.42032 23.42772,-14.08717 34.34881,-23.13916 v -73.92365 l -0.32763,-66.32514 c 0,0 0,0 0,0 -55.7292,36.35989 -77.36841,110.59457 -34.02118,163.38795 z"
       id="path42664" />
    <path
       id="path42666"
       style="color:#000000;fill:#000000;stroke-width:0.264583;-inkscape-stroke:none"
       d="m 319.4148,382.94217 c 11.8226,-6.43345 23.50991,-14.11983 34.46766,-23.2022 v -73.92365 l -0.32815,-66.48379 -0.0718,0.047 c -55.77779,36.39266 -77.44465,110.70691 -34.06768,163.56264 z m 0.15296,-0.23513 C 276.42198,330.04844 297.9347,256.09319 353.42357,219.74026 l 0.3266,66.07659 v 73.86007 c -10.86984,9.00376 -22.4574,16.63368 -34.18241,23.03012 z" />
    <path
       style="color:#000000;fill:#d38d5f;stroke-width:0.264583px;-inkscape-stroke:none"
       d="m 353.88246,309.17251 v -23.35619 l -0.32763,-66.32514 v 0 c -30.06515,19.61621 -50.17964,50.2585 -55.5501,82.60736 18.23773,3.91112 36.72093,6.84018 55.87773,7.07501 z"
       id="path42668" />
    <path
       id="path42670"
       style="color:#000000;fill:#552200;stroke-width:0.264583;-inkscape-stroke:none"
       d="m 353.88246,309.30481 v -23.48849 l -0.32815,-66.48379 -0.0718,0.047 c -30.0953,19.63591 -50.23151,50.30813 -55.60849,82.69625 l -0.0207,0.12454 0.12351,0.0265 c 18.24237,3.91202 36.73485,6.84305 55.90407,7.07803 z m -0.13229,-0.26872 c -19.05209,-0.24612 -37.44116,-3.1551 -55.59041,-7.04246 5.38272,-32.18857 25.38291,-62.67646 55.26381,-82.25287 l 0.3266,66.07609 z" />
    <path
       style="fill:none;stroke:#000000;stroke-width:0.264583px;stroke-linecap:butt;stroke-linejoin:miter;stroke-opacity:1"
       d="m 297.97637,302.09113 c 18.24695,3.9142 36.73933,6.84665 55.90609,7.0816"
       id="path42672"
       sodipodi:nodetypes="cc" />
    <path
       id="path42674"
       style="fill:#000000;stroke:none;stroke-width:0.264583px;stroke-linecap:butt;stroke-linejoin:miter;stroke-opacity:1"
       d="m 336.58687,301.63499 c 1.9968,-0.50792 3.54181,-1.64833 5.14646,-2.70526 4.59841,2.6956 7.7741,2.16514 9.24646,1.77406 -1.83438,0.0988 -4.97955,-0.6771 -5.90868,-1.67691 0.33158,-0.27093 0.66854,-0.56822 1.00614,-0.87952 0.092,-0.0849 0.18247,-0.17598 0.27441,-0.26356 0.25044,-0.23825 0.49896,-0.48154 0.7462,-0.73742 0.0406,-0.042 0.0821,-0.079 0.12248,-0.12144 -0.002,0 -0.003,-0.003 -0.005,-0.004 1.69349,-1.7765 3.24829,-3.91515 3.96978,-5.94434 l -1.26142,-1.45521 c -0.94164,1.56469 -2.62703,4.41245 -4.37338,6.37997 -0.11984,0.1351 -0.23999,0.26858 -0.36019,0.39482 -0.0197,0.0206 -0.0392,0.0417 -0.0589,0.062 -0.13729,0.14235 -0.2743,0.27575 -0.41135,0.4041 -0.0328,0.0306 -0.0659,0.0628 -0.0987,0.0925 -0.13289,0.12102 -0.26547,0.2317 -0.39739,0.33692 -0.0301,0.0241 -0.0604,0.0514 -0.0904,0.0744 -0.16113,0.12406 -0.32107,0.23656 -0.47955,0.33279 -0.72065,-1.27143 -1.65953,-2.52158 -2.75229,-3.62408 -0.52475,0.58611 -1.0775,1.16639 -1.66605,1.73117 0.4529,0.81616 0.51536,1.60727 0.2806,2.18488 -0.49305,1.21319 -1.27321,2.49703 -2.92902,3.64371 z m -14.88332,-0.82683 c 0.17792,-0.2663 0.37402,-0.53885 0.58136,-0.81391 0.0599,-0.0795 0.1265,-0.1598 0.18862,-0.23976 0.15136,-0.19481 0.30563,-0.39034 0.46922,-0.58706 0.0819,-0.0986 0.16794,-0.19733 0.25269,-0.29609 0.15859,-0.18476 0.32038,-0.3695 0.48783,-0.55399 0.0885,-0.0975 0.17802,-0.19479 0.26872,-0.29197 0.17231,-0.18454 0.34873,-0.36798 0.52813,-0.55033 0.092,-0.0936 0.18339,-0.18738 0.27699,-0.28009 0.20245,-0.20045 0.40921,-0.3979 0.61805,-0.59325 0.0727,-0.0681 0.14419,-0.13734 0.21755,-0.20465 0.28548,-0.26175 0.57506,-0.51869 0.86765,-0.76634 0.30676,-0.25966 0.6166,-0.50946 0.92656,-0.7488 0.0252,-0.0193 0.0503,-0.037 0.0755,-0.0563 0.27079,-0.20746 0.54123,-0.40611 0.8108,-0.59428 0.97341,-0.67942 1.92607,-1.21883 2.78898,-1.54823 0.10178,-0.0389 0.20216,-0.0741 0.30127,-0.10698 0.12196,-0.0403 0.24065,-0.0747 0.35812,-0.10541 0.11083,-0.0291 0.22272,-0.06 0.32918,-0.0801 0.0245,-0.004 0.0491,-0.01 0.0734,-0.014 0.16215,-0.0277 0.3188,-0.044 0.46922,-0.0491 0.0224,0 0.044,0 0.0661,0 0.15389,-0.003 0.30283,0.006 0.44235,0.0305 1.51766,0.26725 2.73086,0.69556 3.68246,1.20766 0.11638,-0.11102 0.23427,-0.21976 0.34778,-0.33538 0.39645,-0.40381 0.77814,-0.83392 1.15756,-1.279 -1.55867,-0.99277 -3.27711,-1.63094 -5.04414,-1.68566 -5.3e-4,-3e-5 -0.001,0 -0.002,0 -0.24879,-0.008 -0.49839,-0.004 -0.74879,0.0119 -0.19672,0.0127 -0.39483,0.036 -0.59376,0.0672 -0.0719,0.0111 -0.14439,0.0283 -0.21653,0.0419 -0.12467,0.0236 -0.24923,0.0472 -0.37465,0.0775 -0.0932,0.0225 -0.187,0.0503 -0.2806,0.0765 -0.10616,0.0298 -0.21223,0.0587 -0.31885,0.093 -0.10204,0.0328 -0.20452,0.07 -0.30696,0.10697 -0.0623,0.0225 -0.12415,0.0411 -0.18655,0.0651 8e-4,0 0.001,0.003 0.002,0.004 -0.87722,0.33685 -1.76757,0.81878 -2.66237,1.42058 -2.6e-4,0 -7.9e-4,0 -0.001,-0.003 -0.0176,0.0119 -0.0351,0.0254 -0.0527,0.0372 -0.15957,0.10814 -0.31925,0.22154 -0.47903,0.33692 -0.0648,0.0468 -0.12949,0.0921 -0.19431,0.14005 -0.16484,0.12197 -0.32963,0.24963 -0.49454,0.3788 -0.0553,0.0433 -0.11062,0.0846 -0.16588,0.12867 -0.0715,0.057 -0.14295,0.1179 -0.21446,0.17621 -0.38042,0.31007 -0.76064,0.63513 -1.13998,0.97875 -0.34152,0.30951 -0.68154,0.63989 -1.02113,0.97308 -0.0995,0.0976 -0.19989,0.1868 -0.29921,0.28628 -0.44078,0.44162 -0.87906,0.90001 -1.31413,1.37356 -1.07661,-1.89794 -2.29235,-4.03289 -3.80597,-5.72524 -0.47387,0.52366 -0.83163,1.14636 -1.10019,1.81748 2.05562,2.25634 3.58017,5.27682 4.42918,7.67807 z m -12.89534,-1.25211 c -1.94123,-1.61002 -4.30519,-4.89426 -2.83652,-7.37216 0.0801,-0.13513 0.17624,-0.26358 0.28215,-0.38706 0.034,-0.0397 0.0742,-0.0763 0.11059,-0.11473 0.079,-0.0833 0.16031,-0.16539 0.25012,-0.24286 0.0439,-0.0379 0.0917,-0.0736 0.13797,-0.11009 0.0932,-0.0734 0.1893,-0.1447 0.29146,-0.21238 0.0489,-0.0324 0.099,-0.064 0.14986,-0.0951 0.10854,-0.0664 0.22101,-0.12991 0.33744,-0.19016 0.93722,-0.48509 2.1094,-0.76835 3.26079,-0.82529 0.21419,-0.0106 0.42752,-0.0135 0.6382,-0.008 0.0345,0 0.0695,2.4e-4 0.10387,0.003 0.23982,0.009 0.47568,0.0286 0.70538,0.0589 0.0377,0.005 0.0738,0.0124 0.11111,0.018 0.18565,0.0276 0.36579,0.0632 0.54105,0.10541 0.0571,0.0138 0.11418,0.0275 0.17002,0.0429 0.20455,0.0562 0.40349,0.11925 0.58756,0.19688 0.45337,0.19124 0.89198,0.43029 1.3162,0.70643 0.19182,-0.44846 0.41166,-0.85489 0.66662,-1.21647 0.14429,-0.20463 0.30301,-0.39232 0.46974,-0.57102 -1.2922,-0.81357 -2.77096,-1.24926 -4.49636,-1.05731 -0.3323,0.037 -0.65004,0.0849 -0.95809,0.14058 -0.0525,0.01 -0.10111,0.022 -0.15296,0.032 -0.25166,0.0485 -0.49852,0.10075 -0.73587,0.16018 -0.0104,0.003 -0.0217,0.004 -0.032,0.007 2.6e-4,0 7.9e-4,0 10e-4,0.003 -1.04407,0.2641 -1.96133,0.62478 -2.8205,1.02579 -0.58748,0.27418 -1.14947,0.56496 -1.70946,0.85524 -0.38348,0.19875 -0.77064,0.39198 -1.16014,0.5829 -0.28607,0.14025 -0.57475,0.27808 -0.87126,0.40825 -0.0812,0.0356 -0.16012,0.0734 -0.24236,0.108 -0.0841,0.0355 -0.17093,0.0685 -0.25632,0.10285 -0.1788,0.0718 -0.36049,0.14115 -0.5457,0.20722 -0.10129,0.0361 -0.20398,0.0707 -0.30747,0.10491 -0.18907,0.0624 -0.38349,0.12001 -0.58085,0.17518 -0.0968,0.0271 -0.19189,0.056 -0.29094,0.0811 -0.2979,0.0756 -0.6034,0.14454 -0.92397,0.2005 l -0.81494,3.35743 c 1.8809,-0.88442 3.1423,-1.87198 4.34082,-2.87012 -0.5228,3.06485 2.45349,4.79671 5.26376,6.59185 z" />
    <path
       id="path42676"
       style="fill:#000000;stroke:none;stroke-width:0.264583px;stroke-linecap:butt;stroke-linejoin:miter;stroke-opacity:1"
       d="m 327.53781,301.05362 c 0.44056,-0.0482 0.86323,-0.10951 1.27796,-0.17725 0.10456,-0.0169 0.20761,-0.0355 0.31058,-0.0537 0.34827,-0.0618 0.68843,-0.1297 1.01906,-0.20463 0.062,-0.014 0.12666,-0.0259 0.1881,-0.0403 0.37585,-0.0888 0.73901,-0.18765 1.09296,-0.2925 0.094,-0.0278 0.18546,-0.0574 0.27802,-0.0863 0.27909,-0.0873 0.55156,-0.17926 0.81752,-0.27596 0.0827,-0.0301 0.16706,-0.0589 0.24856,-0.0899 0.32352,-0.1229 0.63822,-0.25212 0.94309,-0.38809 0.0699,-0.0312 0.13676,-0.0643 0.20568,-0.0961 0.24596,-0.11353 0.48648,-0.23048 0.72088,-0.35192 0.084,-0.0435 0.1681,-0.0868 0.25063,-0.13126 0.27666,-0.14902 0.54789,-0.30187 0.80926,-0.46096 0.001,0 0.003,-0.003 0.004,-0.003 0.0451,-0.0275 0.0876,-0.0565 0.13229,-0.0842 0.22855,-0.142 0.45108,-0.28771 0.66869,-0.43667 0.0769,-0.0526 0.15284,-0.10575 0.22841,-0.15917 0.11994,-0.0848 0.23514,-0.17219 0.35192,-0.2589 0.27872,-0.20687 0.54928,-0.41851 0.81132,-0.6351 0.0708,-0.0585 0.14377,-0.11552 0.21342,-0.17465 0.32035,-0.27194 0.63003,-0.54941 0.92863,-0.83251 0.0107,-0.0101 0.0224,-0.0198 0.0331,-0.03 -2.7e-4,0 -8e-4,0 -0.001,-0.003 0.64727,-0.61595 1.24855,-1.25317 1.82056,-1.89603 1.7e-4,1.9e-4 2.6e-4,0 5.3e-4,0 0.005,-0.005 0.009,-0.0103 0.0134,-0.0156 0.43989,-0.4948 0.86428,-0.99224 1.27899,-1.48466 1.14646,1.30154 2.29312,2.38845 3.43958,3.3073 0.49209,-0.56656 0.98072,-1.18793 1.44539,-1.84383 0.28205,-0.39812 0.55542,-0.80201 0.81752,-1.20095 -1.91434,-1.35482 -3.91862,-3.06813 -5.90041,-4.69275 -0.30528,0.29136 -0.59224,0.58933 -0.8723,0.88937 -0.0753,0.0806 -0.14948,0.16084 -0.22324,0.24183 -0.14903,0.1637 -0.29142,0.32734 -0.43512,0.49196 -0.29421,0.33687 -0.57478,0.66546 -0.85369,1.00098 -0.95429,1.14834 -1.85162,2.26568 -2.87011,3.21323 -0.10013,0.0932 -0.20317,0.18264 -0.30593,0.27233 -0.0989,0.0864 -0.19856,0.1719 -0.30024,0.25477 -0.10105,0.0824 -0.20442,0.16209 -0.30851,0.24083 -0.11154,0.0843 -0.22513,0.1661 -0.34054,0.24598 -0.10292,0.0713 -0.20739,0.14078 -0.31368,0.20825 -0.1244,0.0789 -0.25246,0.15394 -0.38189,0.22736 -0.10579,0.0601 -0.21201,0.11954 -0.32143,0.17571 -0.13913,0.0714 -0.28348,0.13726 -0.42891,0.20206 -0.13057,0.0582 -0.2593,0.11845 -0.39532,0.17105 -0.0341,0.0132 -0.0684,0.0259 -0.10284,0.0388 -0.2256,0.0839 -0.4584,0.16074 -0.70022,0.22839 -0.0353,0.01 -0.0713,0.0191 -0.10696,0.0285 -0.24775,0.0661 -0.50316,0.12414 -0.76947,0.17205 -0.0278,0.005 -0.0568,0.009 -0.0847,0.014 -0.28129,0.0482 -0.57115,0.0881 -0.87488,0.11472 0.0198,-0.2205 0.029,-0.4023 0.0326,-0.56327 0.06,-1.12541 -0.007,-2.0951 -0.17725,-2.9187 -0.10321,0.0434 -0.20234,0.078 -0.30799,0.12713 -0.64872,0.30205 -1.34236,0.71679 -2.04742,1.19941 0.45375,2.0727 0.0944,4.5448 -0.9586,6.81353 z m 26.34465,-1.05987 v -4.7806 -4.87359 c -1.46983,-2.16345 -5.15857,-2.88825 -6.63474,-2.64997 0.56484,0.44556 1.61908,1.0273 2.57349,1.84484 l 0.0822,-0.13642 1.38079,1.59163 0.0506,0.0589 -0.0253,0.0723 c -0.0121,0.034 -0.0272,0.0683 -0.0398,0.10231 0.5369,0.94964 0.7598,2.10862 0.31368,3.53777 -0.55941,-0.21389 -1.13655,-0.49795 -1.72651,-0.83405 -0.70948,1.0807 -1.5559,2.12337 -2.4536,3.07063 2.15971,1.42256 4.31949,2.32455 6.4792,2.99619 z m -36.57193,-0.0212 c -0.10724,-0.20674 -0.20384,-0.43211 -0.29042,-0.67127 -0.0235,-0.0648 -0.0401,-0.1378 -0.062,-0.20463 -0.0583,-0.17833 -0.11681,-0.35687 -0.1633,-0.54829 -0.0222,-0.0913 -0.0359,-0.18987 -0.0553,-0.28372 -0.0373,-0.18076 -0.0758,-0.36044 -0.10232,-0.5493 -0.0116,-0.0818 -0.0159,-0.16761 -0.0253,-0.25064 -0.0234,-0.20661 -0.0462,-0.41402 -0.0563,-0.62685 -0.004,-0.0828 -10e-4,-0.16759 -0.003,-0.25114 -0.005,-0.21929 -0.007,-0.43913 0.003,-0.66146 0.003,-0.077 0.0133,-0.15431 0.0186,-0.23151 0.0168,-0.24448 0.0355,-0.48937 0.0713,-0.73329 8e-5,0 -7e-5,0 0,-0.003 8e-5,0 5.3e-4,0 5.3e-4,-0.003 0.0453,-0.30728 0.10588,-0.61272 0.18294,-0.9131 0.0772,-0.30094 0.17075,-0.59687 0.28163,-0.88418 0.29344,-0.76039 0.70569,-1.46233 1.25884,-2.04174 1.7e-4,-1.9e-4 2.7e-4,0 5.3e-4,0 0.11753,-0.12308 0.24295,-0.23934 0.37311,-0.35089 0.035,-0.0299 0.0721,-0.0577 0.108,-0.0868 0.099,-0.0802 0.20085,-0.1574 0.30696,-0.23048 0.0437,-0.0301 0.0884,-0.059 0.13332,-0.0878 0.10859,-0.0697 0.22109,-0.13539 0.33693,-0.19741 0.0426,-0.0227 0.0845,-0.0465 0.12816,-0.0682 0.15966,-0.0795 0.32446,-0.15382 0.49764,-0.21807 8e-4,0 0.001,0 0.002,0 1.5e-4,-7e-5 2.7e-4,6e-5 5.3e-4,0 0.17383,-0.0644 0.35587,-0.11861 0.54364,-0.16639 0.0541,-0.0138 0.11065,-0.0243 0.16588,-0.0367 0.1345,-0.03 0.27239,-0.0563 0.41392,-0.0775 0.0712,-0.0106 0.14355,-0.0201 0.21653,-0.0284 0.14404,-0.0164 0.29225,-0.0269 0.44338,-0.0341 0.0666,-0.003 0.13196,-0.008 0.19999,-0.009 0.22005,-0.004 0.44523,-0.003 0.68006,0.014 2.21833,0.15044 3.75348,1.10717 4.67982,2.51095 0.81633,-0.54272 1.63036,-0.98925 2.43655,-1.3131 -1.11626,-1.89392 -2.87016,-2.54855 -3.81528,-2.97966 3.31081,-0.91707 4.73281,-0.86516 6.18877,-1.46246 -2.59566,-0.26461 -5.06278,-0.17333 -7.07502,0.34367 -0.33537,0.0861 -0.65775,0.18441 -0.96635,0.29456 -0.30859,0.11012 -0.60331,0.23214 -0.88211,0.3669 -0.49682,-0.1129 -1.00269,-0.20236 -1.55495,-0.16743 -0.18408,0.0116 -0.37311,0.0371 -0.56895,0.0801 -0.58352,-0.2644 -1.12765,-0.49326 -1.68,-0.66559 -0.27618,-0.0862 -0.55463,-0.15825 -0.84078,-0.21344 -1.14461,-0.22074 -2.41607,-0.17237 -4.19406,0.31472 -0.4445,0.12177 -0.92084,0.27083 -1.43454,0.45011 2.3481,-0.20669 3.57408,-0.46894 5.63583,0.6072 -0.23153,0.0876 -0.44996,0.18409 -0.66249,0.28471 -0.0472,0.0225 -0.0948,0.0446 -0.14107,0.0677 -0.20887,0.10396 -0.41056,0.21352 -0.601,0.33229 -0.0122,0.008 -0.0235,0.0161 -0.0357,0.0238 -0.18289,0.11573 -0.3557,0.24062 -0.52193,0.37156 -0.0296,0.0233 -0.0598,0.0464 -0.0889,0.0703 -0.17269,0.1415 -0.33724,0.29088 -0.49196,0.45114 -0.004,0.004 -0.009,0.007 -0.0124,0.0114 5.3e-4,2.6e-4 5.3e-4,0 10e-4,0 -0.52303,0.54499 -0.94637,1.20086 -1.27796,2.00091 -2.1e-4,0 -2.7e-4,0 -5.3e-4,0.003 -0.0803,0.19388 -0.15437,0.39825 -0.22428,0.60928 -0.0196,0.0591 -0.0375,0.12144 -0.0563,0.1819 -0.0487,0.15674 -0.0951,0.31739 -0.13849,0.48369 -0.0197,0.0755 -0.0387,0.15245 -0.0574,0.22994 -0.0396,0.16489 -0.0763,0.33534 -0.1111,0.50954 -0.0151,0.0756 -0.0312,0.14949 -0.0455,0.22685 -0.0464,0.25194 -0.0894,0.51089 -0.12661,0.7824 -1.34171,-1.25775 -2.497,-2.65387 -3.6251,-4.19819 -0.41055,0.028 -0.82253,0.0824 -1.2237,0.16742 -0.57272,0.12139 -1.11921,0.30232 -1.60868,0.53227 2.34339,3.58158 5.22273,6.81357 9.51208,9.12606 z m -16.71887,-9.62318 c 2.01642,-0.21947 3.16417,-0.59545 4.38991,-1.24952 0.40858,-0.21805 0.82574,-0.4671 1.28674,-0.75139 0.22118,0.38282 0.44765,0.76245 0.67696,1.13998 0.78455,-0.36163 1.62337,-0.68786 2.56109,-0.93948 -0.71639,-1.04484 -1.44199,-2.14469 -2.22002,-3.31555 -1.14724,0.42802 -2.18554,1.14835 -3.36155,1.52651 -0.23521,0.0756 -0.47633,0.13767 -0.72451,0.18087 -0.37226,0.0648 -0.76104,0.0874 -1.17357,0.0506 -0.13751,-0.0122 -0.27767,-0.0313 -0.42064,-0.0574 z" />
    <g
       id="g42696"
       transform="matrix(-1,-0.02304949,0,-1,544.12357,577.47732)">
      <path
         style="fill:none;stroke:#aa4400;stroke-width:0.265;stroke-linecap:butt;stroke-linejoin:miter;stroke-miterlimit:4;stroke-dasharray:1.06, 2.12;stroke-dashoffset:0;stroke-opacity:1"
         d="m 291.08408,223.34188 v 26.89004 l 4.25968,4.25968 h 31.64456 l 4.25966,-4.25968 v -26.89004"
         id="path42688" />
      <g
         id="g42694">
        <path
           style="fill:none;stroke:#552200;stroke-width:0.264583px;stroke-linecap:butt;stroke-linejoin:miter;stroke-opacity:1"
           d="m 290.02574,216.23221 v 35.05805 l 4.25969,4.25968 h 33.76123 l 4.25968,-4.25968 v -35.05805 z"
           id="path42690" />
        <path
           style="fill:none;stroke:#552200;stroke-width:0.264583px;stroke-linecap:butt;stroke-linejoin:miter;stroke-opacity:1"
           d="m 290.02574,216.23221 v 7.10967 h 42.2806 v -7.10967 z"
           id="path42692" />
      </g>
    </g>
    <text
       xml:space="preserve"
       style="font-style:normal;font-variant:normal;font-weight:normal;font-stretch:normal;font-size:10.5833px;line-height:1.25;font-family:Impact;-inkscape-font-specification:Impact;stroke-width:0.264583"
       x="-127.66851"
       y="-360.56549"
       id="text42700"
       transform="matrix(-1,0.030947,0,-1,0,0)"><tspan
         sodipodi:role="line"
         id="tspan42698"
         style="font-style:normal;font-variant:normal;font-weight:normal;font-stretch:normal;font-family:Impact;-inkscape-font-specification:Impact;stroke-width:0.264583"
         x="-127.66851"
         y="-360.56549">091305</tspan></text>
    <path
       style="fill:none;stroke:#aa4400;stroke-width:0.264583px;stroke-linecap:butt;stroke-linejoin:miter;stroke-opacity:1"
       d="M 175.08839,350.95133 V 307.95924"
       id="path42702" />
    <path
       style="fill:none;stroke:#aa4400;stroke-width:0.264583px;stroke-linecap:butt;stroke-linejoin:miter;stroke-opacity:1"
       d="m 252.94594,353.1938 v -4.4129"
       id="path42704" />
    <path
       style="fill:none;stroke:#aa4400;stroke-width:0.264583px;stroke-linecap:butt;stroke-linejoin:miter;stroke-opacity:1"
       d="m 104.92985,354.41961 -12.25807,0.18387"
       id="path42706" />
    <path
       style="fill:none;stroke:#d45500;stroke-width:0.264583px;stroke-linecap:butt;stroke-linejoin:miter;stroke-opacity:1"
       d="m 154.39114,387.63895 c 0,0 -5.33228,-3.1258 -6.68065,-8.33548"
       id="path42708" />
    <path
       style="fill:none;stroke:#d45500;stroke-width:0.264583px;stroke-linecap:butt;stroke-linejoin:miter;stroke-opacity:1"
       d="m 197.29434,393.40024 c 0,0 -6.68064,-11.15483 -17.34516,-16.36451"
       id="path42710" />
    <path
       style="fill:none;stroke:#aa4400;stroke-width:0.264583px;stroke-linecap:butt;stroke-linejoin:miter;stroke-opacity:1"
       d="m 302.22335,306.00027 c 0,0 28.19354,6.00644 45.35483,5.88386"
       id="path42712" />
    <path
       style="fill:none;stroke:#aa4400;stroke-width:0.264583px;stroke-linecap:butt;stroke-linejoin:miter;stroke-opacity:1"
       d="m 298.66851,325.368 c 0,0 4.29032,36.65161 17.65161,47.4387"
       id="path42714" />
  </g>
</svg>
