<?xml version="1.0" encoding="UTF-8" standalone="no"?>
<!-- Created with Inkscape (http://www.inkscape.org/) -->

<svg
   width="1600"
   height="2160"
   viewBox="0 0 423.33332 571.50002"
   version="1.1"
   id="svg6666"
   inkscape:version="1.1.2 (b8e25be833, 2022-02-05)"
   sodipodi:docname="Suit.svg"
   inkscape:export-filename="E:\github\KINGFACE\Body\Suit.png"
   inkscape:export-xdpi="96"
   inkscape:export-ydpi="96"
   xmlns:inkscape="http://www.inkscape.org/namespaces/inkscape"
   xmlns:sodipodi="http://sodipodi.sourceforge.net/DTD/sodipodi-0.dtd"
   xmlns="http://www.w3.org/2000/svg"
   xmlns:svg="http://www.w3.org/2000/svg">
  <sodipodi:namedview
     id="namedview6668"
     pagecolor="#ffffff"
     bordercolor="#666666"
     borderopacity="1.0"
     inkscape:pageshadow="2"
     inkscape:pageopacity="0"
     inkscape:pagecheckerboard="false"
     inkscape:document-units="mm"
     showgrid="false"
     units="px"
     inkscape:zoom="0.5"
     inkscape:cx="885"
     inkscape:cy="890"
     inkscape:window-width="1920"
     inkscape:window-height="1129"
     inkscape:window-x="-8"
     inkscape:window-y="-8"
     inkscape:window-maximized="1"
     inkscape:current-layer="layer1"
     inkscape:snap-bbox="true"
     inkscape:object-paths="false"
     inkscape:snap-nodes="true"
     inkscape:snap-intersection-paths="false"
     showguides="false" />
  <defs
     id="defs6663" />
  <g
     inkscape:label="Layer 1"
     inkscape:groupmode="layer"
     id="layer1"
     style="opacity:1">
    <g
       id="g11333">
      <path
         id="path5850"
         style="color:#000000;fill:#000000;stroke-width:3.77953;-inkscape-stroke:none"
         d="M 745.62109 606.5625 C 738.64545 606.71556 731.29385 607.06771 723.59961 607.62695 C 723.59895 607.627 723.59832 607.6269 723.59766 607.62695 C 715.9033 608.18624 707.86633 608.95242 699.52148 609.93359 C 699.52083 609.93367 699.52019 609.93352 699.51953 609.93359 C 582.68187 623.67164 405.42455 679.53185 261.21484 799.06055 L 260.49219 799.66602 L 260.49219 1080.0078 L 262.04883 1396.166 L 262.70703 1396.6973 L 262.7793 1396.7578 L 262.78125 1396.7578 C 273.224 1405.319 283.81325 1413.6123 294.54492 1421.6445 C 294.61977 1421.7006 294.69467 1421.7565 294.76953 1421.8125 C 305.49134 1429.8322 316.35541 1437.5907 327.36133 1445.0898 C 327.37251 1445.0975 327.38335 1445.1057 327.39453 1445.1133 C 327.40889 1445.1231 327.42315 1445.1328 327.4375 1445.1426 C 338.48005 1452.665 349.66394 1459.9278 360.98828 1466.9336 C 360.98874 1466.9339 360.98977 1466.9333 360.99023 1466.9336 C 372.32882 1473.9481 383.80693 1480.7072 395.42383 1487.2109 C 395.42432 1487.2112 395.42529 1487.2107 395.42578 1487.2109 C 406.9967 1493.6889 418.70595 1499.9141 430.54883 1505.8926 C 430.645 1505.9411 430.74171 1505.9886 430.83789 1506.0371 C 442.68142 1512.0108 454.65828 1517.7392 466.76953 1523.2207 C 478.90849 1528.7148 491.1822 1533.9619 503.58594 1538.9688 C 503.60842 1538.9778 503.62986 1538.989 503.65234 1538.998 C 503.6529 1538.9983 503.65374 1538.9978 503.6543 1538.998 C 503.67565 1539.0067 503.69739 1539.0148 503.71875 1539.0234 C 516.12505 1544.0293 528.66116 1548.7945 541.32812 1553.3203 L 541.6543 1553.4375 L 854.35742 1553.4375 L 854.37891 1553.4375 C 854.37954 1553.4375 854.38023 1553.4375 854.38086 1553.4375 C 854.38271 1553.4375 854.38487 1553.4375 854.38672 1553.4375 C 861.3583 1553.2844 868.70524 1552.9319 876.39453 1552.373 C 876.4023 1552.3725 876.4102 1552.3717 876.41797 1552.3711 C 884.04769 1551.8162 892.01761 1551.0556 900.28711 1550.0859 C 900.42142 1550.0702 900.55499 1550.053 900.68945 1550.0371 C 908.96294 1549.0613 917.53585 1547.8782 926.38086 1546.4727 C 926.40165 1546.4694 926.42257 1546.4662 926.44336 1546.4629 C 935.28508 1545.0571 944.39781 1543.4305 953.74414 1541.5801 C 953.9039 1541.5485 954.06276 1541.5161 954.22266 1541.4844 C 963.50945 1539.6397 973.02803 1537.5715 982.74609 1535.2734 C 982.91361 1535.2338 983.08041 1535.194 983.24805 1535.1543 C 992.90831 1532.8636 1002.7661 1530.3428 1012.7871 1527.5898 C 1013.0888 1527.507 1013.3894 1527.4251 1013.6914 1527.3418 C 1023.7306 1524.5724 1033.9306 1521.5698 1044.2656 1518.3223 C 1044.4383 1518.268 1044.6105 1518.2145 1044.7832 1518.1602 C 1055.1495 1514.8961 1065.6494 1511.3847 1076.248 1507.625 C 1076.5002 1507.5356 1076.7516 1507.4472 1077.0039 1507.3574 C 1087.5587 1503.6031 1098.2115 1499.6003 1108.9316 1495.3398 C 1109.2173 1495.2263 1109.5014 1495.1119 1109.7871 1494.998 C 1120.4709 1490.7398 1131.2203 1486.2245 1142.0039 1481.4492 C 1142.3368 1481.3018 1142.669 1481.1557 1143.002 1481.0078 C 1153.7299 1476.242 1164.4908 1471.2139 1175.2539 1465.9219 C 1175.6605 1465.722 1176.066 1465.5229 1176.4727 1465.3223 C 1187.2184 1460.0187 1197.9644 1454.4482 1208.6816 1448.6055 C 1209.0544 1448.4023 1209.4262 1448.2 1209.7988 1447.9961 C 1220.5463 1442.1166 1231.2611 1435.962 1241.916 1429.5254 C 1242.2528 1429.322 1242.5892 1429.12 1242.9258 1428.916 C 1253.6098 1422.4416 1264.2312 1415.6826 1274.7578 1408.6328 C 1275.0582 1408.4316 1275.3579 1408.231 1275.6582 1408.0293 C 1286.1847 1400.9593 1296.6132 1393.5964 1306.918 1385.9355 C 1307.2315 1385.7025 1307.5442 1385.4699 1307.8574 1385.2363 C 1318.1821 1377.5367 1328.381 1369.5389 1338.418 1361.2305 C 1338.5394 1361.13 1338.6657 1361.04 1338.7871 1360.9395 L 1339.5098 1360.334 L 1339.5098 1079.9922 L 1337.9531 763.83398 L 1337.2949 763.30273 L 1337.2227 763.24219 C 1337.2223 763.24186 1337.2211 763.24251 1337.2207 763.24219 C 1337.1923 763.21893 1337.1631 763.19708 1337.1348 763.17383 C 1326.7116 754.63075 1316.1425 746.35214 1305.4316 738.33594 C 1305.4031 738.31459 1305.3762 738.29087 1305.3477 738.26953 C 1305.3472 738.26921 1305.3461 738.26985 1305.3457 738.26953 C 1305.3184 738.24914 1305.2909 738.22937 1305.2637 738.20898 C 1294.5479 730.19299 1283.689 722.43933 1272.6895 714.94336 C 1272.6617 714.92446 1272.6352 714.90366 1272.6074 714.88477 C 1272.607 714.88446 1272.6059 714.88507 1272.6055 714.88477 C 1272.579 714.86675 1272.5518 714.85004 1272.5254 714.83203 C 1261.4955 707.31889 1250.3247 700.06404 1239.0137 693.06641 C 1239.0129 693.06594 1239.0125 693.06492 1239.0117 693.06445 C 1227.6984 686.06543 1216.2447 679.3245 1204.6543 672.83398 C 1204.6286 672.81959 1204.6038 672.80346 1204.5781 672.78906 C 1204.5776 672.78878 1204.5767 672.78934 1204.5762 672.78906 C 1204.5515 672.77525 1204.5266 672.76185 1204.502 672.74805 C 1192.9337 666.27282 1181.2288 660.04826 1169.3887 654.07227 C 1169.3637 654.05967 1169.3394 654.0458 1169.3145 654.0332 C 1169.3139 654.03294 1169.313 654.03347 1169.3125 654.0332 C 1169.2886 654.02114 1169.2641 654.01011 1169.2402 653.99805 C 1145.481 642.01145 1121.1782 631.02219 1096.3496 621.00195 C 1096.3488 621.00164 1096.3484 621.00031 1096.3477 621 C 1083.9205 615.98471 1071.3626 611.21326 1058.6738 606.67969 L 1058.3496 606.5625 L 745.64453 606.5625 L 745.62109 606.5625 z "
         transform="scale(0.26458333)" />
      <path
         style="fill:#550000;stroke:none;stroke-width:0.264583px;stroke-linecap:butt;stroke-linejoin:miter;stroke-opacity:1"
         d="m 306.9047,219.81916 10.6457,-12.45617 9.79281,10.78081 c -5.8279,5.86899 -12.9244,4.898 -20.43851,1.67536 z"
         id="path2829"
         sodipodi:nodetypes="cccc" />
      <path
         id="path6715"
         style="fill:#ffffff;stroke:none;stroke-width:0.999999px;stroke-linecap:butt;stroke-linejoin:miter;stroke-opacity:1"
         d="M 745.62109 606.5625 C 792.69121 800.47567 864.86248 987.54922 947.16602 1169.0273 L 947.19141 1169.0684 C 956.90792 980.78219 976.1814 788.84859 950.50195 606.5625 L 745.64453 606.5625 L 745.62109 606.5625 z "
         transform="scale(0.26458333)" />
      <path
         style="fill:none;stroke:#000000;stroke-width:0.264583px;stroke-linecap:butt;stroke-linejoin:miter;stroke-opacity:1"
         d="m 233.6242,181.897 c 11.82922,40.45125 15.12788,77.63977 17.76235,113.44044"
         id="path12597"
         sodipodi:nodetypes="cc" />
      <path
         id="path12931"
         style="opacity:0.270325;fill:#cccccc;stroke:none;stroke-width:0.578705;stroke-linecap:square;stroke-miterlimit:4;stroke-dasharray:none"
         d="m 235.93981,198.83859 a 0.90349117,0.90349117 0 0 0 -0.71284,1.06021 0.90349117,0.90349117 0 0 0 1.0602,0.71284 0.90349117,0.90349117 0 0 0 0.71285,-1.0602 0.90349117,0.90349117 0 0 0 -1.06021,-0.71285 z m -0.19301,0.51983 a 0.1411705,0.1411705 0 0 1 0.16548,0.11126 0.1411705,0.1411705 0 0 1 -0.11121,0.16577 0.1411705,0.1411705 0 0 1 -0.16553,-0.11155 0.1411705,0.1411705 0 0 1 0.11126,-0.16548 z m 0.56791,-0.11126 a 0.1411705,0.1411705 0 0 1 0.16548,0.11126 0.1411705,0.1411705 0 0 1 -0.11121,0.16577 0.1411705,0.1411705 0 0 1 -0.16553,-0.11155 0.1411705,0.1411705 0 0 1 0.11126,-0.16548 z m -0.45666,0.67917 a 0.1411705,0.1411705 0 0 1 0.16549,0.11126 0.1411705,0.1411705 0 0 1 -0.11127,0.16548 0.1411705,0.1411705 0 0 1 -0.16547,-0.11126 0.1411705,0.1411705 0 0 1 0.11125,-0.16548 z m 0.56792,-0.11126 a 0.1411705,0.1411705 0 0 1 0.16548,0.11126 0.1411705,0.1411705 0 0 1 -0.11126,0.16548 0.1411705,0.1411705 0 0 1 -0.16549,-0.11126 0.1411705,0.1411705 0 0 1 0.11127,-0.16548 z" />
      <path
         id="path12935"
         style="opacity:0.270325;fill:#cccccc;stroke:none;stroke-width:0.578705;stroke-linecap:square;stroke-miterlimit:4;stroke-dasharray:none"
         d="m 240.21481,217.65568 a 0.90349117,0.90349117 0 0 0 -0.71284,1.06021 0.90349117,0.90349117 0 0 0 1.0602,0.71284 0.90349117,0.90349117 0 0 0 0.71285,-1.0602 0.90349117,0.90349117 0 0 0 -1.06021,-0.71285 z m -0.19301,0.51983 a 0.1411705,0.1411705 0 0 1 0.16548,0.11126 0.1411705,0.1411705 0 0 1 -0.11121,0.16577 0.1411705,0.1411705 0 0 1 -0.16553,-0.11155 0.1411705,0.1411705 0 0 1 0.11126,-0.16548 z m 0.56791,-0.11126 a 0.1411705,0.1411705 0 0 1 0.16548,0.11126 0.1411705,0.1411705 0 0 1 -0.11121,0.16577 0.1411705,0.1411705 0 0 1 -0.16553,-0.11155 0.1411705,0.1411705 0 0 1 0.11126,-0.16548 z m -0.45666,0.67917 a 0.1411705,0.1411705 0 0 1 0.16549,0.11126 0.1411705,0.1411705 0 0 1 -0.11127,0.16548 0.1411705,0.1411705 0 0 1 -0.16547,-0.11126 0.1411705,0.1411705 0 0 1 0.11125,-0.16548 z m 0.56792,-0.11126 a 0.1411705,0.1411705 0 0 1 0.16548,0.11126 0.1411705,0.1411705 0 0 1 -0.11126,0.16548 0.1411705,0.1411705 0 0 1 -0.16549,-0.11126 0.1411705,0.1411705 0 0 1 0.11127,-0.16548 z" />
      <path
         id="path12937"
         style="opacity:0.270325;fill:#cccccc;stroke:none;stroke-width:0.578705;stroke-linecap:square;stroke-miterlimit:4;stroke-dasharray:none"
         d="m 243.16378,235.82003 a 0.90349117,0.90349117 0 0 0 -0.71284,1.06021 0.90349117,0.90349117 0 0 0 1.0602,0.71284 0.90349117,0.90349117 0 0 0 0.71285,-1.0602 0.90349117,0.90349117 0 0 0 -1.06021,-0.71285 z m -0.19301,0.51983 a 0.1411705,0.1411705 0 0 1 0.16548,0.11126 0.1411705,0.1411705 0 0 1 -0.11121,0.16577 0.1411705,0.1411705 0 0 1 -0.16553,-0.11155 0.1411705,0.1411705 0 0 1 0.11126,-0.16548 z m 0.56791,-0.11126 a 0.1411705,0.1411705 0 0 1 0.16548,0.11126 0.1411705,0.1411705 0 0 1 -0.11121,0.16577 0.1411705,0.1411705 0 0 1 -0.16553,-0.11155 0.1411705,0.1411705 0 0 1 0.11126,-0.16548 z m -0.45666,0.67917 a 0.1411705,0.1411705 0 0 1 0.16549,0.11126 0.1411705,0.1411705 0 0 1 -0.11127,0.16548 0.1411705,0.1411705 0 0 1 -0.16547,-0.11126 0.1411705,0.1411705 0 0 1 0.11125,-0.16548 z m 0.56792,-0.11126 a 0.1411705,0.1411705 0 0 1 0.16548,0.11126 0.1411705,0.1411705 0 0 1 -0.11126,0.16548 0.1411705,0.1411705 0 0 1 -0.16549,-0.11126 0.1411705,0.1411705 0 0 1 0.11127,-0.16548 z" />
      <path
         id="path12941"
         style="opacity:0.270325;fill:#cccccc;stroke:none;stroke-width:0.578705;stroke-linecap:square;stroke-miterlimit:4;stroke-dasharray:none"
         d="m 246.13476,254.97805 a 0.90349117,0.90349117 0 0 0 -0.71284,1.06021 0.90349117,0.90349117 0 0 0 1.0602,0.71284 0.90349117,0.90349117 0 0 0 0.71285,-1.0602 0.90349117,0.90349117 0 0 0 -1.06021,-0.71285 z m -0.19301,0.51983 a 0.1411705,0.1411705 0 0 1 0.16548,0.11126 0.1411705,0.1411705 0 0 1 -0.11121,0.16577 0.1411705,0.1411705 0 0 1 -0.16553,-0.11155 0.1411705,0.1411705 0 0 1 0.11126,-0.16548 z m 0.56791,-0.11126 a 0.1411705,0.1411705 0 0 1 0.16548,0.11126 0.1411705,0.1411705 0 0 1 -0.11121,0.16577 0.1411705,0.1411705 0 0 1 -0.16553,-0.11155 0.1411705,0.1411705 0 0 1 0.11126,-0.16548 z m -0.45666,0.67917 a 0.1411705,0.1411705 0 0 1 0.16549,0.11126 0.1411705,0.1411705 0 0 1 -0.11127,0.16548 0.1411705,0.1411705 0 0 1 -0.16547,-0.11126 0.1411705,0.1411705 0 0 1 0.11125,-0.16548 z m 0.56792,-0.11126 a 0.1411705,0.1411705 0 0 1 0.16548,0.11126 0.1411705,0.1411705 0 0 1 -0.11126,0.16548 0.1411705,0.1411705 0 0 1 -0.16549,-0.11126 0.1411705,0.1411705 0 0 1 0.11127,-0.16548 z" />
      <path
         id="path12943"
         style="opacity:0.270325;fill:#cccccc;stroke:none;stroke-width:0.578705;stroke-linecap:square;stroke-miterlimit:4;stroke-dasharray:none"
         d="m 248.00093,275.48948 a 0.90349117,0.90349117 0 0 0 -0.71284,1.06021 0.90349117,0.90349117 0 0 0 1.0602,0.71284 0.90349117,0.90349117 0 0 0 0.71285,-1.0602 0.90349117,0.90349117 0 0 0 -1.06021,-0.71285 z m -0.19301,0.51983 a 0.1411705,0.1411705 0 0 1 0.16548,0.11126 0.1411705,0.1411705 0 0 1 -0.11121,0.16577 0.1411705,0.1411705 0 0 1 -0.16553,-0.11155 0.1411705,0.1411705 0 0 1 0.11126,-0.16548 z m 0.56791,-0.11126 a 0.1411705,0.1411705 0 0 1 0.16548,0.11126 0.1411705,0.1411705 0 0 1 -0.11121,0.16577 0.1411705,0.1411705 0 0 1 -0.16553,-0.11155 0.1411705,0.1411705 0 0 1 0.11126,-0.16548 z m -0.45666,0.67917 a 0.1411705,0.1411705 0 0 1 0.16549,0.11126 0.1411705,0.1411705 0 0 1 -0.11127,0.16548 0.1411705,0.1411705 0 0 1 -0.16547,-0.11126 0.1411705,0.1411705 0 0 1 0.11125,-0.16548 z m 0.56792,-0.11126 a 0.1411705,0.1411705 0 0 1 0.16548,0.11126 0.1411705,0.1411705 0 0 1 -0.11126,0.16548 0.1411705,0.1411705 0 0 1 -0.16549,-0.11126 0.1411705,0.1411705 0 0 1 0.11127,-0.16548 z" />
      <path
         id="path868"
         style="opacity:1;fill:#000000;stroke:none;stroke-width:0.264583px;stroke-linecap:butt;stroke-linejoin:miter;stroke-opacity:1"
         d="m 213.01655,175.27083 c -0.32691,0.0157 -0.54511,0.082 -0.62891,0.20882 -0.89383,1.35272 -0.0363,14.33648 2.11016,14.71216 1.58835,0.278 9.19116,-3.46415 13.04267,-5.43143 0.39201,0.51713 1.0276,0.83222 1.72627,0.78607 l 2.74836,-0.18155 c 0.6989,-0.0462 1.28784,-0.44236 1.60835,-1.00686 4.07678,1.44355 12.10583,4.15364 13.64382,3.66912 2.07837,-0.65475 1.2206,-13.6385 0.1566,-14.86189 -0.81296,-0.93474 -9.93643,3.29452 -14.20476,5.34609 -0.39342,-0.50195 -1.01985,-0.8058 -1.70696,-0.76041 l -2.74836,0.18155 c -0.68713,0.0454 -1.26814,0.42898 -1.59211,0.97833 -3.94898,-1.29168 -11.8178,-3.75216 -14.15513,-3.64 z" />
      <path
         style="fill:#800000;stroke:none;stroke-width:0.264583px;stroke-linecap:butt;stroke-linejoin:miter;stroke-opacity:1"
         d="m 306.9047,219.81916 14.26009,-12.14636 6.17842,10.471 c -5.8279,5.86899 -12.9244,4.898 -20.43851,1.67536 z"
         id="path2656"
         sodipodi:nodetypes="cccc" />
      <path
         style="fill:#aa0000;stroke:none;stroke-width:0.264583px;stroke-linecap:butt;stroke-linejoin:miter;stroke-opacity:1"
         d="m 306.9047,219.81916 17.56468,-11.21694 2.87383,9.54158 c -5.8279,5.86899 -12.9244,4.898 -20.43851,1.67536 z"
         id="path3067"
         sodipodi:nodetypes="cccc" />
      <path
         id="path927"
         style="fill:#1f1f1f;stroke:none;stroke-width:0.999999px;stroke-linecap:butt;stroke-linejoin:miter;stroke-opacity:1;fill-opacity:1"
         d="M 745.62109 606.5625 C 738.64545 606.71556 731.29385 607.06771 723.59961 607.62695 C 723.59961 607.62695 723.59766 607.62695 723.59766 607.62695 C 721.23323 607.79882 718.62734 608.12476 716.19922 608.33594 C 676.23549 642.67285 675.47484 651.25665 662.37109 666.78711 C 688.9725 676.19484 697.29111 681.02106 718.05859 699.17969 L 649.12305 731.91992 C 725.86805 894.69495 816.17533 1064.6613 947.19141 1169.084 C 864.87723 987.58805 792.69609 800.4958 745.62109 606.5625 z "
         transform="scale(0.26458333)" />
      <path
         style="color:#000000;fill:#1f1f1f;-inkscape-stroke:none;fill-opacity:1"
         d="m 251.48697,160.48633 v 0 c 6.79454,48.23119 1.69485,99.01513 -0.87591,148.83381 0.004,0.002 -0.0318,-0.009 0.004,0.002 v 0 c 13.29038,-39.44557 23.33462,-82.44428 29.69141,-121.1172 l 0.0215,-0.12305 -16.12304,-3.67187 c 4.43728,-6.13795 7.0926,-6.88522 11.29297,-9.04102 l 0.13086,-0.0664 -0.0801,-0.12304 c -6.76424,-7.82038 -16.07973,-12.96864 -24.0619,-14.69356 z"
         id="path1181"
         sodipodi:nodetypes="cccccccccccc" />
      <path
         style="fill:#333333;stroke:none;stroke-width:0.264583px;stroke-linecap:butt;stroke-linejoin:miter;stroke-opacity:1"
         d="m 329.48677,220.84731 c -13.4249,2.47845 -28.04624,2.31576 -28.04624,2.31576 v -3.30459 c 0,0 18.18563,0.21691 28.00454,-2.16344 z"
         id="path2351"
         sodipodi:nodetypes="ccccc" />
      <path
         id="path1837"
         style="fill:#1a1a1a;stroke:none;stroke-width:0.999999px;stroke-linecap:butt;stroke-linejoin:miter;stroke-opacity:1"
         d="M 1245.3047 834.69922 C 1194.8703 844.01022 1140.0809 843.45815 1139.4219 843.45117 L 1139.4219 852.49023 C 1139.4219 852.49023 1194.684 853.10565 1245.4238 843.73828 L 1245.3047 834.69922 z "
         transform="scale(0.26458333)" />
      <path
         id="path8122"
         style="opacity:1;fill:#1a1a1a;stroke:none;stroke-width:3.99999;stroke-linecap:square"
         d="M 390.81836 711.82812 C 346.37839 736.09395 302.43725 764.89322 261.21484 799.06055 L 260.49219 799.66602 L 260.49219 1080.0078 L 261.58203 1301.5078 A 396.00001 396.00001 0 0 0 472 952 A 396.00001 396.00001 0 0 0 390.81836 711.82812 z "
         transform="scale(0.26458333)" />
      <path
         id="path9783"
         style="color:#000000;fill:#000000;stroke-width:3.77953;stroke-linecap:square;-inkscape-stroke:none"
         d="M 745.62109 606.5625 C 745.67463 606.78305 745.73351 607.00213 745.78711 607.22266 C 778.8858 624.95715 813.03457 649.88512 844.97461 657.98438 C 861.00903 662.05032 876.51875 661.8523 890.98633 654.30859 C 905.45394 646.76492 918.84194 631.91037 930.74609 606.77734 L 930.84766 606.5625 L 929.73438 606.5625 C 917.91535 631.43884 904.70253 646.03168 890.5293 653.42188 C 876.31483 660.83357 861.09738 661.03625 845.21875 657.00977 C 813.72195 649.02293 779.73841 624.32973 746.67969 606.5625 L 745.64453 606.5625 L 745.62109 606.5625 z "
         transform="scale(0.26458333)" />
      <path
         id="path9785"
         style="color:#000000;fill:#000000;stroke-width:3.77953;stroke-linecap:square;-inkscape-stroke:none"
         d="m 950.00391,606.5625 c -0.91179,53.8891 -29.21325,87.96621 -47.7461,113.11328 l -34.60417,-59.60067 c -0.77133,-0.18923 0,0 -0.77133,-0.18923 l -17.91356,66.56529 c -11.58678,-3.01289 -29.35362,-13.75508 -46.79297,-27.59961 -17.40202,-13.81488 -34.42681,-30.61083 -44.63086,-45.53125 0.25057,0.94694 0.51001,1.89128 0.76172,2.83789 10.41285,14.46304 26.65244,30.30614 43.24024,43.47461 17.6889,14.04261 35.72591,25.03509 47.63671,27.99219 l 0.47852,0.11914 17.76953,-66.05469 34.73047,59.8086 0.45117,-0.61914 c 18.11763,-24.65043 46.31095,-58.29965 48.29492,-111.07032 -0.1488,-1.07918 -0.25431,-2.16758 -0.40625,-3.24609 z"
         transform="scale(0.26458333)"
         sodipodi:nodetypes="cccccsccscccccccc" />
    </g>
    <path
       style="fill:#550000;stroke:none;stroke-width:0.264583px;stroke-linecap:butt;stroke-linejoin:miter;stroke-opacity:1"
       d="m 116.42918,351.68054 -10.6457,12.45617 -9.79281,-10.78081 c 5.8279,-5.86899 12.9244,-4.898 20.43851,-1.67536 z"
       id="path11361"
       sodipodi:nodetypes="cccc" />
    <path
       id="path11363"
       style="fill:#ffffff;stroke:none;stroke-width:0.264583px;stroke-linecap:butt;stroke-linejoin:miter;stroke-opacity:1"
       d="M 226.05497,411.01337 C 213.601,359.70718 194.50569,310.21064 172.72954,262.19456 l -0.007,-0.0108 c -2.57083,49.81739 -7.67027,100.59982 -0.87591,148.82968 h 54.20186 z" />
    <path
       style="fill:none;stroke:#000000;stroke-width:0.264583px;stroke-linecap:butt;stroke-linejoin:miter;stroke-opacity:1"
       d="M 189.70968,389.6027 C 177.88046,349.15145 174.5818,311.96293 171.94733,276.16226"
       id="path11365"
       sodipodi:nodetypes="cc" />
    <path
       id="path11367"
       style="opacity:0.270325;fill:#cccccc;stroke:none;stroke-width:0.578705;stroke-linecap:square;stroke-miterlimit:4;stroke-dasharray:none"
       d="m 187.39407,372.66111 a -0.90349117,-0.90349117 0 0 0 0.71284,-1.06021 -0.90349117,-0.90349117 0 0 0 -1.0602,-0.71284 -0.90349117,-0.90349117 0 0 0 -0.71285,1.0602 -0.90349117,-0.90349117 0 0 0 1.06021,0.71285 z m 0.19301,-0.51983 a -0.1411705,-0.1411705 0 0 1 -0.16548,-0.11126 -0.1411705,-0.1411705 0 0 1 0.11121,-0.16577 -0.1411705,-0.1411705 0 0 1 0.16553,0.11155 -0.1411705,-0.1411705 0 0 1 -0.11126,0.16548 z m -0.56791,0.11126 a -0.1411705,-0.1411705 0 0 1 -0.16548,-0.11126 -0.1411705,-0.1411705 0 0 1 0.11121,-0.16577 -0.1411705,-0.1411705 0 0 1 0.16553,0.11155 -0.1411705,-0.1411705 0 0 1 -0.11126,0.16548 z m 0.45666,-0.67917 a -0.1411705,-0.1411705 0 0 1 -0.16549,-0.11126 -0.1411705,-0.1411705 0 0 1 0.11127,-0.16548 -0.1411705,-0.1411705 0 0 1 0.16547,0.11126 -0.1411705,-0.1411705 0 0 1 -0.11125,0.16548 z m -0.56792,0.11126 a -0.1411705,-0.1411705 0 0 1 -0.16548,-0.11126 -0.1411705,-0.1411705 0 0 1 0.11126,-0.16548 -0.1411705,-0.1411705 0 0 1 0.16549,0.11126 -0.1411705,-0.1411705 0 0 1 -0.11127,0.16548 z" />
    <path
       id="path11369"
       style="opacity:0.270325;fill:#cccccc;stroke:none;stroke-width:0.578705;stroke-linecap:square;stroke-miterlimit:4;stroke-dasharray:none"
       d="m 183.11907,353.84402 a -0.90349117,-0.90349117 0 0 0 0.71284,-1.06021 -0.90349117,-0.90349117 0 0 0 -1.0602,-0.71284 -0.90349117,-0.90349117 0 0 0 -0.71285,1.0602 -0.90349117,-0.90349117 0 0 0 1.06021,0.71285 z m 0.19301,-0.51983 a -0.1411705,-0.1411705 0 0 1 -0.16548,-0.11126 -0.1411705,-0.1411705 0 0 1 0.11121,-0.16577 -0.1411705,-0.1411705 0 0 1 0.16553,0.11155 -0.1411705,-0.1411705 0 0 1 -0.11126,0.16548 z m -0.56791,0.11126 a -0.1411705,-0.1411705 0 0 1 -0.16548,-0.11126 -0.1411705,-0.1411705 0 0 1 0.11121,-0.16577 -0.1411705,-0.1411705 0 0 1 0.16553,0.11155 -0.1411705,-0.1411705 0 0 1 -0.11126,0.16548 z m 0.45666,-0.67917 a -0.1411705,-0.1411705 0 0 1 -0.16549,-0.11126 -0.1411705,-0.1411705 0 0 1 0.11127,-0.16548 -0.1411705,-0.1411705 0 0 1 0.16547,0.11126 -0.1411705,-0.1411705 0 0 1 -0.11125,0.16548 z m -0.56792,0.11126 a -0.1411705,-0.1411705 0 0 1 -0.16548,-0.11126 -0.1411705,-0.1411705 0 0 1 0.11126,-0.16548 -0.1411705,-0.1411705 0 0 1 0.16549,0.11126 -0.1411705,-0.1411705 0 0 1 -0.11127,0.16548 z" />
    <path
       id="path11371"
       style="opacity:0.270325;fill:#cccccc;stroke:none;stroke-width:0.578705;stroke-linecap:square;stroke-miterlimit:4;stroke-dasharray:none"
       d="m 180.1701,335.67967 a -0.90349117,-0.90349117 0 0 0 0.71284,-1.06021 -0.90349117,-0.90349117 0 0 0 -1.0602,-0.71284 -0.90349117,-0.90349117 0 0 0 -0.71285,1.0602 -0.90349117,-0.90349117 0 0 0 1.06021,0.71285 z m 0.19301,-0.51983 a -0.1411705,-0.1411705 0 0 1 -0.16548,-0.11126 -0.1411705,-0.1411705 0 0 1 0.11121,-0.16577 -0.1411705,-0.1411705 0 0 1 0.16553,0.11155 -0.1411705,-0.1411705 0 0 1 -0.11126,0.16548 z m -0.56791,0.11126 a -0.1411705,-0.1411705 0 0 1 -0.16548,-0.11126 -0.1411705,-0.1411705 0 0 1 0.11121,-0.16577 -0.1411705,-0.1411705 0 0 1 0.16553,0.11155 -0.1411705,-0.1411705 0 0 1 -0.11126,0.16548 z m 0.45666,-0.67917 a -0.1411705,-0.1411705 0 0 1 -0.16549,-0.11126 -0.1411705,-0.1411705 0 0 1 0.11127,-0.16548 -0.1411705,-0.1411705 0 0 1 0.16547,0.11126 -0.1411705,-0.1411705 0 0 1 -0.11125,0.16548 z m -0.56792,0.11126 a -0.1411705,-0.1411705 0 0 1 -0.16548,-0.11126 -0.1411705,-0.1411705 0 0 1 0.11126,-0.16548 -0.1411705,-0.1411705 0 0 1 0.16549,0.11126 -0.1411705,-0.1411705 0 0 1 -0.11127,0.16548 z" />
    <path
       id="path11373"
       style="opacity:0.270325;fill:#cccccc;stroke:none;stroke-width:0.578705;stroke-linecap:square;stroke-miterlimit:4;stroke-dasharray:none"
       d="m 177.19912,316.52165 a -0.90349117,-0.90349117 0 0 0 0.71284,-1.06021 -0.90349117,-0.90349117 0 0 0 -1.0602,-0.71284 -0.90349117,-0.90349117 0 0 0 -0.71285,1.0602 -0.90349117,-0.90349117 0 0 0 1.06021,0.71285 z m 0.19301,-0.51983 a -0.1411705,-0.1411705 0 0 1 -0.16548,-0.11126 -0.1411705,-0.1411705 0 0 1 0.11121,-0.16577 -0.1411705,-0.1411705 0 0 1 0.16553,0.11155 -0.1411705,-0.1411705 0 0 1 -0.11126,0.16548 z m -0.56791,0.11126 a -0.1411705,-0.1411705 0 0 1 -0.16548,-0.11126 -0.1411705,-0.1411705 0 0 1 0.11121,-0.16577 -0.1411705,-0.1411705 0 0 1 0.16553,0.11155 -0.1411705,-0.1411705 0 0 1 -0.11126,0.16548 z m 0.45666,-0.67917 a -0.1411705,-0.1411705 0 0 1 -0.16549,-0.11126 -0.1411705,-0.1411705 0 0 1 0.11127,-0.16548 -0.1411705,-0.1411705 0 0 1 0.16547,0.11126 -0.1411705,-0.1411705 0 0 1 -0.11125,0.16548 z m -0.56792,0.11126 a -0.1411705,-0.1411705 0 0 1 -0.16548,-0.11126 -0.1411705,-0.1411705 0 0 1 0.11126,-0.16548 -0.1411705,-0.1411705 0 0 1 0.16549,0.11126 -0.1411705,-0.1411705 0 0 1 -0.11127,0.16548 z" />
    <path
       id="path11375"
       style="opacity:0.270325;fill:#cccccc;stroke:none;stroke-width:0.578705;stroke-linecap:square;stroke-miterlimit:4;stroke-dasharray:none"
       d="m 175.33295,296.01022 a -0.90349117,-0.90349117 0 0 0 0.71284,-1.06021 -0.90349117,-0.90349117 0 0 0 -1.0602,-0.71284 -0.90349117,-0.90349117 0 0 0 -0.71285,1.0602 -0.90349117,-0.90349117 0 0 0 1.06021,0.71285 z m 0.19301,-0.51983 a -0.1411705,-0.1411705 0 0 1 -0.16548,-0.11126 -0.1411705,-0.1411705 0 0 1 0.11121,-0.16577 -0.1411705,-0.1411705 0 0 1 0.16553,0.11155 -0.1411705,-0.1411705 0 0 1 -0.11126,0.16548 z m -0.56791,0.11126 a -0.1411705,-0.1411705 0 0 1 -0.16548,-0.11126 -0.1411705,-0.1411705 0 0 1 0.11121,-0.16577 -0.1411705,-0.1411705 0 0 1 0.16553,0.11155 -0.1411705,-0.1411705 0 0 1 -0.11126,0.16548 z m 0.45666,-0.67917 a -0.1411705,-0.1411705 0 0 1 -0.16549,-0.11126 -0.1411705,-0.1411705 0 0 1 0.11127,-0.16548 -0.1411705,-0.1411705 0 0 1 0.16547,0.11126 -0.1411705,-0.1411705 0 0 1 -0.11125,0.16548 z m -0.56792,0.11126 a -0.1411705,-0.1411705 0 0 1 -0.16548,-0.11126 -0.1411705,-0.1411705 0 0 1 0.11126,-0.16548 -0.1411705,-0.1411705 0 0 1 0.16549,0.11126 -0.1411705,-0.1411705 0 0 1 -0.11127,0.16548 z" />
    <path
       id="path11377"
       style="fill:#000000;stroke:none;stroke-width:0.264583px;stroke-linecap:butt;stroke-linejoin:miter;stroke-opacity:1"
       d="m 210.31733,396.22887 c 0.32691,-0.0157 0.54511,-0.082 0.62891,-0.20882 0.89383,-1.35272 0.0363,-14.33648 -2.11016,-14.71216 -1.58835,-0.278 -9.19116,3.46415 -13.04267,5.43143 -0.39201,-0.51713 -1.0276,-0.83222 -1.72627,-0.78607 l -2.74836,0.18155 c -0.6989,0.0462 -1.28784,0.44236 -1.60835,1.00686 -4.07678,-1.44355 -12.10583,-4.15364 -13.64382,-3.66912 -2.07837,0.65475 -1.2206,13.6385 -0.1566,14.86189 0.81296,0.93474 9.93643,-3.29452 14.20476,-5.34609 0.39342,0.50195 1.01985,0.8058 1.70696,0.76041 l 2.74836,-0.18155 c 0.68713,-0.0454 1.26814,-0.42898 1.59211,-0.97833 3.94898,1.29168 11.8178,3.75216 14.15513,3.64 z" />
    <path
       style="fill:#800000;stroke:none;stroke-width:0.264583px;stroke-linecap:butt;stroke-linejoin:miter;stroke-opacity:1"
       d="m 116.42918,351.68054 -14.26009,12.14636 -6.17842,-10.471 c 5.8279,-5.86899 12.9244,-4.898 20.43851,-1.67536 z"
       id="path11379"
       sodipodi:nodetypes="cccc" />
    <path
       style="fill:#aa0000;stroke:none;stroke-width:0.264583px;stroke-linecap:butt;stroke-linejoin:miter;stroke-opacity:1"
       d="M 116.42918,351.68054 98.8645,362.89748 95.99067,353.3559 c 5.8279,-5.86899 12.9244,-4.898 20.43851,-1.67536 z"
       id="path11381"
       sodipodi:nodetypes="cccc" />
    <path
       id="path11383"
       style="fill:#1f1f1f;fill-opacity:1;stroke:none;stroke-width:0.264583px;stroke-linecap:butt;stroke-linejoin:miter;stroke-opacity:1"
       d="m 226.05497,411.01337 c 1.84564,-0.0405 3.79075,-0.13367 5.82652,-0.28163 0,0 5.2e-4,0 5.2e-4,0 0.62559,-0.0455 1.31507,-0.13171 1.95751,-0.18759 10.57374,-9.08497 10.77499,-11.3561 14.24202,-15.4652 -7.03829,-2.48913 -9.23925,-3.76607 -14.73398,-8.57054 l 18.2392,-8.66252 c -20.30547,-43.06756 -44.19927,-88.03782 -78.86394,-115.66633 21.77896,48.02081 40.87689,97.5223 53.33215,148.83381 z" />
    <path
       style="color:#000000;fill:#1f1f1f;fill-opacity:1;-inkscape-stroke:none"
       d="m 171.84691,411.01337 v 0 c -6.79454,-48.23119 -1.69485,-99.01513 0.87591,-148.83381 -0.004,-0.002 0.0318,0.009 -0.004,-0.002 v 0 c -13.29038,39.44557 -23.33462,82.44428 -29.69141,121.1172 l -0.0215,0.12305 16.12304,3.67187 c -4.43728,6.13795 -7.0926,6.88522 -11.29297,9.04102 l -0.13086,0.0664 0.0801,0.12304 c 6.76424,7.82038 16.07973,12.96864 24.0619,14.69356 z"
       id="path11385"
       sodipodi:nodetypes="cccccccccccc" />
    <path
       style="fill:#333333;stroke:none;stroke-width:0.264583px;stroke-linecap:butt;stroke-linejoin:miter;stroke-opacity:1"
       d="m 93.84711,350.65239 c 13.4249,-2.47845 28.04624,-2.31576 28.04624,-2.31576 v 3.30459 c 0,0 -18.18563,-0.21691 -28.00454,2.16344 z"
       id="path11387"
       sodipodi:nodetypes="ccccc" />
    <path
       id="path11389"
       style="fill:#1a1a1a;stroke:none;stroke-width:0.264583px;stroke-linecap:butt;stroke-linejoin:miter;stroke-opacity:1"
       d="m 93.847016,350.6522 c 13.344104,-2.46353 27.840464,-2.31747 28.014824,-2.31562 V 345.945 c 0,0 -14.62143,-0.16283 -28.046336,2.31562 z" />
    <path
       id="path11391"
       style="fill:#1a1a1a;stroke:none;stroke-width:1.05833;stroke-linecap:square"
       d="m 319.92986,383.16185 c 11.75807,-6.42034 23.38417,-14.04015 34.29093,-23.08025 l 0.1912,-0.1602 v -74.17376 l -0.28835,-58.60521 a 104.775,104.775 0 0 0 -55.67309,92.47394 104.775,104.775 0 0 0 21.47931,63.54548 z" />
    <path
       id="path11393"
       style="color:#000000;fill:#000000;stroke-width:1;stroke-linecap:square;-inkscape-stroke:none"
       d="m 226.05497,411.01337 c -0.0142,-0.0584 -0.0298,-0.11631 -0.0439,-0.17466 -8.75736,-4.69225 -17.79255,-11.28778 -26.24336,-13.43071 -4.24244,-1.07578 -8.34605,-1.02339 -12.17393,0.97255 -3.82789,1.99593 -7.37013,5.9262 -10.51977,12.57598 l -0.0269,0.0568 h 0.29455 c 3.12712,-6.58186 6.62301,-10.44288 10.37301,-12.39821 3.76091,-1.96101 7.7872,-2.01463 11.98842,-0.94929 8.33353,2.11318 17.325,8.64659 26.07179,13.3475 h 0.27389 z" />
    <path
       id="path11395"
       style="color:#000000;fill:#000000;stroke-width:1;stroke-linecap:square;-inkscape-stroke:none"
       d="m 171.97868,411.01337 c 0.24125,-14.25815 7.72934,-23.27439 12.63282,-29.92788 l 9.15569,15.76934 c 0.20408,0.0501 0,0 0.20408,0.0501 l 4.73963,-17.61207 c 3.06567,0.79716 7.76648,3.63937 12.38064,7.3024 4.60429,3.65518 9.10876,8.09911 11.80858,12.04681 -0.0663,-0.25055 -0.13494,-0.5004 -0.20154,-0.75086 -2.75506,-3.82668 -7.05179,-8.0185 -11.44064,-11.50266 -4.68019,-3.71544 -9.45248,-6.62387 -12.60388,-7.40627 l -0.12661,-0.0315 -4.70152,17.47697 -9.18911,-15.82436 -0.11937,0.16382 c -4.79362,6.52209 -12.2531,15.42511 -12.77803,29.38735 0.0394,0.28554 0.0673,0.57351 0.10749,0.85886 z"
       sodipodi:nodetypes="cccccsccscccccccc" />
  </g>
</svg>
