<?xml version="1.0" encoding="UTF-8" standalone="no"?>
<!-- Created with Inkscape (http://www.inkscape.org/) -->

<svg
   width="1600"
   height="2160"
   viewBox="0 0 423.33332 571.50002"
   version="1.1"
   id="svg6666"
   inkscape:version="1.1.2 (b8e25be833, 2022-02-05)"
   sodipodi:docname="Suit.svg"
   inkscape:export-filename="E:\github\KINGFACE\Body\Suit.png"
   inkscape:export-xdpi="96"
   inkscape:export-ydpi="96"
   xmlns:inkscape="http://www.inkscape.org/namespaces/inkscape"
   xmlns:sodipodi="http://sodipodi.sourceforge.net/DTD/sodipodi-0.dtd"
   xmlns="http://www.w3.org/2000/svg"
   xmlns:svg="http://www.w3.org/2000/svg">
  <sodipodi:namedview
     id="namedview6668"
     pagecolor="#ffffff"
     bordercolor="#666666"
     borderopacity="1.0"
     inkscape:pageshadow="2"
     inkscape:pageopacity="0.0"
     inkscape:pagecheckerboard="0"
     inkscape:document-units="mm"
     showgrid="false"
     units="px"
     inkscape:zoom="0.90583674"
     inkscape:cx="756.20691"
     inkscape:cy="869.91393"
     inkscape:window-width="1920"
     inkscape:window-height="1009"
     inkscape:window-x="-8"
     inkscape:window-y="-8"
     inkscape:window-maximized="1"
     inkscape:current-layer="layer1"
     inkscape:snap-bbox="true"
     inkscape:object-paths="true"
     inkscape:snap-nodes="true" />
  <defs
     id="defs6663" />
  <g
     inkscape:label="Layer 1"
     inkscape:groupmode="layer"
     id="layer1">
    <path
       id="path5850"
       style="display:inline;fill:none;stroke:#000000;stroke-width:1.05833333;stroke-linecap:butt;stroke-linejoin:miter;stroke-opacity:1;stroke-miterlimit:4;stroke-dasharray:none"
       d="M 197.29106,161.01627 C 167.9132,161.66086 112.9407,175.77983 69.450803,211.8266 v 73.92366 l 0.411864,83.40008 c 22.13197,18.14435 46.736233,31.75624 73.541243,41.33339 h 82.63888 c 29.37786,-0.64461 84.34983,-14.76306 127.83974,-50.80982 v -73.92365 l -0.41185,-83.40008 c -22.13197,-18.14437 -46.73573,-31.75677 -73.54072,-41.33391 z" />
    <path
       id="path7716"
       style="fill:#00ff00;stroke:none;stroke-width:4.00000005;stroke-linecap:butt;stroke-linejoin:miter;stroke-opacity:1;stroke-miterlimit:4;stroke-dasharray:none"
       d="M 745.66797 608.56641 C 634.63354 611.00265 426.86345 664.36375 262.49219 800.60352 L 262.49219 1080 L 1337.5078 1080 L 1335.9531 764.78711 C 1252.3047 696.20996 1159.3141 644.76347 1058.0039 608.56641 L 745.66797 608.56641 z "
       transform="scale(0.26458333)" />
    <path
       style="fill:none;stroke:#000000;stroke-width:0.264583px;stroke-linecap:butt;stroke-linejoin:miter;stroke-opacity:1"
       d="m 189.3968,161.46639 c -10.61487,9.1148 -10.67289,10.8398 -14.14447,14.95429 7.03829,2.48913 9.23922,3.76629 14.73395,8.57076 l -18.23899,8.66239 c 20.30545,43.06756 44.19888,88.03803 78.86355,115.66653 13.28746,-39.4369 23.20984,-82.47 29.56561,-121.13672 l -16.20907,-3.69082 c 4.5353,-6.33749 7.23535,-7.06665 11.47087,-9.24049 -4.63219,-7.12317 -13.68108,-11.97373 -23.95115,-14.23581"
       id="path10356"
       sodipodi:nodetypes="ccccccccc" />
    <path
       style="fill:none;stroke:#000000;stroke-width:0.264583px;stroke-linecap:butt;stroke-linejoin:miter;stroke-opacity:1"
       d="m 197.29131,161.01652 c 12.45526,51.31152 31.54057,100.28303 53.31953,148.30383 2.57054,-49.81435 7.67387,-100.05084 0.87626,-148.30383"
       id="path11588"
       sodipodi:nodetypes="ccc" />
    <path
       style="fill:none;stroke:#000000;stroke-width:0.264583px;stroke-linecap:butt;stroke-linejoin:miter;stroke-opacity:1"
       d="m 200.1462,172.3033 c 6.41431,8.62919 11.74875,13.59087 24.56589,20.08578 l 4.75036,-17.6589 9.24706,15.92409 c 6.71146,-10.68787 12.0122,-17.86878 12.77759,-29.63775"
       id="path12204"
       sodipodi:nodetypes="ccccc" />
    <path
       style="fill:none;stroke:#000000;stroke-width:0.264583px;stroke-linecap:butt;stroke-linejoin:miter;stroke-opacity:1"
       d="m 197.29106,161.01627 c 9.92658,5.84685 19.5856,12.1218 32.17139,13.71391 6.09999,-2.92873 12.16366,-5.93918 16.10987,-13.71391"
       id="path12239"
       sodipodi:nodetypes="ccc" />
    <path
       style="fill:none;stroke:#000000;stroke-width:0.264583px;stroke-linecap:butt;stroke-linejoin:miter;stroke-opacity:1"
       d="m 233.6242,181.897 c 11.82922,40.45125 15.12788,77.63977 17.76235,113.44044"
       id="path12597"
       sodipodi:nodetypes="cc" />
    <path
       id="path12931"
       style="opacity:0.270325;fill:#ff00ff;stroke:none;stroke-width:0.578705;stroke-linecap:square;stroke-miterlimit:4;stroke-dasharray:none"
       d="m 235.93981,198.83859 a 0.90349117,0.90349117 0 0 0 -0.71284,1.06021 0.90349117,0.90349117 0 0 0 1.0602,0.71284 0.90349117,0.90349117 0 0 0 0.71285,-1.0602 0.90349117,0.90349117 0 0 0 -1.06021,-0.71285 z m -0.19301,0.51983 a 0.1411705,0.1411705 0 0 1 0.16548,0.11126 0.1411705,0.1411705 0 0 1 -0.11121,0.16577 0.1411705,0.1411705 0 0 1 -0.16553,-0.11155 0.1411705,0.1411705 0 0 1 0.11126,-0.16548 z m 0.56791,-0.11126 a 0.1411705,0.1411705 0 0 1 0.16548,0.11126 0.1411705,0.1411705 0 0 1 -0.11121,0.16577 0.1411705,0.1411705 0 0 1 -0.16553,-0.11155 0.1411705,0.1411705 0 0 1 0.11126,-0.16548 z m -0.45666,0.67917 a 0.1411705,0.1411705 0 0 1 0.16549,0.11126 0.1411705,0.1411705 0 0 1 -0.11127,0.16548 0.1411705,0.1411705 0 0 1 -0.16547,-0.11126 0.1411705,0.1411705 0 0 1 0.11125,-0.16548 z m 0.56792,-0.11126 a 0.1411705,0.1411705 0 0 1 0.16548,0.11126 0.1411705,0.1411705 0 0 1 -0.11126,0.16548 0.1411705,0.1411705 0 0 1 -0.16549,-0.11126 0.1411705,0.1411705 0 0 1 0.11127,-0.16548 z" />
    <path
       id="path12935"
       style="opacity:0.270325;fill:#ff00ff;stroke:none;stroke-width:0.578705;stroke-linecap:square;stroke-miterlimit:4;stroke-dasharray:none"
       d="m 240.21481,217.65568 a 0.90349117,0.90349117 0 0 0 -0.71284,1.06021 0.90349117,0.90349117 0 0 0 1.0602,0.71284 0.90349117,0.90349117 0 0 0 0.71285,-1.0602 0.90349117,0.90349117 0 0 0 -1.06021,-0.71285 z m -0.19301,0.51983 a 0.1411705,0.1411705 0 0 1 0.16548,0.11126 0.1411705,0.1411705 0 0 1 -0.11121,0.16577 0.1411705,0.1411705 0 0 1 -0.16553,-0.11155 0.1411705,0.1411705 0 0 1 0.11126,-0.16548 z m 0.56791,-0.11126 a 0.1411705,0.1411705 0 0 1 0.16548,0.11126 0.1411705,0.1411705 0 0 1 -0.11121,0.16577 0.1411705,0.1411705 0 0 1 -0.16553,-0.11155 0.1411705,0.1411705 0 0 1 0.11126,-0.16548 z m -0.45666,0.67917 a 0.1411705,0.1411705 0 0 1 0.16549,0.11126 0.1411705,0.1411705 0 0 1 -0.11127,0.16548 0.1411705,0.1411705 0 0 1 -0.16547,-0.11126 0.1411705,0.1411705 0 0 1 0.11125,-0.16548 z m 0.56792,-0.11126 a 0.1411705,0.1411705 0 0 1 0.16548,0.11126 0.1411705,0.1411705 0 0 1 -0.11126,0.16548 0.1411705,0.1411705 0 0 1 -0.16549,-0.11126 0.1411705,0.1411705 0 0 1 0.11127,-0.16548 z" />
    <path
       id="path12937"
       style="opacity:0.270325;fill:#ff00ff;stroke:none;stroke-width:0.578705;stroke-linecap:square;stroke-miterlimit:4;stroke-dasharray:none"
       d="m 243.16378,235.82003 a 0.90349117,0.90349117 0 0 0 -0.71284,1.06021 0.90349117,0.90349117 0 0 0 1.0602,0.71284 0.90349117,0.90349117 0 0 0 0.71285,-1.0602 0.90349117,0.90349117 0 0 0 -1.06021,-0.71285 z m -0.19301,0.51983 a 0.1411705,0.1411705 0 0 1 0.16548,0.11126 0.1411705,0.1411705 0 0 1 -0.11121,0.16577 0.1411705,0.1411705 0 0 1 -0.16553,-0.11155 0.1411705,0.1411705 0 0 1 0.11126,-0.16548 z m 0.56791,-0.11126 a 0.1411705,0.1411705 0 0 1 0.16548,0.11126 0.1411705,0.1411705 0 0 1 -0.11121,0.16577 0.1411705,0.1411705 0 0 1 -0.16553,-0.11155 0.1411705,0.1411705 0 0 1 0.11126,-0.16548 z m -0.45666,0.67917 a 0.1411705,0.1411705 0 0 1 0.16549,0.11126 0.1411705,0.1411705 0 0 1 -0.11127,0.16548 0.1411705,0.1411705 0 0 1 -0.16547,-0.11126 0.1411705,0.1411705 0 0 1 0.11125,-0.16548 z m 0.56792,-0.11126 a 0.1411705,0.1411705 0 0 1 0.16548,0.11126 0.1411705,0.1411705 0 0 1 -0.11126,0.16548 0.1411705,0.1411705 0 0 1 -0.16549,-0.11126 0.1411705,0.1411705 0 0 1 0.11127,-0.16548 z" />
    <path
       id="path12941"
       style="opacity:0.270325;fill:#ff00ff;stroke:none;stroke-width:0.578705;stroke-linecap:square;stroke-miterlimit:4;stroke-dasharray:none"
       d="m 246.13476,254.97805 a 0.90349117,0.90349117 0 0 0 -0.71284,1.06021 0.90349117,0.90349117 0 0 0 1.0602,0.71284 0.90349117,0.90349117 0 0 0 0.71285,-1.0602 0.90349117,0.90349117 0 0 0 -1.06021,-0.71285 z m -0.19301,0.51983 a 0.1411705,0.1411705 0 0 1 0.16548,0.11126 0.1411705,0.1411705 0 0 1 -0.11121,0.16577 0.1411705,0.1411705 0 0 1 -0.16553,-0.11155 0.1411705,0.1411705 0 0 1 0.11126,-0.16548 z m 0.56791,-0.11126 a 0.1411705,0.1411705 0 0 1 0.16548,0.11126 0.1411705,0.1411705 0 0 1 -0.11121,0.16577 0.1411705,0.1411705 0 0 1 -0.16553,-0.11155 0.1411705,0.1411705 0 0 1 0.11126,-0.16548 z m -0.45666,0.67917 a 0.1411705,0.1411705 0 0 1 0.16549,0.11126 0.1411705,0.1411705 0 0 1 -0.11127,0.16548 0.1411705,0.1411705 0 0 1 -0.16547,-0.11126 0.1411705,0.1411705 0 0 1 0.11125,-0.16548 z m 0.56792,-0.11126 a 0.1411705,0.1411705 0 0 1 0.16548,0.11126 0.1411705,0.1411705 0 0 1 -0.11126,0.16548 0.1411705,0.1411705 0 0 1 -0.16549,-0.11126 0.1411705,0.1411705 0 0 1 0.11127,-0.16548 z" />
    <path
       id="path12943"
       style="opacity:0.270325;fill:#ff00ff;stroke:none;stroke-width:0.578705;stroke-linecap:square;stroke-miterlimit:4;stroke-dasharray:none"
       d="m 248.00093,275.48948 a 0.90349117,0.90349117 0 0 0 -0.71284,1.06021 0.90349117,0.90349117 0 0 0 1.0602,0.71284 0.90349117,0.90349117 0 0 0 0.71285,-1.0602 0.90349117,0.90349117 0 0 0 -1.06021,-0.71285 z m -0.19301,0.51983 a 0.1411705,0.1411705 0 0 1 0.16548,0.11126 0.1411705,0.1411705 0 0 1 -0.11121,0.16577 0.1411705,0.1411705 0 0 1 -0.16553,-0.11155 0.1411705,0.1411705 0 0 1 0.11126,-0.16548 z m 0.56791,-0.11126 a 0.1411705,0.1411705 0 0 1 0.16548,0.11126 0.1411705,0.1411705 0 0 1 -0.11121,0.16577 0.1411705,0.1411705 0 0 1 -0.16553,-0.11155 0.1411705,0.1411705 0 0 1 0.11126,-0.16548 z m -0.45666,0.67917 a 0.1411705,0.1411705 0 0 1 0.16549,0.11126 0.1411705,0.1411705 0 0 1 -0.11127,0.16548 0.1411705,0.1411705 0 0 1 -0.16547,-0.11126 0.1411705,0.1411705 0 0 1 0.11125,-0.16548 z m 0.56792,-0.11126 a 0.1411705,0.1411705 0 0 1 0.16548,0.11126 0.1411705,0.1411705 0 0 1 -0.11126,0.16548 0.1411705,0.1411705 0 0 1 -0.16549,-0.11126 0.1411705,0.1411705 0 0 1 0.11127,-0.16548 z" />
    <path
       id="path868"
       style="opacity:1;fill:#000000;stroke:none;stroke-width:0.264583px;stroke-linecap:butt;stroke-linejoin:miter;stroke-opacity:1"
       d="m 213.01655,175.27083 c -0.32691,0.0157 -0.54511,0.082 -0.62891,0.20882 -0.89383,1.35272 -0.0363,14.33648 2.11016,14.71216 1.58835,0.278 9.19116,-3.46415 13.04267,-5.43143 0.39201,0.51713 1.0276,0.83222 1.72627,0.78607 l 2.74836,-0.18155 c 0.6989,-0.0462 1.28784,-0.44236 1.60835,-1.00686 4.07678,1.44355 12.10583,4.15364 13.64382,3.66912 2.07837,-0.65475 1.2206,-13.6385 0.1566,-14.86189 -0.81296,-0.93474 -9.93643,3.29452 -14.20476,5.34609 -0.39342,-0.50195 -1.01985,-0.8058 -1.70696,-0.76041 l -2.74836,0.18155 c -0.68713,0.0454 -1.26814,0.42898 -1.59211,0.97833 -3.94898,-1.29168 -11.8178,-3.75216 -14.15513,-3.64 z" />
    <path
       style="fill:none;stroke:#000000;stroke-width:0.264583px;stroke-linecap:butt;stroke-linejoin:miter;stroke-opacity:1"
       d="m 94.456103,194.06462 c 0,0 31.737917,12.27822 31.737917,91.68538"
       id="path1468"
       sodipodi:nodetypes="cc" />
    <path
       id="path1837"
       style="fill:#000000;stroke:none;stroke-width:0.999999px;stroke-linecap:butt;stroke-linejoin:miter;stroke-opacity:1"
       d="M 1245.3047 834.69922 C 1194.8703 844.01022 1140.0809 843.45815 1139.4219 843.45117 L 1139.4219 852.49023 C 1139.4219 852.49023 1194.684 853.10565 1245.4238 843.73828 L 1245.3047 834.69922 z "
       transform="scale(0.26458333)" />
    <path
       style="fill:#000000;stroke:none;stroke-width:0.264583px;stroke-linecap:butt;stroke-linejoin:miter;stroke-opacity:1"
       d="m 329.48677,220.84731 c -13.4249,2.47845 -28.04624,2.31576 -28.04624,2.31576 v -3.30459 c 0,0 18.18563,0.21691 28.00454,-2.16344 z"
       id="path2351"
       sodipodi:nodetypes="ccccc" />
    <path
       style="fill:none;stroke:#000000;stroke-width:0.264583px;stroke-linecap:butt;stroke-linejoin:miter;stroke-opacity:1"
       d="m 306.9047,219.81916 14.26009,-12.14636 6.17842,10.471 c -5.8279,5.86899 -12.9244,4.898 -20.43851,1.67536 z"
       id="path2656"
       sodipodi:nodetypes="cccc" />
    <path
       style="fill:none;stroke:#000000;stroke-width:0.264583px;stroke-linecap:butt;stroke-linejoin:miter;stroke-opacity:1"
       d="m 306.9047,219.81916 10.6457,-12.45617 9.79281,10.78081 c -5.8279,5.86899 -12.9244,4.898 -20.43851,1.67536 z"
       id="path2829"
       sodipodi:nodetypes="cccc" />
    <path
       style="fill:none;stroke:#000000;stroke-width:0.264583px;stroke-linecap:butt;stroke-linejoin:miter;stroke-opacity:1"
       d="m 306.9047,219.81916 17.56468,-11.21694 2.87383,9.54158 c -5.8279,5.86899 -12.9244,4.898 -20.43851,1.67536 z"
       id="path3067"
       sodipodi:nodetypes="cccc" />
  </g>
</svg>
