<?xml version="1.0" encoding="UTF-8" standalone="no"?>
<!-- Created with Inkscape (http://www.inkscape.org/) -->

<svg
   width="1600"
   height="2160"
   viewBox="0 0 423.33332 571.50002"
   version="1.1"
   id="svg6666"
   inkscape:version="1.1.2 (b8e25be833, 2022-02-05)"
   sodipodi:docname="Suit.svg"
   inkscape:export-filename="E:\github\KINGFACE\Body\Suit.png"
   inkscape:export-xdpi="96"
   inkscape:export-ydpi="96"
   xmlns:inkscape="http://www.inkscape.org/namespaces/inkscape"
   xmlns:sodipodi="http://sodipodi.sourceforge.net/DTD/sodipodi-0.dtd"
   xmlns="http://www.w3.org/2000/svg"
   xmlns:svg="http://www.w3.org/2000/svg">
  <sodipodi:namedview
     id="namedview6668"
     pagecolor="#ffffff"
     bordercolor="#666666"
     borderopacity="1.0"
     inkscape:pageshadow="2"
     inkscape:pageopacity="0"
     inkscape:pagecheckerboard="false"
     inkscape:document-units="mm"
     showgrid="false"
     units="px"
     inkscape:zoom="0.5"
     inkscape:cx="667"
     inkscape:cy="808"
     inkscape:window-width="1920"
     inkscape:window-height="1009"
     inkscape:window-x="-8"
     inkscape:window-y="-8"
     inkscape:window-maximized="1"
     inkscape:current-layer="layer1"
     inkscape:snap-bbox="true"
     inkscape:object-paths="false"
     inkscape:snap-nodes="true"
     inkscape:snap-intersection-paths="false"
     showguides="false" />
  <defs
     id="defs6663" />
  <g
     inkscape:label="Layer 1"
     inkscape:groupmode="layer"
     id="layer1"
     style="opacity:1">
    <g
       id="g5322">
      <path
         id="path1712"
         style="display:inline;fill:#000000;fill-opacity:1;stroke:none;stroke-width:0.264583px;stroke-linecap:butt;stroke-linejoin:miter;stroke-opacity:1"
         d="m 196.76215,160.76796 c -29.37786,0.64459 -84.35036,14.76357 -127.840259,50.81034 v 73.92365 l 0.41187,83.40008 c 22.13197,18.14436 46.736229,31.75624 73.541239,41.33339 h 82.63888 c 29.37787,-0.6446 84.34984,-14.76306 127.83974,-50.80981 v -73.92366 l -0.41185,-83.40008 C 330.8098,183.9575 306.20604,170.3451 279.40105,160.76796 Z" />
      <g
         id="g5300">
        <path
           id="path927"
           style="fill:#1f1f1f;fill-opacity:1;stroke:none;stroke-width:0.264583px;stroke-linecap:butt;stroke-linejoin:miter;stroke-opacity:1"
           d="m 218.0425,160.76796 c -0.62559,0.0455 -1.31506,0.13171 -1.9575,0.18759 -10.57374,9.08497 -10.775,11.3561 -14.24203,15.4652 7.03829,2.48913 9.23926,3.76607 14.73399,8.57054 l -18.2392,8.66252 c 20.30547,43.06756 44.19925,88.03782 78.86392,115.66633 -21.73906,-47.93285 -40.80566,-97.34128 -53.26238,-148.55218 h -5.89628 z" />
        <path
           style="fill:#550000;stroke:none;stroke-width:0.264583px;stroke-linecap:butt;stroke-linejoin:miter;stroke-opacity:1"
           d="m 321.49762,232.49262 10.6457,-12.45617 9.79281,10.78081 c -5.8279,5.86899 -12.9244,4.898 -20.43851,1.67536 z"
           id="path2829"
           sodipodi:nodetypes="cccc" />
        <path
           id="path6715"
           style="fill:#ffffff;stroke:none;stroke-width:0.264583px;stroke-linecap:butt;stroke-linejoin:miter;stroke-opacity:1"
           d="m 223.9393,160.76796 c 12.45543,51.20558 31.51941,100.60907 53.25566,148.53718 l 0.007,0.0108 c 2.56583,-49.72057 7.64871,-100.40203 0.91364,-148.54804 z" />
        <path
           style="fill:none;stroke:#000000;stroke-width:0.264583px;stroke-linecap:butt;stroke-linejoin:miter;stroke-opacity:1"
           d="m 260.21483,181.897 c 11.82922,40.45125 15.12788,77.63977 17.76235,113.44044"
           id="path12597"
           sodipodi:nodetypes="cc" />
        <path
           id="path12931"
           style="opacity:0.270325;fill:#cccccc;stroke:none;stroke-width:0.578705;stroke-linecap:square;stroke-miterlimit:4;stroke-dasharray:none"
           d="m 262.00127,198.83859 a 0.90349117,0.90349117 0 0 0 -0.71284,1.06021 0.90349117,0.90349117 0 0 0 1.0602,0.71284 0.90349117,0.90349117 0 0 0 0.71285,-1.0602 0.90349117,0.90349117 0 0 0 -1.06021,-0.71285 z m -0.19301,0.51983 a 0.1411705,0.1411705 0 0 1 0.16548,0.11126 0.1411705,0.1411705 0 0 1 -0.11121,0.16577 0.1411705,0.1411705 0 0 1 -0.16553,-0.11155 0.1411705,0.1411705 0 0 1 0.11126,-0.16548 z m 0.56791,-0.11126 a 0.1411705,0.1411705 0 0 1 0.16548,0.11126 0.1411705,0.1411705 0 0 1 -0.11121,0.16577 0.1411705,0.1411705 0 0 1 -0.16553,-0.11155 0.1411705,0.1411705 0 0 1 0.11126,-0.16548 z m -0.45666,0.67917 a 0.1411705,0.1411705 0 0 1 0.16549,0.11126 0.1411705,0.1411705 0 0 1 -0.11127,0.16548 0.1411705,0.1411705 0 0 1 -0.16547,-0.11126 0.1411705,0.1411705 0 0 1 0.11125,-0.16548 z m 0.56792,-0.11126 a 0.1411705,0.1411705 0 0 1 0.16548,0.11126 0.1411705,0.1411705 0 0 1 -0.11126,0.16548 0.1411705,0.1411705 0 0 1 -0.16549,-0.11126 0.1411705,0.1411705 0 0 1 0.11127,-0.16548 z" />
        <path
           id="path12935"
           style="opacity:0.270325;fill:#cccccc;stroke:none;stroke-width:0.578705;stroke-linecap:square;stroke-miterlimit:4;stroke-dasharray:none"
           d="m 266.27627,217.65568 a 0.90349117,0.90349117 0 0 0 -0.71284,1.06021 0.90349117,0.90349117 0 0 0 1.0602,0.71284 0.90349117,0.90349117 0 0 0 0.71285,-1.0602 0.90349117,0.90349117 0 0 0 -1.06021,-0.71285 z m -0.19301,0.51983 a 0.1411705,0.1411705 0 0 1 0.16548,0.11126 0.1411705,0.1411705 0 0 1 -0.11121,0.16577 0.1411705,0.1411705 0 0 1 -0.16553,-0.11155 0.1411705,0.1411705 0 0 1 0.11126,-0.16548 z m 0.56791,-0.11126 a 0.1411705,0.1411705 0 0 1 0.16548,0.11126 0.1411705,0.1411705 0 0 1 -0.11121,0.16577 0.1411705,0.1411705 0 0 1 -0.16553,-0.11155 0.1411705,0.1411705 0 0 1 0.11126,-0.16548 z m -0.45666,0.67917 a 0.1411705,0.1411705 0 0 1 0.16549,0.11126 0.1411705,0.1411705 0 0 1 -0.11127,0.16548 0.1411705,0.1411705 0 0 1 -0.16547,-0.11126 0.1411705,0.1411705 0 0 1 0.11125,-0.16548 z m 0.56792,-0.11126 a 0.1411705,0.1411705 0 0 1 0.16548,0.11126 0.1411705,0.1411705 0 0 1 -0.11126,0.16548 0.1411705,0.1411705 0 0 1 -0.16549,-0.11126 0.1411705,0.1411705 0 0 1 0.11127,-0.16548 z" />
        <path
           id="path12937"
           style="opacity:0.270325;fill:#cccccc;stroke:none;stroke-width:0.578705;stroke-linecap:square;stroke-miterlimit:4;stroke-dasharray:none"
           d="m 269.22524,235.82003 a 0.90349117,0.90349117 0 0 0 -0.71284,1.06021 0.90349117,0.90349117 0 0 0 1.0602,0.71284 0.90349117,0.90349117 0 0 0 0.71285,-1.0602 0.90349117,0.90349117 0 0 0 -1.06021,-0.71285 z m -0.19301,0.51983 a 0.1411705,0.1411705 0 0 1 0.16548,0.11126 0.1411705,0.1411705 0 0 1 -0.11121,0.16577 0.1411705,0.1411705 0 0 1 -0.16553,-0.11155 0.1411705,0.1411705 0 0 1 0.11126,-0.16548 z m 0.56791,-0.11126 a 0.1411705,0.1411705 0 0 1 0.16548,0.11126 0.1411705,0.1411705 0 0 1 -0.11121,0.16577 0.1411705,0.1411705 0 0 1 -0.16553,-0.11155 0.1411705,0.1411705 0 0 1 0.11126,-0.16548 z m -0.45666,0.67917 a 0.1411705,0.1411705 0 0 1 0.16549,0.11126 0.1411705,0.1411705 0 0 1 -0.11127,0.16548 0.1411705,0.1411705 0 0 1 -0.16547,-0.11126 0.1411705,0.1411705 0 0 1 0.11125,-0.16548 z m 0.56792,-0.11126 a 0.1411705,0.1411705 0 0 1 0.16548,0.11126 0.1411705,0.1411705 0 0 1 -0.11126,0.16548 0.1411705,0.1411705 0 0 1 -0.16549,-0.11126 0.1411705,0.1411705 0 0 1 0.11127,-0.16548 z" />
        <path
           id="path12941"
           style="opacity:0.270325;fill:#cccccc;stroke:none;stroke-width:0.578705;stroke-linecap:square;stroke-miterlimit:4;stroke-dasharray:none"
           d="m 272.19622,254.97805 a 0.90349117,0.90349117 0 0 0 -0.71284,1.06021 0.90349117,0.90349117 0 0 0 1.0602,0.71284 0.90349117,0.90349117 0 0 0 0.71285,-1.0602 0.90349117,0.90349117 0 0 0 -1.06021,-0.71285 z m -0.19301,0.51983 a 0.1411705,0.1411705 0 0 1 0.16548,0.11126 0.1411705,0.1411705 0 0 1 -0.11121,0.16577 0.1411705,0.1411705 0 0 1 -0.16553,-0.11155 0.1411705,0.1411705 0 0 1 0.11126,-0.16548 z m 0.56791,-0.11126 a 0.1411705,0.1411705 0 0 1 0.16548,0.11126 0.1411705,0.1411705 0 0 1 -0.11121,0.16577 0.1411705,0.1411705 0 0 1 -0.16553,-0.11155 0.1411705,0.1411705 0 0 1 0.11126,-0.16548 z m -0.45666,0.67917 a 0.1411705,0.1411705 0 0 1 0.16549,0.11126 0.1411705,0.1411705 0 0 1 -0.11127,0.16548 0.1411705,0.1411705 0 0 1 -0.16547,-0.11126 0.1411705,0.1411705 0 0 1 0.11125,-0.16548 z m 0.56792,-0.11126 a 0.1411705,0.1411705 0 0 1 0.16548,0.11126 0.1411705,0.1411705 0 0 1 -0.11126,0.16548 0.1411705,0.1411705 0 0 1 -0.16549,-0.11126 0.1411705,0.1411705 0 0 1 0.11127,-0.16548 z" />
        <path
           id="path12943"
           style="opacity:0.270325;fill:#cccccc;stroke:none;stroke-width:0.578705;stroke-linecap:square;stroke-miterlimit:4;stroke-dasharray:none"
           d="m 274.06239,275.48948 a 0.90349117,0.90349117 0 0 0 -0.71284,1.06021 0.90349117,0.90349117 0 0 0 1.0602,0.71284 0.90349117,0.90349117 0 0 0 0.71285,-1.0602 0.90349117,0.90349117 0 0 0 -1.06021,-0.71285 z m -0.19301,0.51983 a 0.1411705,0.1411705 0 0 1 0.16548,0.11126 0.1411705,0.1411705 0 0 1 -0.11121,0.16577 0.1411705,0.1411705 0 0 1 -0.16553,-0.11155 0.1411705,0.1411705 0 0 1 0.11126,-0.16548 z m 0.56791,-0.11126 a 0.1411705,0.1411705 0 0 1 0.16548,0.11126 0.1411705,0.1411705 0 0 1 -0.11121,0.16577 0.1411705,0.1411705 0 0 1 -0.16553,-0.11155 0.1411705,0.1411705 0 0 1 0.11126,-0.16548 z m -0.45666,0.67917 a 0.1411705,0.1411705 0 0 1 0.16549,0.11126 0.1411705,0.1411705 0 0 1 -0.11127,0.16548 0.1411705,0.1411705 0 0 1 -0.16547,-0.11126 0.1411705,0.1411705 0 0 1 0.11125,-0.16548 z m 0.56792,-0.11126 a 0.1411705,0.1411705 0 0 1 0.16548,0.11126 0.1411705,0.1411705 0 0 1 -0.11126,0.16548 0.1411705,0.1411705 0 0 1 -0.16549,-0.11126 0.1411705,0.1411705 0 0 1 0.11127,-0.16548 z" />
        <path
           id="path868"
           style="fill:#000000;stroke:none;stroke-width:0.264583px;stroke-linecap:butt;stroke-linejoin:miter;stroke-opacity:1"
           d="m 239.60718,175.27083 c -0.32691,0.0157 -0.54511,0.082 -0.62891,0.20882 -0.89383,1.35272 -0.0363,14.33648 2.11016,14.71216 1.58835,0.278 9.19116,-3.46415 13.04267,-5.43143 0.39201,0.51713 1.0276,0.83222 1.72627,0.78607 l 2.74836,-0.18155 c 0.6989,-0.0462 1.28784,-0.44236 1.60835,-1.00686 4.07678,1.44355 12.10583,4.15364 13.64382,3.66912 2.07837,-0.65475 1.2206,-13.6385 0.1566,-14.86189 -0.81296,-0.93474 -9.93643,3.29452 -14.20476,5.34609 -0.39342,-0.50195 -1.01985,-0.8058 -1.70696,-0.76041 l -2.74836,0.18155 c -0.68713,0.0454 -1.26814,0.42898 -1.59211,0.97833 -3.94898,-1.29168 -11.8178,-3.75216 -14.15513,-3.64 z" />
        <path
           style="fill:#800000;stroke:none;stroke-width:0.264583px;stroke-linecap:butt;stroke-linejoin:miter;stroke-opacity:1"
           d="m 321.49762,232.49262 14.26009,-12.14636 6.17842,10.471 c -5.8279,5.86899 -12.9244,4.898 -20.43851,1.67536 z"
           id="path2656"
           sodipodi:nodetypes="cccc" />
        <path
           style="fill:#aa0000;stroke:none;stroke-width:0.264583px;stroke-linecap:butt;stroke-linejoin:miter;stroke-opacity:1"
           d="m 321.49762,232.49262 17.56468,-11.21694 2.87383,9.54158 c -5.8279,5.86899 -12.9244,4.898 -20.43851,1.67536 z"
           id="path3067"
           sodipodi:nodetypes="cccc" />
        <path
           id="path1181"
           style="color:#000000;fill:#1f1f1f;fill-opacity:1;stroke-width:1;-inkscape-stroke:none"
           d="m 278.11531,160.76796 c 6.73526,48.14734 1.65214,98.83032 -0.91363,148.55218 0.004,0.003 -0.0317,-0.009 0.004,0.003 13.29039,-39.44556 23.33443,-82.44423 29.69123,-121.11715 l 0.0217,-0.12299 -16.12304,-3.67213 c 4.43727,-6.13795 7.09247,-6.88499 11.29286,-9.04079 l 0.13073,-0.0667 -0.0801,-0.12299 c -4.35758,-5.03795 -9.77386,-8.95887 -15.21044,-11.57811 -2.37877,-0.93247 -4.77086,-1.84084 -7.18561,-2.70732 -0.16544,-0.0445 -0.32898,-0.0844 -0.49353,-0.1261 z" />
        <path
           style="fill:#333333;stroke:none;stroke-width:0.264583px;stroke-linecap:butt;stroke-linejoin:miter;stroke-opacity:1"
           d="m 344.07969,233.52077 c -13.4249,2.47845 -28.04624,2.31576 -28.04624,2.31576 v -3.30459 c 0,0 18.18563,0.21691 28.00454,-2.16344 z"
           id="path2351"
           sodipodi:nodetypes="ccccc" />
        <path
           id="path1837"
           style="fill:#1a1a1a;stroke:none;stroke-width:0.264583px;stroke-linecap:butt;stroke-linejoin:miter;stroke-opacity:1"
           d="m 344.07978,233.52096 c -13.3441,2.46353 -27.84046,2.31747 -28.01482,2.31562 v 2.39158 c 0,0 14.62143,0.16283 28.04634,-2.31562 z" />
        <path
           id="path9783"
           style="color:#000000;fill:#000000;stroke-width:1;stroke-linecap:square;-inkscape-stroke:none"
           d="m 224.11086,160.76796 c 8.69572,4.68503 17.65859,11.19689 26.04596,13.32374 4.24244,1.07578 8.34605,1.02339 12.17393,-0.97255 3.7842,-1.97315 7.28874,-5.83862 10.41125,-12.35119 h -0.29507 c -3.09242,6.40948 -6.54127,10.18949 -10.2371,12.11658 -3.76091,1.96101 -7.78719,2.01463 -11.98841,0.94929 -8.16905,-2.07147 -16.97021,-8.38922 -25.55348,-13.06587 z" />
        <path
           id="path9785"
           style="color:#000000;fill:#000000;stroke-width:1;stroke-linecap:square;-inkscape-stroke:none"
           d="m 277.9386,160.76796 c -0.33457,14.0949 -7.7546,23.03682 -12.6256,29.64625 l -9.15551,-15.76957 -0.20412,-0.0496 -4.73977,17.61184 c -3.06567,-0.79716 -7.76647,-3.63937 -12.38064,-7.3024 -4.60429,-3.65518 -9.10876,-8.09911 -11.80858,-12.04681 0.0663,0.25055 0.13494,0.5004 0.20154,0.75086 2.75506,3.82668 7.0518,8.0185 11.44065,11.50266 4.68019,3.71544 9.45248,6.62387 12.60388,7.40627 l 0.12661,0.0315 4.70152,-17.47697 9.1891,15.82436 0.11938,-0.16382 c 4.79361,-6.52209 12.25309,-15.42511 12.77802,-29.38735 -0.0265,-0.19191 -0.049,-0.38465 -0.0723,-0.57723 z" />
        <path
           id="path5197"
           style="opacity:1;fill:#1a1a1a;fill-opacity:1;stroke-width:3.99999;stroke-linecap:square"
           d="M 415.875 698.86133 C 362.69825 725.6366 309.65379 758.91823 260.49219 799.66602 L 260.49219 1079.0625 L 261.21875 1226.1055 A 381.99999 381.99999 0 0 0 466 888 A 381.99999 381.99999 0 0 0 415.875 698.86133 z "
           transform="scale(0.26458333)" />
      </g>
    </g>
    <g
       id="g5362"
       transform="rotate(180,211.13776,285.50166)">
      <path
         id="path5326"
         style="fill:#1f1f1f;fill-opacity:1;stroke:none;stroke-width:0.264583px;stroke-linecap:butt;stroke-linejoin:miter;stroke-opacity:1"
         d="m 218.0425,160.76796 c -0.62559,0.0455 -1.31506,0.13171 -1.9575,0.18759 -10.57374,9.08497 -10.775,11.3561 -14.24203,15.4652 7.03829,2.48913 9.23926,3.76607 14.73399,8.57054 l -18.2392,8.66252 c 20.30547,43.06756 44.19925,88.03782 78.86392,115.66633 -21.73906,-47.93285 -40.80566,-97.34128 -53.26238,-148.55218 h -5.89628 z" />
      <path
         style="fill:#550000;stroke:none;stroke-width:0.264583px;stroke-linecap:butt;stroke-linejoin:miter;stroke-opacity:1"
         d="m 321.49762,232.49262 10.6457,-12.45617 9.79281,10.78081 c -5.8279,5.86899 -12.9244,4.898 -20.43851,1.67536 z"
         id="path5328"
         sodipodi:nodetypes="cccc" />
      <path
         id="path5330"
         style="fill:#ffffff;stroke:none;stroke-width:0.264583px;stroke-linecap:butt;stroke-linejoin:miter;stroke-opacity:1"
         d="m 223.9393,160.76796 c 12.45543,51.20558 31.51941,100.60907 53.25566,148.53718 l 0.007,0.0108 c 2.56583,-49.72057 7.64871,-100.40203 0.91364,-148.54804 z" />
      <path
         style="fill:none;stroke:#000000;stroke-width:0.264583px;stroke-linecap:butt;stroke-linejoin:miter;stroke-opacity:1"
         d="m 260.21483,181.897 c 11.82922,40.45125 15.12788,77.63977 17.76235,113.44044"
         id="path5332"
         sodipodi:nodetypes="cc" />
      <path
         id="path5334"
         style="opacity:0.270325;fill:#cccccc;stroke:none;stroke-width:0.578705;stroke-linecap:square;stroke-miterlimit:4;stroke-dasharray:none"
         d="m 262.00127,198.83859 a 0.90349117,0.90349117 0 0 0 -0.71284,1.06021 0.90349117,0.90349117 0 0 0 1.0602,0.71284 0.90349117,0.90349117 0 0 0 0.71285,-1.0602 0.90349117,0.90349117 0 0 0 -1.06021,-0.71285 z m -0.19301,0.51983 a 0.1411705,0.1411705 0 0 1 0.16548,0.11126 0.1411705,0.1411705 0 0 1 -0.11121,0.16577 0.1411705,0.1411705 0 0 1 -0.16553,-0.11155 0.1411705,0.1411705 0 0 1 0.11126,-0.16548 z m 0.56791,-0.11126 a 0.1411705,0.1411705 0 0 1 0.16548,0.11126 0.1411705,0.1411705 0 0 1 -0.11121,0.16577 0.1411705,0.1411705 0 0 1 -0.16553,-0.11155 0.1411705,0.1411705 0 0 1 0.11126,-0.16548 z m -0.45666,0.67917 a 0.1411705,0.1411705 0 0 1 0.16549,0.11126 0.1411705,0.1411705 0 0 1 -0.11127,0.16548 0.1411705,0.1411705 0 0 1 -0.16547,-0.11126 0.1411705,0.1411705 0 0 1 0.11125,-0.16548 z m 0.56792,-0.11126 a 0.1411705,0.1411705 0 0 1 0.16548,0.11126 0.1411705,0.1411705 0 0 1 -0.11126,0.16548 0.1411705,0.1411705 0 0 1 -0.16549,-0.11126 0.1411705,0.1411705 0 0 1 0.11127,-0.16548 z" />
      <path
         id="path5336"
         style="opacity:0.270325;fill:#cccccc;stroke:none;stroke-width:0.578705;stroke-linecap:square;stroke-miterlimit:4;stroke-dasharray:none"
         d="m 266.27627,217.65568 a 0.90349117,0.90349117 0 0 0 -0.71284,1.06021 0.90349117,0.90349117 0 0 0 1.0602,0.71284 0.90349117,0.90349117 0 0 0 0.71285,-1.0602 0.90349117,0.90349117 0 0 0 -1.06021,-0.71285 z m -0.19301,0.51983 a 0.1411705,0.1411705 0 0 1 0.16548,0.11126 0.1411705,0.1411705 0 0 1 -0.11121,0.16577 0.1411705,0.1411705 0 0 1 -0.16553,-0.11155 0.1411705,0.1411705 0 0 1 0.11126,-0.16548 z m 0.56791,-0.11126 a 0.1411705,0.1411705 0 0 1 0.16548,0.11126 0.1411705,0.1411705 0 0 1 -0.11121,0.16577 0.1411705,0.1411705 0 0 1 -0.16553,-0.11155 0.1411705,0.1411705 0 0 1 0.11126,-0.16548 z m -0.45666,0.67917 a 0.1411705,0.1411705 0 0 1 0.16549,0.11126 0.1411705,0.1411705 0 0 1 -0.11127,0.16548 0.1411705,0.1411705 0 0 1 -0.16547,-0.11126 0.1411705,0.1411705 0 0 1 0.11125,-0.16548 z m 0.56792,-0.11126 a 0.1411705,0.1411705 0 0 1 0.16548,0.11126 0.1411705,0.1411705 0 0 1 -0.11126,0.16548 0.1411705,0.1411705 0 0 1 -0.16549,-0.11126 0.1411705,0.1411705 0 0 1 0.11127,-0.16548 z" />
      <path
         id="path5338"
         style="opacity:0.270325;fill:#cccccc;stroke:none;stroke-width:0.578705;stroke-linecap:square;stroke-miterlimit:4;stroke-dasharray:none"
         d="m 269.22524,235.82003 a 0.90349117,0.90349117 0 0 0 -0.71284,1.06021 0.90349117,0.90349117 0 0 0 1.0602,0.71284 0.90349117,0.90349117 0 0 0 0.71285,-1.0602 0.90349117,0.90349117 0 0 0 -1.06021,-0.71285 z m -0.19301,0.51983 a 0.1411705,0.1411705 0 0 1 0.16548,0.11126 0.1411705,0.1411705 0 0 1 -0.11121,0.16577 0.1411705,0.1411705 0 0 1 -0.16553,-0.11155 0.1411705,0.1411705 0 0 1 0.11126,-0.16548 z m 0.56791,-0.11126 a 0.1411705,0.1411705 0 0 1 0.16548,0.11126 0.1411705,0.1411705 0 0 1 -0.11121,0.16577 0.1411705,0.1411705 0 0 1 -0.16553,-0.11155 0.1411705,0.1411705 0 0 1 0.11126,-0.16548 z m -0.45666,0.67917 a 0.1411705,0.1411705 0 0 1 0.16549,0.11126 0.1411705,0.1411705 0 0 1 -0.11127,0.16548 0.1411705,0.1411705 0 0 1 -0.16547,-0.11126 0.1411705,0.1411705 0 0 1 0.11125,-0.16548 z m 0.56792,-0.11126 a 0.1411705,0.1411705 0 0 1 0.16548,0.11126 0.1411705,0.1411705 0 0 1 -0.11126,0.16548 0.1411705,0.1411705 0 0 1 -0.16549,-0.11126 0.1411705,0.1411705 0 0 1 0.11127,-0.16548 z" />
      <path
         id="path5340"
         style="opacity:0.270325;fill:#cccccc;stroke:none;stroke-width:0.578705;stroke-linecap:square;stroke-miterlimit:4;stroke-dasharray:none"
         d="m 272.19622,254.97805 a 0.90349117,0.90349117 0 0 0 -0.71284,1.06021 0.90349117,0.90349117 0 0 0 1.0602,0.71284 0.90349117,0.90349117 0 0 0 0.71285,-1.0602 0.90349117,0.90349117 0 0 0 -1.06021,-0.71285 z m -0.19301,0.51983 a 0.1411705,0.1411705 0 0 1 0.16548,0.11126 0.1411705,0.1411705 0 0 1 -0.11121,0.16577 0.1411705,0.1411705 0 0 1 -0.16553,-0.11155 0.1411705,0.1411705 0 0 1 0.11126,-0.16548 z m 0.56791,-0.11126 a 0.1411705,0.1411705 0 0 1 0.16548,0.11126 0.1411705,0.1411705 0 0 1 -0.11121,0.16577 0.1411705,0.1411705 0 0 1 -0.16553,-0.11155 0.1411705,0.1411705 0 0 1 0.11126,-0.16548 z m -0.45666,0.67917 a 0.1411705,0.1411705 0 0 1 0.16549,0.11126 0.1411705,0.1411705 0 0 1 -0.11127,0.16548 0.1411705,0.1411705 0 0 1 -0.16547,-0.11126 0.1411705,0.1411705 0 0 1 0.11125,-0.16548 z m 0.56792,-0.11126 a 0.1411705,0.1411705 0 0 1 0.16548,0.11126 0.1411705,0.1411705 0 0 1 -0.11126,0.16548 0.1411705,0.1411705 0 0 1 -0.16549,-0.11126 0.1411705,0.1411705 0 0 1 0.11127,-0.16548 z" />
      <path
         id="path5342"
         style="opacity:0.270325;fill:#cccccc;stroke:none;stroke-width:0.578705;stroke-linecap:square;stroke-miterlimit:4;stroke-dasharray:none"
         d="m 274.06239,275.48948 a 0.90349117,0.90349117 0 0 0 -0.71284,1.06021 0.90349117,0.90349117 0 0 0 1.0602,0.71284 0.90349117,0.90349117 0 0 0 0.71285,-1.0602 0.90349117,0.90349117 0 0 0 -1.06021,-0.71285 z m -0.19301,0.51983 a 0.1411705,0.1411705 0 0 1 0.16548,0.11126 0.1411705,0.1411705 0 0 1 -0.11121,0.16577 0.1411705,0.1411705 0 0 1 -0.16553,-0.11155 0.1411705,0.1411705 0 0 1 0.11126,-0.16548 z m 0.56791,-0.11126 a 0.1411705,0.1411705 0 0 1 0.16548,0.11126 0.1411705,0.1411705 0 0 1 -0.11121,0.16577 0.1411705,0.1411705 0 0 1 -0.16553,-0.11155 0.1411705,0.1411705 0 0 1 0.11126,-0.16548 z m -0.45666,0.67917 a 0.1411705,0.1411705 0 0 1 0.16549,0.11126 0.1411705,0.1411705 0 0 1 -0.11127,0.16548 0.1411705,0.1411705 0 0 1 -0.16547,-0.11126 0.1411705,0.1411705 0 0 1 0.11125,-0.16548 z m 0.56792,-0.11126 a 0.1411705,0.1411705 0 0 1 0.16548,0.11126 0.1411705,0.1411705 0 0 1 -0.11126,0.16548 0.1411705,0.1411705 0 0 1 -0.16549,-0.11126 0.1411705,0.1411705 0 0 1 0.11127,-0.16548 z" />
      <path
         id="path5344"
         style="fill:#000000;stroke:none;stroke-width:0.264583px;stroke-linecap:butt;stroke-linejoin:miter;stroke-opacity:1"
         d="m 239.60718,175.27083 c -0.32691,0.0157 -0.54511,0.082 -0.62891,0.20882 -0.89383,1.35272 -0.0363,14.33648 2.11016,14.71216 1.58835,0.278 9.19116,-3.46415 13.04267,-5.43143 0.39201,0.51713 1.0276,0.83222 1.72627,0.78607 l 2.74836,-0.18155 c 0.6989,-0.0462 1.28784,-0.44236 1.60835,-1.00686 4.07678,1.44355 12.10583,4.15364 13.64382,3.66912 2.07837,-0.65475 1.2206,-13.6385 0.1566,-14.86189 -0.81296,-0.93474 -9.93643,3.29452 -14.20476,5.34609 -0.39342,-0.50195 -1.01985,-0.8058 -1.70696,-0.76041 l -2.74836,0.18155 c -0.68713,0.0454 -1.26814,0.42898 -1.59211,0.97833 -3.94898,-1.29168 -11.8178,-3.75216 -14.15513,-3.64 z" />
      <path
         style="fill:#800000;stroke:none;stroke-width:0.264583px;stroke-linecap:butt;stroke-linejoin:miter;stroke-opacity:1"
         d="m 321.49762,232.49262 14.26009,-12.14636 6.17842,10.471 c -5.8279,5.86899 -12.9244,4.898 -20.43851,1.67536 z"
         id="path5346"
         sodipodi:nodetypes="cccc" />
      <path
         style="fill:#aa0000;stroke:none;stroke-width:0.264583px;stroke-linecap:butt;stroke-linejoin:miter;stroke-opacity:1"
         d="m 321.49762,232.49262 17.56468,-11.21694 2.87383,9.54158 c -5.8279,5.86899 -12.9244,4.898 -20.43851,1.67536 z"
         id="path5348"
         sodipodi:nodetypes="cccc" />
      <path
         id="path5350"
         style="color:#000000;fill:#1f1f1f;fill-opacity:1;stroke-width:1;-inkscape-stroke:none"
         d="m 278.11531,160.76796 c 6.73526,48.14734 1.65214,98.83032 -0.91363,148.55218 0.004,0.003 -0.0317,-0.009 0.004,0.003 13.29039,-39.44556 23.33443,-82.44423 29.69123,-121.11715 l 0.0217,-0.12299 -16.12304,-3.67213 c 4.43727,-6.13795 7.09247,-6.88499 11.29286,-9.04079 l 0.13073,-0.0667 -0.0801,-0.12299 c -4.35758,-5.03795 -9.77386,-8.95887 -15.21044,-11.57811 -2.37877,-0.93247 -4.77086,-1.84084 -7.18561,-2.70732 -0.16544,-0.0445 -0.32898,-0.0844 -0.49353,-0.1261 z" />
      <path
         style="fill:#333333;stroke:none;stroke-width:0.264583px;stroke-linecap:butt;stroke-linejoin:miter;stroke-opacity:1"
         d="m 344.07969,233.52077 c -13.4249,2.47845 -28.04624,2.31576 -28.04624,2.31576 v -3.30459 c 0,0 18.18563,0.21691 28.00454,-2.16344 z"
         id="path5352"
         sodipodi:nodetypes="ccccc" />
      <path
         id="path5354"
         style="fill:#1a1a1a;stroke:none;stroke-width:0.264583px;stroke-linecap:butt;stroke-linejoin:miter;stroke-opacity:1"
         d="m 344.07978,233.52096 c -13.3441,2.46353 -27.84046,2.31747 -28.01482,2.31562 v 2.39158 c 0,0 14.62143,0.16283 28.04634,-2.31562 z" />
      <path
         id="path5356"
         style="color:#000000;fill:#000000;stroke-width:1;stroke-linecap:square;-inkscape-stroke:none"
         d="m 224.11086,160.76796 c 8.69572,4.68503 17.65859,11.19689 26.04596,13.32374 4.24244,1.07578 8.34605,1.02339 12.17393,-0.97255 3.7842,-1.97315 7.28874,-5.83862 10.41125,-12.35119 h -0.29507 c -3.09242,6.40948 -6.54127,10.18949 -10.2371,12.11658 -3.76091,1.96101 -7.78719,2.01463 -11.98841,0.94929 -8.16905,-2.07147 -16.97021,-8.38922 -25.55348,-13.06587 z" />
      <path
         id="path5358"
         style="color:#000000;fill:#000000;stroke-width:1;stroke-linecap:square;-inkscape-stroke:none"
         d="m 277.9386,160.76796 c -0.33457,14.0949 -7.7546,23.03682 -12.6256,29.64625 l -9.15551,-15.76957 -0.20412,-0.0496 -4.73977,17.61184 c -3.06567,-0.79716 -7.76647,-3.63937 -12.38064,-7.3024 -4.60429,-3.65518 -9.10876,-8.09911 -11.80858,-12.04681 0.0663,0.25055 0.13494,0.5004 0.20154,0.75086 2.75506,3.82668 7.0518,8.0185 11.44065,11.50266 4.68019,3.71544 9.45248,6.62387 12.60388,7.40627 l 0.12661,0.0315 4.70152,-17.47697 9.1891,15.82436 0.11938,-0.16382 c 4.79361,-6.52209 12.25309,-15.42511 12.77802,-29.38735 -0.0265,-0.19191 -0.049,-0.38465 -0.0723,-0.57723 z" />
      <path
         id="path5360"
         style="opacity:1;fill:#1a1a1a;fill-opacity:1;stroke-width:3.99999;stroke-linecap:square"
         d="m 415.875,698.86133 c -53.17675,26.77527 -106.22121,60.0569 -155.38281,100.80469 v 279.39648 l 0.72656,147.043 A 381.99999,381.99999 0 0 0 466,888 381.99999,381.99999 0 0 0 415.875,698.86133 Z"
         transform="scale(0.26458333)" />
    </g>
  </g>
</svg>
