<?xml version="1.0" encoding="UTF-8" standalone="no"?>
<!-- Created with Inkscape (http://www.inkscape.org/) -->

<svg
   width="1600"
   height="2160"
   viewBox="0 0 423.33332 571.50002"
   version="1.1"
   id="svg876"
   sodipodi:docname="Toga.svg"
   inkscape:version="1.1.2 (b8e25be833, 2022-02-05)"
   xmlns:inkscape="http://www.inkscape.org/namespaces/inkscape"
   xmlns:sodipodi="http://sodipodi.sourceforge.net/DTD/sodipodi-0.dtd"
   xmlns="http://www.w3.org/2000/svg"
   xmlns:svg="http://www.w3.org/2000/svg">
  <sodipodi:namedview
     id="namedview878"
     pagecolor="#ffffff"
     bordercolor="#666666"
     borderopacity="1.0"
     inkscape:pageshadow="2"
     inkscape:pageopacity="0.0"
     inkscape:pagecheckerboard="0"
     inkscape:document-units="mm"
     showgrid="false"
     units="px"
     inkscape:zoom="0.70710678"
     inkscape:cx="803.98041"
     inkscape:cy="1161.0693"
     inkscape:window-width="1920"
     inkscape:window-height="1009"
     inkscape:window-x="-8"
     inkscape:window-y="-8"
     inkscape:window-maximized="1"
     inkscape:current-layer="layer1"
     inkscape:object-paths="true"
     inkscape:snap-smooth-nodes="true"
     inkscape:snap-intersection-paths="false"
     inkscape:snap-nodes="true"
     inkscape:object-nodes="true"
     inkscape:snap-midpoints="false"
     inkscape:snap-global="true"
     showguides="true"
     inkscape:guide-bbox="true" />
  <defs
     id="defs873">
    <inkscape:path-effect
       effect="skeletal"
       id="path-effect65244"
       is_visible="true"
       lpeversion="1"
       pattern="m -228.09665,-338.88374 a 2.6458333,2.6458333 0 0 1 2.67171,-2.61964 2.6458333,2.6458333 0 0 1 2.61968,2.67163 2.6458333,2.6458333 0 0 1 -2.67155,2.61977 2.6458333,2.6458333 0 0 1 -2.61964,-2.67168 z"
       copytype="repeated_stretched"
       prop_scale="1"
       scale_y_rel="false"
       spacing="8"
       normal_offset="0"
       tang_offset="0"
       prop_units="false"
       vertical_pattern="false"
       hide_knot="false"
       fuse_tolerance="0" />
    <inkscape:path-effect
       effect="skeletal"
       id="path-effect65094"
       is_visible="true"
       lpeversion="1"
       pattern="m -416.88969,-58.906362 a 2.6458333,2.6458333 0 0 1 -0.14146,-3.739111 2.6458333,2.6458333 0 0 1 3.7391,-0.141453 2.6458333,2.6458333 0 0 1 0.14147,3.739103 2.6458333,2.6458333 0 0 1 -3.73909,0.141459 z"
       copytype="repeated_stretched"
       prop_scale="1"
       scale_y_rel="false"
       spacing="8"
       normal_offset="0"
       tang_offset="0"
       prop_units="false"
       vertical_pattern="false"
       hide_knot="false"
       fuse_tolerance="0" />
    <inkscape:path-effect
       effect="skeletal"
       id="path-effect57760"
       is_visible="true"
       lpeversion="1"
       pattern="m 204.25834,325.96667 a 2.6458333,2.6458333 0 0 1 -2.64584,2.64584 2.6458333,2.6458333 0 0 1 -2.64583,-2.64584 2.6458333,2.6458333 0 0 1 2.64583,-2.64583 2.6458333,2.6458333 0 0 1 2.64584,2.64583 z"
       copytype="repeated"
       prop_scale="1"
       scale_y_rel="false"
       spacing="4"
       normal_offset="0"
       tang_offset="0"
       prop_units="false"
       vertical_pattern="false"
       hide_knot="false"
       fuse_tolerance="0" />
    <inkscape:path-effect
       effect="skeletal"
       id="path-effect56645"
       is_visible="true"
       lpeversion="1"
       pattern="m 204.25834,325.96667 a 2.6458333,2.6458333 0 0 1 -2.64584,2.64584 2.6458333,2.6458333 0 0 1 -2.64583,-2.64584 2.6458333,2.6458333 0 0 1 2.64583,-2.64583 2.6458333,2.6458333 0 0 1 2.64584,2.64583 z"
       copytype="repeated"
       prop_scale="1"
       scale_y_rel="false"
       spacing="5"
       normal_offset="-0.1"
       tang_offset="0"
       prop_units="false"
       vertical_pattern="false"
       hide_knot="false"
       fuse_tolerance="0" />
    <inkscape:path-effect
       effect="skeletal"
       id="path-effect42293"
       is_visible="true"
       lpeversion="1"
       pattern="m 27.324925,36.179238 v 0.53152 h 13.48318 v -0.53152 z m 0.7203,1.45287 v 0.50447 9.43868 9.94213 h 12.04194 v -19.88528 z m 0.6111,1.00891 h 10.82038 v 4.61306 h -8.70177 v 1.34343 h 8.70177 v 11.91199 h -10.82038 v -4.60886 h 8.70177 v -1.34765 h -8.70177 v -2.97773 z m 0.43623,0.7244 v 4.55778 4.56195 h 8.84759 v 2.7422 2.74112 h -8.29648 -0.55111 v 1.81977 h 0.55111 9.39619 v -4.56089 -4.562 h -8.84507 v -2.74215 -2.74112 h 8.29394 0.55113 v -1.81666 h -0.55113 z m -1.76763,19.07435 v 0.53573 h 13.48318 v -0.53573 z"
       copytype="repeated_stretched"
       prop_scale="1"
       scale_y_rel="false"
       spacing="0"
       normal_offset="-4.1"
       tang_offset="0"
       prop_units="false"
       vertical_pattern="false"
       hide_knot="false"
       fuse_tolerance="0" />
    <inkscape:path-effect
       effect="skeletal"
       id="path-effect41193"
       is_visible="true"
       lpeversion="1"
       pattern="m 27.324925,36.179238 v 0.53152 h 13.48318 v -0.53152 z m 0.7203,1.45287 v 0.50447 9.43868 9.94213 h 12.04194 v -19.88528 z m 0.6111,1.00891 h 10.82038 v 4.61306 h -8.70177 v 1.34343 h 8.70177 v 11.91199 h -10.82038 v -4.60886 h 8.70177 v -1.34765 h -8.70177 v -2.97773 z m 0.43623,0.7244 v 4.55778 4.56195 h 8.84759 v 2.7422 2.74112 h -8.29648 -0.55111 v 1.81977 h 0.55111 9.39619 v -4.56089 -4.562 h -8.84507 v -2.74215 -2.74112 h 8.29394 0.55113 v -1.81666 h -0.55113 z m -1.76763,19.07435 v 0.53573 h 13.48318 v -0.53573 z"
       copytype="repeated_stretched"
       prop_scale="1"
       scale_y_rel="false"
       spacing="0"
       normal_offset="-4.1"
       tang_offset="0"
       prop_units="false"
       vertical_pattern="false"
       hide_knot="false"
       fuse_tolerance="0" />
    <inkscape:path-effect
       effect="skeletal"
       id="path-effect34402"
       is_visible="true"
       lpeversion="1"
       pattern="m 521.19922,658.75977 c 0,0 -3.59623,3.52077 -8.95117,10.20898 l -40.0293,10.94727 0.26563,0.96679 38.73046,-10.59765 c -5.18849,6.59969 -11.78807,15.90712 -18.36914,27.72461 l -38.30664,15.36132 0.36914,0.92969 37.18946,-14.91016 c -4.98754,9.10557 -9.91555,19.60022 -14.14454,31.42383 l -34.59765,22.86914 0.54687,0.83399 33.49414,-22.14453 c -3.58503,10.2726 -6.62001,21.51084 -8.71289,33.62695 l -31.24804,27.21289 0.6582,0.75391 30.31641,-26.40235 c -1.8765,11.38182 -2.90702,23.53186 -2.75977,36.38867 l -29.05664,29.06446 0.70898,0.70117 28.37891,-28.37891 c 0.19654,10.93558 1.24191,22.37263 3.35156,34.28321 l -24.21484,33.32226 0.80469,0.58399 23.66211,-32.55274 c 0.19275,1.05124 0.37647,2.09971 0.58593,3.15821 2.19436,11.09453 4.94502,21.40167 8.125,30.99804 l -19.20507,36.4043 0.88671,0.4668 18.75977,-35.5625 c 3.92459,11.61717 8.48421,22.17315 13.48438,31.75195 l -12.54102,39.25 0.95117,0.30273 12.24609,-38.31836 c 6.04381,11.39154 12.69664,21.39637 19.61329,30.17969 l -6.53125,40.46485 0.98828,0.16211 6.38476,-39.55469 c 6.10897,7.64795 12.40761,14.35682 18.6543,20.24219 1.81799,1.7128 3.62831,3.33762 5.43164,4.91406 l -1.76953,40.92776 0.99609,0.039 1.74219,-40.13864 c 9.66932,8.34263 18.99495,14.78169 27.07422,19.75196 l 5.32422,40.69338 0.99023,-0.127 -5.21679,-39.88474 c 0.0669,0.0404 0.13818,0.0865 0.20507,0.12695 10.10926,6.12986 18.1155,9.94164 22.02735,12.3125 l 0.52343,-0.84766 c -4.02107,-2.43707 -11.96891,-6.21855 -22.03515,-12.32226 -0.008,-0.004 -0.0157,-0.008 -0.0195,-0.0117 l 42.19336,-5.51563 -0.13086,-0.99023 -43.39844,5.67578 c -7.99461,-4.92174 -17.20338,-11.28486 -26.75391,-19.51172 l 42.63477,1.77344 c -0.5324,-0.32735 -1.05155,-0.66987 -1.58008,-1.00195 l -42.2832,-1.82422 c -1.74871,-1.53166 -3.5032,-3.10907 -5.26563,-4.76953 -6.23236,-5.87192 -12.51691,-12.56691 -18.61133,-20.20118 l 39.19727,6.32813 c -0.45416,-0.41249 -0.91536,-0.81784 -1.36523,-1.23438 l -38.75,-6.25976 c -6.81634,-8.67273 -13.37429,-18.5396 -19.33789,-29.76563 l 35.74609,11.42383 c -0.3471,-0.45589 -0.68246,-0.92004 -1.02539,-1.3789 l -35.39063,-11.30664 c -4.97612,-9.52479 -9.51473,-20.02367 -13.42382,-31.58204 l 32.60156,17.19532 c -0.271,-0.51571 -0.5364,-1.03454 -0.80274,-1.55274 l -32.26367,-17.01758 c -3.16864,-9.56167 -5.9098,-19.83666 -8.09765,-30.89843 -0.19881,-1.00593 -0.37266,-2.00062 -0.55664,-3 l 28.50195,20.71289 c -0.16831,-0.535 -0.34412,-1.06682 -0.50781,-1.60352 l -28.25977,-20.53516 c -2.10898,-11.88559 -3.1566,-23.2984 -3.35352,-34.20703 l 25.08204,25.07422 c -0.0753,-0.54309 -0.14809,-1.08668 -0.21875,-1.63086 l -24.89258,-24.89062 c -0.14325,-12.78376 0.8804,-24.86416 2.74609,-36.17969 l 20.93945,24.03906 c 0.0304,-0.46926 0.0677,-0.93746 0.10157,-1.40625 l -20.82032,-23.90039 c 2.09133,-12.20972 5.14798,-23.52312 8.75977,-33.85351 l 17.08008,25.83593 c 0.10716,-0.43725 0.22378,-0.87217 0.33398,-1.30859 l -16.99218,-25.70508 c 4.25816,-11.9534 9.23685,-22.54767 14.27148,-31.71484 l 11.95898,29.82617 c 0.18359,-0.43572 0.36983,-0.87029 0.55664,-1.30469 l -11.89257,-29.67187 c 6.5972,-11.84716 13.21277,-21.15814 18.39257,-27.73047 l 8.14454,29.77344 c 0.2404,-0.37595 0.48735,-0.74864 0.73046,-1.12305 l -8.10546,-29.62891 c 5.40298,-6.7624 9.04687,-10.33203 9.04687,-10.33203 z"
       copytype="repeated_stretched"
       prop_scale="1.43"
       scale_y_rel="false"
       spacing="2.5"
       normal_offset="1.7"
       tang_offset="2.3"
       prop_units="false"
       vertical_pattern="false"
       hide_knot="false"
       fuse_tolerance="0" />
  </defs>
  <g
     inkscape:label="Layer 1"
     inkscape:groupmode="layer"
     id="layer1">
    <path
       id="path5850"
       style="display:inline;fill:#fcf4e6;fill-opacity:1;stroke:none;stroke-width:0.264583px;stroke-linecap:butt;stroke-linejoin:miter;stroke-opacity:1"
       d="m 197.291,161.08232 c -29.37786,0.64459 -84.35036,14.76357 -127.840256,50.81034 v 73.92365 l 0.411863,83.40008 c 22.13197,18.14436 46.736233,31.75624 73.541243,41.33339 h 82.63888 c 29.37787,-0.6446 84.34984,-14.76306 127.83974,-50.80981 v -73.92366 l -0.41185,-83.40008 C 331.33865,184.27186 306.73489,170.65946 279.9299,161.08232 Z" />
    <path
       id="path3679"
       style="color:#000000;fill:#e2c499;fill-opacity:1;stroke-width:1;-inkscape-stroke:none"
       d="m 309.4142,173.76562 c -7.22456,40.06702 -48.22637,75.8836 -71.86126,110.97668 l 0.21859,0.14833 c 23.60222,-35.04459 64.65142,-70.86619 71.90206,-111.07799 z m 7.89821,4.20129 c -0.66488,9.81258 -6.58067,22.05344 -13.53302,33.35714 -6.95237,11.3037 -14.93628,21.67472 -19.72283,27.78332 l 0.20928,0.16226 c 4.78814,-6.1106 12.778,-16.48739 19.73988,-27.80657 6.9619,-11.31918 12.89923,-23.57541 13.57024,-33.47858 z m 18.83812,11.49026 c 0,0 -16.41287,19.7761 -23.31641,35.06245 l 0.2403,0.10904 c 6.87398,-15.2209 23.28127,-35.00148 23.28127,-35.00148 z m 14.62701,29.58682 c -38.26965,-0.10278 -60.58233,41.73337 -60.58233,41.73337 l 0.23254,0.12299 c 0,0 23.34903,-43.71671 63.11913,-41.51168 l 0.0135,-0.26355 c -0.93676,-0.0519 -1.86431,-0.0787 -2.78279,-0.0811 z m 0.81288,22.92935 c -43.28424,0.16615 -62.62926,42.7886 -62.62926,42.7886 l 0.2398,0.10903 c 0,0 19.89206,-43.8246 64.46117,-42.60721 l 0.008,-0.26561 c -0.69914,-0.0191 -1.39243,-0.0275 -2.07947,-0.0248 z m -75.16646,21.99142 -21.65037,32.72099 0.22066,0.14627 21.65035,-32.72049 z" />
    <g
       id="g34867"
       transform="rotate(180,211.66686,285.81605)">
      <path
         id="path34857"
         style="color:#000000;fill:#e2c499;fill-opacity:1;stroke-width:3.77953;-inkscape-stroke:none"
         d="M 1169.4395,656.75195 C 1142.1341,808.18636 987.16661,943.55612 897.83789,1076.1914 l 0.82617,0.5606 C 987.8693,944.29999 1143.0159,808.91129 1170.4199,656.92969 Z m 29.8515,15.87891 c -2.5129,37.08692 -24.8718,83.35157 -51.1484,126.07422 -26.2767,42.72264 -56.4521,81.92019 -74.543,105.00781 l 0.791,0.61328 c 18.0969,-23.09518 48.2948,-62.31455 74.6074,-105.0957 26.3127,-42.78115 48.753,-89.1039 51.2891,-126.5332 z m 71.1992,43.42773 c 0,0 -62.0329,74.74433 -88.125,132.51953 l 0.9082,0.41211 c 25.9804,-57.52783 87.9922,-132.28906 87.9922,-132.28906 z m 55.2832,111.82422 c -144.6412,-0.38845 -228.9726,157.73242 -228.9726,157.73242 l 0.8789,0.46485 c 0,0 88.2483,-165.2285 238.5605,-156.89453 l 0.051,-0.9961 c -3.5405,-0.1963 -7.0462,-0.29731 -10.5176,-0.30664 z m 3.0723,86.66211 c -163.594,0.62796 -236.709,161.72068 -236.709,161.72068 l 0.9063,0.4121 c 0,0 75.1826,-165.63628 243.6328,-161.03512 l 0.029,-1.00391 c -2.6424,-0.0722 -5.2627,-0.10372 -7.8594,-0.0937 z m -284.0937,83.11719 -81.82817,123.66989 0.83398,0.5528 81.82809,-123.668 z"
         transform="scale(0.26458333)" />
      <g
         id="g34865">
        <path
           id="path34859"
           style="color:#000000;fill:#b91c1c;fill-opacity:1;stroke-width:0.999999px;-inkscape-stroke:none"
           d="m 745.66602,608.81641 c -69.50839,1.52511 -176.92825,23.02078 -287.87696,72.29882 l -0.0351,0.13086 C 391.59518,710.58828 324.19915,749.776 262.79688,800.61523 L 262.49023,1080.25 c 95.90264,0 166.72329,78.9831 284.5625,7.459 8.88247,32.7856 42.537,58.8908 133.9668,52.2344 140.53297,-10.2313 411.84197,-473.01474 432.76757,-509.05473 -17.7965,-7.60671 -35.7888,-14.8549 -54.1387,-21.44726 -5.1205,-0.37879 -10.5733,-0.625 -16.5664,-0.625 -14.5291,0 -53.12293,21.33918 -102.59567,54.61328 -46.51598,-10.30457 -77.06836,-54.61328 -77.06836,-54.61328 z"
           transform="scale(0.26458333)" />
        <path
           id="path34861"
           style="color:#000000;fill:#a80000;fill-opacity:1;stroke-width:3.77953;-inkscape-stroke:none"
           d="m 638.26758,621.94727 -0.41406,0.90625 c 0,0 59.174,26.82838 87.99218,60.18554 l 0.75391,-0.65625 c -29.08668,-33.66795 -88.33203,-60.43554 -88.33203,-60.43554 z m 415.12892,50.88281 -78.81056,130.5039 0.85742,0.51758 L 1054.252,673.3457 Z M 559.34766,701.25 l -0.9961,0.11719 c 0,0 4.8304,42.27705 12.74024,91.93554 7.90987,49.6585 18.87718,106.6739 31.22656,136.30665 l 0.92187,-0.38477 C 590.98549,899.8189 579.98797,842.78041 572.08203,793.14648 564.17609,743.51256 559.34766,701.25 559.34766,701.25 Z m -241.76368,116.24219 -0.99609,0.10351 c 0,0 4.18202,40.78779 5.80859,87.55664 0.81329,23.38443 0.98973,48.26274 -0.3164,70.26954 -1.30615,22.00679 -4.11161,41.15652 -9.17578,53.00192 -2.58292,6.0416 -3.28249,10.9649 -2.4668,14.9551 0.81569,3.9902 3.16432,7.0095 6.51953,9.1895 6.71042,4.3599 17.4181,5.5079 28.73633,5.1894 22.63644,-0.637 47.76953,-7.2637 47.76953,-7.2637 l -0.25977,-0.9668 c 0,0 -25.07711,6.6023 -47.53906,7.2344 -11.23097,0.316 -21.79631,-0.8913 -28.16211,-5.0273 -3.18289,-2.068 -5.3213,-4.8334 -6.08203,-8.5547 -0.76072,-3.7214 -0.12508,-8.4365 2.40625,-14.3574 5.16433,-12.0797 7.94091,-31.27753 9.25,-53.33402 1.3091,-22.05649 1.1304,-46.96115 0.31641,-70.36523 -1.62795,-46.8082 -5.8086,-87.63086 -5.8086,-87.63086 z m 605.78711,43.45703 C 824.54877,992.79101 755.9477,1030.7912 712.20508,1035.916 c -21.87133,2.5624 -37.54735,-3.0695 -47.77539,-9.332 -10.22801,-6.2625 -14.97071,-13.125 -14.97071,-13.125 l -0.82617,0.5683 c 0,0 4.88266,7.0531 15.27149,13.4141 10.38886,6.361 26.32323,12.0593 48.41797,9.4707 44.18948,-5.1771 112.94552,-43.41957 211.8457,-175.36522 z m -508.33203,130.0918 -0.63476,0.77539 c 0,0 60.9691,50.28589 136.35937,35.86129 l -0.19336,-0.9824 c -74.87089,14.3252 -135.53125,-35.65428 -135.53125,-35.65428 z m 183.32227,44.84568 c 0,0 -5.64433,15.0366 0.34765,31.9551 5.99199,16.9185 23.64891,35.6468 69.78711,43.1035 l 0.15625,-0.9902 c -45.91831,-7.4212 -63.13621,-25.8887 -69,-42.4453 -5.86378,-16.5566 -0.35351,-31.2774 -0.35351,-31.2774 z"
           transform="scale(0.26458333)" />
        <path
           id="path34863"
           style="color:#000000;fill:#800000;fill-opacity:1;stroke-width:3.77953;-inkscape-stroke:none"
           d="m 862.80469,608.81445 0.20508,0.28711 c 20.98961,29.66508 47.00259,46.18716 75.98437,54.73047 0.35678,-0.24051 0.71856,-0.48534 1.07422,-0.72461 -29.02673,-8.39421 -55.01238,-24.71645 -76.0332,-54.29297 z m 175.98831,0 c -7.4036,1.38327 -18.1769,5.91776 -31.8008,13.10938 -16.50693,8.71347 -37.05728,21.27044 -60.25001,36.67383 -46.3855,30.80677 -103.32605,72.99709 -159.49414,118.56054 -56.16809,45.56342 -111.55857,94.50083 -154.8418,138.80078 -15.60093,15.96737 -29.55349,31.29028 -41.48047,45.67579 C 565.08464,863.43725 536.46157,767.2936 537.05469,650.48438 h -0.9961 c -0.59533,117.24149 28.19463,213.66874 54.07618,312.07812 -20.75492,25.14931 -35.05148,47.3057 -39.94727,64.4863 -5.34465,18.7558 -8.91022,40.7348 -3.69336,60.418 -57.67298,35.6666 -104.86738,33.7965 -149.55469,22.9902 -44.76415,-10.8248 -86.98396,-30.6867 -134.44726,-30.709 v 1.0059 c 47.18426,0.023 89.32313,19.8133 134.21875,30.6699 44.75176,10.8219 92.27131,12.6886 150.04883,-22.9492 1.79916,6.3895 4.52698,12.5305 8.46875,18.2188 16.24157,23.4378 52.63531,39.0784 125.82421,33.75 35.39384,-2.5768 78.72461,-33.5158 124.28125,-78.9356 45.55669,-45.4197 93.31229,-105.36869 137.32618,-166.12108 88.02774,-121.50486 161.09514,-246.22222 171.56254,-264.25 l 0.1328,-0.23047 c -18.4545,-7.89945 -37.2102,-15.24829 -56.2598,-22.05664 -0.1987,-0.0134 -0.4096,-0.0222 -0.6094,-0.0352 z m 4.291,0.50196 c 5.9474,0 11.3529,0.24432 16.4394,0.61914 18.1392,6.51794 35.9239,13.68652 53.5254,21.20117 -10.765,18.53439 -83.4462,142.53769 -171.20114,263.66601 -43.99563,60.72722 -91.72234,120.64027 -137.21485,165.99607 -45.49251,45.3559 -88.77388,76.1096 -123.64648,78.6485 -73.02376,5.3163 -108.96987,-10.2882 -124.93164,-33.3223 -15.96182,-23.0341 -12.05374,-53.7273 -4.90821,-78.8027 7.62278,-26.7505 38.72631,-66.40395 81.96875,-110.66214 43.24245,-44.2582 98.6159,-93.17337 154.76172,-138.71875 56.14587,-45.54539 113.06883,-87.7271 159.41797,-118.50977 23.17459,-15.39133 43.70486,-27.93283 60.16408,-36.62109 16.4591,-8.68827 28.9108,-13.49414 35.625,-13.49414 z"
           transform="scale(0.26458333)" />
      </g>
    </g>
    <g
       id="g34825">
      <path
         id="path8844"
         style="color:#000000;fill:#b91c1c;fill-opacity:1;stroke-width:0.999999px;-inkscape-stroke:none"
         d="m 745.66602,608.81641 c -69.50839,1.52511 -176.92825,23.02078 -287.87696,72.29882 l -0.0351,0.13086 C 391.59518,710.58828 324.19915,749.776 262.79688,800.61523 L 262.49023,1080.25 c 95.90264,0 166.72329,78.9831 284.5625,7.459 8.88247,32.7856 42.537,58.8908 133.9668,52.2344 140.53297,-10.2313 411.84197,-473.01474 432.76757,-509.05473 -17.7965,-7.60671 -35.7888,-14.8549 -54.1387,-21.44726 -5.1205,-0.37879 -10.5733,-0.625 -16.5664,-0.625 -14.5291,0 -53.12293,21.33918 -102.59567,54.61328 -46.51598,-10.30457 -77.06836,-54.61328 -77.06836,-54.61328 z"
         transform="scale(0.26458333)" />
      <path
         id="path3228"
         style="color:#000000;fill:#a80000;fill-opacity:1;stroke-width:3.77953;-inkscape-stroke:none"
         d="m 638.26758,621.94727 -0.41406,0.90625 c 0,0 59.174,26.82838 87.99218,60.18554 l 0.75391,-0.65625 c -29.08668,-33.66795 -88.33203,-60.43554 -88.33203,-60.43554 z m 415.12892,50.88281 -78.81056,130.5039 0.85742,0.51758 L 1054.252,673.3457 Z M 559.34766,701.25 l -0.9961,0.11719 c 0,0 4.8304,42.27705 12.74024,91.93554 7.90987,49.6585 18.87718,106.6739 31.22656,136.30665 l 0.92187,-0.38477 C 590.98549,899.8189 579.98797,842.78041 572.08203,793.14648 564.17609,743.51256 559.34766,701.25 559.34766,701.25 Z m -241.76368,116.24219 -0.99609,0.10351 c 0,0 4.18202,40.78779 5.80859,87.55664 0.81329,23.38443 0.98973,48.26274 -0.3164,70.26954 -1.30615,22.00679 -4.11161,41.15652 -9.17578,53.00192 -2.58292,6.0416 -3.28249,10.9649 -2.4668,14.9551 0.81569,3.9902 3.16432,7.0095 6.51953,9.1895 6.71042,4.3599 17.4181,5.5079 28.73633,5.1894 22.63644,-0.637 47.76953,-7.2637 47.76953,-7.2637 l -0.25977,-0.9668 c 0,0 -25.07711,6.6023 -47.53906,7.2344 -11.23097,0.316 -21.79631,-0.8913 -28.16211,-5.0273 -3.18289,-2.068 -5.3213,-4.8334 -6.08203,-8.5547 -0.76072,-3.7214 -0.12508,-8.4365 2.40625,-14.3574 5.16433,-12.0797 7.94091,-31.27753 9.25,-53.33402 1.3091,-22.05649 1.1304,-46.96115 0.31641,-70.36523 -1.62795,-46.8082 -5.8086,-87.63086 -5.8086,-87.63086 z m 605.78711,43.45703 C 824.54877,992.79101 755.9477,1030.7912 712.20508,1035.916 c -21.87133,2.5624 -37.54735,-3.0695 -47.77539,-9.332 -10.22801,-6.2625 -14.97071,-13.125 -14.97071,-13.125 l -0.82617,0.5683 c 0,0 4.88266,7.0531 15.27149,13.4141 10.38886,6.361 26.32323,12.0593 48.41797,9.4707 44.18948,-5.1771 112.94552,-43.41957 211.8457,-175.36522 z m -508.33203,130.0918 -0.63476,0.77539 c 0,0 60.9691,50.28589 136.35937,35.86129 l -0.19336,-0.9824 c -74.87089,14.3252 -135.53125,-35.65428 -135.53125,-35.65428 z m 183.32227,44.84568 c 0,0 -5.64433,15.0366 0.34765,31.9551 5.99199,16.9185 23.64891,35.6468 69.78711,43.1035 l 0.15625,-0.9902 c -45.91831,-7.4212 -63.13621,-25.8887 -69,-42.4453 -5.86378,-16.5566 -0.35351,-31.2774 -0.35351,-31.2774 z"
         transform="scale(0.26458333)" />
      <path
         id="path3310"
         style="color:#000000;fill:#800000;fill-opacity:1;stroke-width:3.77953;-inkscape-stroke:none"
         d="m 862.80469,608.81445 0.20508,0.28711 c 20.98961,29.66508 47.00259,46.18716 75.98437,54.73047 0.35678,-0.24051 0.71856,-0.48534 1.07422,-0.72461 -29.02673,-8.39421 -55.01238,-24.71645 -76.0332,-54.29297 z m 175.98831,0 c -7.4036,1.38327 -18.1769,5.91776 -31.8008,13.10938 -16.50693,8.71347 -37.05728,21.27044 -60.25001,36.67383 -46.3855,30.80677 -103.32605,72.99709 -159.49414,118.56054 -56.16809,45.56342 -111.55857,94.50083 -154.8418,138.80078 -15.60093,15.96737 -29.55349,31.29028 -41.48047,45.67579 C 565.08464,863.43725 536.46157,767.2936 537.05469,650.48438 h -0.9961 c -0.59533,117.24149 28.19463,213.66874 54.07618,312.07812 -20.75492,25.14931 -35.05148,47.3057 -39.94727,64.4863 -5.34465,18.7558 -8.91022,40.7348 -3.69336,60.418 -57.67298,35.6666 -104.86738,33.7965 -149.55469,22.9902 -44.76415,-10.8248 -86.98396,-30.6867 -134.44726,-30.709 v 1.0059 c 47.18426,0.023 89.32313,19.8133 134.21875,30.6699 44.75176,10.8219 92.27131,12.6886 150.04883,-22.9492 1.79916,6.3895 4.52698,12.5305 8.46875,18.2188 16.24157,23.4378 52.63531,39.0784 125.82421,33.75 35.39384,-2.5768 78.72461,-33.5158 124.28125,-78.9356 45.55669,-45.4197 93.31229,-105.36869 137.32618,-166.12108 88.02774,-121.50486 161.09514,-246.22222 171.56254,-264.25 l 0.1328,-0.23047 c -18.4545,-7.89945 -37.2102,-15.24829 -56.2598,-22.05664 -0.1987,-0.0134 -0.4096,-0.0222 -0.6094,-0.0352 z m 4.291,0.50196 c 5.9474,0 11.3529,0.24432 16.4394,0.61914 18.1392,6.51794 35.9239,13.68652 53.5254,21.20117 -10.765,18.53439 -83.4462,142.53769 -171.20114,263.66601 -43.99563,60.72722 -91.72234,120.64027 -137.21485,165.99607 -45.49251,45.3559 -88.77388,76.1096 -123.64648,78.6485 -73.02376,5.3163 -108.96987,-10.2882 -124.93164,-33.3223 -15.96182,-23.0341 -12.05374,-53.7273 -4.90821,-78.8027 7.62278,-26.7505 38.72631,-66.40395 81.96875,-110.66214 43.24245,-44.2582 98.6159,-93.17337 154.76172,-138.71875 56.14587,-45.54539 113.06883,-87.7271 159.41797,-118.50977 23.17459,-15.39133 43.70486,-27.93283 60.16408,-36.62109 16.4591,-8.68827 28.9108,-13.49414 35.625,-13.49414 z"
         transform="scale(0.26458333)" />
    </g>
  </g>
</svg>
