<?xml version="1.0" encoding="UTF-8" standalone="no"?>
<!-- Created with Inkscape (http://www.inkscape.org/) -->

<svg
   width="1600"
   height="2160"
   viewBox="0 0 423.33334 571.5"
   version="1.1"
   id="svg5"
   inkscape:version="1.1.2 (b8e25be833, 2022-02-05)"
   sodipodi:docname="aged white (10).svg"
   xmlns:inkscape="http://www.inkscape.org/namespaces/inkscape"
   xmlns:sodipodi="http://sodipodi.sourceforge.net/DTD/sodipodi-0.dtd"
   xmlns:xlink="http://www.w3.org/1999/xlink"
   xmlns="http://www.w3.org/2000/svg"
   xmlns:svg="http://www.w3.org/2000/svg">
  <sodipodi:namedview
     id="namedview7"
     pagecolor="#ffffff"
     bordercolor="#666666"
     borderopacity="1.0"
     inkscape:pageshadow="2"
     inkscape:pageopacity="0.0"
     inkscape:pagecheckerboard="0"
     inkscape:document-units="mm"
     showgrid="false"
     inkscape:zoom="0.22645918"
     inkscape:cx="752.89507"
     inkscape:cy="1916.4602"
     inkscape:window-width="1920"
     inkscape:window-height="1009"
     inkscape:window-x="-8"
     inkscape:window-y="-8"
     inkscape:window-maximized="1"
     inkscape:current-layer="layer1"
     inkscape:snap-nodes="true"
     units="px" />
  <defs
     id="defs2">
    <linearGradient
       inkscape:collect="always"
       id="linearGradient910">
      <stop
         style="stop-color:#f2d9a1;stop-opacity:1"
         offset="0"
         id="stop906" />
      <stop
         style="stop-color:#e1b56d;stop-opacity:1"
         offset="1"
         id="stop908" />
    </linearGradient>
    <radialGradient
       inkscape:collect="always"
       xlink:href="#linearGradient910"
       id="radialGradient37357"
       cx="147.29741"
       cy="267.16129"
       fx="147.29741"
       fy="267.16129"
       r="211.86917"
       gradientTransform="matrix(0.9996688,0,0,1.3493358,0.52030784,-92.787024)"
       gradientUnits="userSpaceOnUse" />
  </defs>
  <g
     inkscape:label="Layer 1"
     inkscape:groupmode="layer"
     id="layer1"
     transform="translate(64.439499,18.588318)">
    <g
       id="g38715"
       transform="translate(-0.54165204,-0.542007)">
      <path
         style="fill:url(#radialGradient37357);fill-opacity:1;stroke:none;stroke-width:0.264539px;stroke-linecap:butt;stroke-linejoin:miter;stroke-opacity:1"
         d="m -63.897847,-18.046312 h 90.846116 c 15.885694,0 31.231249,6.367481 47.074802,6.609178 17.721651,0.27035 35.132199,-5.783031 52.855909,-5.783031 h 94.97551 L 359.2953,-18.046312 V 153.79235 c 0,4.392 -4.34213,8.00223 -4.47514,12.39223 -0.14781,4.87754 4.12937,9.16471 4.12937,14.04449 0,33.48875 -2.06467,62.77905 -2.47764,94.18079 -0.24988,18.99976 3.72525,38.37181 0,57.00421 -2.10556,10.53134 -17.09806,20.09002 -12.38811,29.7413 7.86869,16.12391 11.42877,73.59854 14.03987,110.70376 1.90941,27.13383 1.17165,81.59454 1.17165,81.59454 H 246.63069 c -8.34012,0 -15.61044,-7.17782 -23.95033,-7.24129 -6.0123,-0.0458 -11.34902,4.49048 -17.34335,4.95689 -24.28507,1.88958 -66.57485,-0.27129 -81.56112,-2.04462 -6.41871,-0.75953 -5.4636,-8.053 -11.3115,-15.71029 -3.36795,-4.41001 5.23913,17.36785 1e-5,16.64898 -8.48703,-1.16451 -25.709158,3.02131 -38.199759,2.80618 -12.963806,-0.22331 -25.071597,-3.85938 -37.717766,-4.26663 -33.5032114,-1.07892 -101.87251,11.62565 -99.568751,-2.1593 6.076121,-36.35756 1.912479,-69.95035 0.583981,-105.03671 -0.968567,-25.58036 5.809455,-50.00384 4.963838,-75.06639 -0.443896,-13.15626 -6.969564,-25.91283 -4.525852,-38.84762 0.372171,-1.96994 1.961155,-3.55793 2.189927,-5.54965 0.16177,-1.40834 -0.962742,-2.68655 -1.167961,-4.08922 -4.566973,-31.21528 1.459952,-94.34417 1.459952,-94.34417 0,0 2.113518,-30.94639 2.043934,-46.44188 -0.115583,-25.73953 -6.612273,-50.86957 -5.533146,-75.45873 0.164888,-3.757142 6.054572,-8.220069 5.533146,-12.167435 -0.24057,-1.821199 -4.670983,8.266076 -4.671849,2.920873 -0.005,-31.165412 -1.751941,-110.40897 -1.751941,-110.40897"
         id="path37951"
         sodipodi:nodetypes="csssccssssssscsssssssssssssscssssc" />
      <path
         id="path26394"
         style="opacity:0.603248;fill:#ca9b59;fill-opacity:1;stroke:none;stroke-width:1.55604"
         d="m -63.897847,-18.046312 c 0,0 0.390141,18.46528988 0.769723,38.325309 11.005992,5.645054 14.149048,-5.951212 16.696808,-6.867282 0.630212,0 3.346262,0.660313 6.035874,1.467612 2.689611,0.807302 6.924169,1.861952 9.409743,2.343526 4.407019,0.853845 4.455054,0.968608 1.942909,4.629692 -2.057988,2.999227 -2.205595,4.415269 -0.734597,7.03988 1.496056,2.669334 1.355436,3.62431 -0.749061,5.093745 -2.836946,1.980869 -3.495039,5.274614 -1.053848,5.274614 2.261412,0 4.310024,-4.423394 5.63293,-12.164115 1.382364,-8.088588 4.095242,-13.529739 9.547157,-19.1471518 2.191419,-2.2579436 4.00721,-5.2028865 4.03511,-6.5443034 0.02785,-1.34141761 1.027367,-3.6685415 2.220835,-5.1712606 6.9064402,-3.2148867 0.3504172,-8.0686502 -3.375419,-14.2802652 z m 423.193097,0 -137.44063,0.826306 h -56.5406 c -0.008,6.929389 -1.89316,13.112347 6.17276,11.7279665 3.07494,-0.5508495 8.01474,-0.5674619 10.97761,-0.03669 4.17394,0.747721 5.21854,1.5809328 4.63849,3.6989991 -0.92579,3.380577 2.38791,5.6565316 3.65283,2.50889084 0.51795,-1.28884971 1.96822,-1.89575204 3.3341,-1.39526381 1.3296,0.48721196 2.90059,0.13957803 3.49061,-0.77204593 0.71506,-1.1047675 3.18347,-1.2314666 7.40279,-0.3808553 3.48166,0.7019033 8.97735,1.71389331 12.21227,2.24895833 4.04138,0.66845607 6.2131,1.97066587 6.94145,4.16201997 0.8376,2.5200229 1.35791,2.7479061 2.47861,1.0872721 1.03114,-1.5279259 1.74414,-1.6243911 2.6124,-0.3539837 0.65688,0.9610715 2.98571,1.9876077 5.17523,2.2809978 2.43862,0.3267694 3.98833,1.5254857 4.00102,3.0943851 0.0262,3.359909 6.46203,10.363708 9.5234,10.363708 1.31948,0 2.39906,0.942388 2.39906,2.094447 0,3.848669 3.77414,5.104932 11.94313,3.974949 4.37901,-0.605734 6.68953,-1.193088 5.13441,-1.30483 -2.64413,-0.189986 -2.66275,-0.507119 -0.28774,-4.892725 2.47903,-4.577702 2.73668,-4.66476 10.78904,-3.626652 8.41091,1.084334 13.04189,2.791683 16.48036,6.075083 2.24051,2.139479 19.63621,2.667293 19.63621,0.595828 0,-0.767636 1.07503,-1.39578 2.38873,-1.39578 1.3137,0 2.38821,-1.02602 2.38821,-2.280481 0,-1.254461 0.71684,-2.280997 1.59266,-2.280997 0.87581,0 1.59214,0.684014 1.59214,1.52032 0,0.836308 0.84495,1.520838 1.87729,1.520838 3.52099,0 12.19283,10.509128 11.31546,13.712857 -0.96464,3.522384 -3.63838,4.060444 -3.63838,0.732255 0,-1.254461 -0.7163,-2.280996 -1.59212,-2.280996 -0.87581,0 -1.59266,-1.731846 -1.59266,-3.848862 0,-4.783027 -4.15335,-6.521548 -7.63576,-3.196186 -2.42071,2.311514 -2.35355,2.666871 0.91952,4.856033 1.9679,1.316204 3.53144,3.966914 3.53144,5.987233 0,4.479792 2.56434,6.189421 5.63448,3.756358 1.27069,-1.007115 3.79157,-1.46118 5.60143,-1.00924 3.82511,0.95518 6.09369,-2.769904 3.30723,-5.430676 -0.9921,-0.947354 -1.80394,-3.359721 -1.80394,-5.360397 0,-2.000671 -1.49458,-5.451875 -3.32119,-7.669298 -3.15427,-3.829185 -3.17448,-4.07009 -0.39828,-4.801258 1.60765,-0.423408 2.99493,-1.625251 3.08251,-2.670638 0.36826,-4.3958485 0.7865,-4.9418162 3.78506,-4.9418162 1.73144,0 4.34512,1.7450222 5.8086,3.8777992 1.46342,2.132769 3.55087,3.55182 4.63849,3.153296 7.92262,4.440471 -1.46838,27.086116 7.79227,14.555182 z m -3.54847,5.9061 c 0.2252,-0.0218 0.36667,-0.0072 0.40293,0.04961 0.14499,0.227038 -0.0282,4.0052582 -0.38487,8.3958699 -0.62296,7.6686593 -2.13524,9.8407006 -4.40755,6.3298462 -0.58845,-0.9091721 -0.27259,-2.41483518 0.70205,-3.34553246 2.6646,-2.54440584 2.13168,-6.70177914 -1.0146,-7.91579574 -2.43792,-0.9407001 -2.30921,-1.2507396 1.02751,-2.4763349 1.5733,-0.577887 2.99893,-0.972271 3.67453,-1.037663 z m -395.345119,4.9537023 c 0.99928,0.028487 1.704757,0.3935859 1.704757,0.9653156 0,0.7623067 -1.039492,1.3859621 -2.309688,1.3859621 -1.270194,0 -3.039609,1.1972827 -3.932306,2.6608193 -1.449522,2.3764296 -1.62843,2.29525491 -1.671695,-0.7601603 -0.02664,-1.8816897 0.488941,-3.4737664 1.145803,-3.5377684 0.656861,-0.063983 2.448726,-0.3451137 3.981384,-0.625285 0.383167,-0.070041 0.748652,-0.098379 1.081745,-0.088883 z M 339.3527,-6.7482936 c 3.73061,0.050054 6.832,0.4886309 7.20492,1.4216187 1.06158,2.6559272 -2.76562,5.04510517 -6.5628,4.0969076 -1.82613,-0.4560105 -3.8016,-0.085442 -4.39002,0.82372223 -2.35393,3.63699977 -10.43621,0.66071194 -10.43621,-3.84317633 0,-1.5862832 7.96643,-2.582495 14.18411,-2.4990722 z m -40.48902,0.359668 c 3.7018,-0.080366 7.04269,0.5607897 6.30192,1.7053221 -0.78703,1.2159763 -0.18953,1.2159763 2.18984,0 1.79973,-0.9197467 6.00691,-1.5701809 9.34879,-1.4448729 5.42079,0.2032566 5.56118,0.300187 1.30385,0.8976196 -2.62456,0.3683098 -5.1597,1.2692166 -5.63393,2.0019449 -0.47425,0.7327199 -4.80081,1.7743694 -9.61432,2.31458746 -6.76239,0.75893137 -9.20095,0.46521556 -10.72811,-1.29191066 -1.60487,-1.8465435 -1.49553,-2.4506687 0.58272,-3.212207 1.67724,-0.6145845 4.02816,-0.922264 6.24924,-0.9704835 z m -24.85897,0.2139405 c 1.15446,0.00556 2.25205,0.1042625 3.01326,0.2945556 1.52247,0.3805772 -0.0984,0.6783842 -3.60169,0.6614583 -3.50322,-0.016872 -4.74868,-0.3282452 -2.76789,-0.6919473 0.99038,-0.1818378 2.20182,-0.2696308 3.35632,-0.2640666 z m 26.48209,8.9420898 c 1.3137,0 2.38875,0.6845335 2.38875,1.5208372 0,0.8363106 -1.07505,1.5203207 -2.38875,1.5203207 -1.31371,0 -2.38871,-0.6840101 -2.38871,-1.5203207 0,-0.8363037 1.075,-1.5208372 2.38871,-1.5208372 z m 29.30118,3.512447 c 0.70536,-0.036234 1.3794,0.070541 1.89381,0.3741375 0.7968,0.4702228 1.44854,1.4986995 1.44854,2.2856483 0,1.8221855 -5.89044,1.8798855 -7.06235,0.069247 -0.79316,-1.2255071 1.60386,-2.6203294 3.72,-2.7290328 z m -69.56236,1.151351 c 1.20163,0.013661 2.87002,0.8280318 4.73611,2.4406783 2.82082,2.437659 2.69381,2.625939 -3.05979,4.539258 -7.62819,2.536711 -7.20302,2.576224 -10.38093,-0.967902 -1.48416,-1.655196 -3.72085,-2.634903 -4.97013,-2.177126 -2.73148,1.000884 -4.95034,-1.7857577 -2.54991,-3.2023888 0.92846,-0.5479388 2.70048,-0.1943107 3.93747,0.7859993 1.23698,0.9803025 3.02832,1.3223085 3.98088,0.7601585 0.95252,-0.5621469 2.77527,-0.1947333 4.05059,0.815972 1.86813,1.480474 2.319,1.358101 2.319,-0.6294195 0,-1.5914209 0.73505,-2.3788902 1.93671,-2.3652298 z m 31.6377,6.7515263 c 0.98162,-0.08562 1.90852,0.215617 2.29678,0.815454 0.51764,0.79978 -0.53432,1.454174 -2.33759,1.454174 -3.84492,0 -4.23286,-0.845407 -0.94123,-2.051553 0.32141,-0.117776 0.65484,-0.189534 0.98204,-0.218075 z m -9.0631,15.955098 c -2.75686,0 -2.94225,4.060102 -0.22784,4.989877 1.09477,0.374981 2.49698,0.410107 3.11558,0.07803 1.83973,-0.987602 -0.48536,-5.067908 -2.88774,-5.067908 z m 13.70571,3.040642 c -0.87579,0 -1.59266,0.68453 -1.59266,1.520838 0,0.836305 0.71687,1.520319 1.59266,1.520319 0.87583,0 1.59216,-0.684014 1.59216,-1.520319 0,-0.836308 -0.71633,-1.520838 -1.59216,-1.520838 z m -31.05137,16.726627 c -1.41708,0 -2.13394,0.684014 -1.59266,1.52032 0.54129,0.836308 1.25813,1.520322 1.59266,1.520322 0.33451,0 1.05088,-0.684014 1.59213,-1.520322 0.5413,-0.836306 -0.17504,-1.52032 -1.59213,-1.52032 z M -2.7275377,75.754163 c -1.5439062,0 -3.632782,1.729973 -4.6415872,3.844211 -1.0088183,2.114237 -2.9152891,4.240098 -4.2365811,4.724259 -1.369632,0.501875 -2.334044,2.608215 -2.243563,4.899443 l 0.158594,4.018876 1.274951,-3.801319 c 1.06555,-3.177122 1.306931,-3.302379 1.469192,-0.760677 0.179891,2.818032 0.425301,2.762379 3.3485549,-0.760159 1.7350759,-2.090767 4.1723057,-5.683128 5.4159619,-7.982977 2.05318738,-3.796871 2.00336432,-4.181657 -0.5455225,-4.181657 z m -31.9812473,6.082318 c -0.875806,0 -1.592655,0.68453 -1.592655,1.520836 0,0.836308 0.716849,1.520322 1.592655,1.520322 0.875806,0 1.592139,-0.684014 1.592139,-1.520322 0,-0.836306 -0.716333,-1.520836 -1.592139,-1.520836 z m 18.710488,14.246159 c -0.331746,-0.01508 -0.928848,0.489045 -1.990433,1.502749 -1.313713,1.254461 -2.305863,3.527061 -2.204304,5.050341 0.169658,2.54368 0.24451,2.55243 0.913337,0.10852 0.400521,-1.46355 1.39219,-2.66082 2.203786,-2.66082 0.811584,0 1.475389,-1.075321 1.475389,-2.38952 0,-1.061979 -0.06603,-1.596189 -0.397775,-1.61127 z m -23.821143,2.806547 c -2.393998,0.14936 -2.212859,2.640603 -1.258938,9.371003 0,1.98837 -1.075016,4.46708 -2.388726,5.50819 -3.142202,2.49017 -3.142202,9.12348 0,9.12348 1.332339,0 2.388726,-1.35398 2.388726,-3.06183 0,-1.68397 0.664029,-4.24979 1.475906,-5.70198 0.811878,-1.45218 1.840637,-3.77903 2.285926,-5.17023 0.647576,-2.02322 2.141148,-2.35854 7.463219,-1.6769 6.37314,0.81626 6.578021,0.71712 4.860627,-2.34714 -1.055779,-1.88374 -4.076624,-3.60822 -7.346989,-4.19406 -3.680027,-1.186641 -6.043353,-1.94015 -7.479751,-1.850533 z m 4.326983,339.110573 c -0.442271,-0.0939 -1.302242,0.052 -2.600013,0.43355 -2.080244,0.61166 -3.899655,1.19853 -4.043375,1.30381 -0.143719,0.10517 -0.501886,5.83554 -0.79607,12.73461 -0.294184,6.89911 -1.072693,12.54453 -1.729553,12.54498 -0.656862,0 -1.193847,2.01303 -1.193847,4.47259 -7.465346,8.54975 -7.64777,30.68246 -1.538931,36.63548 5.050221,4.93329 5.782096,7.45181 2.951297,10.15495 -2.124517,2.02869 -0.542548,4.99814 2.662521,4.99814 1.560798,0 2.29419,1.70209 2.29419,5.32217 0,3.71689 -0.720002,5.32162 -2.38821,5.32162 -1.326985,0 -2.388726,1.35165 -2.388726,3.04117 1.2e-5,1.67262 -0.716334,3.04115 -1.592141,3.04115 -0.875807,0 -0.575383,-2.2324 -1.592657,-4.47156 -6.517312,-14.34563 -11.115116,-5.71868 -13.979527,1.3255 -0.431898,3.83559 -0.943473,7.69208 -1.594206,11.58587 -1.039208,6.21829 12.345784,7.03043 30.380842,6.16498 3.334339,-3.68552 1.231035,-10.90459 1.824608,-12.65246 0.409886,-1.01999 0.0098,-2.28893 -0.889058,-2.81945 -3.632036,-2.14347 -4.107252,-7.44572 -1.212443,-13.53095 2.840933,-5.97199 3.960821,-19.4206 2.019362,-24.25176 -0.531599,-1.32289 -2.322949,-2.40501 -3.980867,-2.40501 -3.54159,0 -3.724255,-1.25947 -0.729429,-5.03124 1.648282,-2.07589 1.80289,-4.06836 0.629728,-8.12559 -0.854906,-2.9564 -1.197623,-5.71595 -0.761459,-6.13243 0.436164,-0.41648 -0.460755,-3.60268 -1.993017,-7.0802 -1.782963,-4.04654 -2.3705,-7.69107 -1.631917,-10.12394 0.634729,-2.09076 1.225848,-5.99882 1.313179,-8.68421 0.09475,-2.91457 1.563235,-6.13232 3.643533,-7.98298 3.029682,-2.69528 3.121269,-3.10007 0.702047,-3.10007 -1.62929,0 -2.330778,-0.69802 -1.692874,-1.68362 0.373856,-0.57761 0.349284,-0.91123 -0.09299,-1.0051 z M 337.1334,468.66764 c -0.30132,-0.0385 -0.6076,0.0269 -0.91487,0.20825 -0.90562,0.53449 -0.54824,2.24034 0.87615,4.18219 2.86433,3.90499 3.20392,7.81582 0.5424,6.2451 -1.26397,-0.74594 -1.52607,-0.26083 -0.81465,1.50947 0.57988,1.44301 0.39437,2.22298 -0.41537,1.74511 -2.9191,-1.72275 -3.69708,2.73421 -0.82705,4.73821 1.61494,1.12761 2.39893,2.05053 1.74194,2.05053 -0.65697,0 -0.75153,0.68402 -0.21024,1.52032 1.53937,2.37839 7.16566,1.78157 7.16566,-0.76018 0,-1.25444 -0.71683,-2.281 -1.59266,-2.281 -0.8758,0 -1.59212,-3.12406 -1.59212,-6.94219 0,-6.56799 -1.85,-11.94583 -3.95919,-12.21581 z m -11.22195,7.69617 c -0.28801,-0.10244 -0.49127,0.77029 -0.49127,2.33837 0,2.09079 0.36157,2.94605 0.8033,1.90066 0.44173,-1.04537 0.44173,-2.75593 0,-3.80132 -0.11043,-0.26136 -0.21601,-0.40355 -0.31203,-0.43771 z m -341.909747,2.0464 c -4.44038,0.8205 -3.441144,9.17178 2.017812,16.86459 3.654957,5.15062 4.3335576,7.16362 2.951298,8.75401 -1.177934,1.35533 -1.423439,5.2026 -0.713932,11.19103 0.835669,7.0532 0.520352,9.88999 -1.388087,12.49174 -1.358061,1.85145 -2.469316,4.76017 -2.469316,6.46369 0,1.70352 -1.412708,3.94026 -3.139852,4.97025 -1.727146,1.02995 -2.76179,2.81525 -2.29884,3.96719 -4.734931,0.95809 -4.427724,2.44616 -4.092968,9.06198 8.161271,-0.53512 16.8614098,-1.2546 25.50523739,-1.93839 -0.26318379,-0.80346 -0.33228328,-1.92362 -0.18339073,-3.869 0.52767154,-6.89457 1.36253104,-8.98472 4.16787284,-8.924 0.4007638,0.009 0.842141,0.0616 1.3281625,0.15036 2.0996513,0.38328 4.602603,2.3427 5.562675,4.35478 0.960059,2.01208 2.759137,3.65871 3.997913,3.65871 1.238789,-2e-5 2.665172,1.026 3.169299,2.28047 0.174588,0.43445 0.23571,0.79195 0.185974,1.08934 6.54835,-0.35213 12.700938,-0.54303 17.945414,-0.37414 4.472694,0.14404 8.877266,0.69905 13.276958,1.35702 3.170264,-6.62207 -2.577573,-13.47587 -9.945966,-15.49826 -2.097685,-0.5066 -4.654073,-2.91925 -5.849901,-5.52111 -1.646824,-3.58318 -3.137508,-4.62143 -6.635123,-4.62143 -5.435175,0 -6.231986,-1.66264 -5.185562,-10.81847 0.885265,-7.74573 -0.70892,-9.77376 -6.576747,-8.36745 -2.990221,0.71666 -3.497265,1.66783 -2.913586,5.46529 0.906163,5.89569 -2.021409,5.98398 -4.1601231,0.1256 -1.1413888,-3.12669 -1.1198774,-4.63518 0.072321,-5.0147 1.2017256,-0.38251 1.1858506,-1.46944 -0.054758,-3.68298 -1.392009,-2.48367 -1.0993577,-4.37655 1.3999678,-9.0506 1.7381713,-3.25059 2.9074803,-6.93676 2.5984643,-8.19123 -0.364642,-1.48032 -1.355281,-0.67961 -2.8226641,2.281 -3.8427706,7.75319 -12.1510536,16.41697 -14.4449797,15.06315 -0.74318,-0.43857 -1.3514064,-3.18336 -1.3514064,-6.09936 0,-7.17571 -6.2819578,-18.29726 -9.9521668,-17.61908 z M 356.7903,491.98148 c -4.9784,-0.58229 -4.34498,6.03517 -7.62388,9.18805 -2.94894,2.81594 -5.41026,4.01482 -6.69145,3.25872 -1.11446,-0.65784 -2.61283,-0.85027 -3.32942,-0.42736 -0.7166,0.42291 -3.49301,-0.99094 -6.16968,-3.14139 -6.41806,-5.15689 -8.54697,-4.94329 -14.42173,1.44589 -4.56541,4.9652 -5.07687,5.15924 -7.00966,2.66081 -3.89571,-5.03576 -7.20114,2.28753 -4.7759,10.58127 0.66795,2.28431 0.53923,6.73195 -0.28568,9.88364 l -1.49966,5.7304 -2.83299,-5.48545 c -1.87369,-3.62786 -5.10426,-6.53949 -9.53787,-8.59639 -5.03523,-2.33595 -7.08873,-4.3769 -8.24947,-8.19896 -1.27222,-4.18907 -2.2362,-5.01348 -5.45006,-4.66175 -8.26309,0.90435 -10.7165,1.92059 -11.49419,4.76044 -1.23869,4.52302 4.44424,12.29847 8.98869,12.29847 4.64188,0 5.89569,2.62652 4.67725,9.7963 -0.98515,5.79708 -5.27958,7.63942 -5.27958,2.26499 0,-3.13203 -0.0201,-3.13131 -4.94845,0.21961 -4.25568,2.89359 -4.82961,4.06175 -4.10122,8.34781 0.60919,3.58479 0.17399,5.2305 -1.55134,5.86269 -1.3192,0.4834 -2.51935,0.7792 -2.66665,0.65786 -4.87126,-1.43311 -3.2594,1.12316 -2.32621,5.02656 h 99.0841 v -46.19564 c -0.063,-4.95218 -0.16084,-9.8356 -0.28671,-14.63786 -0.82869,-0.32568 -1.58846,-0.56505 -2.21824,-0.63871 z m -17.7925,16.24447 c 0.42158,0.0595 0.98589,0.32072 1.72645,0.69918 1.72382,0.88096 3.5869,1.16996 4.13999,0.64183 0.55303,-0.52811 1.02466,0.35097 1.04814,1.95389 0.0254,1.71937 2.56968,4.40246 6.20534,6.54275 6.73429,3.96447 6.9653,5.29532 4.05524,23.36189 -0.63984,3.97246 -1.96581,7.13277 -2.94664,7.02281 -0.98086,-0.10988 -6.79968,-0.80872 -12.93032,-1.55287 -6.13066,-0.74411 -14.16063,-1.01335 -17.84468,-0.5984 -7.58208,0.85394 -10.92393,-1.62589 -4.11518,-3.05356 7.33867,-1.53879 8.46968,-2.0429 9.11529,-4.06437 0.33992,-1.06434 1.5601,-5.20224 2.71158,-9.1953 1.70029,-5.89611 2.69934,-7.18161 5.31729,-6.84247 2.94619,0.38166 3.17562,-0.28144 2.66667,-7.7003 -0.39476,-5.75427 -0.41396,-7.39357 0.85083,-7.21508 z M 3.1228795,510.90797 c 1.0318082,-0.20545 1.9775206,1.79637 1.9775206,6.17689 0,5.18509 -0.9019515,7.51329 -3.9808665,10.27533 l -3.980869,3.57137 v -3.30626 c 2.6e-6,-1.8184 0.6752601,-3.30626 1.5007035,-3.30626 0.82544612,0 1.72113697,-2.85504 1.99043326,-6.34434 0.34337624,-4.44865 1.46129644,-6.8613 2.49307814,-7.06673 z m 308.3327505,0.30851 c 0.57102,0.0241 0.97377,0.63082 0.97377,1.60869 0,1.30379 -0.71631,2.37038 -1.59214,2.37038 -0.87579,0 -1.59266,-0.64344 -1.59266,-1.43039 0,-0.78695 0.71687,-1.85405 1.59266,-2.37091 0.21895,-0.12922 0.42804,-0.18582 0.61837,-0.17777 z m -258.489776,3.97907 c -2.007954,0 -3.446018,2.37463 -2.173823,3.58947 1.793322,1.71217 3.672458,1.04296 3.672458,-1.30847 0,-1.25445 -0.674514,-2.281 -1.498635,-2.281 z m -98.915189,7.60317 c -0.927489,0 -1.243848,0.684 -0.702567,1.52032 0.541284,0.8363 1.300457,1.52083 1.686677,1.52083 0.38622,0 0.702051,-0.68453 0.702051,-1.52083 0,-0.83632 -0.758659,-1.52032 -1.686161,-1.52032 z m 206.807735,0.42013 v 0 c -2.22813,0.14303 -4.48197,2.01478 -4.48197,4.30001 0,3.66678 1.94781,3.66257 5.43043,-0.0124 1.59915,-1.68735 2.09297,-3.2716 1.18662,-3.80648 -0.65265,-0.38515 -1.39238,-0.5293 -2.13508,-0.48162 z m -33.15341,0.39944 c -1.24061,0.12624 -2.56511,1.07556 -2.90066,2.73937 -0.40981,2.03208 0.23847,2.65165 2.36651,2.26033 1.6122,-0.29646 2.93167,-1.55628 2.93167,-2.79932 0,-1.62964 -1.15689,-2.32661 -2.39752,-2.20038 z m 86.9039,0.70075 c -3.33243,0 -4.09143,0.72512 -4.09143,3.90724 0,3.18214 0.66458,3.81672 3.58257,3.42098 2.30254,-0.31224 3.76491,-1.70807 4.09193,-3.90673 0.41441,-2.78641 -0.25066,-3.42149 -3.58307,-3.42149 z m -115.159987,3.95375 c -1.094739,0.0836 -3.065447,0.25437 -4.37916,0.37984 -1.422511,0.13581 -2.388208,1.76577 -2.388208,4.02971 0,3.04112 -0.796111,3.80132 -3.980866,3.80132 -2.924974,0 -3.981385,-0.81018 -3.981385,-3.05406 0,-2.68388 -0.391893,-2.82221 -3.233357,-1.14051 -2.647268,1.5667 -3.485276,1.5263 -4.625059,-0.22273 -11.180386,-8.6763 -3.26789,14.56555 -1.876782,20.78736 12.427084,0.0552 29.149804,-3.93359 37.480384,-2.79054 2.38386,0.32711 1.87528,-4.01306 0.95828,-8.41496 -0.9785,-0.44209 -2.39253,-0.73126 -4.41945,-0.89144 -5.66627,-0.4478 -6.01239,-0.78271 -6.7679,-6.55412 -0.46774,-3.57304 -1.61718,-6.01927 -2.786497,-5.92987 z m -80.590596,3.64887 c 6.382438,0 9.99415,3.13412 10.077183,8.74366 0.03232,2.18416 1.058639,3.45966 2.837647,3.52795 2.3829,0.0914 2.325029,0.29641 -0.398293,1.41388 -3.533549,1.44968 -3.624011,1.4555 -7.563958,0.47231 -1.532668,-0.38246 -2.786502,-1.32977 -2.786502,-2.10479 0,-0.77496 -0.959884,-1.40869 -2.133015,-1.40869 -2.008903,0 -5.828721,-6.02636 -5.828721,-9.1953 0,-0.79696 2.607933,-1.44902 5.795659,-1.44902 z m 152.811863,0.0951 c -1.43348,0.0385 -3.12449,0.23945 -5.10239,0.59378 -5.36466,0.96102 -7.85128,5.39345 -3.02568,5.39345 1.31372,0 2.38872,0.99571 2.38872,2.21229 0,2.48626 -7.91598,4.36104 -19.10877,4.5253 -7.14889,0.1049 -7.16567,0.0926 -7.16567,-5.21674 0,-5.06854 -0.26507,-5.32217 -5.573,-5.32217 -4.52951,0 -5.5636,0.56962 -5.52032,3.04117 0.0663,3.78923 -2.0234,5.26899 -7.4844,5.29889 -1.27285,0.007 -2.49605,0.27951 -3.44516,0.68421 1.37637,3.17683 2.72531,5.49349 6.14229,5.89783 14.98626,1.77332 57.27622,3.93388 81.56129,2.0443 5.99434,-0.4664 11.33078,-5.00258 17.34306,-4.95678 6.10374,0.0464 11.63735,3.88699 17.43396,5.95209 11.45381,-10.50091 -12.5509,-9.54227 -22.12876,-9.59839 -6.55148,0 -7.46788,-0.39667 -7.46788,-3.22977 0,-3.45694 -1.95631,-3.4939 -24.14814,-0.46046 -6.95373,0.95055 -7.46184,0.78629 -7.96173,-2.57346 -0.45454,-3.05488 -2.43694,-4.40119 -6.73742,-4.28554 z m -181.697167,2.94608 c 1.3137104,0 2.3887266,0.60087 2.3887266,1.3348 0,0.7339 -1.0750162,2.18607 -2.3887266,3.2272 -1.995572,1.58147 -2.388727,1.36202 -2.388727,-1.33429 0,-1.855 1.01581,-3.22771 2.388727,-3.22771 z m -34.497058,4.76663 c 1.025903,-0.046 2.009904,0.32766 2.594848,1.23145 0.571265,0.8826 -0.07849,1.60507 -1.443878,1.60507 -1.365406,0 -2.48223,0.684 -2.48223,1.52032 0,0.8363 -0.653317,1.52083 -1.451627,1.52085 -0.798307,0 -1.268233,-1.19779 -1.044034,-2.66134 0.290671,-1.89746 2.117084,-3.13978 3.826921,-3.21635 z m 325.942385,1.59319 c 0.84359,0.0217 1.78855,0.13967 2.89549,0.33795 5.95277,1.06638 9.90058,4.37684 8.25415,6.92102 -1.20669,1.86439 -21.54041,2.17708 -21.54041,0.33126 0,-0.69053 1.75148,-2.82622 3.89201,-4.74649 2.3489,-2.10714 3.96799,-2.90907 6.49876,-2.84374 z m -97.97138,4.47 c 1.01017,0 2.02017,0.0956 2.78651,0.28681 1.53265,0.38248 0.27882,0.69506 -2.78651,0.69506 -3.06532,0 -4.31916,-0.31258 -2.7865,-0.69506 0.76634,-0.19124 1.77634,-0.28681 2.7865,-0.28681 z" />
    </g>
  </g>
</svg>
